<svg xmlns="http://www.w3.org/2000/svg" width="113.325" height="97.038" viewBox="0 0 113.325 97.038">
  <g id="_x31__8_" transform="translate(0 0)">
    <path id="Path_1650" data-name="Path 1650" d="M767.776,916.212c-.946,4.232-2.341,8.959-3.422,13.237-1.125,4.187-2.3,8.419-3.512,12.606-.585,2.251-4.142,1.576-3.917-.72,1.081-8.374,2.071-17.514,2.927-25.933C760.3,910.224,768.361,911.079,767.776,916.212Z" transform="translate(-696.096 -848.169)" fill="#ed7e97"/>
    <path id="Path_1651" data-name="Path 1651" d="M870.864,941.258a2.008,2.008,0,0,1-3.917.54c-1.216-4.187-2.386-8.374-3.512-12.606-1.081-4.052-2.3-8.6-3.332-12.651-1.306-5.448,7.2-6.979,7.834-1.4C868.793,923.7,869.828,932.793,870.864,941.258Z" transform="translate(-824.171 -847.957)" fill="#ed7e97"/>
    <path id="Path_1652" data-name="Path 1652" d="M876.207,921.511l.405,3.737c-4.682,1.576-6.618-.18-6.618-.18l-.63-2.3c-.54-2.116-1.125-4.187-1.666-6.3a4,4,0,1,1,7.744-1.981,2.286,2.286,0,0,1,.09.585v.045Z" transform="translate(-831.766 -847.841)" fill="#e26988"/>
    <path id="Path_1653" data-name="Path 1653" d="M765.956,915.925a2.627,2.627,0,0,1-.09.585c-.54,2.116-1.081,4.232-1.666,6.3a7.514,7.514,0,0,1-7.249,1.891l.45-3.152.675-6.438h0a3.96,3.96,0,1,1,7.879.811Z" transform="translate(-694.276 -847.882)" fill="#e26988"/>
    <path id="Path_1654" data-name="Path 1654" d="M763.416,1028.6h0c-.946,2.251-11.8,3.242-12.2-1.08v-.45h0c0-.135.045-.27.045-.405a.166.166,0,0,1,.045-.135l2.3-.72,2.206-.675h.045c.72.045,7.159.45,7.609,3.016A.739.739,0,0,1,763.416,1028.6Z" transform="translate(-690.385 -933.9)" fill="#ed7e97"/>
    <path id="Path_1655" data-name="Path 1655" d="M760.584,992.645h0a19.356,19.356,0,0,0-7.879-2.341c-.135,0-.27-.045-.405-.045a1.213,1.213,0,0,1-.99-1.666l4.863-10.94-.405,1.576c-.9,3.332-1.8,6.663-2.746,10,.72.045,7.159.45,7.609,3.017A.638.638,0,0,1,760.584,992.645Z" transform="translate(-687.553 -897.948)" fill="#f490aa"/>
    <path id="Path_1656" data-name="Path 1656" d="M872.271,1027.2a3.466,3.466,0,0,1-.09.675c-1.036,4.187-12.606,2.746-12.2.27.45-2.521,6.888-2.971,7.609-3.017h.045l1.621.5,2.881.856a.341.341,0,0,0,.045.18,1.122,1.122,0,0,1,.045.36h0v.045a.163.163,0,0,1,.045.135Z" transform="translate(-825.578 -933.899)" fill="#ed7e97"/>
    <path id="Path_1657" data-name="Path 1657" d="M881.133,989.392a.648.648,0,0,1-.63.9h-.675a20.166,20.166,0,0,0-8.014,1.576c.45-2.521,6.888-2.971,7.609-3.017-.946-3.332-1.846-6.663-2.746-9.995l-.405-1.576,4.863,12.111Z" transform="translate(-837.367 -897.666)" fill="#f490aa"/>
    <path id="Path_1658" data-name="Path 1658" d="M872.551,1036.44c-1.036,4.187-12.606,2.746-12.2.27C860.4,1036.709,866.924,1038.78,872.551,1036.44Z" transform="translate(-825.949 -942.464)" fill="#e26988"/>
    <path id="Path_1659" data-name="Path 1659" d="M763.677,1035.9c-.946,2.251-11.8,3.242-12.2-1.125h.09S756.068,1037.745,763.677,1035.9Z" transform="translate(-690.646 -941.202)" fill="#e26988"/>
    <path id="Path_1660" data-name="Path 1660" d="M749.591,939.97a.254.254,0,0,1,0-.041l0-.015q.013-.161.042-.325c.573-4.43,1.179-8.776,1.574-12.507l.72-6.438.675-6.483a4.39,4.39,0,1,1,8.734.9c-.045.18-.09.405-.135.63-.54,2.161-1.126,4.232-1.666,6.348l-1.666,6.3c-.69,2.59-1.7,5.96-2.691,9.447,1.825.14,7.075.737,7.508,3.3.045.405-.045.99-.946,1.576a11.763,11.763,0,0,1-5.763,1.261,9.035,9.035,0,0,1-5.042-1.261A2.9,2.9,0,0,1,749.591,939.97Zm1.844,2.059c2.341,1.621,7.924,1.125,9.86-.09.315-.18.63-.45.585-.765-.36-1.936-5.358-2.566-7.294-2.656a.382.382,0,0,1-.338-.276.152.152,0,0,1-.022-.13.312.312,0,0,1,.043-.151c1.024-3.6,2.128-7.136,2.838-9.844l1.666-6.3c.585-2.071,1.126-4.187,1.666-6.3a2.258,2.258,0,0,0,.09-.54,3.6,3.6,0,0,0-7.159-.72l-.675,6.438-.72,6.438c-.405,3.782-.9,7.879-1.486,12.426A2.221,2.221,0,0,0,751.435,942.029Z" transform="translate(-689.21 -846.883)" fill="#bf4b6f"/>
    <path id="Path_1661" data-name="Path 1661" d="M858.3,940.872c.471-2.551,5.659-3.152,7.492-3.294-.993-3.5-1.937-6.94-2.63-9.583l-1.666-6.3c-.585-2.071-1.125-4.187-1.666-6.3a4.414,4.414,0,0,1,3.151-5.358,4.363,4.363,0,0,1,5.358,3.152,3.153,3.153,0,0,1,.135.63l.675,6.483.72,6.438c.406,3.827.893,8.059,1.478,12.606h0a2.959,2.959,0,0,1-1.3,3.106,9.049,9.049,0,0,1-5,1.216,13.289,13.289,0,0,1-5.808-1.216C858.342,941.863,858.207,941.278,858.3,940.872Zm1.4.854c1.891,1.261,7.519,1.756,9.86.09a2.246,2.246,0,0,0,.946-2.476c-.585-4.547-1.036-8.69-1.441-12.517l-.765-6.393-.675-6.483V913.9a2.33,2.33,0,0,0-.09-.5,3.758,3.758,0,0,0-1.666-2.206,3.534,3.534,0,0,0-2.7-.405,3.591,3.591,0,0,0-2.566,4.367c.54,2.116,1.125,4.187,1.666,6.3l1.666,6.3c.707,2.695,1.76,6.343,2.778,9.924a.393.393,0,0,1,.059.206.326.326,0,0,1,.006.079.351.351,0,0,1-.367.326c-1.891.045-6.933.72-7.294,2.656C859.063,941.278,859.422,941.547,859.693,941.727Z" transform="translate(-824.301 -846.627)" fill="#bf4b6f"/>
    <path id="Path_1662" data-name="Path 1662" d="M624.669,832.436c-8.464-2.836-11.706-8.824-12.876-13.372a24.8,24.8,0,0,1-.72-7.564,6.583,6.583,0,0,1,.18-1.531l.63.135,4.952.855a.341.341,0,0,1-.045.18,17.839,17.839,0,0,0,.5,6.618l.135.405h0a16.325,16.325,0,0,0,.585,1.576,13.417,13.417,0,0,0,8.464,7.294c5.042,1.666,13.822.5,18.144-.36h0c.54-.09.99-.225,1.4-.315a2.845,2.845,0,1,1,1.306,5.538,9.489,9.489,0,0,0-.99.225h0C642.9,832.841,631.827,834.822,624.669,832.436Z" transform="translate(-542.383 -770.973)" fill="#ed7e97"/>
    <path id="Path_1663" data-name="Path 1663" d="M631.006,850.4a13.417,13.417,0,0,0,8.464,7.294c5.042,1.666,13.822.5,18.144-.36-.27.09-7.789,2.566-13.687,2.431C637.939,859.63,631.456,856.343,631.006,850.4Z" transform="translate(-555.338 -801.588)" fill="#f490aa"/>
    <path id="Path_1664" data-name="Path 1664" d="M637.967,832.436c-8.464-2.836-11.706-8.824-12.876-13.372a24.8,24.8,0,0,1-.72-7.564,6.581,6.581,0,0,1,.18-1.531l.63.135,4.907,1.08a17.84,17.84,0,0,0,.5,6.618l.135.405h0a5.336,5.336,0,0,0-1.441,6.123c1.4,4.052,8.194,10.175,30.3,7.834C656.2,832.841,645.126,834.822,637.967,832.436Z" transform="translate(-555.681 -770.973)" fill="#e26988"/>
    <path id="Path_1665" data-name="Path 1665" d="M587.185,878.664a3.619,3.619,0,0,0,.99.63,2.257,2.257,0,0,0,.585.225,8.39,8.39,0,0,0,2.656.36,13.59,13.59,0,0,0,3.422-.54,1.412,1.412,0,0,0,.99-1.756,1.38,1.38,0,0,0-1.306-1.036,1.249,1.249,0,0,0-.405.045,7.6,7.6,0,0,1-4.637.18,2.494,2.494,0,0,1-.36-.18l.045.045Z" transform="translate(-482.973 -821.388)" fill="#ed7e97"/>
    <path id="Path_1666" data-name="Path 1666" d="M606.108,865.553a1.405,1.405,0,0,0,.99,1.351,1.334,1.334,0,0,0,.45.09.88.88,0,0,0,.36-.045,1.459,1.459,0,0,0,1.036-1.4,2.626,2.626,0,0,1,.27-1.171c.135-.27.27-.5.405-.72a4.888,4.888,0,0,1,.855-.946,1.414,1.414,0,1,0-1.711-2.251h0A6.818,6.818,0,0,0,606.108,865.553Z" transform="translate(-502.706 -808.997)" fill="#ed7e97"/>
    <path id="Path_1667" data-name="Path 1667" d="M604.518,889.9a3.821,3.821,0,0,0,2.927-.045,2.585,2.585,0,0,0,1.306-1.711,1.432,1.432,0,0,0-1.125-1.666,1.4,1.4,0,0,0-1.576.855,2.966,2.966,0,0,1-1.125-.315,1.431,1.431,0,1,0-1.171,2.611C604.023,889.719,604.293,889.809,604.518,889.9Zm1.4-2.3Z" transform="translate(-499.676 -828.885)" fill="#ed7e97"/>
    <path id="Path_1668" data-name="Path 1668" d="M603.323,892.194a3.529,3.529,0,0,0,1.576-.36,2.906,2.906,0,0,0,1.486-1.981,1.674,1.674,0,0,0-.09-.946.385.385,0,0,0-.72.27,1.109,1.109,0,0,1,.045.54,1.986,1.986,0,0,1-1.081,1.4,3.255,3.255,0,0,1-2.524-.031.489.489,0,0,0-.583.346c-.09.225.093.355.318.4C601.7,891.939,602.783,892.194,603.323,892.194Z" transform="translate(-496.95 -830.55)" fill="#bf4b6f"/>
    <path id="Path_1669" data-name="Path 1669" d="M587,879.881h.09a13.59,13.59,0,0,0,3.422-.54,1.412,1.412,0,0,0,.99-1.756,1.38,1.38,0,0,0-1.306-1.036C590.285,876.729,591.5,878.755,587,879.881Z" transform="translate(-478.6 -821.389)" fill="#f490aa"/>
    <path id="Path_1670" data-name="Path 1670" d="M606.293,860.464c.315.045,1.621.5.856,3.2a4.886,4.886,0,0,1,.855-.946,1.414,1.414,0,0,0-1.711-2.251Z" transform="translate(-500.28 -808.995)" fill="#f490aa"/>
    <path id="Path_1671" data-name="Path 1671" d="M587.689,879a12.623,12.623,0,0,0,3.737-.585,1.848,1.848,0,0,0,1.261-2.251,1.835,1.835,0,0,0-2.251-1.261c-2.476.675-3.827.405-4.412.18a.34.34,0,0,0-.5.225.374.374,0,0,0,.225.53c.675.27,2.206.6,4.907-.17a1.04,1.04,0,0,1,1.261.72.908.908,0,0,1-.09.766,1.165,1.165,0,0,1-.63.5,14.341,14.341,0,0,1-3.692.54h0a.405.405,0,1,0,0,.81Z" transform="translate(-479.424 -820.092)" fill="#bf4b6f"/>
    <path id="Path_1672" data-name="Path 1672" d="M604.716,863.447c.18,0,.486-.111.531-.291a7.612,7.612,0,0,1,2.216-3.716,1.027,1.027,0,0,1,1.261,1.621,5.535,5.535,0,0,0-1.4,1.8.414.414,0,1,0,.765.315,4.287,4.287,0,0,1,1.171-1.486,1.746,1.746,0,0,0,.675-1.216,1.815,1.815,0,0,0-2.926-1.666,7.8,7.8,0,0,0-2.553,4.114c-.045.225-.014.433.211.478A.044.044,0,0,0,604.716,863.447Z" transform="translate(-501.224 -807.656)" fill="#bf4b6f"/>
    <path id="Path_1673" data-name="Path 1673" d="M641.021,832.843a70.843,70.843,0,0,0,14.182-1.666.415.415,0,1,0-.18-.81c-.585.135-14.182,3.286-22.421.54-8.284-2.791-11.436-8.644-12.651-13.1a23.331,23.331,0,0,1-.675-7.429c.045-.45.09-.855.09-1.081l4.817.855a19.047,19.047,0,0,0,.54,6.618c1.306,4.682,4.457,7.879,9.41,9.545,5.718,1.936,16.208.18,19.765-.675a.415.415,0,1,0-.18-.81c-3.512.81-13.777,2.521-19.315.675-4.682-1.576-7.654-4.592-8.915-9a16.866,16.866,0,0,1-.45-6.663h0a.4.4,0,0,0-.315-.45h-.045l-5.583-.9a.769.769,0,0,0-.315.045.413.413,0,0,0-.18.27c0,.045-.09.63-.18,1.576a24.036,24.036,0,0,0,.72,7.7c1.216,4.637,4.5,10.76,13.147,13.642A28.866,28.866,0,0,0,641.021,832.843Z" transform="translate(-550.18 -769.849)" fill="#bf4b6f"/>
    <path id="Path_1674" data-name="Path 1674" d="M742.128,704.868a12.259,12.259,0,0,1-12.246,12.246h-.45a12.249,12.249,0,0,1-11.8,8.914,11.939,11.939,0,0,1-6.168-1.666,12.278,12.278,0,0,1-9.905,5.042,12.139,12.139,0,0,1-8.329-3.287A12.239,12.239,0,0,1,675.4,724.9a12.273,12.273,0,0,1-16.163-5.763,6.518,6.518,0,0,1-.405-.99h0c-.315.045-.675.135-.99.18-.45.045-.946.09-1.441.09a12.247,12.247,0,0,1-11.03-6.934,12.374,12.374,0,0,1,.36-11.391,12.141,12.141,0,0,1-2.566-7.519,12.33,12.33,0,0,1,9-11.841,11.989,11.989,0,0,1-.45-3.377,12.259,12.259,0,0,1,12.246-12.246,12.512,12.512,0,0,1,4.862.99,12.263,12.263,0,0,1,21.926-5.448h.27a12.249,12.249,0,0,1,22.781,5.088,12.241,12.241,0,0,1,16.118,11.616v.315a12.347,12.347,0,0,1,2.656.946,12.207,12.207,0,0,1,6.888,11.031,12.033,12.033,0,0,1-1.531,5.943A12.319,12.319,0,0,1,742.128,704.868Z" transform="translate(-642.804 -653.304)" fill="#fc9db8"/>
    <path id="Path_1675" data-name="Path 1675" d="M759.823,699.336a12.259,12.259,0,0,1-12.246,12.246h-.45a12.249,12.249,0,0,1-11.8,8.914,11.939,11.939,0,0,1-6.168-1.666,12.277,12.277,0,0,1-9.905,5.042,12.139,12.139,0,0,1-8.329-3.286,12.239,12.239,0,0,1-17.829-1.216,12.227,12.227,0,0,1-5.133,1.125,12.479,12.479,0,0,1-5.358-1.216c-.5-.225.045-.721-.4-.99-2.116-1.4-4.773-3.242-5.673-5.628h0a10.775,10.775,0,0,1-2.7.225,12.806,12.806,0,0,1-5.088-1.216,12.373,12.373,0,0,1,.36-11.391h0a12.141,12.141,0,0,1-2.566-7.519,12.33,12.33,0,0,1,9-11.841,11.988,11.988,0,0,1-.45-3.377A12.259,12.259,0,0,1,687.336,665.3a12.513,12.513,0,0,1,4.862.99,12.263,12.263,0,0,1,21.926-5.448h.27a12.249,12.249,0,0,1,22.781,5.088,12.241,12.241,0,0,1,16.118,11.616h0v.315a12.345,12.345,0,0,1,2.656.946,12.477,12.477,0,0,1,1.216,5.358,12.034,12.034,0,0,1-1.531,5.943A12.148,12.148,0,0,1,759.823,699.336Z" transform="translate(-666.172 -653.445)" fill="#ffa6bd"/>
    <path id="Path_1676" data-name="Path 1676" d="M780.461,677.406c-4.1-13.237-17.018-9.545-17.018-9.545a12.721,12.721,0,0,0-9.14-9.14c-7.7-2.071-12.561,4.637-12.561,4.637a13.476,13.476,0,0,0-10.805-3.647c-6.753.72-9.455,9.455-9.455,9.455a16.556,16.556,0,0,0-12.2,1.4c-6.438,3.377-4.907,12.561-4.907,12.561-12.922,6.753-8.239,16.838-8.194,16.974a12.141,12.141,0,0,1-2.566-7.519,12.33,12.33,0,0,1,9-11.841,11.99,11.99,0,0,1-.45-3.377,12.259,12.259,0,0,1,12.246-12.246,12.512,12.512,0,0,1,4.862.99,12.263,12.263,0,0,1,21.926-5.448h.27a12.249,12.249,0,0,1,22.781,5.088,12.318,12.318,0,0,1,16.208,11.661Z" transform="translate(-693.384 -653.305)" fill="#ffb8cc"/>
    <path id="Path_1677" data-name="Path 1677" d="M683.768,728.634a12.65,12.65,0,0,0,8.327-3.16,12.5,12.5,0,0,0,8.331,3.16,12.718,12.718,0,0,0,10-4.93,12.385,12.385,0,0,0,6.072,1.553,12.65,12.65,0,0,0,12.069-8.915h.177a12.647,12.647,0,0,0,8.517-21.963,12.668,12.668,0,0,0-8.108-18.125v-.03a12.6,12.6,0,0,0-16.166-12.1,12.614,12.614,0,0,0-23.137-5.242,13.267,13.267,0,0,0-10.046-4.637,12.6,12.6,0,0,0-12.39,10.214,12.935,12.935,0,0,0-4.583-.85,12.7,12.7,0,0,0-12.241,15.738,12.7,12.7,0,0,0-8.923,12.09,12.441,12.441,0,0,0,2.5,7.553,12.732,12.732,0,0,0-.257,11.512,12.533,12.533,0,0,0,11.36,7.142c.515,0,1.032-.047,1.477-.092.179-.025.355-.06.531-.1l.174-.034c.061.161.132.311.2.458.042.088.083.176.12.263a12.635,12.635,0,0,0,16.395,6.064A12.6,12.6,0,0,0,683.768,728.634Zm8.329-4.015a.363.363,0,0,0-.246.1,11.875,11.875,0,0,1-17.3-1.178.365.365,0,0,0-.433-.1,11.909,11.909,0,0,1-15.685-5.592c-.033-.078-.077-.173-.123-.269a3.6,3.6,0,0,1-.257-.65.366.366,0,0,0-.4-.272c-.164.024-.339.059-.515.094s-.324.065-.475.086c-.412.041-.907.086-1.389.086a11.808,11.808,0,0,1-10.7-6.728,12.009,12.009,0,0,1,.352-11.057.364.364,0,0,0-.032-.4,11.714,11.714,0,0,1-2.489-7.294,11.968,11.968,0,0,1,8.738-11.49.365.365,0,0,0,.252-.453,11.553,11.553,0,0,1-.436-3.275,11.9,11.9,0,0,1,11.882-11.882,12.19,12.19,0,0,1,4.72.962.364.364,0,0,0,.5-.277,11.878,11.878,0,0,1,11.752-10.049,12.474,12.474,0,0,1,9.795,4.763.364.364,0,0,0,.605-.037,11.884,11.884,0,0,1,22.1,4.936.364.364,0,0,0,.478.314,11.877,11.877,0,0,1,15.639,11.271v.315a.364.364,0,0,0,.28.354,11.947,11.947,0,0,1,2.578.917,11.919,11.919,0,0,1,5.2,16.469.364.364,0,0,0,.077.453,11.919,11.919,0,0,1-7.819,20.883h-.45a.364.364,0,0,0-.351.266,11.916,11.916,0,0,1-11.445,8.649,11.615,11.615,0,0,1-5.981-1.614.364.364,0,0,0-.481.1,11.99,11.99,0,0,1-9.612,4.894,11.769,11.769,0,0,1-8.08-3.188A.365.365,0,0,0,692.1,724.619Z" transform="translate(-641.668 -652.168)" fill="#bf4b6f"/>
    <path id="Path_1678" data-name="Path 1678" d="M798.067,828.4c.044-.009.135,0,.18-.045,4.547-2.476,3.422-6.438,2.971-7.564,3.151-2.476,4.772-5.223,4.863-8.1.135-3.872-2.521-6.8-3.422-7.7,4.637-5.268-.18-11.526-.225-11.571a.383.383,0,0,0-.585.5c.18.225,4.637,6.033.045,10.85a.278.278,0,0,0-.09.315.321.321,0,0,0,.135.27c.045.045,3.557,3.152,3.467,7.339-.09,2.746-1.711,5.313-4.773,7.7a.411.411,0,0,0-.09.5c.09.18,2.116,4.277-2.521,6.8C797.306,828.027,797.74,828.471,798.067,828.4Z" transform="translate(-744.262 -758.332)" fill="#ed7e97"/>
    <path id="Path_1679" data-name="Path 1679" d="M740.345,769.115c2.071,4.862.45,10.22-3.6,11.931s-9-.81-11.076-5.673-.45-10.22,3.6-11.931C733.276,761.731,738.274,764.252,740.345,769.115Z" transform="translate(-661.731 -735.334)" fill="#fff"/>
    <path id="Path_1680" data-name="Path 1680" d="M732.854,780.638a7.118,7.118,0,0,0,2.836-.585c4.232-1.8,5.943-7.384,3.782-12.471h0c-2.161-5.042-7.384-7.7-11.616-5.9s-5.943,7.384-3.782,12.471C725.741,778.162,729.343,780.638,732.854,780.638Zm5.853-12.7c1.981,4.637.45,9.77-3.377,11.391s-8.6-.81-10.58-5.448-.45-9.77,3.377-11.391c3.872-1.666,8.6.765,10.58,5.448Z" transform="translate(-660.499 -733.981)" fill="#bf4b6f"/>
    <ellipse id="Ellipse_21" data-name="Ellipse 21" cx="5.989" cy="5.179" rx="5.989" ry="5.179" transform="translate(69.289 44.626) rotate(-99.23)" fill="#22213f"/>
    <path id="Path_1681" data-name="Path 1681" d="M750.992,789.92a1.733,1.733,0,1,0,2.161-.765A1.611,1.611,0,0,0,750.992,789.92Z" transform="translate(-681.113 -755.104)" fill="#fff"/>
    <path id="Path_1682" data-name="Path 1682" d="M786.043,707.808c2.611.9,5.088.675,5.493-.5.405-1.216-1.351-2.927-3.962-3.827s-5.088-.675-5.493.5S783.431,706.863,786.043,707.808Z" transform="translate(-725.979 -689.921)" fill="#ed7e97"/>
    <path id="Path_1683" data-name="Path 1683" d="M787.7,707.407a2.573,2.573,0,0,0,.585-.045c1.216-.09,2.026-.585,2.251-1.306a2.385,2.385,0,0,0-.946-2.431,8.9,8.9,0,0,0-3.287-1.891,8.753,8.753,0,0,0-3.737-.54c-1.216.09-2.026.585-2.251,1.306a2.385,2.385,0,0,0,.946,2.431,8.9,8.9,0,0,0,3.286,1.891h0A9.032,9.032,0,0,0,787.7,707.407Zm-4.547-5.493a8.545,8.545,0,0,1,2.881.54,7.837,7.837,0,0,1,2.971,1.711c.63.585.9,1.171.765,1.621-.135.405-.72.72-1.576.765a8.084,8.084,0,0,1-3.422-.54h0A7.837,7.837,0,0,1,781.8,704.3c-.63-.585-.9-1.171-.766-1.621.135-.405.72-.72,1.576-.765Z" transform="translate(-724.576 -688.574)" fill="#bf4b6f"/>
    <path id="Path_1684" data-name="Path 1684" d="M846.133,735.128c2.566-1.081,4.232-2.927,3.737-4.1s-2.971-1.261-5.538-.18-4.232,2.927-3.737,4.1S843.567,736.209,846.133,735.128Z" transform="translate(-798.54 -710.488)" fill="#ed7e97"/>
    <path id="Path_1685" data-name="Path 1685" d="M841.588,735.135a9.915,9.915,0,0,0,3.512-.765h0a9.208,9.208,0,0,0,3.152-2.116,2.542,2.542,0,0,0,.81-2.521c-.315-.72-1.125-1.125-2.341-1.171a8.206,8.206,0,0,0-3.692.81,9.205,9.205,0,0,0-3.152,2.116,2.542,2.542,0,0,0-.81,2.521C839.382,734.729,840.328,735.135,841.588,735.135Zm3.2-1.531c-2.521,1.081-4.637.856-5,.045-.18-.405.045-1.036.63-1.666a8.661,8.661,0,0,1,2.881-1.891,8.153,8.153,0,0,1,3.377-.72c.856.045,1.486.27,1.621.675.18.405-.045,1.036-.63,1.666a8.218,8.218,0,0,1-2.881,1.891Z" transform="translate(-797.372 -709.323)" fill="#bf4b6f"/>
    <path id="Path_1686" data-name="Path 1686" d="M880.065,693.1a.3.3,0,0,0,.315-.18,5.993,5.993,0,0,1,7.384-2.026.4.4,0,0,0,.54-.225.411.411,0,0,0-.225-.54,6.9,6.9,0,0,0-8.329,2.3.367.367,0,0,0,.09.54C879.884,693.1,879.974,693.1,880.065,693.1Z" transform="translate(-846.429 -679.762)" fill="#ed7e97"/>
    <path id="Path_1687" data-name="Path 1687" d="M899.438,902.062h.27a.408.408,0,1,0-.09-.811h0a3.84,3.84,0,0,1-4.007-2.746.4.4,0,0,0-.765.225A4.662,4.662,0,0,0,899.438,902.062Z" transform="translate(-861.841 -837.802)" fill="#ed7e97"/>
    <path id="Path_1688" data-name="Path 1688" d="M768.055,922.052a4.852,4.852,0,0,0,3.827-2.116.394.394,0,0,0-.675-.405,3.851,3.851,0,0,1-4.637,1.441.385.385,0,1,0-.27.72A4.371,4.371,0,0,0,768.055,922.052Z" transform="translate(-702.453 -853.784)" fill="#ed7e97"/>
    <path id="Path_1689" data-name="Path 1689" d="M955.628,842.535a.343.343,0,0,0,.36-.27.367.367,0,0,0-.225-.5h0a3.784,3.784,0,0,1-2.341-4.277.389.389,0,1,0-.765-.135,4.649,4.649,0,0,0,2.881,5.132C955.538,842.535,955.583,842.535,955.628,842.535Z" transform="translate(-931.807 -791.466)" fill="#ed7e97"/>
    <path id="Path_1690" data-name="Path 1690" d="M714.026,857.736h0a4.66,4.66,0,0,0,4.412-3.917.408.408,0,1,0-.811-.09,3.827,3.827,0,0,1-3.647,3.242.345.345,0,0,0-.36.405A.368.368,0,0,0,714.026,857.736Z" transform="translate(-636.223 -803.83)" fill="#ed7e97"/>
    <path id="Path_1691" data-name="Path 1691" d="M935.266,743.38h0a.4.4,0,0,0,.405-.405,5.486,5.486,0,0,1,4.592-5.988.382.382,0,0,0,.36-.315,5.521,5.521,0,0,1,2.251-3.917,5.454,5.454,0,0,1,3.827-.72.389.389,0,0,0,.135-.765,6.465,6.465,0,0,0-4.457.855,6.057,6.057,0,0,0-2.521,4.187,6.308,6.308,0,0,0-5,6.753A.4.4,0,0,0,935.266,743.38Z" transform="translate(-918.649 -711.31)" fill="#ed7e97"/>
    <path id="Path_1692" data-name="Path 1692" d="M694.09,748.861a.343.343,0,0,0,.36-.27,6.163,6.163,0,0,0-.45-4.5,66.711,66.711,0,0,1-10.22-8.464.383.383,0,0,0-.045.765c5.313.315,5.538,4.907,5.538,5.088a.382.382,0,0,0,.315.36,5.039,5.039,0,0,1,4.1,6.438.388.388,0,0,0,.27.5C694,748.861,694.045,748.861,694.09,748.861Z" transform="translate(-605.121 -714.675)" fill="#ed7e97"/>
    <path id="Path_1693" data-name="Path 1693" d="M885.992,915.729a6.024,6.024,0,0,0,3.782-1.621.383.383,0,1,0-.5-.585,4.933,4.933,0,0,1-3.782,1.4,4.746,4.746,0,0,1-2.746-1.8.428.428,0,0,0-.45-.18c-4.682,1.215-6.348-3.242-6.393-3.422a.385.385,0,0,0-.72.27c0,.045,1.891,5.178,7.069,4.007a5.182,5.182,0,0,0,3.107,1.936Z" transform="translate(-846.909 -846.155)" fill="#ed7e97"/>
    <path id="Path_1694" data-name="Path 1694" d="M719.795,916.127a6.1,6.1,0,0,0,6.213-4.1.385.385,0,1,0-.72-.27c-1.846,5.178-7.879,3.286-8.1,3.242a.36.36,0,0,0-.5.27.388.388,0,0,0,.27.5A14.731,14.731,0,0,0,719.795,916.127Z" transform="translate(-644.558 -847.859)" fill="#ed7e97"/>
    <path id="Path_1695" data-name="Path 1695" d="M692.578,791.546a.392.392,0,0,0,.36-.27c0-.09,1.981-7.069-4.007-9a.36.36,0,0,0-.5.27.388.388,0,0,0,.27.5c5.223,1.666,3.557,7.744,3.467,8.014a.388.388,0,0,0,.27.5Z" transform="translate(-604.915 -749.977)" fill="#ed7e97"/>
    <path id="Path_1696" data-name="Path 1696" d="M819.057,706.108a.343.343,0,0,0,.36-.27c2.386-7.249-2.746-10.67-3.962-11.346.225-2.971-.36-5.178-1.666-6.528a4.761,4.761,0,0,0-3.467-1.486.405.405,0,0,0,0,.81,4.033,4.033,0,0,1,2.881,1.261c1.171,1.261,1.666,3.332,1.441,6.213a.473.473,0,0,0,.225.405c.27.135,6.258,3.061,3.782,10.535C818.562,705.928,818.83,706.108,819.057,706.108Z" transform="translate(-761.199 -677.46)" fill="#ed7e97"/>
    <path id="Path_1697" data-name="Path 1697" d="M797.288,812a1.39,1.39,0,0,0-2.251,1.215v.045c.72,6.078,4.817,11.391,12.516,12.967,6.844,1.4,13.147-2.386,14.587-5.673a2.524,2.524,0,0,0-.135-2.7c-1.891-2.476-7.2.99-14.632-.72A25.041,25.041,0,0,1,797.288,812Z" transform="translate(-760.006 -772.281)" fill="#22213f"/>
    <path id="Path_1698" data-name="Path 1698" d="M795.038,812.909V813c10.85,12.2,26.923,7.339,27.1,7.294a2.524,2.524,0,0,0-.135-2.7c-1.891-2.476-7.2.99-14.632-.72a25.266,25.266,0,0,1-10.13-5.178A1.37,1.37,0,0,0,795.038,812.909Z" transform="translate(-760.006 -772.061)" fill="#fff"/>
    <path id="Path_1699" data-name="Path 1699" d="M809.345,825.863c5.132,0,9.815-2.566,11.616-5.448.9-1.441.991-2.836.225-3.872-1.081-1.441-3.061-1.171-5.628-.81a24.388,24.388,0,0,1-9.23-.045,24.932,24.932,0,0,1-9.815-4.952A1.86,1.86,0,0,0,793.5,812.4h0c.855,6.8,5.628,11.706,12.786,13.147A18.166,18.166,0,0,0,809.345,825.863Zm9.095-9.635a2.324,2.324,0,0,1,2.071.765c.765.991.18,2.3-.27,2.971-1.711,2.7-7.294,6.123-13.822,4.772-6.8-1.4-11.346-6.033-12.156-12.471a.981.981,0,0,1,.54-1.036,1.03,1.03,0,0,1,1.171.09,22.867,22.867,0,0,0,19.675,5.133C816.729,816.364,817.674,816.228,818.44,816.228ZM793.9,812.356Z" transform="translate(-758.871 -771.237)" fill="#bf4b6f"/>
    <path id="Path_1700" data-name="Path 1700" d="M870.028,851.173c-10.22-4.592-12.742-12.336-12.2-20.08a2.763,2.763,0,0,1,3.467-2.476h.09A2.778,2.778,0,0,1,863.5,831.5c-1.125,15.758,15.578,17.334,28.319,15.128a2.827,2.827,0,1,1,.9,5.583C888.352,852.839,877.726,854.144,870.028,851.173Z" transform="translate(-847.873 -785.021)" fill="#ed7e97"/>
    <path id="Path_1701" data-name="Path 1701" d="M877.4,867.856a13.351,13.351,0,0,0,7.924,7.834c4.907,2.026,13.732,1.486,18.144.9-.27.045-7.969,2.026-13.822,1.486C883.705,877.536,877.492,873.8,877.4,867.856Z" transform="translate(-861.01 -814.806)" fill="#f490aa"/>
    <path id="Path_1702" data-name="Path 1702" d="M884.284,851.541c-10.175-4.547-12.7-12.246-12.2-19.945a2.794,2.794,0,0,1,3.557-2.476c.045,0,.045,0,.09.045a2.636,2.636,0,0,1,1.981,2.791c-6.934,10.175,4.187,21.836,28.184,20.845C902.428,853.207,891.217,854.422,884.284,851.541Z" transform="translate(-862.129 -785.389)" fill="#e26988"/>
    <path id="Path_1703" data-name="Path 1703" d="M833.542,904.7a2.877,2.877,0,0,0,.946.675c.18.09.36.18.585.27a7.617,7.617,0,0,0,2.656.54,14.5,14.5,0,0,0,3.467-.315,1.456,1.456,0,0,0,1.125-1.666,1.385,1.385,0,0,0-1.261-1.125h-.45c-2.611.54-4.052.135-4.637-.18a3.233,3.233,0,0,1-.315-.18l.045.045Z" transform="translate(-789.236 -841.208)" fill="#ed7e97"/>
    <path id="Path_1704" data-name="Path 1704" d="M851.8,891.748a1.368,1.368,0,0,0,.9,1.4,1.336,1.336,0,0,0,.45.09.88.88,0,0,0,.36-.045,1.393,1.393,0,0,0,1.125-1.306,2.974,2.974,0,0,1,.315-1.125,4.365,4.365,0,0,1,.45-.675,5.2,5.2,0,0,1,.9-.855,1.442,1.442,0,0,0,.405-1.981,1.485,1.485,0,0,0-1.981-.405h0C854.682,886.931,851.981,888.732,851.8,891.748Z" transform="translate(-808.26 -829.018)" fill="#ed7e97"/>
    <path id="Path_1705" data-name="Path 1705" d="M851.859,916.288a3.72,3.72,0,0,0,2.927.135,2.559,2.559,0,0,0,1.4-1.576,1.429,1.429,0,0,0-2.656-.99,2.644,2.644,0,0,1-1.081-.405,1.43,1.43,0,1,0-1.351,2.521C851.409,916.108,851.634,916.2,851.859,916.288Zm1.576-2.161Z" transform="translate(-807.193 -849.055)" fill="#ed7e97"/>
    <path id="Path_1706" data-name="Path 1706" d="M850.9,919.046a3.079,3.079,0,0,0,1.306-.27,2.767,2.767,0,0,0,1.621-1.846,1.849,1.849,0,0,0,0-.99.4.4,0,1,0-.765.225,1.1,1.1,0,0,1,0,.54,2.215,2.215,0,0,1-1.171,1.351,3.053,3.053,0,0,1-2.484-.156s-.578.021-.623.246a.34.34,0,0,0,.225.5A5.114,5.114,0,0,0,850.9,919.046Z" transform="translate(-804.477 -851.003)" fill="#bf4b6f"/>
    <path id="Path_1707" data-name="Path 1707" d="M833.543,907.313h.09A14.5,14.5,0,0,0,837.1,907a1.456,1.456,0,0,0,1.125-1.666,1.386,1.386,0,0,0-1.261-1.125C837.055,904.432,838.136,906.548,833.543,907.313Z" transform="translate(-785.14 -842.332)" fill="#f490aa"/>
    <path id="Path_1708" data-name="Path 1708" d="M851.8,886.84c.315.09,1.621.585.63,3.242a5.2,5.2,0,0,1,.9-.855,1.442,1.442,0,0,0,.405-1.981A1.42,1.42,0,0,0,851.8,886.84Z" transform="translate(-805.286 -829.018)" fill="#f490aa"/>
    <path id="Path_1709" data-name="Path 1709" d="M834.5,906.248a14.637,14.637,0,0,0,3.017-.315,1.758,1.758,0,0,0,1.171-.765,1.815,1.815,0,0,0,.27-1.351,1.757,1.757,0,0,0-.765-1.171,1.814,1.814,0,0,0-1.351-.27c-2.521.5-3.827.135-4.412-.135a.433.433,0,0,0-.54.18c-.09.18-.09.45.09.54a7.976,7.976,0,0,0,5,.18,1.123,1.123,0,0,1,.766.135.931.931,0,0,1,.45.63,1.123,1.123,0,0,1-.135.766.932.932,0,0,1-.63.45,13.67,13.67,0,0,1-3.737.27.4.4,0,0,0-.45.36.438.438,0,0,0,.36.45C833.82,906.2,834.135,906.248,834.5,906.248Z" transform="translate(-785.462 -840.817)" fill="#bf4b6f"/>
    <path id="Path_1710" data-name="Path 1710" d="M853.209,889.906a.46.46,0,0,0,.36-.225,4.3,4.3,0,0,1,1.261-1.4,1.847,1.847,0,0,0,.5-2.521,1.833,1.833,0,0,0-2.521-.5,8.016,8.016,0,0,0-2.648,4.007c-.045.225-.233.405-.008.45s.63-.035.675-.26a7.2,7.2,0,0,1,2.431-3.522,1,1,0,0,1,1.4.315,1,1,0,0,1-.27,1.4,5.975,5.975,0,0,0-1.531,1.711.392.392,0,0,0,.18.54Z" transform="translate(-806.516 -827.761)" fill="#bf4b6f"/>
    <path id="Path_1711" data-name="Path 1711" d="M892.2,852.294a50.091,50.091,0,0,0,9.365-.9.389.389,0,1,0-.135-.765c-8.6,1.756-21.3,1.441-28.724-5.088-4.232-3.737-6.123-8.959-5.673-15.623a2.283,2.283,0,0,1,.99-1.756,2.662,2.662,0,0,1,2.026-.405,2.392,2.392,0,0,1,1.846,2.521c-.405,4.908.99,8.779,4.1,11.571,5.808,5.223,16.568,5.448,24.717,3.917a.389.389,0,1,0-.135-.765c-7.969,1.486-18.459,1.306-24.042-3.737-2.927-2.611-4.187-6.3-3.827-10.94a3.231,3.231,0,0,0-5.088-2.881,3.053,3.053,0,0,0-1.306,2.341c-.5,6.888,1.486,12.381,5.9,16.253C877.389,850.673,885.043,852.294,892.2,852.294Z" transform="translate(-856.72 -783.756)" fill="#bf4b6f"/>
    <path id="Path_1712" data-name="Path 1712" d="M629.722,725.053l-.268,1.683a1.908,1.908,0,0,1-1.645,1.607l-1.607.229,1.645.306a1.965,1.965,0,0,1,1.53,1.53l.306,1.645.306-1.607a1.921,1.921,0,0,1,1.492-1.53l1.683-.344-1.568-.191a1.948,1.948,0,0,1-1.645-1.607Z" transform="translate(-553.741 -724.67)" fill="#f9c710"/>
    <path id="Path_1713" data-name="Path 1713" d="M628.489,731.165a.368.368,0,0,0,.344-.268l.306-1.607a1.549,1.549,0,0,1,1.224-1.262l1.683-.344a.368.368,0,0,0,.268-.344.363.363,0,0,0-.306-.344l-1.568-.191a1.542,1.542,0,0,1-1.339-1.3l-.268-1.721a.407.407,0,0,0-.344-.306.363.363,0,0,0-.344.306l-.268,1.683a1.625,1.625,0,0,1-1.339,1.339l-1.607.229a.351.351,0,0,0-.038.688l1.645.306a1.545,1.545,0,0,1,1.262,1.262l.306,1.645a.449.449,0,0,0,.383.23Zm1.492-3.787a2.221,2.221,0,0,0-1.492,1.53,1.531,1.531,0,0,1,.038-3.06A2.105,2.105,0,0,0,629.981,727.379Z" transform="translate(-552.508 -723.477)" fill="#a55a0f"/>
    <path id="Path_1714" data-name="Path 1714" d="M601.653,766.194l-.191,1.186a1.38,1.38,0,0,1-1.148,1.148l-1.109.153,1.186.229a1.346,1.346,0,0,1,1.071,1.071l.191,1.148.191-1.148a1.4,1.4,0,0,1,1.071-1.071l1.186-.229-1.109-.153a1.34,1.34,0,0,1-1.148-1.109Z" transform="translate(-507.105 -746.824)" fill="#f9c710"/>
    <path id="Path_1715" data-name="Path 1715" d="M600.617,770.242a.368.368,0,0,0,.344-.268l.191-1.148a.975.975,0,0,1,.8-.8l1.186-.229a.368.368,0,0,0,.268-.344.363.363,0,0,0-.306-.344l-1.109-.153a1.013,1.013,0,0,1-.88-.841l-.191-1.186a.407.407,0,0,0-.344-.306.363.363,0,0,0-.344.306l-.191,1.186a1.014,1.014,0,0,1-.841.841l-1.109.153a.368.368,0,0,0-.306.344.335.335,0,0,0,.268.344l1.186.229a.975.975,0,0,1,.8.8l.191,1.148a.459.459,0,0,0,.382.268Zm.765-2.754a1.567,1.567,0,0,0-.765.8,1.726,1.726,0,0,0-.765-.8,1.493,1.493,0,0,0,.765-.765A1.846,1.846,0,0,0,601.382,767.488Z" transform="translate(-506.069 -745.632)" fill="#a55a0f"/>
    <path id="Path_1716" data-name="Path 1716" d="M619.344,812.137l-.191,1.186a1.38,1.38,0,0,1-1.148,1.148l-1.109.153,1.186.229a1.346,1.346,0,0,1,1.071,1.071l.191,1.148.191-1.148a1.4,1.4,0,0,1,1.071-1.071l1.186-.229-1.109-.153a1.339,1.339,0,0,1-1.148-1.109Z" transform="translate(-516.09 -772.614)" fill="#f9c710"/>
    <path id="Path_1717" data-name="Path 1717" d="M618.308,816.184a.368.368,0,0,0,.344-.268l.191-1.148a.975.975,0,0,1,.8-.8l1.186-.229a.368.368,0,0,0,.268-.344.363.363,0,0,0-.306-.344l-1.109-.153a1.013,1.013,0,0,1-.88-.841l-.191-1.186a.407.407,0,0,0-.344-.306.363.363,0,0,0-.344.306l-.191,1.186a1.015,1.015,0,0,1-.841.841l-1.109.153a.368.368,0,0,0-.306.344.335.335,0,0,0,.268.344l1.186.229a.975.975,0,0,1,.8.8l.191,1.148a.459.459,0,0,0,.382.268Zm.765-2.754a1.567,1.567,0,0,0-.765.8,1.726,1.726,0,0,0-.765-.8,1.493,1.493,0,0,0,.765-.765A1.845,1.845,0,0,0,619.073,813.43Z" transform="translate(-515.054 -771.421)" fill="#a55a0f"/>
    <path id="Path_1718" data-name="Path 1718" d="M879.741,792.105a.3.3,0,0,0,.267-.449c-1.478-2.7-5.307-5.067-5.469-5.167a.3.3,0,1,0-.317.518,20.359,20.359,0,0,1,4.565,3.913,17.878,17.878,0,0,0-12.955-1.364.3.3,0,0,0,.175.581c7.268-2.192,13.5,1.875,13.566,1.916A.3.3,0,0,0,879.741,792.105Z" transform="translate(-834.723 -753.159)" fill="#22213f"/>
    <path id="Path_1719" data-name="Path 1719" d="M879.456,791.911a.394.394,0,0,0,.346-.584c-1.491-2.726-5.339-5.1-5.5-5.2a.394.394,0,1,0-.411.673,21.148,21.148,0,0,1,4.277,3.57,18,18,0,0,0-12.645-1.185.395.395,0,0,0-.264.492.4.4,0,0,0,.491.264c7.257-2.19,13.428,1.863,13.489,1.9A.391.391,0,0,0,879.456,791.911Zm-5.36-5.66a.21.21,0,0,1,.11.031c.161.1,3.969,2.449,5.437,5.133a.212.212,0,0,1-.043.259.217.217,0,0,1-.261.02c-.062-.042-6.306-4.142-13.643-1.928a.213.213,0,0,1-.265-.142.212.212,0,0,1,.142-.265,17.929,17.929,0,0,1,12.888,1.358l.366.184-.253-.322a20.571,20.571,0,0,0-4.589-3.935.212.212,0,0,1,.111-.393Z" transform="translate(-834.438 -752.874)" fill="#22213f"/>
  </g>
</svg>
