<svg xmlns="http://www.w3.org/2000/svg" width="113.513" height="102.014" viewBox="0 0 113.513 102.014">
  <g id="_x31__17_" transform="translate(0 0)">
    <path id="Path_1872" data-name="Path 1872" d="M856.885,399.665a2.788,2.788,0,0,1-.1.621c-.573,2.244-1.146,4.488-1.767,6.685a7.969,7.969,0,0,1-7.687,2.005l.478-3.342.716-6.828h0a4.2,4.2,0,1,1,8.356.86Z" transform="translate(-782.864 -328.471)" fill="#e26988"/>
    <path id="Path_1873" data-name="Path 1873" d="M844.64,424.642h-.017c1.006-3.532,1.984-7.08,2.93-10.6,1.146-4.536,2.626-9.549,3.629-14.038.669-5.443-7.926-6.3-8.4-.86-.907,8.929-1.958,18.622-3.1,27.5a1.959,1.959,0,0,0,.159,1.018c1.257,3.953,11.868,2.894,12.829.605a1.321,1.321,0,0,0,.048-.43C852.232,425.12,845.4,424.69,844.64,424.642Z" transform="translate(-777.161 -328.81)" fill="#ed7e97"/>
    <path id="Path_1874" data-name="Path 1874" d="M861.53,477.255h0a20.529,20.529,0,0,0-8.356-2.483c-.143,0-.286-.048-.43-.048a1.286,1.286,0,0,1-1.05-1.767l5.157-11.6-.43,1.671c-.955,3.533-1.91,7.067-2.913,10.6.764.048,7.592.477,8.069,3.2A1.322,1.322,0,0,1,861.53,477.255Z" transform="translate(-786.029 -377.794)" fill="#f490aa"/>
    <path id="Path_1875" data-name="Path 1875" d="M852.645,519.87c-1,2.387-12.51,3.438-12.939-1.194h.1S844.624,521.875,852.645,519.87Z" transform="translate(-777.192 -420.409)" fill="#e26988"/>
    <path id="Path_1876" data-name="Path 1876" d="M745.614,405.78l.43,3.963c-4.966,1.671-7.019-.191-7.019-.191l-.669-2.435c-.573-2.244-1.194-4.44-1.767-6.685a4.239,4.239,0,0,1,8.213-2.1,2.419,2.419,0,0,1,.1.621V399Z" transform="translate(-700.433 -328.569)" fill="#e26988"/>
    <path id="Path_1877" data-name="Path 1877" d="M743.649,426.522a.147.147,0,0,0-.007-.056c-1.143-8.96-2.191-18.536-3.1-27.637-.669-5.921-9.693-4.3-8.308,1.48,1.1,4.3,2.387,9.12,3.533,13.417.945,3.556,1.922,7.081,2.928,10.6h-.015c-.764.048-7.592.525-8.069,3.2-.43,2.626,11.841,4.154,12.939-.287q.017-.084.033-.169A2.048,2.048,0,0,0,743.649,426.522Z" transform="translate(-696.081 -328.541)" fill="#ed7e97"/>
    <path id="Path_1878" data-name="Path 1878" d="M740.529,474.013a.688.688,0,0,1-.669.955h-.716a21.382,21.382,0,0,0-8.5,1.671c.477-2.674,7.305-3.151,8.069-3.2-1-3.533-1.958-7.067-2.913-10.6l-.43-1.671,5.157,12.844Z" transform="translate(-696.112 -377.656)" fill="#f490aa"/>
    <path id="Path_1879" data-name="Path 1879" d="M743.553,520.352c-1.1,4.44-13.369,2.913-12.939.287C730.614,520.686,737.585,522.882,743.553,520.352Z" transform="translate(-696.081 -421.655)" fill="#e26988"/>
    <path id="Path_1880" data-name="Path 1880" d="M844.929,429.576q-.364,0-.721-.016c-3.17-.142-5.3-1.19-5.852-2.877a2.345,2.345,0,0,1-.182-1.194c.979-7.589,1.994-16.582,3.1-27.5a4.163,4.163,0,0,1,2.462-3.6,5.184,5.184,0,0,1,5.065.526,4.142,4.142,0,0,1,1.641,4.015c0,.013,0,.025-.006.037-.624,2.792-1.438,5.813-2.227,8.734-.477,1.767-.97,3.595-1.4,5.314-.957,3.558-1.9,6.97-2.8,10.154,2.563.2,7.515.92,7.965,3.484a.389.389,0,0,1,.005.066,1.655,1.655,0,0,1-.068.552c0,.009-.006.018-.01.027C851.286,428.762,847.946,429.576,844.929,429.576Zm.856-34.841a4.209,4.209,0,0,0-1.727.357,3.424,3.424,0,0,0-2.013,2.966c-1.111,10.934-2.126,19.933-3.105,27.519a1.569,1.569,0,0,0,.127.809.36.36,0,0,1,.017.043c.621,1.951,3.815,2.3,5.159,2.363,3.41.154,6.516-.826,6.941-1.776a.961.961,0,0,0,.024-.26c-.355-1.767-4.356-2.639-7.7-2.85h-.005a.385.385,0,0,1-.37-.49c.943-3.31,1.928-6.875,2.928-10.594.434-1.72.928-3.551,1.406-5.32.784-2.907,1.6-5.913,2.215-8.683a3.4,3.4,0,0,0-1.336-3.283A4.373,4.373,0,0,0,845.785,394.736Z" transform="translate(-776.045 -327.69)" fill="#bf4b6f"/>
    <path id="Path_1881" data-name="Path 1881" d="M736.573,429.433a12.969,12.969,0,0,1-6.6-1.575c-.817-.577-.916-1.144-.855-1.518.466-2.609,5.73-3.309,7.964-3.488-1.009-3.539-1.926-6.864-2.8-10.15l-.206-.774c-1.076-4.033-2.295-8.6-3.328-12.647a4.321,4.321,0,0,1,1.287-4.471,5.086,5.086,0,0,1,5.063-.9,4.3,4.3,0,0,1,2.714,3.748c1.008,10.13,2.049,19.425,3.1,27.632,0,.01,0,.019,0,.029a3.286,3.286,0,0,1-1.865,3.177A9.529,9.529,0,0,1,736.573,429.433Zm-1.2-35.063a4.35,4.35,0,0,0-2.825,1.02A3.581,3.581,0,0,0,731.5,399.1c1.031,4.034,2.25,8.6,3.324,12.634l.206.774c.91,3.423,1.867,6.888,2.926,10.594a.385.385,0,0,1-.37.49c-2.7.168-7.363.965-7.706,2.882-.048.294.318.6.54.76,1.869,1.32,7.53,2.1,10.257.6a2.53,2.53,0,0,0,1.468-2.45c-1.047-8.21-2.089-17.507-3.1-27.633a3.561,3.561,0,0,0-2.227-3.111A4.016,4.016,0,0,0,735.372,394.37Z" transform="translate(-694.969 -327.419)" fill="#bf4b6f"/>
    <path id="Path_1882" data-name="Path 1882" d="M711.273,190.486a13,13,0,0,1-12.987,12.987h-.477a12.99,12.99,0,0,1-12.51,9.454,12.66,12.66,0,0,1-6.541-1.767,13.02,13.02,0,0,1-10.5,5.348,12.872,12.872,0,0,1-8.833-3.486,12.979,12.979,0,0,1-18.908-1.289,13.016,13.016,0,0,1-17.141-6.112,6.907,6.907,0,0,1-.43-1.05h0c-.334.048-.716.143-1.05.191-.477.048-1,.1-1.528.1a12.989,12.989,0,0,1-11.7-7.353,13.122,13.122,0,0,1,.382-12.08,12.877,12.877,0,0,1-2.722-7.974,13.076,13.076,0,0,1,9.55-12.558,12.711,12.711,0,0,1-.477-3.581,13,13,0,0,1,12.987-12.987,13.27,13.27,0,0,1,5.157,1.05,13.005,13.005,0,0,1,23.253-5.777h0a13.437,13.437,0,0,1,11.507-6.446,12.989,12.989,0,0,1,12.939,11.841,12.981,12.981,0,0,1,17.094,12.319v.334a13.119,13.119,0,0,1,2.817,1,12.946,12.946,0,0,1,7.305,11.7,12.762,12.762,0,0,1-1.624,6.3A13.231,13.231,0,0,1,711.273,190.486Z" transform="translate(-603.686 -136.767)" fill="#fc9db8"/>
    <path id="Path_1883" data-name="Path 1883" d="M705.386,185.025A13,13,0,0,1,692.4,198.013h-.477a12.99,12.99,0,0,1-12.51,9.454,12.66,12.66,0,0,1-6.541-1.767,13.02,13.02,0,0,1-10.5,5.348,12.872,12.872,0,0,1-8.833-3.486,12.98,12.98,0,0,1-18.908-1.289,12.965,12.965,0,0,1-5.443,1.194,13.231,13.231,0,0,1-5.682-1.289s.048-.764-.43-1.051c-2.244-1.48-5.061-3.437-6.016-5.968h0a11.441,11.441,0,0,1-2.865.239,13.579,13.579,0,0,1-5.4-1.289,13.122,13.122,0,0,1,.382-12.08h0a12.877,12.877,0,0,1-2.722-7.974A13.076,13.076,0,0,1,616,165.5a12.713,12.713,0,0,1-.477-3.581,13,13,0,0,1,12.987-12.987,13.271,13.271,0,0,1,5.157,1.05,13.005,13.005,0,0,1,23.253-5.777h.287a12.99,12.99,0,0,1,24.16,5.4,12.982,12.982,0,0,1,17.094,12.319h0v.334a13.12,13.12,0,0,1,2.817,1,13.231,13.231,0,0,1,1.289,5.682,12.762,12.762,0,0,1-1.623,6.3A13.052,13.052,0,0,1,705.386,185.025Z" transform="translate(-603.783 -137.216)" fill="#ffa6bd"/>
    <path id="Path_1884" data-name="Path 1884" d="M697.686,161.36c-4.345-14.038-18.049-10.122-18.049-10.122a13.491,13.491,0,0,0-9.693-9.693c-8.165-2.2-13.321,4.918-13.321,4.918a14.291,14.291,0,0,0-11.459-3.868c-7.162.764-10.027,10.027-10.027,10.027A17.558,17.558,0,0,0,622.2,154.1c-6.828,3.581-5.2,13.321-5.2,13.321-13.7,7.162-8.738,17.858-8.69,18a12.877,12.877,0,0,1-2.722-7.974,13.076,13.076,0,0,1,9.55-12.558,12.713,12.713,0,0,1-.477-3.581,13,13,0,0,1,12.987-12.987,13.271,13.271,0,0,1,5.157,1.05A13.005,13.005,0,0,1,656.05,143.6h.287a12.99,12.99,0,0,1,24.16,5.4,13.063,13.063,0,0,1,17.189,12.367Z" transform="translate(-603.134 -136.767)" fill="#ffb8cc"/>
    <path id="Path_1885" data-name="Path 1885" d="M825.972,348.5a.681.681,0,0,1-.287-.1.393.393,0,0,1-.048-.573c2.292-2.817,0-7.258-.048-7.305a.423.423,0,0,1,.1-.525c3.629-2.769,5.634-5.825,6.064-9.072a10.44,10.44,0,0,0-1.814-6.971.406.406,0,1,1,.621-.525,10.81,10.81,0,0,1,2.005,7.544c-.43,3.39-2.435,6.541-6.112,9.406.525,1.146,2.1,5.109-.191,7.926A.262.262,0,0,1,825.972,348.5Z" transform="translate(-766.657 -275.156)" fill="#ed7e97"/>
    <path id="Path_1886" data-name="Path 1886" d="M667.138,215.779a13.253,13.253,0,0,1-8.836-3.351,13.36,13.36,0,0,1-19.014-1.339,13.4,13.4,0,0,1-17.378-6.412c-.048-.111-.091-.2-.135-.3-.073-.156-.149-.316-.213-.486l-.184.036c-.187.037-.374.075-.548.1-.486.049-1.033.1-1.582.1a13.289,13.289,0,0,1-12.045-7.57,13.5,13.5,0,0,1,.271-12.211,13.193,13.193,0,0,1-2.649-8.01,13.467,13.467,0,0,1,9.464-12.82,13.466,13.466,0,0,1,12.981-16.691,13.715,13.715,0,0,1,4.861.9,13.387,13.387,0,0,1,23.508-5.915,13.884,13.884,0,0,1,11.547-6.159,13.451,13.451,0,0,1,13.273,11.718A13.365,13.365,0,0,1,697.6,160.2v.033a13.421,13.421,0,0,1,8.6,19.224,13.6,13.6,0,0,1,4.342,9.917,13.387,13.387,0,0,1-13.372,13.372h-.189a13.414,13.414,0,0,1-12.8,9.454,13.134,13.134,0,0,1-6.44-1.647A13.485,13.485,0,0,1,667.138,215.779Zm-8.833-4.255a.385.385,0,0,1,.263.1,12.484,12.484,0,0,0,8.57,3.382,12.716,12.716,0,0,0,10.194-5.191.385.385,0,0,1,.508-.1,12.314,12.314,0,0,0,6.344,1.712,12.638,12.638,0,0,0,12.139-9.173.385.385,0,0,1,.37-.281h.477a12.617,12.617,0,0,0,12.6-12.6,12.839,12.839,0,0,0-4.311-9.55.385.385,0,0,1-.079-.476,12.641,12.641,0,0,0-5.514-17.465,12.691,12.691,0,0,0-2.738-.975.385.385,0,0,1-.3-.374V160.2a12.6,12.6,0,0,0-16.587-11.954.385.385,0,0,1-.505-.332,12.67,12.67,0,0,0-12.556-11.49,13.047,13.047,0,0,0-11.175,6.254.385.385,0,0,1-.64.039,12.62,12.62,0,0,0-22.566,5.606.385.385,0,0,1-.53.293,12.932,12.932,0,0,0-5.007-1.02,12.617,12.617,0,0,0-12.6,12.6,12.255,12.255,0,0,0,.462,3.473.385.385,0,0,1-.266.478,12.693,12.693,0,0,0-9.268,12.187,12.426,12.426,0,0,0,2.64,7.736.385.385,0,0,1,.034.423,12.736,12.736,0,0,0-.371,11.731,12.523,12.523,0,0,0,11.35,7.133c.513,0,1.038-.048,1.49-.093.145-.021.317-.056.49-.09s.371-.074.545-.1a.386.386,0,0,1,.428.288,3.832,3.832,0,0,0,.272.689c.048.1.1.2.138.3a12.631,12.631,0,0,0,16.627,5.913.385.385,0,0,1,.458.106,12.595,12.595,0,0,0,18.35,1.25A.384.384,0,0,1,658.3,211.524Z" transform="translate(-602.572 -135.653)" fill="#bf4b6f"/>
    <path id="Path_1887" data-name="Path 1887" d="M854.708,201.084c2.769.955,5.4.716,5.825-.525.43-1.289-1.432-3.1-4.2-4.058s-5.4-.716-5.825.525S851.939,200.081,854.708,201.084Z" transform="translate(-785.176 -180.454)" fill="#ed7e97"/>
    <path id="Path_1888" data-name="Path 1888" d="M856.756,200.809a10.818,10.818,0,0,1-3.342-.621h0a9.849,9.849,0,0,1-3.486-2.006c-.907-.907-1.289-1.814-1-2.578a2.563,2.563,0,0,1,2.387-1.385,10.1,10.1,0,0,1,3.963.573,9.846,9.846,0,0,1,3.486,2.005c.907.907,1.289,1.814,1,2.578a2.563,2.563,0,0,1-2.387,1.385A2.722,2.722,0,0,1,856.756,200.809Zm-4.823-5.825a1.791,1.791,0,0,0-.525.048c-.907.1-1.528.382-1.671.812s.143,1.05.812,1.719a8.7,8.7,0,0,0,3.151,1.814h0a9.389,9.389,0,0,0,3.629.573c.907-.1,1.528-.382,1.671-.812s-.143-1.05-.812-1.719a8.7,8.7,0,0,0-3.151-1.814A9.685,9.685,0,0,0,851.934,194.984Z" transform="translate(-783.977 -179.176)" fill="#bf4b6f"/>
    <path id="Path_1889" data-name="Path 1889" d="M743.509,203.012c2.722-1.146,4.488-3.1,3.963-4.345s-3.151-1.337-5.873-.191-4.488,3.1-3.963,4.345S740.788,204.158,743.509,203.012Z" transform="translate(-701.241 -181.761)" fill="#ed7e97"/>
    <path id="Path_1890" data-name="Path 1890" d="M738.6,202.935c-1.337,0-2.34-.43-2.722-1.241-.621-1.48,1.194-3.629,4.2-4.87a10.584,10.584,0,0,1,3.915-.859c1.289.048,2.149.477,2.483,1.241s0,1.719-.859,2.674a9.764,9.764,0,0,1-3.342,2.244A9.179,9.179,0,0,1,738.6,202.935Zm5.252-6.112a9.543,9.543,0,0,0-3.39.764c-2.674,1.146-4.106,2.913-3.724,3.772s2.626,1.1,5.3-.048a9.185,9.185,0,0,0,3.056-2.006c.621-.669.859-1.337.669-1.767s-.812-.716-1.719-.716Z" transform="translate(-699.911 -180.491)" fill="#bf4b6f"/>
    <path id="Path_1891" data-name="Path 1891" d="M742.649,176.341a.263.263,0,0,1-.239-.1.4.4,0,0,1-.1-.573c.048-.048,3.342-4.775,8.833-2.435a.439.439,0,1,1-.334.812,6.388,6.388,0,0,0-7.831,2.149A1.012,1.012,0,0,1,742.649,176.341Z" transform="translate(-704.725 -163.112)" fill="#ed7e97"/>
    <path id="Path_1892" data-name="Path 1892" d="M746.09,385.725a4.944,4.944,0,0,1-4.87-3.533.423.423,0,1,1,.812-.239,4.008,4.008,0,0,0,4.25,2.913.427.427,0,0,1,.477.382.465.465,0,0,1-.382.477Z" transform="translate(-703.964 -318.541)" fill="#ed7e97"/>
    <path id="Path_1893" data-name="Path 1893" d="M869.664,405.968a5.019,5.019,0,0,1-1.91-.382.408.408,0,1,1,.286-.764,4.048,4.048,0,0,0,4.918-1.528.418.418,0,0,1,.716.43A5.142,5.142,0,0,1,869.664,405.968Z" transform="translate(-797.84 -334.487)" fill="#ed7e97"/>
    <path id="Path_1894" data-name="Path 1894" d="M693.811,326.27a.175.175,0,0,1-.143-.048,4.982,4.982,0,0,1-3.056-5.443.412.412,0,1,1,.812.143,3.989,3.989,0,0,0,2.483,4.488.386.386,0,0,1,.239.525C694.1,326.174,693.954,326.27,693.811,326.27Z" transform="translate(-666.297 -273.028)" fill="#ed7e97"/>
    <path id="Path_1895" data-name="Path 1895" d="M925,341.48a.421.421,0,0,1-.43-.382.39.39,0,0,1,.382-.43,4.115,4.115,0,0,0,3.868-3.438.432.432,0,0,1,.859.1A4.983,4.983,0,0,1,925,341.48Z" transform="translate(-840.285 -285.23)" fill="#ed7e97"/>
    <path id="Path_1896" data-name="Path 1896" d="M672.255,226.684a.428.428,0,0,1-.43-.43,6.689,6.689,0,0,1,5.3-7.162,6.135,6.135,0,0,1,7.4-5.348.412.412,0,1,1-.143.812,5.335,5.335,0,0,0-6.446,4.918.405.405,0,0,1-.382.334c-.191.048-5.013.716-4.87,6.35,0,.334-.191.525-.43.525Z" transform="translate(-652.38 -193.64)" fill="#ed7e97"/>
    <path id="Path_1897" data-name="Path 1897" d="M939.636,232.777h-.143a.412.412,0,0,1-.286-.525h0a5.726,5.726,0,0,0-.43-4.106,6.12,6.12,0,0,0-3.915-2.722.462.462,0,0,1-.334-.382c0-.191-.287-5.061-5.873-5.4a.407.407,0,0,1,.048-.812c5.539.334,6.494,4.679,6.637,5.921a6.807,6.807,0,0,1,4.2,3.056,6.535,6.535,0,0,1,.478,4.775A.427.427,0,0,1,939.636,232.777Z" transform="translate(-843.031 -197.488)" fill="#ed7e97"/>
    <path id="Path_1898" data-name="Path 1898" d="M733.083,399.469a2.939,2.939,0,0,1-.669-.048,5.656,5.656,0,0,1-3.294-2.053c-5.539,1.241-7.5-4.2-7.5-4.25a.408.408,0,1,1,.764-.286c.048.191,1.814,4.966,6.78,3.629a.454.454,0,0,1,.477.191,4.659,4.659,0,0,0,2.913,1.91,5.06,5.06,0,0,0,4.011-1.48.406.406,0,0,1,.525.621A5.983,5.983,0,0,1,733.083,399.469Z" transform="translate(-689.383 -326.651)" fill="#ed7e97"/>
    <path id="Path_1899" data-name="Path 1899" d="M905.966,399.726a12.093,12.093,0,0,1-3.1-.43.423.423,0,0,1,.239-.812c.287.1,6.637,2.053,8.595-3.438a.408.408,0,1,1,.764.286C911.266,398.962,908.305,399.726,905.966,399.726Z" transform="translate(-823.923 -328.293)" fill="#ed7e97"/>
    <path id="Path_1900" data-name="Path 1900" d="M954.565,275.184h-.1a.412.412,0,0,1-.287-.525c.1-.287,1.862-6.732-3.676-8.5a.423.423,0,1,1,.239-.812c6.3,2.053,4.25,9.454,4.25,9.55A.549.549,0,0,1,954.565,275.184Z" transform="translate(-859.344 -232.065)" fill="#ed7e97"/>
    <path id="Path_1901" data-name="Path 1901" d="M816.072,187.464c-.1,0-.143,0-.191-.048a.4.4,0,0,1-.143-.573c2.913-4.918-2.722-8.5-2.96-8.642a.434.434,0,0,1-.191-.382c.239-3.008-.239-5.252-1.528-6.589a4.258,4.258,0,0,0-2.688-1.318.431.431,0,0,1-.389-.4h0a.429.429,0,0,1,.466-.453,4.852,4.852,0,0,1,3.184,1.555c1.385,1.48,2.005,3.82,1.767,6.971,1.1.764,5.969,4.632,3.008,9.645A.36.36,0,0,1,816.072,187.464Z" transform="translate(-753.607 -160.483)" fill="#ed7e97"/>
    <ellipse id="Ellipse_30" data-name="Ellipse 30" cx="10.17" cy="8.451" rx="10.17" ry="8.451" transform="matrix(0.371, -0.929, 0.929, 0.371, 27.248, 45.083)" fill="#fff"/>
    <ellipse id="Ellipse_31" data-name="Ellipse 31" cx="6.352" cy="5.492" rx="6.352" ry="5.492" transform="translate(32.831 47.76) rotate(-82.08)" fill="#22213f"/>
    <path id="Path_1902" data-name="Path 1902" d="M736.519,304.88a1.725,1.725,0,0,1-2.292.812,1.693,1.693,0,0,1-1.1-2.149,1.725,1.725,0,0,1,2.292-.812A1.775,1.775,0,0,1,736.519,304.88Z" transform="translate(-697.88 -259.756)" fill="#fff"/>
    <path id="Path_1903" data-name="Path 1903" d="M865.342,252.445c2.2,5.157.477,10.839-3.82,12.653s-9.55-.859-11.746-6.016-.477-10.839,3.82-12.653S863.145,247.288,865.342,252.445Z" transform="translate(-783.968 -217.586)" fill="#fff"/>
    <ellipse id="Ellipse_32" data-name="Ellipse 32" cx="5.492" cy="6.352" rx="5.492" ry="6.352" transform="matrix(0.987, -0.16, 0.16, 0.987, 67.753, 36.264)" fill="#22213f"/>
    <path id="Path_1904" data-name="Path 1904" d="M870.677,300.937a1.838,1.838,0,1,0,2.292-.812A1.732,1.732,0,0,0,870.677,300.937Z" transform="translate(-800.143 -257.818)" fill="#fff"/>
    <path id="Path_1905" data-name="Path 1905" d="M720.068,267.116a8.176,8.176,0,0,1-2.817-.525,8.307,8.307,0,0,1-4.679-5.252,12.1,12.1,0,0,1,5.539-13.847,8.3,8.3,0,0,1,7.019-.573c4.536,1.814,6.494,7.687,4.345,13.131a11.583,11.583,0,0,1-5.157,5.969A9.54,9.54,0,0,1,720.068,267.116Zm2.2-19.863a7.975,7.975,0,0,0-3.772,1,10.74,10.74,0,0,0-4.775,5.539h0a10.737,10.737,0,0,0-.334,7.305,7.441,7.441,0,0,0,4.2,4.727,7.232,7.232,0,0,0,6.3-.525,10.741,10.741,0,0,0,4.775-5.539c2.006-4.966.239-10.361-3.868-12.032A6.61,6.61,0,0,0,722.264,247.253Zm-8.977,6.35Z" transform="translate(-682.288 -217.98)" fill="#bf4b6f"/>
    <path id="Path_1906" data-name="Path 1906" d="M857.48,264.824a8.753,8.753,0,0,1-4.011-1,11.727,11.727,0,0,1-5.3-5.825,11.871,11.871,0,0,1-.573-7.878,8.216,8.216,0,0,1,4.584-5.348,8.1,8.1,0,0,1,7.019.382,11.727,11.727,0,0,1,5.3,5.825h0a11.871,11.871,0,0,1,.573,7.878,8.216,8.216,0,0,1-4.584,5.348A7.227,7.227,0,0,1,857.48,264.824Zm-2.292-19.815a6.94,6.94,0,0,0-6.78,5.348,11.261,11.261,0,0,0,5.443,12.749,7.08,7.08,0,0,0,10.409-4.44,10.8,10.8,0,0,0-.525-7.305h0a10.779,10.779,0,0,0-4.918-5.443A7.711,7.711,0,0,0,855.188,245.008Z" transform="translate(-782.743 -216.309)" fill="#bf4b6f"/>
    <path id="Path_1907" data-name="Path 1907" d="M740.71,226.858a14.08,14.08,0,0,0-13.986,12.436,9.451,9.451,0,0,0-7.649-.017,14.087,14.087,0,1,0,.086,2.256,7.6,7.6,0,0,1,7.48.043,14.085,14.085,0,1,0,14.069-14.718Zm-35.62,26.166a12.032,12.032,0,1,1,12.032-12.032A12.043,12.043,0,0,1,705.09,253.024Zm35.62,0a12.032,12.032,0,1,1,12.032-12.032A12.043,12.043,0,0,1,740.71,253.024Z" transform="translate(-666.642 -203.459)" fill="#ea2a21"/>
    <path id="Path_1908" data-name="Path 1908" d="M739.595,254.3a14.439,14.439,0,0,1-14.442-13.6,7.243,7.243,0,0,0-6.733-.04,14.467,14.467,0,1,1-.145-3.036,9.723,9.723,0,0,1,7.019.012,14.47,14.47,0,1,1,14.3,16.666ZM721.789,239.07a7.948,7.948,0,0,1,3.924,1.054.385.385,0,0,1,.2.319,13.706,13.706,0,1,0,.081-2.22.385.385,0,0,1-.538.308,9.03,9.03,0,0,0-7.343-.016.385.385,0,0,1-.533-.309,13.7,13.7,0,1,0,.084,2.2.385.385,0,0,1,.2-.322A8.377,8.377,0,0,1,721.789,239.07Zm17.806,13.223a12.417,12.417,0,1,1,12.417-12.417A12.431,12.431,0,0,1,739.595,252.293Zm0-24.065a11.647,11.647,0,1,0,11.647,11.647A11.66,11.66,0,0,0,739.595,228.229Zm-35.62,24.065a12.428,12.428,0,1,1,8.777-3.64A12.431,12.431,0,0,1,703.975,252.293Zm0-24.065a11.643,11.643,0,1,0,11.647,11.647A11.661,11.661,0,0,0,703.975,228.229Z" transform="translate(-665.527 -202.344)" fill="#b7130b"/>
    <path id="Path_1909" data-name="Path 1909" d="M963.111,343.278c-3.1,2.769-8.4,3.629-12.987,2.913-5.777-1.289-9.454-1.289-8.5-5.682,2.34-4.3,6.876.525,11.746-.1,13.274-.048,2.817-11.841-2.435-15.9a2.985,2.985,0,0,1-.573-4.2c3.629-3.772,7.592,2.674,10.934,6.159C965.928,332.343,968.365,338.312,963.111,343.278Z" transform="translate(-852.851 -272.083)" fill="#ed7e97"/>
    <path id="Path_1910" data-name="Path 1910" d="M967.539,341.186c-5.2,1.05-10.027-2.626-10.027-2.626a22.549,22.549,0,0,0,7.831,1.528,8.965,8.965,0,0,0,5.825-1.719,2.088,2.088,0,0,0,.812-1.767c-.1-3.772-5.825-9.979-9.024-12.414a3,3,0,0,1,2.722-5.252c-5.061,3.247,4.393,9.168,7.114,14.276C975.465,338.273,972.743,340.183,967.539,341.186Z" transform="translate(-864.774 -271.805)" fill="#e26988"/>
    <path id="Path_1911" data-name="Path 1911" d="M968.528,343.418a14.607,14.607,0,0,1-9.693,3.151,25.345,25.345,0,0,1-3.247-.239,30.739,30.739,0,0,1-6.828-1.767c16.33,3.868,22.537-4.3,20.675-10.457-1.814-6.112-10.122-14.658-10.266-14.754a2.379,2.379,0,0,1,.907.477,41.9,41.9,0,0,1,6.732,6.732c3.008,3.82,4.584,7.258,4.679,10.313A8.217,8.217,0,0,1,968.528,343.418Z" transform="translate(-858.269 -272.224)" fill="#f490aa"/>
    <path id="Path_1912" data-name="Path 1912" d="M956.195,345.361a27.488,27.488,0,0,1-3.342-.239,35.361,35.361,0,0,1-7.305-1.958.421.421,0,0,1-.239-.573.386.386,0,0,1,.525-.239,31.316,31.316,0,0,0,7.067,1.91,25.3,25.3,0,0,0,3.2.239,14.407,14.407,0,0,0,9.454-3.056,7.682,7.682,0,0,0,2.769-6.207c-.1-2.96-1.624-6.35-4.584-10.075a38.868,38.868,0,0,0-6.685-6.637,2.525,2.525,0,0,0-1.91-.477,2.58,2.58,0,0,0-1.194,4.631c3.056,2.292,9.072,8.595,9.167,12.749a2.286,2.286,0,0,1-.955,2.1c-3.915,3.342-11.507,1.289-14.085.239a.886.886,0,0,0-.334-.1.423.423,0,1,1,.239-.812c.143.048.334.1.477.143,2.435,1,9.6,2.913,13.226-.143a1.56,1.56,0,0,0,.621-1.432c-.1-3.629-5.825-9.788-8.833-12.08a3.432,3.432,0,0,1-.668-4.823,3.552,3.552,0,0,1,2.244-1.337,3.221,3.221,0,0,1,2.531.668,44.511,44.511,0,0,1,6.828,6.78c3.056,3.868,4.679,7.449,4.775,10.552a8.467,8.467,0,0,1-3.056,6.876A14.82,14.82,0,0,1,956.195,345.361Z" transform="translate(-855.674 -270.586)" fill="#bf4b6f"/>
    <path id="Path_1913" data-name="Path 1913" d="M709.253,365.481v23.444l-1.48-.43-35.954-10.266v-4.393l.621-.859,10.122-13.847a47.324,47.324,0,0,1,12.367,0C699.847,359.847,705.338,361.566,709.253,365.481Z" transform="translate(-652.378 -301.496)" fill="#e6ecff"/>
    <path id="Path_1914" data-name="Path 1914" d="M708.632,386.077s-15.136-15.518-37.291-10.934c-.239.048.621-.859.621-.859,7.258-2.913,22.012-.048,27.646,3.2,5.682,3.247,7.687,3.629,6.35-4.823-1.337-8.4-11.364-12.128-11.507-12.176,4.966.669,10.457,2.387,14.42,6.3Z" transform="translate(-651.992 -302.802)" fill="#f5f8ff"/>
    <path id="Path_1915" data-name="Path 1915" d="M707.6,440.711l-35.954-10.266v-1.48C671.6,428.965,697,428.488,707.6,440.711Z" transform="translate(-652.251 -353.712)" fill="#c7d1ea"/>
    <path id="Path_1916" data-name="Path 1916" d="M855.04,373.852v4.393l-34.569,9.836-2.913.812V365.448c9.168-9.072,26.739-6.3,26.739-6.3Z" transform="translate(-760.727 -301.511)" fill="#e6ecff"/>
    <path id="Path_1917" data-name="Path 1917" d="M820.752,428.037A50.913,50.913,0,0,1,835.6,419.92c9.168-3.247,21.152-2.387,21.152-2.387l-.143-1.194s-23.683-3.915-37,11.555Z" transform="translate(-762.249 -343.998)" fill="#f5f8ff"/>
    <path id="Path_1918" data-name="Path 1918" d="M863.48,428.972v1.48l-34.569,9.836C833.877,436.8,845.193,430.5,863.48,428.972Z" transform="translate(-769.167 -353.719)" fill="#c7d1ea"/>
    <path id="Path_1919" data-name="Path 1919" d="M818.17,386.077s15.136-15.518,37.291-10.934c.239.048-.621-.859-.621-.859-7.258-2.913-22.011-.048-27.646,3.2-5.682,3.247-7.687,3.629-6.35-4.823,1.337-8.4,11.364-12.128,11.507-12.176-4.966.669-10.457,2.387-14.42,6.3Z" transform="translate(-761.004 -302.802)" fill="#c7d1ea"/>
    <path id="Path_1920" data-name="Path 1920" d="M707.968,388.2a.382.382,0,0,1-.107-.015l-1.48-.43-35.952-10.265a.384.384,0,0,1-.279-.37v-4.393a.384.384,0,0,1,.073-.225l.621-.86L680.966,357.8a.385.385,0,0,1,.251-.153,48.23,48.23,0,0,1,12.479,0c6.28.914,11.172,3.087,14.544,6.46a.385.385,0,0,1,.113.272v23.444a.385.385,0,0,1-.385.385Zm-37.049-11.37,35.675,10.186.99.287V364.535c-3.249-3.189-7.956-5.251-13.995-6.13a47.737,47.737,0,0,0-12.1-.023L671.465,372.1l-.546.757v3.978Z" transform="translate(-651.136 -300.39)" fill="#8196c9"/>
    <path id="Path_1921" data-name="Path 1921" d="M816.443,388.213a.385.385,0,0,1-.385-.385V364.385a.385.385,0,0,1,.114-.273c9.2-9.1,26.892-6.438,27.069-6.409a.384.384,0,0,1,.251.153l10.743,14.706a.384.384,0,0,1,.074.227v4.393a.384.384,0,0,1-.28.37l-34.569,9.836-2.914.813A.4.4,0,0,1,816.443,388.213Zm.385-23.667v22.775l2.425-.676,34.288-9.756v-3.977L842.966,358.44C841.221,358.2,825.326,356.3,816.828,364.546Z" transform="translate(-759.611 -300.448)" fill="#8196c9"/>
    <path id="Path_1922" data-name="Path 1922" d="M802.483,464.9s3.533-5.252,7.687,0C810.17,464.9,806.637,469.433,802.483,464.9Z" transform="translate(-749.519 -378.692)" fill="#e6ecff"/>
    <path id="Path_1923" data-name="Path 1923" d="M805.205,466.18a5.647,5.647,0,0,1-4.121-2.141.385.385,0,0,1-.036-.475c.066-.1,1.648-2.41,4.024-2.5,1.5-.064,2.938.776,4.284,2.478a.385.385,0,0,1,0,.475,5.89,5.89,0,0,1-3.982,2.161Q805.291,466.18,805.205,466.18Zm-3.334-2.429a4.658,4.658,0,0,0,3.469,1.657,4.986,4.986,0,0,0,3.21-1.638,4.439,4.439,0,0,0-3.445-1.938A4.821,4.821,0,0,0,801.871,463.751Z" transform="translate(-748.404 -377.574)" fill="#8196c9"/>
    <path id="Path_1924" data-name="Path 1924" d="M703.982,444.593a6.639,6.639,0,0,1-4.3-1.576c-22.489-6.589-34-9.932-34.283-10.027a.906.906,0,0,1,.573-1.719c.191.048,4.966,1.48,34.378,10.075a.771.771,0,0,1,.334.191l.048.048a4.811,4.811,0,0,0,6.4,0,1.2,1.2,0,0,1,.334-.191c15.614-4.584,34-9.932,34.474-10.075a.909.909,0,0,1,1.146.573.929.929,0,0,1-.573,1.146c-.382.143-26.118,7.639-34.33,10.075A6.829,6.829,0,0,1,703.982,444.593Z" transform="translate(-647.151 -355.398)" fill="#4150d8"/>
    <path id="Path_1925" data-name="Path 1925" d="M702.866,443.861a7.046,7.046,0,0,1-4.483-1.614q-19.738-5.783-28.123-8.224c-4.1-1.2-5.971-1.743-6.1-1.785a1.217,1.217,0,0,1-.744-.644,1.346,1.346,0,0,1-.076-.978,1.223,1.223,0,0,1,.648-.755,1.345,1.345,0,0,1,.977-.076c.037.009.265.076,1.332.39,2.729.8,11.031,3.251,33.043,9.683a1.173,1.173,0,0,1,.5.287l.049.049a4.4,4.4,0,0,0,5.869-.016,1.164,1.164,0,0,1,.36-.221l.059-.027a.415.415,0,0,1,.063-.025c11.591-3.4,24.627-7.2,30.893-9.03l3.579-1.044a1.293,1.293,0,0,1,1.625.83,1.312,1.312,0,0,1-.8,1.614c-.2.075-5.2,1.54-14.031,4.122-7.543,2.207-16.087,4.706-20.262,5.944A7.24,7.24,0,0,1,702.866,443.861ZM664.575,430.5a.559.559,0,0,0-.246.055.463.463,0,0,0-.247.284.585.585,0,0,0,.031.42.464.464,0,0,0,.283.247c.134.044,2.246.66,6.079,1.78q8.378,2.445,28.2,8.247a.385.385,0,0,1,.14.075,6.276,6.276,0,0,0,4.049,1.485,6.458,6.458,0,0,0,3.962-1.4.392.392,0,0,1,.131-.069c4.15-1.23,12.749-3.746,20.336-5.965,7.049-2.062,13.706-4.009,13.973-4.1a.539.539,0,0,0,.336-.674.524.524,0,0,0-.667-.315c-.123.037-1.436.42-3.585,1.046-6.259,1.825-19.279,5.62-30.861,9.021l-.055.025a.678.678,0,0,0-.145.077,5.182,5.182,0,0,1-6.927.015l-.064-.063a.4.4,0,0,0-.183-.1c-22-6.428-30.3-8.876-33.032-9.68-.873-.257-1.271-.375-1.319-.387A.655.655,0,0,0,664.575,430.5Z" transform="translate(-646.035 -354.281)" fill="#31409b"/>
    <path id="Path_1926" data-name="Path 1926" d="M732.847,406.437a.686.686,0,0,1-.477-.287l-.143-.143c-.048-.048-.048-.1-.1-.1-.143-.239-.191-.382-.239-.43a.606.606,0,0,1-.287.048.438.438,0,0,1-.287-.191c-.239-.382-.573-.812-.907-.716-.1,0-.143.048-.239,0-.382-.1-.621-.43-.907-.812a3.029,3.029,0,0,0-.477-.573.167.167,0,0,0-.048.1,1,1,0,0,1-.287.191.4.4,0,0,1-.334-.1c-.048-.048-.143,0-.334.1a1.336,1.336,0,0,1-1.146.1,2.215,2.215,0,0,1-.955-1.289,4.317,4.317,0,0,1-2.865-1.289l-.048-.048a2.088,2.088,0,0,0-1.862-.716,4.712,4.712,0,0,1-1.146-.143.248.248,0,0,1-.191-.1,3.242,3.242,0,0,0-2.435-.668h-1c-.191-.048-.43-.143-.621-.191a4.872,4.872,0,0,0-3.056-.287,3.623,3.623,0,0,1-2.722.143,4.049,4.049,0,0,0-1.671-.143.459.459,0,0,1-.143-.907,4.941,4.941,0,0,1,2.053.143,3,3,0,0,0,2.149-.1.167.167,0,0,1,.1-.048,5.651,5.651,0,0,1,3.676.239,2.689,2.689,0,0,1,.573.191h.812a4.1,4.1,0,0,1,3.008.812c.286.048.573.048.859.1a3.175,3.175,0,0,1,2.531,1.05,3.184,3.184,0,0,0,2.483,1,.525.525,0,0,1,.477.287c.287.859.525,1,.573,1.05.1.048.191,0,.43-.1a1.274,1.274,0,0,1,.859-.143.718.718,0,0,1,.525-.191h0c.525,0,.907.477,1.241.907a3.372,3.372,0,0,0,.334.43c.525-.1,1.05.191,1.528.859a.432.432,0,0,1,.239.048,1.519,1.519,0,0,1,.859.859l.048.048a.459.459,0,0,1,.334.43.444.444,0,0,1-.334.477A1.543,1.543,0,0,1,732.847,406.437Zm-4.059-3.2Z" transform="translate(-678.928 -330.516)" fill="#8196c9"/>
    <path id="Path_1927" data-name="Path 1927" d="M831.063,404.106h0a.471.471,0,0,1-.477-.43.505.505,0,0,1,.239-.477c.048-.048.143-.048.287-.048h0c.048-.048.048-.1.1-.143l.143-.143a2.578,2.578,0,0,1,1.576-.907.287.287,0,0,1,.191.048,2.141,2.141,0,0,0,.621-.477,3.678,3.678,0,0,1,1.289-.812,1.885,1.885,0,0,1,1.194-.573c.048,0,.143-.048.191-.048a1.064,1.064,0,0,0,.621-.287,1.189,1.189,0,0,1,.525-.668.882.882,0,0,1,.716.048h0a.047.047,0,0,1,.048-.048.986.986,0,0,1,1.05-.382c.191,0,.239,0,.287-.048a.446.446,0,0,1,.621-.048c.1.1.191.048.621-.239l.287-.143a.047.047,0,0,0,.048-.048c.143-.048.239-.143.382-.191a2.445,2.445,0,0,1,1.337-.382h.1a.927.927,0,0,0,.573-.143,2.523,2.523,0,0,1,.716-.239,2.287,2.287,0,0,1,1.719-.43,2.672,2.672,0,0,1,.382-.287,3.464,3.464,0,0,1,1.194-.716c.621-.477,1.242.048,1.576.334a1.462,1.462,0,0,0,.334.239,2.027,2.027,0,0,1,1.48-.1c.143.048.287.048.43.1h.812a8.426,8.426,0,0,1,1.1,0c.048,0,.1.048.191.048a1.154,1.154,0,0,0,.812.048,2.887,2.887,0,0,1,.907,0,3.247,3.247,0,0,1,2.149.334.459.459,0,1,1-.43.811,2.311,2.311,0,0,0-1.671-.191h-.191a1.575,1.575,0,0,0-.669,0,2.088,2.088,0,0,1-1.289-.143,5.164,5.164,0,0,0-.859,0H851.4a2.4,2.4,0,0,1-.573-.1c-.43-.1-.669-.143-.955.1a.515.515,0,0,1-.382.1,1.91,1.91,0,0,1-.859-.477,3.245,3.245,0,0,0-.43-.287l-.048.048a.412.412,0,0,1-.287.143c-.239,0-.525.287-.812.525a2.151,2.151,0,0,1-.669.477.358.358,0,0,1-.43,0c-.334-.143-.668,0-1.194.334a.358.358,0,0,1-.239.048,2.936,2.936,0,0,0-.525.143,1.835,1.835,0,0,1-1.146.191,2.187,2.187,0,0,0-.764.287,4.5,4.5,0,0,1-.477.239c-.048.048-.143.1-.191.143a1.661,1.661,0,0,1-1.337.382,1.2,1.2,0,0,1-.764.143c-.191,0-.191,0-.239.048a.814.814,0,0,1-1.146.334c0,.048-.048.1-.048.143s-.048.1-.1.143a1.619,1.619,0,0,1-1.194.621.287.287,0,0,0-.191.048h-.143c-.191,0-.477.239-.716.43a.364.364,0,0,1-.239.1,2.182,2.182,0,0,0-.955.621,1.844,1.844,0,0,1-1.432.668,2.355,2.355,0,0,0-.955.621l-.1.1a.759.759,0,0,1-.525.477.214.214,0,0,1-.239,0Zm7.21-4.775Z" transform="translate(-770.412 -328.948)" fill="#8196c9"/>
    <path id="Path_1928" data-name="Path 1928" d="M833.79,386.1a.587.587,0,0,1-.525-.334.481.481,0,0,1-.287-.525.494.494,0,0,1,.382-.43c.143,0,.239,0,.286.048a.475.475,0,0,1,.382-.287h.143a1.04,1.04,0,0,0,.143-.239c.191-.334.43-.907.955-.859a.77.77,0,0,1,.669.573c0-.048.048-.048.048-.1.048-.143.143-.239.191-.382.287-.43.573-1,1.146-.955a.771.771,0,0,1,.668.43,2.237,2.237,0,0,0,1.958-.812l.048-.048a2.053,2.053,0,0,1,1.528-.287,1.35,1.35,0,0,0,1.194-.287.542.542,0,0,1,.382-.143,2.786,2.786,0,0,0,1.05-.143l.191-.048a2.5,2.5,0,0,1,1.671,0,.439.439,0,0,1-.334.812,1.476,1.476,0,0,0-1.1.048l-.191.048a4.8,4.8,0,0,1-1.194.191,2.178,2.178,0,0,1-1.719.382,1.249,1.249,0,0,0-.955.143,2.925,2.925,0,0,1-3.008.907.393.393,0,0,1-.239-.239.047.047,0,0,0-.048-.048c-.1.143-.239.382-.287.477a2.754,2.754,0,0,1-.191.334c-.239.43-.477.907-.955.859-.382-.048-.525-.382-.621-.621,0,.048-.048.048-.048.1-.191.43-.43.859-.812.907a.634.634,0,0,1-.525.382C833.838,386.1,833.79,386.1,833.79,386.1Z" transform="translate(-772.184 -318.153)" fill="#8196c9"/>
    <path id="Path_1929" data-name="Path 1929" d="M739.387,385.59h0a.727.727,0,0,1-.573-.334h0c-.382,0-.669-.43-.907-.812a.148.148,0,0,1-.048-.1c-.048.239-.191.621-.525.669-.477.1-.764-.334-1.05-.764-.048-.1-.143-.191-.191-.287a2.744,2.744,0,0,0-.382-.43v.048a.576.576,0,0,1-.239.239,3.024,3.024,0,0,1-3.1-.573,1.312,1.312,0,0,0-.955,0,2.382,2.382,0,0,1-1.767-.191,4.9,4.9,0,0,1-1.194-.048l-.191-.048a1.973,1.973,0,0,0-1.1.1.459.459,0,0,1-.43-.811,2.311,2.311,0,0,1,1.671-.191l.191.048a2.583,2.583,0,0,0,1.05,0,.372.372,0,0,1,.382.1,1.323,1.323,0,0,0,1.194.143,2.288,2.288,0,0,1,1.576.1.047.047,0,0,1,.048.048,2.333,2.333,0,0,0,2.053.573.944.944,0,0,1,.621-.525c.525-.1.907.43,1.241.812.1.1.143.239.239.334a.167.167,0,0,1,.048.1c.1-.239.239-.573.621-.621.477-.1.812.43,1.05.764a1.051,1.051,0,0,0,.143.239c.048,0,.1-.048.143-.048a.418.418,0,0,1,.43.239.678.678,0,0,1,.286-.1.458.458,0,0,1,.43.382.53.53,0,0,1-.191.525C739.817,385.4,739.673,385.59,739.387,385.59Z" transform="translate(-693.012 -318.788)" fill="#8196c9"/>
    <path id="Path_1930" data-name="Path 1930" d="M942.235,394.281h0c.1.1.191.143.287.239a1.609,1.609,0,0,0,.668.239A6.322,6.322,0,0,1,947.153,397a1.5,1.5,0,1,0,2.388-1.814,30.368,30.368,0,0,1-2.531-1.719c-.478-.43.525-.239-.239-.669h0a7.669,7.669,0,0,0-3.247-1.05h-.048a2.324,2.324,0,0,0-.573.048,1.493,1.493,0,0,0-1.05,1.337A1.408,1.408,0,0,0,942.235,394.281Z" transform="translate(-853.126 -326.047)" fill="#ed7e97"/>
    <path id="Path_1931" data-name="Path 1931" d="M942.235,394.557c0-1.241,1.623-1.528,2.96-1.576h0a7.727,7.727,0,0,1,1.576.1l-2.483-.621h0l-1.385-.334a1.493,1.493,0,0,0-1.05,1.337A1.362,1.362,0,0,0,942.235,394.557Z" transform="translate(-853.127 -326.323)" fill="#f490aa"/>
    <path id="Path_1932" data-name="Path 1932" d="M946.174,396.3a.434.434,0,0,1-.334-.143h0a7.318,7.318,0,0,0-3.963-2.1,2.278,2.278,0,0,1-.859-.287,1.777,1.777,0,0,1-.859-1.767,1.935,1.935,0,0,1,2.1-1.767,9.183,9.183,0,0,1,4.345,1.767.411.411,0,1,1-.477.668,9.018,9.018,0,0,0-3.963-1.623,1.07,1.07,0,0,0-1.146,1,1.087,1.087,0,0,0,.477,1,2,2,0,0,0,.478.191,7.574,7.574,0,0,1,4.536,2.435.4.4,0,0,1-.1.573A2,2,0,0,1,946.174,396.3Z" transform="translate(-851.86 -324.918)" fill="#bf4b6f"/>
    <path id="Path_1933" data-name="Path 1933" d="M625.231,314.815c-13.8,10.5-24.638,5.4-20.006-13.513,2.006-6.732,1.958-12.223,7.162-9.836,2.005,1.958,1.1,2.865.191,5.777-1.48,4.058-3.342,13.8-1.671,16.234,2.149,2.292,7.449-1.385,10.313-3.151C624.037,308.226,627.666,312.284,625.231,314.815Z" transform="translate(-602.061 -251.069)" fill="#ed7e97"/>
    <path id="Path_1934" data-name="Path 1934" d="M622.356,316.768c-.621.382-1.337.764-2.1,1.146-3.868,1.91-7.162,2.578-9.788,1.958a7.03,7.03,0,0,1-4.727-3.82q-2.435-4.942-.287-14.9a67.888,67.888,0,0,1,2.483-8.5,3,3,0,0,1,3.868-1.767,2.423,2.423,0,0,1,.764.43h0s-2.483-.287-3.724,4.632-3.963,16.712-.191,20.961S622.165,316.863,622.356,316.768Z" transform="translate(-602.29 -250.921)" fill="#f490aa"/>
    <path id="Path_1935" data-name="Path 1935" d="M633.623,315.834c-9.645,7.735-11.03,4.44-10.934-2.96.143-7.353,4.3-15.852,4.3-15.852h0l.287.764a2.911,2.911,0,0,1-.143,1.671s-.334.907-.812,2.292c-.43,1.432-1,3.342-1.48,5.443-1.1,4.966-1.146,8.881-.191,10.791a1.139,1.139,0,0,0,.764.668C627.321,319.176,631,317.457,633.623,315.834Z" transform="translate(-615.849 -255.621)" fill="#e26988"/>
    <path id="Path_1936" data-name="Path 1936" d="M611.31,319.435a10.2,10.2,0,0,1-2.149-.239,7.45,7.45,0,0,1-5.013-4.011c-1.671-3.342-1.767-8.451-.287-15.136a62.971,62.971,0,0,1,2.531-8.547,3.445,3.445,0,1,1,6.446,2.435,64.659,64.659,0,0,0-2.244,7.687c-1.05,4.87-1.146,8.69-.239,10.5.191.334.287.382.477.43,1.767.43,5.73-1.385,8.595-3.294a.411.411,0,1,1,.477.668c-2.149,1.432-6.828,4.011-9.263,3.438a1.574,1.574,0,0,1-1.05-.859c-1-2.006-.955-6.016.191-11.077a60.606,60.606,0,0,1,2.292-7.831,2.614,2.614,0,0,0-1.48-3.342,2.574,2.574,0,0,0-3.342,1.48,65.755,65.755,0,0,0-2.483,8.451c-1.432,6.494-1.385,11.412.239,14.611a6.673,6.673,0,0,0,4.44,3.581c2.531.621,5.73-.048,9.5-1.91a42.98,42.98,0,0,0,4.679-2.769,1.453,1.453,0,0,0,.382-.382,2,2,0,0,0,.43-.668.427.427,0,0,1,.764.382,2.869,2.869,0,0,1-.54.908,2.428,2.428,0,0,1-.558.428,41.1,41.1,0,0,1-4.775,2.865A18.851,18.851,0,0,1,611.31,319.435Z" transform="translate(-601.08 -249.864)" fill="#bf4b6f"/>
    <path id="Path_1937" data-name="Path 1937" d="M693.61,375.012l4.106-4.106,1.528,3.677,1.385,3.342-3.342-1.385Z" transform="translate(-668.578 -310.55)" fill="#ffca3b"/>
    <path id="Path_1938" data-name="Path 1938" d="M707.94,387.056a8.45,8.45,0,0,1,.812-1.146,6.216,6.216,0,0,1,1.1-.859l1.385,3.342Z" transform="translate(-679.232 -321.065)" fill="#ea2a21"/>
    <path id="Path_1939" data-name="Path 1939" d="M699.321,376.83c-.248-.559-3.252-1.055-3.3-1.1l-3.715-1.494a.353.353,0,0,1-.239-.287.372.372,0,0,1,.1-.382l4.106-4.106a.372.372,0,0,1,.382-.1.489.489,0,0,1,.287.239l1.445,3.653a22.248,22.248,0,0,1,1.146,3.27C699.48,376.572,699.359,376.917,699.321,376.83Zm-6.339-3.208,5.989,2.8-2.71-6.151Z" transform="translate(-667.417 -309.389)" fill="#e29700"/>
    <rect id="Rectangle_6130" data-name="Rectangle 6130" width="5.825" height="29.173" transform="translate(4.321 43.878) rotate(-45.146)" fill="#ea2a21"/>
    <path id="Path_1940" data-name="Path 1940" d="M632.456,314.558a.384.384,0,0,1-.271-.112L611.5,293.87a.385.385,0,0,1,0-.544l4.109-4.13a.385.385,0,0,1,.272-.113.394.394,0,0,1,.273.112l20.681,20.576a.385.385,0,0,1,0,.544l-4.108,4.13A.385.385,0,0,1,632.456,314.558ZM612.319,293.6l20.135,20.033,3.566-3.584-20.135-20.033Z" transform="translate(-607.453 -249.719)" fill="#b7130b"/>
    <path id="Path_1941" data-name="Path 1941" d="M640.23,318.407c-.1,0-.046.11-.094.014l-20.722-20.579a.405.405,0,0,1,.573-.573l20.675,20.579c.143.143-.048.273-.191.417A.264.264,0,0,1,640.23,318.407Z" transform="translate(-613.338 -255.725)" fill="#b7130b"/>
    <path id="Path_1942" data-name="Path 1942" d="M605.581,288.115l4.775-4.679,1.528,1.576-4.679,4.679Z" transform="translate(-603.134 -245.521)" fill="#e6ecff"/>
    <path id="Path_1943" data-name="Path 1943" d="M598.437,276.292h0a2.882,2.882,0,0,1,4.106,0l1.528,1.528-4.106,4.106-1.528-1.528A2.881,2.881,0,0,1,598.437,276.292Z" transform="translate(-597.184 -239.571)" fill="#ffca3b"/>
    <path id="Path_1944" data-name="Path 1944" d="M598.824,281.076a.341.341,0,0,1-.287-.143l-1.528-1.528a3.372,3.372,0,0,1,0-4.727h0a3.372,3.372,0,0,1,4.727,0l1.528,1.528c.143.143,0,.272-.144.415l-4.225,4.025c-.1.143.072.43-.071.43Zm.525-6.541a2.534,2.534,0,0,0-1.767.716h0a2.537,2.537,0,0,0,0,3.533l1.542,1.532,3.581-3.439-1.637-1.627A2.421,2.421,0,0,0,599.349,274.535Zm-2.053.477Z" transform="translate(-596.042 -238.291)" fill="#e29700"/>
    <path id="Path_1945" data-name="Path 1945" d="M673.347,342.887a1.711,1.711,0,0,1-.191.525,1.286,1.286,0,0,1-.334.382,4.123,4.123,0,0,0-.669.621h0a4.212,4.212,0,0,0-.573.812h0a3.144,3.144,0,0,0-.43,1.289,3.893,3.893,0,0,0,.048,1.241h0l-1.48,2.292-1.385-1.337a5.35,5.35,0,0,1-.239-2.005,6.837,6.837,0,0,1,2.865-5.252,1.465,1.465,0,0,1,2.1.239A1.855,1.855,0,0,1,673.347,342.887Z" transform="translate(-649.605 -288.404)" fill="#ed7e97"/>
    <path id="Path_1946" data-name="Path 1946" d="M680.269,349.717a1.762,1.762,0,0,1-.239,1.289l-.287.287a2.378,2.378,0,0,0-.382.334,5.248,5.248,0,0,0-.716.764,4.649,4.649,0,0,0-1,2.34l-3.39,2.292.382-2.34a4.035,4.035,0,0,1,.143-.955,8.34,8.34,0,0,1,.477-1.432,2.226,2.226,0,0,1,.239-.477,8.622,8.622,0,0,1,1.48-2.005c.239-.239.478-.477.764-.716.048-.048.143-.1.191-.143a1.467,1.467,0,0,1,2.1.287A.759.759,0,0,1,680.269,349.717Z" transform="translate(-654.187 -293.993)" fill="#ed7e97"/>
    <path id="Path_1947" data-name="Path 1947" d="M684.013,359.566h0c-.048.1-.143.191-.191.287a1.062,1.062,0,0,1-.621.382,6.165,6.165,0,0,0-3.2,3.2,8.643,8.643,0,0,1-1.958.812c-.812-.1-1.146-1.194-.812-1.958a9.649,9.649,0,0,1,.621-1.194,10.72,10.72,0,0,1,1.432-1.814h0a7.849,7.849,0,0,1,2.865-1.862h0a2.462,2.462,0,0,1,.525-.1,1.476,1.476,0,0,1,1.385,1A1.413,1.413,0,0,1,684.013,359.566Z" transform="translate(-656.308 -300.451)" fill="#ed7e97"/>
    <path id="Path_1948" data-name="Path 1948" d="M672.893,341.88a7.949,7.949,0,0,0-4.966,5.013,6.837,6.837,0,0,1,2.865-5.252A1.46,1.46,0,0,1,672.893,341.88Z" transform="translate(-649.484 -288.543)" fill="#f490aa"/>
    <path id="Path_1949" data-name="Path 1949" d="M682.956,349.395c-.1.048-1.623-.382-4.584,2.435a.543.543,0,0,1-.43.1c-.143,0-.1-.143.239-.477.048-.048.287-.382.669-.907h0a5.977,5.977,0,0,0,.573-.812h0c.048-.1.143-.191.191-.287.287-.382.621-.812,1-1.241a1.711,1.711,0,0,1-.191.525c.048-.048.143-.1.191-.143a1.467,1.467,0,0,1,2.1.287A1.059,1.059,0,0,1,682.956,349.395Z" transform="translate(-656.874 -293.67)" fill="#f490aa"/>
    <path id="Path_1950" data-name="Path 1950" d="M690.335,359.564c-.334-1.241-2.005-1.05-3.247-.764h0a13.057,13.057,0,0,0-1.48.477l2.2-1.241h0l1.241-.716a1.476,1.476,0,0,1,1.385,1A1.6,1.6,0,0,1,690.335,359.564Z" transform="translate(-662.629 -300.45)" fill="#f490aa"/>
    <path id="Path_1951" data-name="Path 1951" d="M666.737,347.445a.459.459,0,0,1-.43-.334,7.218,7.218,0,0,1,2.913-7.067,1.908,1.908,0,0,1,1.432-.43,1.956,1.956,0,0,1,1.289.716,1.868,1.868,0,0,1,.143,2.2.418.418,0,0,1-.716-.43,1.079,1.079,0,0,0-.1-1.241.906.906,0,0,0-.716-.382,1.029,1.029,0,0,0-.812.239,6.515,6.515,0,0,0-2.626,6.255.474.474,0,0,1-.241.478Z" transform="translate(-648.199 -287.28)" fill="#bf4b6f"/>
    <path id="Path_1952" data-name="Path 1952" d="M676.205,351.831a.175.175,0,0,1-.143-.048.386.386,0,0,1-.239-.525,8.674,8.674,0,0,1,3.008-4.011,1.934,1.934,0,0,1,1.432-.382,1.956,1.956,0,0,1,1.289.716,1.7,1.7,0,0,1,.153,2.125c-.143.191-.487.406-.678.263a.4.4,0,0,1-.1-.573,1.074,1.074,0,0,0,0-1.289,1.131,1.131,0,0,0-.716-.43,1.029,1.029,0,0,0-.812.239,7.931,7.931,0,0,0-2.722,3.629A.857.857,0,0,1,676.205,351.831Z" transform="translate(-655.328 -292.669)" fill="#bf4b6f"/>
    <path id="Path_1953" data-name="Path 1953" d="M683.428,363.444a.361.361,0,0,1-.191-.048c-.191-.1-.368-.178-.321-.369,0-.048,1.658-3.451,4.045-4.358a.7.7,0,0,0,.43-.287,1.143,1.143,0,0,0,.239-1.1,1.045,1.045,0,0,0-.573-.621.978.978,0,0,0-.812-.048,7.933,7.933,0,0,0-3.1,2.149.406.406,0,0,1-.621-.525,8.8,8.8,0,0,1,3.438-2.387,1.987,1.987,0,0,1,1.48.048,2.048,2.048,0,0,1,1,1.1,1.952,1.952,0,0,1-.382,1.958,1.7,1.7,0,0,1-.764.525c-2.005.716-3.25,3.542-3.227,3.583A2.5,2.5,0,0,1,683.428,363.444Z" transform="translate(-660.259 -299.269)" fill="#bf4b6f"/>
    <path id="Path_1954" data-name="Path 1954" d="M779.759,329.963s-3.008,1-2.96,3.486c.048,2.531,4.25,1.432,5.825-.334l-1.671-1.337Z" transform="translate(-730.424 -280.111)" fill="#ea2a21"/>
    <path id="Path_1955" data-name="Path 1955" d="M777.32,334.249a3.394,3.394,0,0,1-1-.143,1.767,1.767,0,0,1-1.194-1.767c-.048-2.817,3.1-3.868,3.247-3.915a.391.391,0,0,1,.477.191l.859,2.006,1.91,1.1a.412.412,0,0,1,.143.287.886.886,0,0,1-.1.334A6.694,6.694,0,0,1,777.32,334.249Zm1.285-5.125c-.716.334-2.669,1.448-2.621,3.167a.993.993,0,0,0,.669,1c1,.382,3.132-.309,4.278-1.312l-1.461-.932-.1-.1Z" transform="translate(-729.178 -278.955)" fill="#b7130b"/>
    <path id="Path_1956" data-name="Path 1956" d="M776.707,339.128a.361.361,0,0,1-.334-.191.4.4,0,0,1,.1-.573,39.251,39.251,0,0,1,3.868-2.578.427.427,0,1,1,.382.764,39.107,39.107,0,0,0-3.772,2.531A2.116,2.116,0,0,1,776.707,339.128Z" transform="translate(-730.046 -284.406)" fill="#b7130b"/>
    <path id="Path_1957" data-name="Path 1957" d="M707.969,426.255a.383.383,0,0,1-.279-.12c-.074-.078-7.558-7.839-17.923-10.666a42.477,42.477,0,0,0-19.141-.756.385.385,0,0,1-.182-.748,43.269,43.269,0,0,1,19.526.761c10.578,2.885,18.2,10.8,18.278,10.878a.385.385,0,0,1-.279.65Z" transform="translate(-651.137 -341.999)" fill="#8196c9"/>
    <path id="Path_1958" data-name="Path 1958" d="M706.036,433.527a.384.384,0,0,1-.234-.08c-15.443-11.856-35.041-10.378-35.237-10.361a.385.385,0,0,1-.064-.767c.2-.016,20.085-1.523,35.769,10.518a.385.385,0,0,1-.234.69Z" transform="translate(-651.136 -348.722)" fill="#8196c9"/>
    <path id="Path_1959" data-name="Path 1959" d="M704.859,438.312a.383.383,0,0,1-.19-.051c-15.3-8.728-33.974-10.008-34.161-10.02a.385.385,0,0,1,.049-.768c.189.012,19.034,1.3,34.493,10.119a.385.385,0,0,1-.191.719Z" transform="translate(-651.136 -352.605)" fill="#8196c9"/>
    <path id="Path_1960" data-name="Path 1960" d="M816.444,426.256a.385.385,0,0,1-.279-.65c.076-.08,7.7-7.993,18.278-10.878a43.273,43.273,0,0,1,19.526-.761.385.385,0,0,1-.182.748,42.463,42.463,0,0,0-19.141.756c-10.373,2.829-17.849,10.588-17.923,10.666A.386.386,0,0,1,816.444,426.256Z" transform="translate(-759.612 -342)" fill="#8196c9"/>
    <path id="Path_1961" data-name="Path 1961" d="M823.97,433.526a.385.385,0,0,1-.234-.69c15.684-12.041,35.57-10.534,35.769-10.518a.385.385,0,0,1-.064.767c-.2-.017-19.794-1.495-35.237,10.361A.381.381,0,0,1,823.97,433.526Z" transform="translate(-765.208 -348.722)" fill="#8196c9"/>
    <path id="Path_1962" data-name="Path 1962" d="M828.554,438.312a.385.385,0,0,1-.191-.719c15.459-8.819,34.3-10.107,34.493-10.119a.385.385,0,0,1,.049.768c-.187.012-18.86,1.291-34.161,10.02A.386.386,0,0,1,828.554,438.312Z" transform="translate(-768.615 -352.605)" fill="#8196c9"/>
    <path id="Path_1963" data-name="Path 1963" d="M793.453,329.224h-.011c-6.815-.183-6.792-5.542-6.791-5.6a.393.393,0,0,1,.392-.378.385.385,0,0,1,.378.391c0,.192.008,4.651,6.042,4.813a.385.385,0,0,1-.01.77Z" transform="translate(-737.75 -275.121)" fill="#bf4b6f"/>
    <path id="Path_1964" data-name="Path 1964" d="M606.089,288.961a.383.383,0,0,1-.268-.109l-1.623-1.576a.384.384,0,0,1,0-.551l4.774-4.679a.41.41,0,0,1,.274-.11.385.385,0,0,1,.271.117l1.528,1.576a.385.385,0,0,1,0,.54l-4.679,4.679A.385.385,0,0,1,606.089,288.961ZM605.017,287l1.068,1.037,4.143-4.143-.995-1.026Z" transform="translate(-602.019 -244.406)" fill="#8196c9"/>
    <path id="Path_1965" data-name="Path 1965" d="M710.121,387.676a.384.384,0,0,1-.144-.028l-3.295-1.337a.385.385,0,0,1-.181-.561l.15-.238a6.068,6.068,0,0,1,1.871-1.883.4.4,0,0,1,.327-.044.39.39,0,0,1,.244.216l1.385,3.342a.385.385,0,0,1-.356.532Zm-2.721-1.9,2.013.817-.85-2.052A5.362,5.362,0,0,0,707.4,385.772Z" transform="translate(-678.118 -319.964)" fill="#b7130b"/>
  </g>
</svg>
