<svg xmlns="http://www.w3.org/2000/svg" width="26.617" height="24.59" viewBox="0 0 26.617 24.59">
  <g id="academic-cap-svgrepo-com" transform="translate(-2.683 -3.36)">
    <path id="Path_15375" data-name="Path 15375" d="M15.255,4.292l-11.517,6.4a.594.594,0,0,0,0,1.038l11.517,6.4a1.3,1.3,0,0,0,1.263,0l11.827-6.571a.4.4,0,0,0,0-.693L16.518,4.292A1.3,1.3,0,0,0,15.255,4.292Z" transform="translate(0)" fill="none" stroke="#263238" stroke-linecap="round" stroke-linejoin="round" stroke-width="1.5"/>
    <path id="Path_15376" data-name="Path 15376" d="M5.67,10.5l-.536,6.964a3.005,3.005,0,0,0,2.223,3.1c.906.249,1.9.546,2.674.834a19.85,19.85,0,0,1,3.318,1.721,3.359,3.359,0,0,0,3.54,0A19.857,19.857,0,0,1,20.207,21.4c.772-.288,1.768-.585,2.674-.835a3.005,3.005,0,0,0,2.223-3.1L24.568,10.5" transform="translate(0.768 2.89)" fill="none" stroke="#263238" stroke-linecap="round" stroke-linejoin="round" stroke-width="1.5"/>
    <path id="Path_15377" data-name="Path 15377" d="M13.088,10.5,9.465,12.57A2.907,2.907,0,0,0,8,15.094V24.31" transform="translate(2.072 2.89)" fill="none" stroke="#263238" stroke-linecap="round" stroke-linejoin="round" stroke-width="1.5"/>
  </g>
</svg>
