<svg xmlns="http://www.w3.org/2000/svg" width="16.614" height="20.442" viewBox="0 0 16.614 20.442">
  <g id="book-bookmark-minimalistic-svgrepo-com" transform="translate(-3.35 -1.35)">
    <path id="Path_1337" data-name="Path 1337" d="M4,7.743c0-2.707,0-4.061.841-4.9S7.036,2,9.743,2h3.828c2.707,0,4.061,0,4.9.841s.841,2.195.841,4.9V15.4c0,2.707,0,4.061-.841,4.9s-2.195.841-4.9.841H9.743c-2.707,0-4.061,0-4.9-.841S4,18.107,4,15.4Z" fill="none" stroke="#8d8d8d" stroke-width="1.3"/>
    <path id="Path_1338" data-name="Path 1338" d="M19.216,16H7.731a7.2,7.2,0,0,0-1.7.1A2.871,2.871,0,0,0,4,18.128" transform="translate(0 -0.6)" fill="none" stroke="#8d8d8d" stroke-width="1.3"/>
    <path id="Path_1339" data-name="Path 1339" d="M7,15.421V2.5" transform="translate(-0.129 -0.021)" fill="none" stroke="#8d8d8d" stroke-linecap="round" stroke-width="1.3"/>
    <path id="Path_1340" data-name="Path 1340" d="M12.828,16v3.379c0,.264,0,.4-.091.449s-.215-.006-.463-.124l-1.189-.565a.275.275,0,0,0-.342,0L9.554,19.7c-.248.118-.372.177-.463.124S9,19.643,9,19.379V16.431" transform="translate(-0.214 -0.6)" fill="none" stroke="#8d8d8d" stroke-linecap="round" stroke-width="1.3"/>
  </g>
</svg>
