<svg xmlns="http://www.w3.org/2000/svg" width="113.337" height="102.6" viewBox="0 0 113.337 102.6">
  <g id="_28189428_collection_of_cartoon_brain_characters_having_creative_idea_studying_and_reading_book" data-name="28189428_collection_of_cartoon_brain_characters_having_creative_idea_studying_and_reading_book" transform="translate(0 0)">
    <ellipse id="Ellipse_15" data-name="Ellipse 15" cx="30.28" cy="2.456" rx="30.28" ry="2.456" transform="translate(23.55 97.687)" fill="#c7d1ea"/>
    <path id="Path_1564" data-name="Path 1564" d="M320.761,403.785c-.938,4.2-2.322,8.888-3.394,13.13-1.117,4.153-2.278,8.352-3.484,12.5-.581,2.233-4.109,1.563-3.886-.715,1.072-8.307,2.054-17.373,2.9-25.725C313.348,397.89,321.387,398.694,320.761,403.785Z" transform="translate(-251.393 -331.599)" fill="#ed7e97"/>
    <path id="Path_1565" data-name="Path 1565" d="M220.283,428.757a1.992,1.992,0,0,1-3.886.536c-1.206-4.154-2.367-8.307-3.484-12.5-1.072-4.019-2.278-8.53-3.3-12.55-1.3-5.4,7.146-6.922,7.771-1.384C218.273,411.339,219.255,420.361,220.283,428.757Z" transform="translate(-175.701 -331.472)" fill="#ed7e97"/>
    <path id="Path_1566" data-name="Path 1566" d="M218.083,409.175l.4,3.707c-4.645,1.563-6.565-.179-6.565-.179l-.625-2.278c-.536-2.1-1.116-4.154-1.652-6.253a3.965,3.965,0,1,1,7.682-1.965,2.261,2.261,0,0,1,.089.581v.045Z" transform="translate(-175.735 -331.362)" fill="#e26988"/>
    <path id="Path_1567" data-name="Path 1567" d="M326.375,403.453a2.612,2.612,0,0,1-.089.581c-.536,2.1-1.072,4.2-1.652,6.253a7.454,7.454,0,0,1-7.191,1.876l.446-3.126.67-6.386h0a3.929,3.929,0,1,1,7.816.8Z" transform="translate(-257.007 -331.267)" fill="#e26988"/>
    <path id="Path_1568" data-name="Path 1568" d="M322.132,513.438h0c-.938,2.233-11.7,3.216-12.1-1.072v-.447h0c0-.134.045-.268.045-.4a.164.164,0,0,1,.045-.134l2.278-.67,2.188-.67h.045c.715.045,7.1.447,7.548,2.992A.434.434,0,0,1,322.132,513.438Z" transform="translate(-251.424 -414.813)" fill="#ed7e97"/>
    <path id="Path_1569" data-name="Path 1569" d="M330.694,478.439h0a19.2,19.2,0,0,0-7.816-2.322c-.134,0-.268-.045-.4-.045a1.2,1.2,0,0,1-.983-1.652l4.868-10.853-.4,1.563c-.893,3.3-1.786,6.61-2.724,9.915.715.045,7.1.447,7.548,2.992A.659.659,0,0,1,330.694,478.439Z" transform="translate(-259.986 -379.814)" fill="#f490aa"/>
    <path id="Path_1570" data-name="Path 1570" d="M216.032,512.1a3.448,3.448,0,0,1-.089.67c-1.027,4.153-12.5,2.724-12.1.268.446-2.5,6.833-2.948,7.548-2.992h.045l1.608.491,2.858.848a.337.337,0,0,0,.045.179,1.109,1.109,0,0,1,.045.357h0v.045c.045.045.045.045.045.134Z" transform="translate(-171.451 -414.814)" fill="#ed7e97"/>
    <path id="Path_1571" data-name="Path 1571" d="M213.3,475.4a.643.643,0,0,1-.625.893H212a20,20,0,0,0-7.95,1.563c.446-2.5,6.833-2.948,7.548-2.992-.938-3.3-1.831-6.61-2.724-9.915l-.4-1.563L213.3,475.4Z" transform="translate(-171.618 -379.678)" fill="#f490aa"/>
    <path id="Path_1572" data-name="Path 1572" d="M216.124,520.9c-1.027,4.154-12.5,2.724-12.1.268C204.021,521.209,210.5,523.263,216.124,520.9Z" transform="translate(-171.587 -422.985)" fill="#e26988"/>
    <path id="Path_1573" data-name="Path 1573" d="M322.132,520.565c-.938,2.233-11.7,3.216-12.1-1.116h.089S314.629,522.4,322.132,520.565Z" transform="translate(-251.424 -421.896)" fill="#e26988"/>
    <path id="Path_1574" data-name="Path 1574" d="M321.374,428.472c-.474-2.566-5.762-3.143-7.507-3.273.98-3.459,1.91-6.846,2.594-9.455l1.652-6.253c.581-2.1,1.116-4.2,1.652-6.3a1.575,1.575,0,0,0,.134-.625,4.32,4.32,0,0,0-.938-3.171,4.481,4.481,0,0,0-2.948-1.563,4.32,4.32,0,0,0-3.171.938,4.481,4.481,0,0,0-1.563,2.948l-.67,6.386-.715,6.386c-.4,3.8-.938,8.262-1.518,12.773h.008a2.929,2.929,0,0,0,1.332,2.768,8.975,8.975,0,0,0,4.957,1.206,12.581,12.581,0,0,0,5.761-1.206C321.329,429.455,321.463,428.874,321.374,428.472Zm-1.385.849c-1.876,1.251-7.458,1.742-9.781.089a2.228,2.228,0,0,1-.938-2.456h0c.625-4.556,1.027-8.62,1.385-12.326l.715-6.431.67-6.431a3.348,3.348,0,0,1,1.3-2.412,3.573,3.573,0,0,1,2.59-.759,3.348,3.348,0,0,1,2.412,1.3,3.573,3.573,0,0,1,.759,2.59,2.242,2.242,0,0,1-.089.536c-.536,2.1-1.117,4.154-1.652,6.253l-1.652,6.253c-.715,2.724-1.7,6.3-2.724,9.915a.539.539,0,0,0,0,.184.314.314,0,0,0,.042.135.324.324,0,0,0,.23.172.537.537,0,0,0,.191,0c1.947.065,6.782.745,7.133,2.632C320.614,428.874,320.257,429.142,319.989,429.321Z" transform="translate(-250.174 -330.294)" fill="#bf4b6f"/>
    <path id="Path_1575" data-name="Path 1575" d="M215.388,427.221h0c-.581-4.511-1.116-8.977-1.519-12.773l-.715-6.386-.67-6.386v-.045c-.045-.223-.089-.4-.134-.625a4.374,4.374,0,0,0-7.994-1.116,4.507,4.507,0,0,0-.447,3.305c.536,2.144,1.116,4.2,1.652,6.3l1.652,6.253c.7,2.666,1.716,5.838,2.722,9.363-1.709.124-7.108.69-7.545,3.276-.045.4.045.983.938,1.563a11.667,11.667,0,0,0,5.717,1.251,8.867,8.867,0,0,0,5-1.251A2.882,2.882,0,0,0,215.388,427.221Zm-1.826,2.1c-2.322,1.608-7.861,1.116-9.781-.089-.313-.179-.625-.447-.581-.759.357-1.92,5.315-2.546,7.235-2.635a.383.383,0,0,0,.345-.306.135.135,0,0,0,.012-.1.306.306,0,0,0-.043-.15c-1.014-3.566-2.067-7.078-2.771-9.765l-1.652-6.253c-.581-2.054-1.116-4.153-1.652-6.253a3.553,3.553,0,1,1,6.878-1.786,1.9,1.9,0,0,1,.089.491l.67,6.431.715,6.386c.4,3.752.938,8.262,1.519,12.773l.016,0A2.16,2.16,0,0,1,213.562,429.319Z" transform="translate(-170.365 -330.248)" fill="#bf4b6f"/>
    <path id="Path_1576" data-name="Path 1576" d="M414.212,299.747c-8.621,9.316-17.886,7.865-25.67,3.661.06-.12,2.882-4.45,3.022-4.73,15.747,8.55,23.319-7.638,25.274-20.8.564-3.614,6.235-2.668,5.571.946C421.6,283.02,419.513,293.463,414.212,299.747Z" transform="translate(-310.548 -238.264)" fill="#ed7e97"/>
    <path id="Path_1577" data-name="Path 1577" d="M435.383,312.132a13.258,13.258,0,0,0,9.873-4.94c3.481-3.95,5.749-12.456,6.613-16.769-.02.24-.63,8.128-3.014,13.478C446.452,309.29,440.953,313.977,435.383,312.132Z" transform="translate(-345.822 -249.428)" fill="#f490aa"/>
    <path id="Path_1578" data-name="Path 1578" d="M414.151,312.762c-5.841,6.663-12.553,7.293-17.186,6.668a23.179,23.179,0,0,1-7.167-2.247c-.8-.4-1.3-.7-1.337-.721l.36-.519,2.862-4.111a18.221,18.221,0,0,0,6.249,2.086,3.091,3.091,0,0,0,.379.04h0a5.285,5.285,0,0,0,5.048,3.682c4.214.265,12.488-3.578,18.768-24.762C421.543,296.235,419.072,307.137,414.151,312.762Z" transform="translate(-310.487 -251.279)" fill="#e26988"/>
    <path id="Path_1579" data-name="Path 1579" d="M507.565,260.214a3.076,3.076,0,0,0,.94-.678,2.554,2.554,0,0,0,.44-.479,8.035,8.035,0,0,0,1.361-2.315,14.513,14.513,0,0,0,.823-3.334,1.411,1.411,0,0,0-1.216-1.56,1.5,1.5,0,0,0-1.459.817,1.309,1.309,0,0,0-.1.4,7.584,7.584,0,0,1-1.624,4.332c-.12.14-.26.219-.28.259l.06-.02Z" transform="translate(-399.338 -220.375)" fill="#ed7e97"/>
    <path id="Path_1580" data-name="Path 1580" d="M495.934,268.887a1.38,1.38,0,0,0,1.6-.4,1.522,1.522,0,0,0,.24-.379.84.84,0,0,0,.08-.359,1.45,1.45,0,0,0-.857-1.479,2.539,2.539,0,0,1-.958-.68,2.67,2.67,0,0,1-.479-.64,3.681,3.681,0,0,1-.518-1.159,1.393,1.393,0,0,0-2.7.7h0A6.768,6.768,0,0,0,495.934,268.887Z" transform="translate(-388.687 -228.59)" fill="#ed7e97"/>
    <path id="Path_1581" data-name="Path 1581" d="M516.3,275.28a1.4,1.4,0,1,1-1.935-2.02,2.991,2.991,0,0,0,.7-.9,1.365,1.365,0,0,1-.178-1.738,1.438,1.438,0,0,1,1.958-.417,2.362,2.362,0,0,1,1.036,1.819,3.873,3.873,0,0,1-1.062,2.715C516.7,274.88,516.5,275.08,516.3,275.28Zm-.975-2.738Z" transform="translate(-404.976 -234.038)" fill="#ed7e97"/>
    <path id="Path_1582" data-name="Path 1582" d="M522.272,273.8l-.08-.04a.565.565,0,0,1,0-.733,2.936,2.936,0,0,0,.944-2.242,2.127,2.127,0,0,0-.877-1.539.768.768,0,0,0-.519-.16.4.4,0,0,1,0-.8,1.726,1.726,0,0,1,.9.3,2.882,2.882,0,0,1,1.236,2.119,3.976,3.976,0,0,1-1.142,2.975A.424.424,0,0,1,522.272,273.8Z" transform="translate(-410.551 -232.762)" fill="#bf4b6f"/>
    <path id="Path_1583" data-name="Path 1583" d="M516.378,256.823l.04-.08a14.511,14.511,0,0,0,.823-3.334,1.41,1.41,0,0,0-1.216-1.56,1.5,1.5,0,0,0-1.459.817C514.786,252.627,517.1,252.29,516.378,256.823Z" transform="translate(-405.45 -220.376)" fill="#f490aa"/>
    <path id="Path_1584" data-name="Path 1584" d="M492.223,264.529c.18-.259,1.06-1.317,3.235.424a3.678,3.678,0,0,1-.518-1.159,1.408,1.408,0,1,0-2.717.735Z" transform="translate(-388.585 -228.59)" fill="#f490aa"/>
    <path id="Path_1585" data-name="Path 1585" d="M505.994,256.625c.22-.451-.141-.089-.181-.109a.385.385,0,0,1-.019-.559,6.94,6.94,0,0,0,1.543-4.072,1.674,1.674,0,0,1,.7-1.2,1.915,1.915,0,0,1,1.339-.378,1.674,1.674,0,0,1,1.2.7,1.915,1.915,0,0,1,.378,1.339,13.149,13.149,0,0,1-1,3.793.38.38,0,0,1-.7-.3,12.8,12.8,0,0,0,.944-3.574.979.979,0,0,0-.219-.759.907.907,0,0,0-.659-.38.979.979,0,0,0-.759.219.907.907,0,0,0-.38.659c-.343,2.776-1.242,4.017-1.742,4.516C506.358,256.578,506.154,256.705,505.994,256.625Z" transform="translate(-398.761 -219.215)" fill="#bf4b6f"/>
    <path id="Path_1586" data-name="Path 1586" d="M493.383,267.527l-.04-.02a7.8,7.8,0,0,1-2.771-4.038,1.786,1.786,0,0,1,1.3-2.2,1.785,1.785,0,0,1,2.2,1.3,3.814,3.814,0,0,0,.866,1.641c.16.18.21.4.05.518a.433.433,0,0,1-.6,0,4.956,4.956,0,0,1-1.056-1.979,1.041,1.041,0,0,0-1.237-.721,1.1,1.1,0,0,0-.64.479,1.014,1.014,0,0,0-.081.759,6.863,6.863,0,0,0,2.488,3.486.558.558,0,0,1,.083.652A.48.48,0,0,1,493.383,267.527Z" transform="translate(-387.334 -227.432)" fill="#bf4b6f"/>
    <path id="Path_1587" data-name="Path 1587" d="M388.48,310.379c-.838-.421-1.337-.721-1.377-.741a.387.387,0,0,1-.18-.24.637.637,0,0,1,.04-.28l3-4.69.04-.08a.435.435,0,0,1,.559-.119,17.87,17.87,0,0,0,6.269,2.146c4.513.565,8.41-1.027,11.651-4.7,3.841-4.369,6.191-14.432,6.795-17.927a.4.4,0,1,1,.779.141c-.6,3.594-3.034,13.817-7,18.326-3.4,3.89-7.537,5.562-12.33,4.957a18.605,18.605,0,0,1-6.229-2.025l-2.6,4.091c.24.12.539.32.938.521a22.836,22.836,0,0,0,7.048,2.186c4.493.605,11.085.015,16.826-6.549,5.681-6.444,8.016-20.162,8.1-20.721a.4.4,0,1,1,.779.141c-.1.6-2.476,14.5-8.3,21.12-5.961,6.8-12.833,7.453-17.506,6.807A24.662,24.662,0,0,1,388.48,310.379Z" transform="translate(-309.329 -244.154)" fill="#bf4b6f"/>
    <path id="Path_1588" data-name="Path 1588" d="M172.384,198.414a12.161,12.161,0,0,1-12.148,12.148h-.447a12.15,12.15,0,0,1-11.7,8.843,11.843,11.843,0,0,1-6.119-1.652,12.178,12.178,0,0,1-9.826,5,12.041,12.041,0,0,1-8.262-3.26,12.141,12.141,0,0,1-17.686-1.206,12.175,12.175,0,0,1-16.033-5.717,6.454,6.454,0,0,1-.4-.983h0c-.313.045-.67.134-.983.179-.447.045-.938.089-1.429.089a12.149,12.149,0,0,1-10.942-6.878,12.273,12.273,0,0,1,.357-11.3,12.044,12.044,0,0,1-2.546-7.458,12.23,12.23,0,0,1,8.932-11.746,11.891,11.891,0,0,1-.446-3.35,12.161,12.161,0,0,1,12.148-12.148,12.41,12.41,0,0,1,4.823.983,12.165,12.165,0,0,1,21.75-5.4h0a12.568,12.568,0,0,1,10.763-6.029,12.15,12.15,0,0,1,12.1,11.076,12.142,12.142,0,0,1,15.989,11.523v.313a12.255,12.255,0,0,1,2.635.938,12.109,12.109,0,0,1,6.833,10.942,11.938,11.938,0,0,1-1.519,5.9A12.294,12.294,0,0,1,172.384,198.414Z" transform="translate(-73.848 -142.574)" fill="#fc9db8"/>
    <path id="Path_1589" data-name="Path 1589" d="M166.757,192.924a12.161,12.161,0,0,1-12.148,12.148h-.447a12.15,12.15,0,0,1-11.7,8.843,11.843,11.843,0,0,1-6.119-1.652,12.178,12.178,0,0,1-9.826,5,12.041,12.041,0,0,1-8.262-3.26,12.141,12.141,0,0,1-17.686-1.206,12.126,12.126,0,0,1-5.091,1.116,12.375,12.375,0,0,1-5.315-1.206,14.736,14.736,0,0,1-1.429-.8,11.939,11.939,0,0,1-4.6-5.761h0a10.7,10.7,0,0,1-2.68.223,12.7,12.7,0,0,1-5.047-1.206,12.274,12.274,0,0,1,.357-11.3h0a12.044,12.044,0,0,1-2.546-7.458,12.23,12.23,0,0,1,8.932-11.746,11.891,11.891,0,0,1-.447-3.35,12.161,12.161,0,0,1,12.148-12.148,12.41,12.41,0,0,1,4.824.983,12.165,12.165,0,0,1,21.75-5.4h.268a12.15,12.15,0,0,1,22.6,5.047,12.142,12.142,0,0,1,15.989,11.523h0v.313a12.256,12.256,0,0,1,2.635.938,12.377,12.377,0,0,1,1.206,5.315,11.938,11.938,0,0,1-1.519,5.9A12.054,12.054,0,0,1,166.757,192.924Z" transform="translate(-73.848 -142.712)" fill="#ffa6bd"/>
    <path id="Path_1590" data-name="Path 1590" d="M159.828,171.172c-4.064-13.13-16.882-9.468-16.882-9.468a12.619,12.619,0,0,0-9.066-9.066c-7.637-2.054-12.461,4.6-12.461,4.6A13.368,13.368,0,0,0,110.7,153.62c-6.7.715-9.379,9.379-9.379,9.379a16.424,16.424,0,0,0-12.1,1.384c-6.386,3.35-4.868,12.46-4.868,12.46-12.818,6.7-8.173,16.7-8.128,16.837a12.044,12.044,0,0,1-2.546-7.458,12.23,12.23,0,0,1,8.932-11.746,11.891,11.891,0,0,1-.447-3.35,12.16,12.16,0,0,1,12.148-12.148,12.41,12.41,0,0,1,4.823.983,12.165,12.165,0,0,1,21.75-5.4h.268a12.15,12.15,0,0,1,22.6,5.046,12.219,12.219,0,0,1,16.078,11.568Z" transform="translate(-73.44 -142.575)" fill="#ffb8cc"/>
    <path id="Path_1591" data-name="Path 1591" d="M287.375,318.44a.368.368,0,0,1-.045-.536c2.144-2.635,0-6.789-.045-6.833a.4.4,0,0,1,.089-.491c3.394-2.59,5.27-5.449,5.672-8.486a9.766,9.766,0,0,0-1.7-6.521.369.369,0,0,1,.045-.536c4.6-4.779.179-10.5-.045-10.763a.38.38,0,0,1,.581-.491c.045.045,4.868,6.3.179,11.523a10.087,10.087,0,0,1,1.652,6.789c-.4,3.171-2.278,6.118-5.717,8.8.491,1.072,1.965,4.779-.179,7.414A.369.369,0,0,1,287.375,318.44Z" transform="translate(-234.259 -244.334)" fill="#ed7e97"/>
    <path id="Path_1592" data-name="Path 1592" d="M131.014,221.995a12.4,12.4,0,0,1-8.265-3.132,12.506,12.506,0,0,1-17.788-1.253A12.543,12.543,0,0,1,88.7,211.6c-.045-.1-.085-.189-.126-.277-.065-.139-.136-.288-.2-.449l-.163.032c-.175.035-.35.07-.514.093a14.742,14.742,0,0,1-1.481.093,12.441,12.441,0,0,1-11.276-7.087,12.639,12.639,0,0,1,.251-11.426,12.35,12.35,0,0,1-2.476-7.494,12.607,12.607,0,0,1,8.85-12,12.607,12.607,0,0,1,12.155-15.615,12.839,12.839,0,0,1,4.539.839,12.532,12.532,0,0,1,22-5.537,13,13,0,0,1,10.8-5.754,12.593,12.593,0,0,1,12.424,10.958,12.512,12.512,0,0,1,16.038,12.011v.023a12.564,12.564,0,0,1,8.044,17.988,12.553,12.553,0,0,1-8.459,21.8h-.169a12.557,12.557,0,0,1-11.978,8.843,12.294,12.294,0,0,1-6.021-1.538A12.623,12.623,0,0,1,131.014,221.995Zm-8.262-4a.371.371,0,0,1,.253.1,11.666,11.666,0,0,0,8.009,3.16,11.884,11.884,0,0,0,9.527-4.851.37.37,0,0,1,.489-.1,11.512,11.512,0,0,0,5.928,1.6,11.811,11.811,0,0,0,11.345-8.573.371.371,0,0,1,.357-.27h.447a11.815,11.815,0,0,0,7.748-20.7.371.371,0,0,1-.076-.458,11.814,11.814,0,0,0-5.153-16.322,11.872,11.872,0,0,0-2.559-.911.37.37,0,0,1-.285-.36V170a11.772,11.772,0,0,0-15.5-11.171.37.37,0,0,1-.486-.32,11.84,11.84,0,0,0-11.734-10.737,12.192,12.192,0,0,0-10.443,5.845.371.371,0,0,1-.616.038,11.794,11.794,0,0,0-21.089,5.239.371.371,0,0,1-.51.282,12.083,12.083,0,0,0-4.679-.953A11.791,11.791,0,0,0,81.945,170a11.454,11.454,0,0,0,.432,3.246.37.37,0,0,1-.256.461,11.862,11.862,0,0,0-8.661,11.389,11.612,11.612,0,0,0,2.467,7.23.371.371,0,0,1,.033.407,11.9,11.9,0,0,0-.347,10.963,11.7,11.7,0,0,0,10.607,6.665c.48,0,.97-.045,1.392-.087.135-.02.3-.052.457-.084s.348-.069.51-.093a.372.372,0,0,1,.412.277,3.544,3.544,0,0,0,.254.644c.045.1.089.189.129.283a11.8,11.8,0,0,0,15.539,5.526.37.37,0,0,1,.441.1,11.77,11.77,0,0,0,17.149,1.168A.371.371,0,0,1,122.752,217.993Z" transform="translate(-72.718 -141.444)" fill="#bf4b6f"/>
    <path id="Path_1593" data-name="Path 1593" d="M195.272,262.761c-1.965,4.868-.223,10.138,3.841,11.746s8.932-1.027,10.853-5.9c1.965-4.868.223-10.138-3.841-11.746S197.237,257.893,195.272,262.761Z" transform="translate(-164.397 -223.803)" fill="#fff"/>
    <path id="Path_1594" data-name="Path 1594" d="M200.5,274.064a7.648,7.648,0,0,1-2.635-.491c-4.243-1.7-6.074-7.191-4.064-12.282h0a10.834,10.834,0,0,1,4.823-5.583,7.761,7.761,0,0,1,6.565-.536c4.243,1.7,6.074,7.191,4.064,12.282a10.834,10.834,0,0,1-4.823,5.583A8.6,8.6,0,0,1,200.5,274.064Zm2.01-18.579a7.457,7.457,0,0,0-3.528.938,10.047,10.047,0,0,0-4.466,5.181h0c-1.876,4.645-.223,9.691,3.618,11.255a6.765,6.765,0,0,0,5.9-.491,10.047,10.047,0,0,0,4.466-5.181c1.876-4.645.223-9.691-3.618-11.255A6.186,6.186,0,0,0,202.512,255.485Zm-8.352,5.984Z" transform="translate(-163.286 -222.512)" fill="#bf4b6f"/>
    <ellipse id="Ellipse_16" data-name="Ellipse 16" cx="5.941" cy="5.137" rx="5.941" ry="5.137" transform="translate(31.924 48.345) rotate(-82.08)" fill="#22213f"/>
    <path id="Path_1595" data-name="Path 1595" d="M216.34,283.581a1.614,1.614,0,0,1-2.144.759,1.583,1.583,0,0,1-1.027-2.01,1.614,1.614,0,0,1,2.144-.759A1.66,1.66,0,0,1,216.34,283.581Z" transform="translate(-178.409 -242.658)" fill="#fff"/>
    <path id="Path_1596" data-name="Path 1596" d="M341.41,260.45c2.054,4.823.446,10.138-3.573,11.835s-8.932-.8-10.987-5.627-.447-10.138,3.573-11.835C334.4,253.081,339.356,255.626,341.41,260.45Z" transform="translate(-263.418 -222.206)" fill="#fff"/>
    <path id="Path_1597" data-name="Path 1597" d="M334.007,271.905c-3.484,0-7.056-2.456-8.709-6.386-2.144-5-.446-10.54,3.751-12.371,4.2-1.786,9.379.8,11.523,5.851,2.144,5,.447,10.54-3.751,12.371A7.86,7.86,0,0,1,334.007,271.905Zm-2.144-18.534a6.926,6.926,0,0,0-2.5.491c-3.8,1.608-5.315,6.7-3.35,11.3s6.654,7.056,10.5,5.4c3.8-1.608,5.315-6.7,3.35-11.3h0C338.295,255.649,335.035,253.371,331.863,253.371Z" transform="translate(-262.223 -220.934)" fill="#bf4b6f"/>
    <ellipse id="Ellipse_17" data-name="Ellipse 17" cx="5.137" cy="5.941" rx="5.137" ry="5.941" transform="matrix(0.987, -0.16, 0.16, 0.987, 63.551, 37.278)" fill="#22213f"/>
    <path id="Path_1598" data-name="Path 1598" d="M339.416,280.7a1.719,1.719,0,1,0,2.144-.759A1.62,1.62,0,0,0,339.416,280.7Z" transform="translate(-273.483 -241.432)" fill="#fff"/>
    <path id="Path_1599" data-name="Path 1599" d="M319.588,204.134c2.59.893,5.047.67,5.449-.491.4-1.206-1.34-2.9-3.93-3.8s-5.047-.67-5.449.491S317,203.2,319.588,204.134Z" transform="translate(-255.62 -180.808)" fill="#ed7e97"/>
    <path id="Path_1600" data-name="Path 1600" d="M321.445,203.814a10.108,10.108,0,0,1-3.126-.581,9.206,9.206,0,0,1-3.26-1.876c-.849-.849-1.206-1.7-.938-2.412a2.4,2.4,0,0,1,2.233-1.3,9.442,9.442,0,0,1,3.707.536,9.205,9.205,0,0,1,3.26,1.876c.849.849,1.206,1.7.938,2.412a2.4,2.4,0,0,1-2.233,1.3A2.546,2.546,0,0,1,321.445,203.814Zm-4.511-5.449a1.673,1.673,0,0,0-.491.045c-.849.089-1.429.357-1.563.759s.134.983.759,1.608a8.132,8.132,0,0,0,2.948,1.7,8.783,8.783,0,0,0,3.394.536c.849-.089,1.429-.357,1.563-.759s-.134-.983-.759-1.608a8.132,8.132,0,0,0-2.948-1.7A7.987,7.987,0,0,0,316.934,198.366Z" transform="translate(-254.439 -179.55)" fill="#bf4b6f"/>
    <path id="Path_1601" data-name="Path 1601" d="M237.331,212.332c2.546-1.072,4.2-2.9,3.707-4.064s-2.948-1.251-5.493-.179-4.2,2.9-3.707,4.064S234.785,213.4,237.331,212.332Z" transform="translate(-192.477 -186.862)" fill="#ed7e97"/>
    <path id="Path_1602" data-name="Path 1602" d="M232.791,212.312h-.179c-1.206-.045-2.01-.446-2.322-1.161a2.43,2.43,0,0,1,.8-2.5,9.135,9.135,0,0,1,3.126-2.1c2.769-1.161,5.4-1.027,5.985.4.581,1.384-1.116,3.394-3.93,4.556h0A8.9,8.9,0,0,1,232.791,212.312Zm4.868-5.761a9.336,9.336,0,0,0-6.029,2.591c-.581.625-.8,1.251-.625,1.652s.759.67,1.608.67a8.089,8.089,0,0,0,3.35-.715h0c2.5-1.072,3.841-2.724,3.484-3.528C239.267,206.819,238.642,206.551,237.659,206.551Zm-1.519,4.6Z" transform="translate(-191.287 -185.681)" fill="#bf4b6f"/>
    <path id="Path_1603" data-name="Path 1603" d="M206.676,186.472a.245.245,0,0,1-.223-.089.371.371,0,0,1-.089-.536,6.84,6.84,0,0,1,8.262-2.278.41.41,0,1,1-.313.759,5.976,5.976,0,0,0-7.324,2.01A.511.511,0,0,1,206.676,186.472Z" transform="translate(-173.301 -168.505)" fill="#ed7e97"/>
    <path id="Path_1604" data-name="Path 1604" d="M209.855,390.107a4.624,4.624,0,0,1-4.556-3.3.4.4,0,1,1,.759-.223,3.749,3.749,0,0,0,3.975,2.724.4.4,0,0,1,.089.8C210.123,390.062,210.034,390.107,209.855,390.107Z" transform="translate(-172.55 -321.628)" fill="#ed7e97"/>
    <path id="Path_1605" data-name="Path 1605" d="M330.037,409.641a4.7,4.7,0,0,1-1.786-.357.382.382,0,0,1,.268-.714,3.786,3.786,0,0,0,4.6-1.429.391.391,0,1,1,.67.4A4.615,4.615,0,0,1,330.037,409.641Z" transform="translate(-264.952 -337.188)" fill="#ed7e97"/>
    <path id="Path_1606" data-name="Path 1606" d="M159.114,332.087a.164.164,0,0,1-.134-.045,4.66,4.66,0,0,1-2.858-5.091.385.385,0,0,1,.759.134,3.849,3.849,0,0,0,2.322,4.243.361.361,0,0,1,.223.491A.3.3,0,0,1,159.114,332.087Z" transform="translate(-135.474 -276.694)" fill="#ed7e97"/>
    <path id="Path_1607" data-name="Path 1607" d="M384.053,346.911a.394.394,0,0,1-.4-.357.365.365,0,0,1,.357-.4,3.8,3.8,0,0,0,3.618-3.216.4.4,0,0,1,.8.089,4.735,4.735,0,0,1-4.377,3.886Z" transform="translate(-306.865 -288.704)" fill="#ed7e97"/>
    <path id="Path_1608" data-name="Path 1608" d="M138.27,235.055a.4.4,0,0,1-.4-.4,6.257,6.257,0,0,1,4.957-6.7,5.739,5.739,0,0,1,6.923-5,.385.385,0,1,1-.134.759,4.99,4.99,0,0,0-6.029,4.6.379.379,0,0,1-.357.313,5.442,5.442,0,0,0-4.556,5.94c0,.312-.179.491-.4.491Z" transform="translate(-121.776 -198.553)" fill="#ed7e97"/>
    <path id="Path_1609" data-name="Path 1609" d="M397.695,241.122h-.134a.385.385,0,0,1-.268-.491,5.356,5.356,0,0,0-.4-3.841,5.724,5.724,0,0,0-3.662-2.546.433.433,0,0,1-.313-.357,5.4,5.4,0,0,0-5.493-5.047.38.38,0,1,1,.045-.759,6.163,6.163,0,0,1,6.208,5.538,6.367,6.367,0,0,1,3.93,2.858,6.112,6.112,0,0,1,.447,4.466A.437.437,0,0,1,397.695,241.122Z" transform="translate(-309.431 -202.477)" fill="#ed7e97"/>
    <path id="Path_1610" data-name="Path 1610" d="M196.977,403.36a2.745,2.745,0,0,1-.625-.045,5.293,5.293,0,0,1-3.082-1.92c-5.181,1.161-7.012-3.93-7.012-3.975a.382.382,0,1,1,.714-.268c.045.179,1.7,4.645,6.342,3.394a.424.424,0,0,1,.446.179,4.359,4.359,0,0,0,2.724,1.786,4.732,4.732,0,0,0,3.751-1.384.38.38,0,0,1,.491.581A5.637,5.637,0,0,1,196.977,403.36Z" transform="translate(-158.198 -329.611)" fill="#ed7e97"/>
    <path id="Path_1611" data-name="Path 1611" d="M365.448,403.5a11.308,11.308,0,0,1-2.9-.4.4.4,0,1,1,.223-.759c.268.089,6.208,1.92,8.039-3.216a.381.381,0,1,1,.714.268A5.91,5.91,0,0,1,365.448,403.5Z" transform="translate(-290.761 -331.091)" fill="#ed7e97"/>
    <path id="Path_1612" data-name="Path 1612" d="M412.458,282.3h-.089a.385.385,0,0,1-.268-.491c.089-.268,1.742-6.3-3.439-7.95a.4.4,0,0,1,.223-.759c5.9,1.92,3.975,8.843,3.975,8.932A.43.43,0,0,1,412.458,282.3Z" transform="translate(-325.489 -236.376)" fill="#ed7e97"/>
    <path id="Path_1613" data-name="Path 1613" d="M97.133,334.552c-15.14,5.761-23.536-1.7-14.336-17.418,3.573-5.493,5-10.451,9.021-6.922,1.251,2.278.223,2.858-1.34,5.225-2.412,3.216-6.654,11.523-5.806,14.113,1.3,2.59,7.056.759,10.093-.089C97.8,328.3,99.947,332.944,97.133,334.552Z" transform="translate(-77.424 -263.439)" fill="#ed7e97"/>
    <path id="Path_1614" data-name="Path 1614" d="M146.077,372.952a1.6,1.6,0,0,1-.313.446l-.4.268c-.268.134-.536.223-.759.357h0a4.969,4.969,0,0,0-.715.536h0a4.635,4.635,0,0,0-.759,1.027,2.671,2.671,0,0,0-.268,1.116h0l-.983.045-1.831.045a6.292,6.292,0,0,1,.313-1.831,6.584,6.584,0,0,1,3.93-3.975,1.417,1.417,0,0,1,1.786,1.965Z" transform="translate(-123.421 -310.011)" fill="#ed7e97"/>
    <path id="Path_1615" data-name="Path 1615" d="M152.4,381.851a1.38,1.38,0,0,1-.581,1.072,1.112,1.112,0,0,1-.313.179c-.134.045-.268.134-.4.179a7.138,7.138,0,0,0-.849.491,4.047,4.047,0,0,0-1.519,1.831L147,385.066l-.983-.313a5.373,5.373,0,0,1,.357-.8,6.877,6.877,0,0,1,.8-1.161c.089-.134.223-.223.313-.357A8.988,8.988,0,0,1,149.321,381c.268-.134.581-.313.893-.447.089-.045.134-.045.223-.089a1.438,1.438,0,0,1,1.831.8A1.377,1.377,0,0,1,152.4,381.851Z" transform="translate(-127.915 -317.168)" fill="#ed7e97"/>
    <path id="Path_1616" data-name="Path 1616" d="M152.114,393.369h0c-.089.089-.179.134-.268.223a1.486,1.486,0,0,1-.67.223,5.937,5.937,0,0,0-3.751,2.01,1.4,1.4,0,1,1-2.188-1.742c.045-.045.357-.4.893-.893a8.805,8.805,0,0,1,1.786-1.251h0a7.141,7.141,0,0,1,3.082-.893h.045a2.172,2.172,0,0,1,.536.045,1.447,1.447,0,0,1,.983,1.251A1.787,1.787,0,0,1,152.114,393.369Z" transform="translate(-127.09 -325.202)" fill="#ed7e97"/>
    <path id="Path_1617" data-name="Path 1617" d="M278.546,198.889a.426.426,0,0,1-.268-.491c2.456-7.414-3.484-10.317-3.752-10.451a.469.469,0,0,1-.223-.4c.223-2.814-.223-4.913-1.429-6.163a3.983,3.983,0,0,0-2.514-1.233.4.4,0,0,1-.364-.379h0a.4.4,0,0,1,.436-.424,4.538,4.538,0,0,1,2.978,1.455c1.3,1.384,1.831,3.573,1.652,6.476,1.206.67,6.3,4.064,3.93,11.255A.427.427,0,0,1,278.546,198.889Z" transform="translate(-221.277 -165.782)" fill="#ed7e97"/>
    <path id="Path_1618" data-name="Path 1618" d="M93.728,335.707c-.67.179-1.384.313-2.188.447-3.975.715-7.146.4-9.289-.849a6.578,6.578,0,0,1-3.216-4.689c-.581-3.394.625-7.9,3.707-13.4a67.655,67.655,0,0,1,4.511-6.967,2.792,2.792,0,0,1,3.93-.536,3.565,3.565,0,0,1,.581.581h0s-2.144-.893-4.6,3.171c-2.412,4.064-7.994,13.934-5.761,18.758C83.635,337,93.5,335.707,93.728,335.707Z" transform="translate(-77.368 -263.521)" fill="#f490aa"/>
    <path id="Path_1619" data-name="Path 1619" d="M106.28,336.97C95.561,341.347,95.2,338,97.258,331.433s8.039-13.086,8.039-13.086h0l.045.759a2.645,2.645,0,0,1-.581,1.474s-.536.715-1.34,1.876c-.759,1.161-1.786,2.724-2.769,4.466-2.278,4.153-3.394,7.682-3.037,9.647a1.093,1.093,0,0,0,.536.8C99.715,338.265,103.466,337.73,106.28,336.97Z" transform="translate(-90.456 -270.457)" fill="#e26988"/>
    <path id="Path_1620" data-name="Path 1620" d="M80.8,334.289a7.039,7.039,0,0,1-3.439-4.957c-.625-3.484.625-8.084,3.751-13.666a65.484,65.484,0,0,1,4.511-7.012,3.22,3.22,0,0,1,5.136,3.886,63.033,63.033,0,0,0-4.064,6.3c-2.233,4.064-3.35,7.5-2.992,9.379a.617.617,0,0,0,.313.536c1.474.849,5.538.313,8.575-.67a.4.4,0,1,1,.223.759c-2.322.715-7.191,1.786-9.245.625a1.354,1.354,0,0,1-.715-1.072c-.357-2.054.759-5.672,3.082-9.915a63.153,63.153,0,0,1,4.109-6.386,2.421,2.421,0,1,0-3.841-2.947,68.128,68.128,0,0,0-4.466,6.922c-3.037,5.449-4.243,9.87-3.662,13.13a6.128,6.128,0,0,0,3.037,4.377c2.1,1.206,5.8,1.374,9.021.8a29.282,29.282,0,0,0,4.913-1.251,2.679,2.679,0,0,0,1.027-.714.38.38,0,0,1,.581.491,2.59,2.59,0,0,1-.759.625C95.716,333.664,86.745,337.439,80.8,334.289Z" transform="translate(-76.096 -262.193)" fill="#bf4b6f"/>
    <path id="Path_1621" data-name="Path 1621" d="M147.076,372.048a7.348,7.348,0,0,0-5.761,3.171,6.584,6.584,0,0,1,3.93-3.975A1.437,1.437,0,0,1,147.076,372.048Z" transform="translate(-124.375 -310.224)" fill="#f490aa"/>
    <path id="Path_1622" data-name="Path 1622" d="M155.764,381.306c-.089,0-1.34-.8-4.779.938-.179.089-.357,0-.446,0-.134-.045-.045-.179.313-.357.045-.045.357-.268.849-.67h0c.223-.179.447-.357.715-.536h0c.089-.045.179-.134.268-.179.357-.268.8-.581,1.206-.849a1.6,1.6,0,0,1-.313.447c.089-.045.134-.045.223-.089a1.438,1.438,0,0,1,1.831.8A.8.8,0,0,1,155.764,381.306Z" transform="translate(-131.276 -316.624)" fill="#f490aa"/>
    <path id="Path_1623" data-name="Path 1623" d="M161.246,393.369c.045-1.161-1.474-1.474-2.724-1.519h0a9.5,9.5,0,0,0-1.474.045l2.322-.536h0l1.3-.313a1.448,1.448,0,0,1,.983,1.251A1.522,1.522,0,0,1,161.246,393.369Z" transform="translate(-136.222 -325.203)" fill="#f490aa"/>
    <path id="Path_1624" data-name="Path 1624" d="M138.823,375.644h-.045a.435.435,0,0,1-.357-.447,6.8,6.8,0,0,1,4.466-5.538,1.856,1.856,0,0,1,1.384,0,1.77,1.77,0,0,1,.983.983,1.852,1.852,0,0,1-.447,2.01.38.38,0,0,1-.491-.581,1.05,1.05,0,0,0,.268-1.116.907.907,0,0,0-.536-.536,1.106,1.106,0,0,0-.759,0,6.048,6.048,0,0,0-4.019,4.913A.4.4,0,0,1,138.823,375.644Z" transform="translate(-122.195 -308.997)" fill="#bf4b6f"/>
    <path id="Path_1625" data-name="Path 1625" d="M148.262,382.338a.341.341,0,0,1-.223-.089.371.371,0,0,1-.089-.536A8.592,8.592,0,0,1,151.7,378.9a1.668,1.668,0,0,1,1.384.045,1.7,1.7,0,0,1,.938.983,1.588,1.588,0,0,1-.5,1.925c-.179.134-.487.264-.621.085A.371.371,0,0,1,153,381.4a.976.976,0,0,0,.313-1.161,1.024,1.024,0,0,0-1.3-.581,6.982,6.982,0,0,0-3.394,2.546A.508.508,0,0,1,148.262,382.338Z" transform="translate(-129.312 -315.958)" fill="#bf4b6f"/>
    <path id="Path_1626" data-name="Path 1626" d="M148.678,395.009c-.089,0,1.439-.436,1.35-.48-.179-.134-.4-.342-.267-.475a7.158,7.158,0,0,1,4.241-2.2.754.754,0,0,0,.446-.134,1.052,1.052,0,0,0,.491-.938.933.933,0,0,0-.357-.715,1.1,1.1,0,0,0-.715-.268,7.283,7.283,0,0,0-3.35,1.116.391.391,0,1,1-.4-.67,8.433,8.433,0,0,1,3.707-1.206,1.712,1.712,0,0,1,1.3.447,1.879,1.879,0,0,1,.625,1.251,1.776,1.776,0,0,1-.849,1.652,2.692,2.692,0,0,1-.849.268,6.619,6.619,0,0,0-3.787,1.972C150.171,394.67,148.768,395.009,148.678,395.009Z" transform="translate(-129.917 -323.683)" fill="#bf4b6f"/>
    <path id="Path_1627" data-name="Path 1627" d="M263.77,329.3c-5.672-1.474-6.922-6.61-6.118-9.156a2.083,2.083,0,0,1,.893-1.251c2.233-1.34,3.394,1.474,7.28,2.5,3.93.983,6.253-.893,7.592,1.34a2.088,2.088,0,0,1,.134,1.518C273.014,326.8,269.576,330.771,263.77,329.3Z" transform="translate(-211.815 -270.599)" fill="#22213f"/>
    <path id="Path_1628" data-name="Path 1628" d="M274.765,323.624a13.4,13.4,0,0,1-8.53.268,13.716,13.716,0,0,1-7.369-4.332c.179-.581.357-.625.759-.849,2.233-1.34,3.394,1.474,7.28,2.5,3.93.983,6.253-.893,7.592,1.34A1.2,1.2,0,0,1,274.765,323.624Z" transform="translate(-212.896 -270.464)" fill="#fff"/>
    <path id="Path_1629" data-name="Path 1629" d="M265.152,328.914a10.35,10.35,0,0,1-2.5-.313h0a8.57,8.57,0,0,1-5.627-4.154,7.186,7.186,0,0,1-.759-5.493,2.511,2.511,0,0,1,1.027-1.474c1.474-.893,2.59-.134,3.93.67a11.661,11.661,0,0,0,3.662,1.742,11.845,11.845,0,0,0,4.064.223c1.563-.089,2.9-.223,3.751,1.3a2.577,2.577,0,0,1,.179,1.786,7.509,7.509,0,0,1-3.394,4.511A7.943,7.943,0,0,1,265.152,328.914Zm-6.521-11.076a1.574,1.574,0,0,0-.938.313,2.09,2.09,0,0,0-.715,1.027,6.346,6.346,0,0,0,.715,4.868,7.85,7.85,0,0,0,5.136,3.8h0a7.651,7.651,0,0,0,6.253-.8,6.65,6.65,0,0,0,3.037-4.019,1.844,1.844,0,0,0-.089-1.251c-.625-1.027-1.429-1.027-3.037-.893a12.538,12.538,0,0,1-4.332-.268,11.936,11.936,0,0,1-3.93-1.876A4.629,4.629,0,0,0,258.631,317.838Z" transform="translate(-210.741 -269.501)" fill="#bf4b6f"/>
    <path id="Path_1630" data-name="Path 1630" d="M463.216,168.065a7.139,7.139,0,0,1-1.988,4.953,9.79,9.79,0,0,0-2.379,4.236l-.2.749h-5.116l-.2-.684a11.494,11.494,0,0,0-.913-2.281,11.007,11.007,0,0,0-1.466-2.02,5.652,5.652,0,0,1-.424-.489,7.121,7.121,0,0,1,5.279-11.568,7.17,7.17,0,0,1,6.615,3.845A7.278,7.278,0,0,1,463.216,168.065Z" transform="translate(-356.057 -151.934)" fill="#ffd56c"/>
    <path id="Path_1631" data-name="Path 1631" d="M465.5,171.634a7.139,7.139,0,0,1-1.988,4.953,9.791,9.791,0,0,0-2.379,4.236l-.13.521-.065.228h-4.692a9.864,9.864,0,0,0-1.532-2.965c-.033-.033-.065-.1-.1-.13-.2-.228-.391-.489-.619-.717a6.778,6.778,0,0,1-1.206-1.662,6.915,6.915,0,0,1-.782-3.291,7.13,7.13,0,0,1,12.481-4.692c.065.1.163.163.228.261A7.283,7.283,0,0,1,465.5,171.634Z" transform="translate(-358.343 -155.503)" fill="#ffca3b"/>
    <path id="Path_1632" data-name="Path 1632" d="M473.451,179.008a7.139,7.139,0,0,1-1.988,4.953,9.79,9.79,0,0,0-2.379,4.236l-.13.521c-.326.065-.652.13-.978.228H464.2a9.863,9.863,0,0,0-1.532-2.965c-.033-.033-.065-.1-.1-.13v-.033a7.7,7.7,0,0,0,7.071-2.02c2.737-2.8,2.835-7.43,2.8-8.31.065.1.163.163.228.261A7.281,7.281,0,0,1,473.451,179.008Z" transform="translate(-366.293 -162.877)" fill="#eab021"/>
    <path id="Path_1633" data-name="Path 1633" d="M457.759,177.4h-5.116a.348.348,0,0,1-.293-.228l-.2-.684a9.728,9.728,0,0,0-2.314-4.171,7.446,7.446,0,1,1,10.721,0,9.615,9.615,0,0,0-2.314,4.138l-.2.749A.374.374,0,0,1,457.759,177.4Zm-4.921-.587h4.693l.13-.521a10.33,10.33,0,0,1,2.444-4.367,6.848,6.848,0,0,0-5.181-11.6,6.873,6.873,0,0,0-4.693,11.6,10.436,10.436,0,0,1,2.477,4.432Z" transform="translate(-355.162 -151.04)" fill="#e29700"/>
    <path id="Path_1634" data-name="Path 1634" d="M466.21,203.387a.292.292,0,0,1-.293-.293v-5.279h-.13a1.992,1.992,0,0,1-1.923-.912,1.421,1.421,0,0,1,.13-1.434,1.188,1.188,0,0,1,1.14-.489c1.206.2,1.369,1.662,1.369,2.281h.815a.293.293,0,1,1,0,.587H466.5v5.279A.346.346,0,0,1,466.21,203.387Zm-1.271-7.853a.592.592,0,0,0-.489.261.878.878,0,0,0-.065.847c.2.391.684.587,1.4.619h.13c0-.521-.13-1.6-.88-1.695A.12.12,0,0,0,464.939,195.533Z" transform="translate(-367.166 -177.545)" fill="#e29700"/>
    <path id="Path_1635" data-name="Path 1635" d="M478.383,203.381a.292.292,0,0,1-.293-.293v-5.247h-.847a.293.293,0,1,1,0-.587h.815c0-.587.163-2.118,1.369-2.281a1.127,1.127,0,0,1,1.14.489,1.355,1.355,0,0,1,.13,1.4c-.163.359-.619.913-1.922.978h-.163v5.279C478.676,203.251,478.546,203.381,478.383,203.381Zm1.238-7.853h-.1c-.749.13-.88,1.206-.88,1.727h.13c.717-.033,1.238-.261,1.4-.652a.81.81,0,0,0-.065-.815A.524.524,0,0,0,479.622,195.528Z" transform="translate(-377.123 -177.54)" fill="#e29700"/>
    <path id="Path_1636" data-name="Path 1636" d="M470.611,234.458H469.34a1.891,1.891,0,0,1-1.89-1.89v-2.8a1.891,1.891,0,0,1,1.89-1.89h1.271a1.891,1.891,0,0,1,1.89,1.89v2.8A1.851,1.851,0,0,1,470.611,234.458Z" transform="translate(-369.97 -202.328)" fill="#4150d8"/>
    <path id="Path_1637" data-name="Path 1637" d="M469.716,233.856h-1.271a2.184,2.184,0,0,1-2.183-2.183v-2.8a2.184,2.184,0,0,1,2.183-2.183h1.271a2.184,2.184,0,0,1,2.183,2.183v2.8A2.183,2.183,0,0,1,469.716,233.856Zm-1.271-6.583a1.634,1.634,0,0,0-1.629,1.629v2.8a1.634,1.634,0,0,0,1.629,1.629h1.271a1.634,1.634,0,0,0,1.629-1.629v-2.8a1.634,1.634,0,0,0-1.629-1.629Z" transform="translate(-369.075 -201.432)" fill="#31409b"/>
    <path id="Path_1638" data-name="Path 1638" d="M469.124,230.129h-4.79a1.238,1.238,0,0,1-1.238-1.238v-2.02a1.238,1.238,0,0,1,1.238-1.238h4.79a1.238,1.238,0,0,1,1.238,1.238v2.02A1.238,1.238,0,0,1,469.124,230.129Z" transform="translate(-366.691 -200.638)" fill="#4150d8"/>
    <path id="Path_1639" data-name="Path 1639" d="M468.23,229.528h-4.79A1.53,1.53,0,0,1,461.908,228v-2.02a1.53,1.53,0,0,1,1.532-1.532h4.79a1.53,1.53,0,0,1,1.532,1.532V228A1.53,1.53,0,0,1,468.23,229.528Zm-4.823-4.5a.98.98,0,0,0-.978.978v2.02a.98.98,0,0,0,.978.978h4.79a.98.98,0,0,0,.978-.978v-2.02a.98.98,0,0,0-.978-.978Z" transform="translate(-365.796 -199.743)" fill="#31409b"/>
    <path id="Path_1640" data-name="Path 1640" d="M469.925,231.76h-7.3c-.163,0-.1-.13-.1-.293s-.065-.293.1-.293h7.3c.163,0,.138.13.138.293S470.088,231.76,469.925,231.76Z" transform="translate(-366.253 -204.81)" fill="#31409b"/>
    <path id="Path_1641" data-name="Path 1641" d="M469.925,236.51h-7.3c-.163,0-.1-.13-.1-.293s-.065-.293.1-.293h7.3c.163,0,.136.13.136.293S470.088,236.51,469.925,236.51Z" transform="translate(-366.253 -208.387)" fill="#31409b"/>
    <path id="Path_1642" data-name="Path 1642" d="M474.66,132.094a1.133,1.133,0,0,1-1.14-1.14v-4.2a1.14,1.14,0,0,1,2.281,0v4.2A1.113,1.113,0,0,1,474.66,132.094Z" transform="translate(-374.541 -125.317)" fill="#ffca3b"/>
    <path id="Path_1643" data-name="Path 1643" d="M437.593,146.113a1.131,1.131,0,0,1-.815-.326l-2.965-2.965a1.152,1.152,0,0,1,1.629-1.629l2.965,2.965a1.141,1.141,0,0,1,0,1.629A1.285,1.285,0,0,1,437.593,146.113Z" transform="translate(-344.382 -136.793)" fill="#ffca3b"/>
    <path id="Path_1644" data-name="Path 1644" d="M502.716,146.113a1.141,1.141,0,0,1-.815-1.955l2.965-2.965a1.152,1.152,0,0,1,1.629,1.629l-2.965,2.965A1.285,1.285,0,0,1,502.716,146.113Z" transform="translate(-395.656 -136.793)" fill="#ffca3b"/>
    <path id="Path_1645" data-name="Path 1645" d="M473.766,131.493a1.447,1.447,0,0,1-1.434-1.434v-4.2a1.434,1.434,0,1,1,2.868,0v4.2A1.405,1.405,0,0,1,473.766,131.493Zm0-6.517a.876.876,0,0,0-.88.88v4.2a.88.88,0,1,0,1.76,0v-4.2A.876.876,0,0,0,473.766,124.976Z" transform="translate(-373.646 -124.422)" fill="#e29700"/>
    <path id="Path_1646" data-name="Path 1646" d="M436.749,145.586a1.431,1.431,0,0,1-1.01-.424l-2.965-2.966a1.489,1.489,0,0,1-.424-1.01,1.431,1.431,0,0,1,.424-1.01,1.476,1.476,0,0,1,2.053,0l2.965,2.965a1.417,1.417,0,0,1,0,2.021A1.57,1.57,0,0,1,436.749,145.586Zm-2.965-5.312a.876.876,0,0,0-.619,1.5l2.965,2.965a.906.906,0,0,0,1.238,0,.865.865,0,0,0,0-1.238l-2.965-2.966A1.025,1.025,0,0,0,433.784,140.274Z" transform="translate(-343.538 -135.973)" fill="#e29700"/>
    <path id="Path_1647" data-name="Path 1647" d="M501.872,145.587a1.431,1.431,0,0,1-1.01-.424,1.417,1.417,0,0,1,0-2.021l2.965-2.965a1.476,1.476,0,0,1,2.053,0,1.417,1.417,0,0,1,0,2.021l-2.965,2.965A1.569,1.569,0,0,1,501.872,145.587Zm2.966-5.312a.89.89,0,0,0-.619.261l-2.965,2.965a.865.865,0,0,0,0,1.238.906.906,0,0,0,1.238,0l2.965-2.965a.88.88,0,0,0-.619-1.5Z" transform="translate(-394.811 -135.974)" fill="#e29700"/>
    <path id="Path_1648" data-name="Path 1648" d="M453.732,388.6h-.021a.37.37,0,0,1-.363-.377.379.379,0,0,1,.377-.364c.082,0,9.146.055,12.767-8.747a.37.37,0,0,1,.685.282C463.447,388.457,454.233,388.6,453.732,388.6Z" transform="translate(-359.35 -316.039)" fill="#acbfe5"/>
    <path id="Path_1649" data-name="Path 1649" d="M489.379,405.451a.371.371,0,0,1-.124-.719,10.092,10.092,0,0,0,5.172-4.865.37.37,0,1,1,.671.314,10.661,10.661,0,0,1-5.594,5.249A.366.366,0,0,1,489.379,405.451Z" transform="translate(-386.204 -331.684)" fill="#acbfe5"/>
  </g>
</svg>
