<svg xmlns="http://www.w3.org/2000/svg" width="17.935" height="19.868" viewBox="0 0 17.935 19.868">
  <g id="chemical-lab-svgrepo-com" transform="translate(0.75 0.75)">
    <line id="Line_8" data-name="Line 8" x2="8.209" transform="translate(4.113 0)" fill="none" stroke="#8d8d8d" stroke-width="1.5"/>
    <path id="Path_1332" data-name="Path 1332" d="M13.128,5.672V1.5H8.206V5.672L2.665,16.937a2.038,2.038,0,0,0-.215.875h0a2.047,2.047,0,0,0,.575,1.452,1.98,1.98,0,0,0,1.421.6H16.889a2.013,2.013,0,0,0,2-2.029h0a2.038,2.038,0,0,0-.215-.875Z" transform="translate(-2.45 -1.5)" fill="none" stroke="#8d8d8d" stroke-width="1.5"/>
    <path id="Path_1333" data-name="Path 1333" d="M6.89,10.669c4.3-1.867,4.569,1.635,8.966.353" transform="translate(-3.069 -2.57)" fill="none" stroke="#8d8d8d" stroke-width="1.5"/>
    <line id="Line_9" data-name="Line 9" x2="1.643" transform="translate(4.113 15.081)" fill="none" stroke="#8d8d8d" stroke-width="1.5"/>
    <line id="Line_10" data-name="Line 10" x2="1.643" transform="translate(6.574 11.685)" fill="none" stroke="#8d8d8d" stroke-width="1.5"/>
    <line id="Line_11" data-name="Line 11" x2="1.643" transform="translate(10.679 13.356)" fill="none" stroke="#8d8d8d" stroke-width="1.5"/>
  </g>
</svg>
