<svg xmlns="http://www.w3.org/2000/svg" width="25.494" height="21.006" viewBox="0 0 25.494 21.006">
  <g id="cubes-2" transform="translate(-1.312 -5.999)">
    <path id="Path_15351" data-name="Path 15351" d="M16,11.5l4.385,2.741L24.77,11.5" transform="translate(-6.327 -2.26)" fill="none" stroke="#263238" stroke-linecap="round" stroke-linejoin="round" stroke-width="1"/>
    <path id="Path_15352" data-name="Path 15352" d="M16,29l4.385,2.741L24.77,29" transform="translate(-6.327 -10.168)" fill="none" stroke="#263238" stroke-linecap="round" stroke-linejoin="round" stroke-width="1"/>
    <path id="Path_15353" data-name="Path 15353" d="M24,34v4.933" transform="translate(-9.942 -12.428)" fill="none" stroke="#263238" stroke-linecap="round" stroke-linejoin="round" stroke-width="1"/>
    <path id="Path_15354" data-name="Path 15354" d="M38,22.991l4.385-2.741" transform="translate(-16.268 -6.214)" fill="none" stroke="#263238" stroke-linecap="round" stroke-linejoin="round" stroke-width="1"/>
    <path id="Path_15355" data-name="Path 15355" d="M6.385,23.02,2,20.315" transform="translate(0 -6.243)" fill="none" stroke="#263238" stroke-linecap="round" stroke-linejoin="round" stroke-width="1"/>
    <path id="Path_15356" data-name="Path 15356" d="M24,16.5v1.918" transform="translate(-9.942 -4.519)" fill="none" stroke="#263238" stroke-linecap="round" stroke-linejoin="round" stroke-width="1"/>
    <path id="Path_15357" data-name="Path 15357" d="M24.77,11.158V9.24L20.385,6.5,16,9.276v1.883" transform="translate(-6.327 0)" fill="none" stroke="#263238" stroke-linecap="round" stroke-linejoin="round" stroke-width="1"/>
    <path id="Path_15358" data-name="Path 15358" d="M6.385,25.664V20.731L10.77,17.99,6.385,15.249,2,18.026v4.9Z" transform="translate(0 -3.954)" fill="none" stroke="#263238" stroke-linecap="round" stroke-linejoin="round" stroke-width="1"/>
    <path id="Path_15359" data-name="Path 15359" d="M34.385,25.664V20.731L30,18.026l4.385-2.777L38.77,17.99v4.933Z" transform="translate(-12.653 -3.954)" fill="none" stroke="#263238" stroke-linecap="round" stroke-linejoin="round" stroke-width="1"/>
    <path id="Path_15360" data-name="Path 15360" d="M24,34v4.933" transform="translate(-9.942 -12.428)" fill="none" stroke="#263238" stroke-linecap="round" stroke-linejoin="round" stroke-width="1"/>
    <path id="Path_15361" data-name="Path 15361" d="M24.77,26.74,20.385,24,16,26.776v4.9l4.385,2.741,4.385-2.741Z" transform="translate(-6.327 -7.908)" fill="none" stroke="#263238" stroke-linecap="round" stroke-linejoin="round" stroke-width="1"/>
  </g>
</svg>
