<svg xmlns="http://www.w3.org/2000/svg" width="17.716" height="17.92" viewBox="0 0 17.716 17.92">
  <g id="earth" transform="translate(-2.5 -2.5)">
    <path id="Path_15378" data-name="Path 15378" d="M31.908,24.169c-1.194-1.592-2.756-3.873-5.091-3-2.382.89.958,3.828-1.921,5.948-1.839,1.354-1.4,2.66-.748,3.42" transform="translate(-12.392 -10.822)" fill="none" stroke="#263238" stroke-linecap="round" stroke-linejoin="round" stroke-width="1"/>
    <path id="Path_15379" data-name="Path 15379" d="M11.242,6.645,13.029,8.3a2.27,2.27,0,0,1-.366,3.583l-.173.107a2.708,2.708,0,0,0-.959,3.6l.1.191a2.786,2.786,0,0,1-.258,3.049l-.862,1.1" transform="translate(-4.524 -2.195)" fill="none" stroke="#263238" stroke-linecap="round" stroke-linejoin="round" stroke-width="1"/>
    <path id="Path_15380" data-name="Path 15380" d="M23.8,3.188c-.409,2.838,2.63,6.076,6.431,2.9" transform="translate(-12.497 -0.113)" fill="none" stroke="#263238" stroke-linecap="round" stroke-linejoin="round" stroke-width="1"/>
    <path id="Path_15381" data-name="Path 15381" d="M11.357,19.715A8.357,8.357,0,1,0,3,11.357,8.357,8.357,0,0,0,11.357,19.715Z" fill="none" stroke="#263238" stroke-linecap="round" stroke-linejoin="round" stroke-width="1"/>
  </g>
</svg>
