<svg xmlns="http://www.w3.org/2000/svg" xmlns:xlink="http://www.w3.org/1999/xlink" width="217.407" height="204.955" viewBox="0 0 217.407 204.955">
  <defs>
    <clipPath id="clip-path">
      <rect id="Rectangle_14" data-name="Rectangle 14" width="127.812" height="115.975" rx="8.79" fill="#29b6f6" stroke="#263238" stroke-linecap="round" stroke-linejoin="round" stroke-width="1"/>
    </clipPath>
    <clipPath id="clip-path-2">
      <path id="Path_733" data-name="Path 733" d="M239.252,83.249H141.09a111.569,111.569,0,0,0-4.31-20.039h106.8a107.056,107.056,0,0,0-4.329,20.039Z" transform="translate(-136.78 -63.21)" fill="#fff" stroke="#263238" stroke-linecap="round" stroke-linejoin="round" stroke-width="1"/>
    </clipPath>
    <clipPath id="clip-path-3">
      <rect id="Rectangle_22" data-name="Rectangle 22" width="3.941" height="11.023" fill="#757575" stroke="#263238" stroke-linecap="round" stroke-linejoin="round" stroke-width="1"/>
    </clipPath>
    <clipPath id="clip-path-4">
      <rect id="Rectangle_27" data-name="Rectangle 27" width="3.941" height="11.023" transform="translate(3.941 11.023) rotate(180)" fill="#757575" stroke="#263238" stroke-linecap="round" stroke-linejoin="round" stroke-width="1"/>
    </clipPath>
    <clipPath id="clip-path-5">
      <path id="Path_789" data-name="Path 789" d="M239.252,128.469H141.09a51.442,51.442,0,0,1-4.31-20.039h106.8C243.58,117.71,239.252,128.469,239.252,128.469Z" transform="translate(-136.78 -108.43)" fill="#fff" stroke="#263238" stroke-linecap="round" stroke-linejoin="round" stroke-width="1"/>
    </clipPath>
    <clipPath id="clip-path-6">
      <rect id="Rectangle_33" data-name="Rectangle 33" width="2.926" height="20.437" fill="#757575" stroke="#263238" stroke-linecap="round" stroke-linejoin="round" stroke-width="1"/>
    </clipPath>
    <clipPath id="clip-path-8">
      <path id="Path_795" data-name="Path 795" d="M242.325,150.145v33.428a2.126,2.126,0,0,1-2.131,2.126H110.611a2.126,2.126,0,0,1-2.131-2.126V150.145a2.136,2.136,0,0,1,2.131-2.131h59.711v2.131s-10.2,8.839-27.773,12.105c2.519,11.4,16.281,20.111,32.892,20.111s30.363-8.72,32.887-20.111c-17.6-3.266-27.8-12.105-27.8-12.105V148h59.683A2.131,2.131,0,0,1,242.325,150.145Z" transform="translate(-108.48 -148)" fill="#90f" stroke="#263238" stroke-linecap="round" stroke-linejoin="round" stroke-width="1"/>
    </clipPath>
  </defs>
  <g id="Group_56" data-name="Group 56" transform="translate(0.502 0)">
    <path id="Path_633" data-name="Path 633" d="M126.785,28.241c59.376-5.267,59.5,28.223,86.254,59.438s32.489,45.375,22.4,81.36-44.082,64.222-86.139,48.214-66.147-.632-92.675-14.844-36.392-41.616-16.961-73.938S53.551,34.767,126.785,28.241Z" transform="translate(-27.978 -27.69)" fill="#5583ff"/>
    <g id="Typewriter-bro" transform="translate(0 17.008)">
      <g id="freepik--Bubbles--inject-326" transform="translate(0 68.954)">
        <path id="Path_635" data-name="Path 635" d="M426.534,319.066l-.373,3.352,6.517-7.618a22.929,22.929,0,0,0,2.346.125" transform="translate(-234.712 -263.283)" fill="none" stroke="#263238" stroke-linecap="round" stroke-linejoin="round" stroke-width="1"/>
        <path id="Path_636" data-name="Path 636" d="M408.123,275.43a9.778,9.778,0,0,0-1.566,4.31c-.618,5.569,3.749,10.836,10.348,13.273l-.335,2.993" transform="translate(-224.466 -242.765)" fill="none" stroke="#263238" stroke-linecap="round" stroke-linejoin="round" stroke-width="1"/>
        <path id="Path_637" data-name="Path 637" d="M413.867,269.64a13.34,13.34,0,0,0-1.207,1.106" transform="translate(-227.677 -239.747)" fill="none" stroke="#263238" stroke-linecap="round" stroke-linejoin="round" stroke-width="1"/>
        <path id="Path_638" data-name="Path 638" d="M443.211,265.487a21.509,21.509,0,0,0-10-3.658,21.261,21.261,0,0,0-11.138,1.638" transform="translate(-232.581 -235.594)" fill="none" stroke="#263238" stroke-linecap="round" stroke-linejoin="round" stroke-width="1"/>
        <path id="Path_639" data-name="Path 639" d="M454.14,292.143c6.225-1.288,10.942-5.267,11.492-10.429.4-3.61-1.288-7.092-4.31-9.764" transform="translate(-249.294 -240.951)" fill="none" stroke="#263238" stroke-linecap="round" stroke-linejoin="round" stroke-width="1"/>
        <path id="Path_640" data-name="Path 640" d="M422.08,276.661a4.065,4.065,0,0,0,3.055-.651l2.327,1.805c-.163.053-.148-.292.024-.3s.3.148.421.273a2.385,2.385,0,0,0,2.246.431,9.693,9.693,0,0,1,2.337-.45,5.746,5.746,0,0,1,1.384.321,65.226,65.226,0,0,0,9.84,1.978" transform="translate(-232.586 -243.067)" fill="none" stroke="#263238" stroke-linecap="round" stroke-linejoin="round" stroke-width="1"/>
        <path id="Path_641" data-name="Path 641" d="M416.34,284.131c.479-.029,3.146,0,3.529-.321l.651,1.135.718-.694c.125.479.249.958.369,1.408.541.129.479-.915.958-1.226a.651.651,0,0,1,.848.254,1.882,1.882,0,0,1,.22.958l3.275.268.637.053a1.863,1.863,0,0,1,.958-.742c-.12.757.833,1.188,1.59,1.341q5.588,1.14,11.234,1.968" transform="translate(-229.594 -247.132)" fill="none" stroke="#263238" stroke-linecap="round" stroke-linejoin="round" stroke-width="1"/>
        <path id="Path_642" data-name="Path 642" d="M419.38,295.084c.3.211.67-.182,1.039-.23s.67.23,1,.4.862.1.881-.268c.077.479.67.651,1.154.718l12.574,1.767" transform="translate(-231.179 -252.885)" fill="none" stroke="#263238" stroke-linecap="round" stroke-linejoin="round" stroke-width="1"/>
        <path id="Path_643" data-name="Path 643" d="M68,233.574l5.037,6.78-1.01-8.873a23.347,23.347,0,0,0,3.443-2.054c5.162-3.735,7.24-9.744,5.349-14.585-1.326-3.381-4.434-5.679-8.361-6.632" transform="translate(-48.054 -207.733)" fill="none" stroke="#263238" stroke-linecap="round" stroke-linejoin="round" stroke-width="1"/>
        <path id="Path_644" data-name="Path 644" d="M26.4,238.84a9.744,9.744,0,0,0,.613,4.525c2.04,5.219,8.351,7.853,15.323,6.943" transform="translate(-26.344 -223.696)" fill="none" stroke="#263238" stroke-linecap="round" stroke-linejoin="round" stroke-width="1"/>
        <path id="Path_645" data-name="Path 645" d="M27.841,231.25a13.815,13.815,0,0,0-.551,1.542" transform="translate(-26.837 -219.74)" fill="none" stroke="#263238" stroke-linecap="round" stroke-linejoin="round" stroke-width="1"/>
        <path id="Path_646" data-name="Path 646" d="M52.241,207.365a21.486,21.486,0,0,0-10.563,1.4,21.251,21.251,0,0,0-9.1,6.627" transform="translate(-29.594 -207.213)" fill="none" stroke="#263238" stroke-linecap="round" stroke-linejoin="round" stroke-width="1"/>
        <path id="Path_647" data-name="Path 647" d="M38.14,227.219a4.08,4.08,0,0,0,2.394-1.992l2.873.517c-.125.12-.268-.192-.12-.283s.335,0,.479.048a2.379,2.379,0,0,0,2.188-.661,9.166,9.166,0,0,1,1.863-1.484A5.875,5.875,0,0,1,49.192,223a64.843,64.843,0,0,0,9.634-2.82" transform="translate(-32.492 -213.971)" fill="none" stroke="#263238" stroke-linecap="round" stroke-linejoin="round" stroke-width="1"/>
        <path id="Path_648" data-name="Path 648" d="M36.36,235.459c.426-.254,2.787-1.465,2.978-1.915l1.106.7c.105-.316.211-.637.311-.958l.982,1.077c.541-.134,0-1.03.259-1.518a.646.646,0,0,1,.867-.168,1.858,1.858,0,0,1,.637.733l3.021-1.283.594-.249a1.882,1.882,0,0,1,.479-1.106c.249.733,1.293.666,2.03.45q5.483-1.58,10.865-3.476" transform="translate(-31.564 -217.916)" fill="none" stroke="#263238" stroke-linecap="round" stroke-linejoin="round" stroke-width="1"/>
        <path id="Path_649" data-name="Path 649" d="M44.1,245.926c.369.048.512-.479.814-.69s.7-.1,1.068-.11.809-.311.656-.642c.292.388.9.263,1.355.1L59.964,240.3" transform="translate(-35.598 -224.457)" fill="none" stroke="#263238" stroke-linecap="round" stroke-linejoin="round" stroke-width="1"/>
      </g>
      <g id="freepik--Typewritter--inject-326" transform="translate(28.125 0)">
        <path id="Path_843" data-name="Path 843" d="M7.295,0H120.517a7.3,7.3,0,0,1,7.295,7.295V108.681a7.3,7.3,0,0,1-7.295,7.295H7.295A7.3,7.3,0,0,1,0,108.681V7.295A7.3,7.3,0,0,1,7.295,0Z" transform="translate(14.231 12.646)" fill="#98b4ff"/>
        <g id="Group_36" data-name="Group 36" transform="translate(14.231 12.646)" clip-path="url(#clip-path)">
          <path id="Path_650" data-name="Path 650" d="M242.612,222.29v48.363a4.084,4.084,0,0,1-4.08,4.085H118.885a4.084,4.084,0,0,1-4.085-4.085v-9.577h.254v6.455a4.669,4.669,0,0,0,4.673,4.669H235.315a4.669,4.669,0,0,0,4.674-4.669V229.463a3.251,3.251,0,0,0-3.251-3.251H114.8V222.29Z" transform="translate(-114.8 -158.762)" opacity="0.2"/>
        </g>
        <rect id="Rectangle_15" data-name="Rectangle 15" width="127.812" height="115.975" rx="8.79" transform="translate(14.231 12.646)" fill="none" stroke="#263238" stroke-linecap="round" stroke-linejoin="round" stroke-width="1"/>
        <path id="Path_651" data-name="Path 651" d="M239.129,242.79v-5.54a2.045,2.045,0,0,0-2.049-2.049H135.623a2.049,2.049,0,0,0-2.049,2.049v5.54a2.049,2.049,0,0,1-2.049,2.049h0a2.054,2.054,0,0,0-2.054,2.054v10.932a9.5,9.5,0,0,0,9.5,9.505h0a1.528,1.528,0,0,1,1.528,1.528v3.275a4.559,4.559,0,0,0,4.559,4.559h82.581a4.559,4.559,0,0,0,4.559-4.559v-3.275a1.527,1.527,0,0,1,1.527-1.527h0a9.5,9.5,0,0,0,9.5-9.505V246.893a2.054,2.054,0,0,0-2.049-2.054h0a2.054,2.054,0,0,1-2.054-2.049Z" transform="translate(-108.214 -152.844)" fill="#263238"/>
        <path id="Path_652" data-name="Path 652" d="M148.626,241.75h-3.548a1.638,1.638,0,0,0-1.638,1.638v.91c0,1.887,1.527,4.281,3.414,4.281s3.414-2.394,3.414-4.281v-.91A1.642,1.642,0,0,0,148.626,241.75Z" transform="translate(-115.495 -156.258)" fill="#98b4ff" stroke="#263238" stroke-linecap="round" stroke-linejoin="round" stroke-width="1"/>
        <path id="Path_653" data-name="Path 653" d="M166.351,241.75H162.8a1.642,1.642,0,0,0-1.642,1.638v.91c0,1.887,1.527,4.281,3.414,4.281s3.414-2.394,3.414-4.281v-.91a1.638,1.638,0,0,0-1.638-1.638Z" transform="translate(-124.73 -156.258)" fill="#98b4ff" stroke="#263238" stroke-linecap="round" stroke-linejoin="round" stroke-width="1"/>
        <path id="Path_654" data-name="Path 654" d="M184.156,241.75h-3.548a1.638,1.638,0,0,0-1.638,1.638v.91c0,1.887,1.528,4.281,3.409,4.281s3.414-2.394,3.414-4.281v-.91a1.638,1.638,0,0,0-1.638-1.638Z" transform="translate(-134.012 -156.258)" fill="#98b4ff" stroke="#263238" stroke-linecap="round" stroke-linejoin="round" stroke-width="1"/>
        <path id="Path_655" data-name="Path 655" d="M201.916,241.75h-3.548a1.638,1.638,0,0,0-1.638,1.638v.91c0,1.887,1.528,4.281,3.414,4.281s3.409-2.394,3.409-4.281v-.91a1.638,1.638,0,0,0-1.638-1.638Z" transform="translate(-143.267 -156.258)" fill="#98b4ff" stroke="#263238" stroke-linecap="round" stroke-linejoin="round" stroke-width="1"/>
        <path id="Path_656" data-name="Path 656" d="M219.676,241.75h-3.548a1.638,1.638,0,0,0-1.638,1.638v.91c0,1.887,1.527,4.281,3.414,4.281s3.414-2.394,3.414-4.281v-.91A1.642,1.642,0,0,0,219.676,241.75Z" transform="translate(-152.523 -156.258)" fill="#98b4ff" stroke="#263238" stroke-linecap="round" stroke-linejoin="round" stroke-width="1"/>
        <path id="Path_657" data-name="Path 657" d="M237.441,241.75h-3.548a1.642,1.642,0,0,0-1.642,1.638v.91c0,1.887,1.527,4.281,3.414,4.281s3.414-2.394,3.414-4.281v-.91a1.638,1.638,0,0,0-1.638-1.638Z" transform="translate(-161.779 -156.258)" fill="#98b4ff" stroke="#263238" stroke-linecap="round" stroke-linejoin="round" stroke-width="1"/>
        <path id="Path_658" data-name="Path 658" d="M255.206,241.75h-3.548a1.638,1.638,0,0,0-1.638,1.638v.91c0,1.887,1.527,4.281,3.409,4.281s3.414-2.394,3.414-4.281v-.91A1.638,1.638,0,0,0,255.206,241.75Z" transform="translate(-171.04 -156.258)" fill="#98b4ff" stroke="#263238" stroke-linecap="round" stroke-linejoin="round" stroke-width="1"/>
        <path id="Path_659" data-name="Path 659" d="M272.966,241.75h-3.548a1.638,1.638,0,0,0-1.638,1.638v.91c0,1.887,1.527,4.281,3.414,4.281s3.409-2.394,3.409-4.281v-.91A1.638,1.638,0,0,0,272.966,241.75Z" transform="translate(-180.296 -156.258)" fill="#98b4ff" stroke="#263238" stroke-linecap="round" stroke-linejoin="round" stroke-width="1"/>
        <path id="Path_660" data-name="Path 660" d="M290.747,241.75h-3.529a1.638,1.638,0,0,0-1.638,1.638v.91c0,1.887,1.527,4.281,3.414,4.281s3.414-2.394,3.414-4.281v-.91a1.642,1.642,0,0,0-1.662-1.638Z" transform="translate(-189.573 -156.258)" fill="#9ca6ff" stroke="#263238" stroke-linecap="round" stroke-linejoin="round" stroke-width="1"/>
        <path id="Path_661" data-name="Path 661" d="M308.491,241.75h-3.548a1.642,1.642,0,0,0-1.642,1.638v.91c0,1.887,1.528,4.281,3.414,4.281s3.414-2.394,3.414-4.281v-.91A1.638,1.638,0,0,0,308.491,241.75Z" transform="translate(-198.807 -156.258)" fill="#98b4ff" stroke="#263238" stroke-linecap="round" stroke-linejoin="round" stroke-width="1"/>
        <path id="Path_662" data-name="Path 662" d="M326.256,241.75h-3.548a1.638,1.638,0,0,0-1.638,1.638v.91c0,1.887,1.527,4.281,3.409,4.281s3.414-2.394,3.414-4.281v-.91a1.638,1.638,0,0,0-1.638-1.638Z" transform="translate(-208.069 -156.258)" fill="#98b4ff" stroke="#263238" stroke-linecap="round" stroke-linejoin="round" stroke-width="1"/>
        <path id="Path_663" data-name="Path 663" d="M344.016,241.75h-3.548a1.638,1.638,0,0,0-1.638,1.638v.91c0,1.882,1.518,4.276,3.433,4.276s3.409-2.394,3.409-4.281v-.91a1.638,1.638,0,0,0-1.657-1.633Z" transform="translate(-217.324 -156.258)" fill="#98b4ff" stroke="#263238" stroke-linecap="round" stroke-linejoin="round" stroke-width="1"/>
        <path id="Path_664" data-name="Path 664" d="M148.626,279.39h-3.548a1.638,1.638,0,0,0-1.638,1.638v.91c0,1.887,1.527,4.281,3.414,4.281s3.414-2.394,3.414-4.281v-.91a1.642,1.642,0,0,0-1.642-1.638Z" transform="translate(-115.495 -175.874)" fill="#98b4ff" stroke="#263238" stroke-linecap="round" stroke-linejoin="round" stroke-width="1"/>
        <path id="Path_665" data-name="Path 665" d="M166.351,279.39H162.8a1.642,1.642,0,0,0-1.642,1.638v.91c0,1.887,1.527,4.281,3.414,4.281s3.414-2.394,3.414-4.281v-.91A1.638,1.638,0,0,0,166.351,279.39Z" transform="translate(-124.73 -175.874)" fill="#29b6f6" stroke="#263238" stroke-linecap="round" stroke-linejoin="round" stroke-width="1"/>
        <path id="Path_666" data-name="Path 666" d="M184.156,279.39h-3.548a1.638,1.638,0,0,0-1.638,1.638v.91c0,1.887,1.528,4.281,3.409,4.281s3.414-2.394,3.414-4.281v-.91A1.638,1.638,0,0,0,184.156,279.39Z" transform="translate(-134.012 -175.874)" fill="#98b4ff" stroke="#263238" stroke-linecap="round" stroke-linejoin="round" stroke-width="1"/>
        <path id="Path_667" data-name="Path 667" d="M201.916,279.39h-3.548a1.638,1.638,0,0,0-1.638,1.638v.91c0,1.887,1.528,4.281,3.414,4.281s3.409-2.394,3.409-4.281v-.91A1.638,1.638,0,0,0,201.916,279.39Z" transform="translate(-143.267 -175.874)" fill="#29b6f6" stroke="#263238" stroke-linecap="round" stroke-linejoin="round" stroke-width="1"/>
        <path id="Path_668" data-name="Path 668" d="M219.676,279.39h-3.548a1.638,1.638,0,0,0-1.638,1.638v.91c0,1.887,1.527,4.281,3.414,4.281s3.414-2.394,3.414-4.281v-.91a1.642,1.642,0,0,0-1.642-1.638Z" transform="translate(-152.523 -175.874)" fill="#98b4ff" stroke="#263238" stroke-linecap="round" stroke-linejoin="round" stroke-width="1"/>
        <path id="Path_669" data-name="Path 669" d="M237.441,279.39h-3.548a1.642,1.642,0,0,0-1.642,1.638v.91c0,1.887,1.527,4.281,3.414,4.281s3.414-2.394,3.414-4.281v-.91A1.638,1.638,0,0,0,237.441,279.39Z" transform="translate(-161.779 -175.874)" fill="#98b4ff" stroke="#263238" stroke-linecap="round" stroke-linejoin="round" stroke-width="1"/>
        <path id="Path_670" data-name="Path 670" d="M255.206,279.39h-3.548a1.638,1.638,0,0,0-1.638,1.638v.91c0,1.887,1.527,4.281,3.409,4.281s3.414-2.394,3.414-4.281v-.91A1.638,1.638,0,0,0,255.206,279.39Z" transform="translate(-171.04 -175.874)" fill="#98b4ff" stroke="#263238" stroke-linecap="round" stroke-linejoin="round" stroke-width="1"/>
        <path id="Path_671" data-name="Path 671" d="M272.966,279.39h-3.548a1.638,1.638,0,0,0-1.638,1.638v.91c0,1.887,1.527,4.281,3.414,4.281s3.409-2.394,3.409-4.281v-.91A1.638,1.638,0,0,0,272.966,279.39Z" transform="translate(-180.296 -175.874)" fill="#98b4ff" stroke="#263238" stroke-linecap="round" stroke-linejoin="round" stroke-width="1"/>
        <path id="Path_672" data-name="Path 672" d="M290.747,279.39h-3.529a1.638,1.638,0,0,0-1.638,1.638v.91c0,1.887,1.527,4.281,3.414,4.281s3.414-2.394,3.414-4.281v-.91a1.642,1.642,0,0,0-1.662-1.638Z" transform="translate(-189.573 -175.874)" fill="#9ca6ff" stroke="#263238" stroke-linecap="round" stroke-linejoin="round" stroke-width="1"/>
        <path id="Path_673" data-name="Path 673" d="M308.491,279.39h-3.548a1.642,1.642,0,0,0-1.642,1.638v.91c0,1.887,1.528,4.281,3.414,4.281s3.414-2.394,3.414-4.281v-.91a1.638,1.638,0,0,0-1.638-1.638Z" transform="translate(-198.807 -175.874)" fill="#98b4ff" stroke="#263238" stroke-linecap="round" stroke-linejoin="round" stroke-width="1"/>
        <path id="Path_674" data-name="Path 674" d="M326.256,279.39h-3.548a1.638,1.638,0,0,0-1.638,1.638v.91c0,1.887,1.527,4.281,3.409,4.281s3.414-2.394,3.414-4.281v-.91A1.638,1.638,0,0,0,326.256,279.39Z" transform="translate(-208.069 -175.874)" fill="#29b6f6" stroke="#263238" stroke-linecap="round" stroke-linejoin="round" stroke-width="1"/>
        <path id="Path_675" data-name="Path 675" d="M344.016,279.39h-3.548a1.638,1.638,0,0,0-1.638,1.638v.91c0,1.887,1.528,4.281,3.414,4.281s3.409-2.394,3.409-4.281v-.91A1.638,1.638,0,0,0,344.016,279.39Z" transform="translate(-217.324 -175.874)" fill="#29b6f6" stroke="#263238" stroke-linecap="round" stroke-linejoin="round" stroke-width="1"/>
        <path id="Path_676" data-name="Path 676" d="M139.756,261.18h-3.539a1.638,1.638,0,0,0-1.638,1.638v.91c0,1.882,1.528,4.281,3.414,4.281s3.409-2.394,3.409-4.281v-.91a1.638,1.638,0,0,0-1.647-1.638Z" transform="translate(-110.877 -166.384)" fill="#98b4ff" stroke="#263238" stroke-linecap="round" stroke-linejoin="round" stroke-width="1"/>
        <path id="Path_677" data-name="Path 677" d="M157.506,261.18h-3.548a1.638,1.638,0,0,0-1.638,1.638v.91c0,1.882,1.527,4.281,3.414,4.281s3.414-2.394,3.414-4.281v-.91a1.642,1.642,0,0,0-1.642-1.638Z" transform="translate(-120.123 -166.384)" fill="#98b4ff" stroke="#263238" stroke-linecap="round" stroke-linejoin="round" stroke-width="1"/>
        <path id="Path_678" data-name="Path 678" d="M175.271,261.18h-3.548a1.642,1.642,0,0,0-1.642,1.638v.91c0,1.882,1.532,4.281,3.414,4.281s3.414-2.394,3.414-4.281v-.91a1.638,1.638,0,0,0-1.638-1.638Z" transform="translate(-129.379 -166.384)" fill="#29b6f6" stroke="#263238" stroke-linecap="round" stroke-linejoin="round" stroke-width="1"/>
        <path id="Path_679" data-name="Path 679" d="M193.036,261.18h-3.548a1.638,1.638,0,0,0-1.638,1.638v.91c0,1.882,1.527,4.281,3.409,4.281s3.414-2.394,3.414-4.281v-.91a1.638,1.638,0,0,0-1.638-1.638Z" transform="translate(-138.64 -166.384)" fill="#98b4ff" stroke="#263238" stroke-linecap="round" stroke-linejoin="round" stroke-width="1"/>
        <path id="Path_680" data-name="Path 680" d="M210.78,261.18h-3.563a1.638,1.638,0,0,0-1.638,1.638v.91c0,1.882,1.527,4.281,3.414,4.281s3.409-2.394,3.409-4.281v-.91a1.638,1.638,0,0,0-1.623-1.638Z" transform="translate(-147.88 -166.384)" fill="#98b4ff" stroke="#263238" stroke-linecap="round" stroke-linejoin="round" stroke-width="1"/>
        <path id="Path_681" data-name="Path 681" d="M228.556,261.18h-3.548a1.638,1.638,0,0,0-1.638,1.638v.91c0,1.882,1.527,4.281,3.414,4.281s3.414-2.394,3.414-4.281v-.91A1.642,1.642,0,0,0,228.556,261.18Z" transform="translate(-157.151 -166.384)" fill="#98b4ff" stroke="#263238" stroke-linecap="round" stroke-linejoin="round" stroke-width="1"/>
        <path id="Path_682" data-name="Path 682" d="M246.351,261.18H242.8a1.642,1.642,0,0,0-1.642,1.638v.91c0,1.882,1.532,4.281,3.414,4.281s3.414-2.394,3.414-4.281v-.91a1.638,1.638,0,0,0-1.638-1.638Z" transform="translate(-166.423 -166.384)" fill="#98b4ff" stroke="#263238" stroke-linecap="round" stroke-linejoin="round" stroke-width="1"/>
        <path id="Path_683" data-name="Path 683" d="M264.086,261.18h-3.548a1.638,1.638,0,0,0-1.638,1.638v.91c0,1.882,1.527,4.281,3.409,4.281s3.414-2.394,3.414-4.281v-.91a1.638,1.638,0,0,0-1.638-1.638Z" transform="translate(-175.668 -166.384)" fill="#98b4ff" stroke="#263238" stroke-linecap="round" stroke-linejoin="round" stroke-width="1"/>
        <path id="Path_684" data-name="Path 684" d="M281.846,261.18H278.3a1.638,1.638,0,0,0-1.638,1.638v.91c0,1.882,1.528,4.281,3.414,4.281s3.409-2.394,3.409-4.281v-.91a1.638,1.638,0,0,0-1.638-1.638Z" transform="translate(-184.924 -166.384)" fill="#98b4ff" stroke="#263238" stroke-linecap="round" stroke-linejoin="round" stroke-width="1"/>
        <path id="Path_685" data-name="Path 685" d="M299.606,261.18h-3.548a1.638,1.638,0,0,0-1.638,1.638v.91c0,1.882,1.528,4.281,3.414,4.281s3.414-2.394,3.414-4.281v-.91A1.642,1.642,0,0,0,299.606,261.18Z" transform="translate(-194.18 -166.384)" fill="#98b4ff" stroke="#263238" stroke-linecap="round" stroke-linejoin="round" stroke-width="1"/>
        <path id="Path_686" data-name="Path 686" d="M317.351,261.18H313.8a1.642,1.642,0,0,0-1.642,1.638v.91c0,1.882,1.532,4.281,3.414,4.281s3.414-2.394,3.414-4.281v-.91a1.638,1.638,0,0,0-1.638-1.638Z" transform="translate(-203.425 -166.384)" fill="#9ca6ff" stroke="#263238" stroke-linecap="round" stroke-linejoin="round" stroke-width="1"/>
        <path id="Path_687" data-name="Path 687" d="M335.162,261.18h-3.548A1.638,1.638,0,0,0,330,262.817v.91c0,1.882,1.527,4.281,3.409,4.281s3.414-2.394,3.414-4.281v-.91a1.638,1.638,0,0,0-1.662-1.638Z" transform="translate(-212.722 -166.384)" fill="#98b4ff" stroke="#263238" stroke-linecap="round" stroke-linejoin="round" stroke-width="1"/>
        <path id="Path_688" data-name="Path 688" d="M352.9,261.18h-3.548a1.638,1.638,0,0,0-1.638,1.638v.91c0,1.882,1.527,4.281,3.414,4.281s3.409-2.394,3.409-4.281v-.91a1.638,1.638,0,0,0-1.638-1.638Z" transform="translate(-221.952 -166.384)" fill="#98b4ff" stroke="#263238" stroke-linecap="round" stroke-linejoin="round" stroke-width="1"/>
        <rect id="Rectangle_16" data-name="Rectangle 16" width="68.043" height="7.738" rx="3.21" transform="translate(44.116 112.594)" fill="#98b4ff" stroke="#263238" stroke-linecap="round" stroke-linejoin="round" stroke-width="1"/>
        <path id="Path_689" data-name="Path 689" d="M328.626,299.3h-3.548a1.638,1.638,0,0,0-1.638,1.638v.91c0,1.887,1.527,4.281,3.414,4.281s3.409-2.394,3.409-4.281v-.91A1.638,1.638,0,0,0,328.626,299.3Z" transform="translate(-209.304 -186.251)" fill="#29b6f6" stroke="#263238" stroke-linecap="round" stroke-linejoin="round" stroke-width="1"/>
        <path id="Path_690" data-name="Path 690" d="M164.016,299.3h-3.548a1.638,1.638,0,0,0-1.638,1.638v.91c0,1.887,1.527,4.281,3.414,4.281s3.414-2.394,3.414-4.281v-.91A1.642,1.642,0,0,0,164.016,299.3Z" transform="translate(-123.516 -186.251)" fill="#29b6f6" stroke="#263238" stroke-linecap="round" stroke-linejoin="round" stroke-width="1"/>
        <path id="Path_691" data-name="Path 691" d="M149.828,245.361a2.912,2.912,0,0,1,.512.048V244.4a.714.714,0,0,0-.713-.709h-3.548a.713.713,0,0,0-.709.709v.91a3.689,3.689,0,0,0,2.088,3.285A2.488,2.488,0,0,1,149.828,245.361Z" transform="translate(-116.501 -157.269)" opacity="0.2"/>
        <path id="Path_692" data-name="Path 692" d="M167.785,245.1a2.391,2.391,0,0,1,.326,0v-.737a.714.714,0,0,0-.709-.709h-3.548a.713.713,0,0,0-.713.709v.91c0,1.437,1.135,3.232,2.394,3.352A2.49,2.49,0,0,1,167.785,245.1Z" transform="translate(-125.762 -157.248)" opacity="0.2"/>
        <path id="Path_693" data-name="Path 693" d="M185.8,244.987h.072v-.6a.709.709,0,0,0-.709-.709h-3.548a.713.713,0,0,0-.713.709v.91c0,1.46,1.207,3.352,2.485,3.352a1.239,1.239,0,0,0,.187,0A2.534,2.534,0,0,1,185.8,244.987Z" transform="translate(-135.018 -157.264)" opacity="0.2"/>
        <path id="Path_694" data-name="Path 694" d="M203,244.727a2.729,2.729,0,0,1,.594.048v-.417a.709.709,0,0,0-.709-.709h-3.548a.709.709,0,0,0-.709.709v.91c0,1.37,1.053,3.112,2.241,3.352A2.567,2.567,0,0,1,203,244.727Z" transform="translate(-144.258 -157.248)" opacity="0.2"/>
        <path id="Path_695" data-name="Path 695" d="M221.218,244.738h.182v-.359a.713.713,0,0,0-.713-.709h-3.548a.713.713,0,0,0-.709.709v.91c0,1.46,1.207,3.352,2.485,3.352a1.368,1.368,0,0,0,.2,0A2.556,2.556,0,0,1,221.218,244.738Z" transform="translate(-153.534 -157.259)" opacity="0.2"/>
        <path id="Path_696" data-name="Path 696" d="M239.05,244.775h.11v-.417a.713.713,0,0,0-.709-.709H234.9a.713.713,0,0,0-.713.709v.91c0,1.46,1.207,3.352,2.485,3.352a1.3,1.3,0,0,0,.235,0A2.553,2.553,0,0,1,239.05,244.775Z" transform="translate(-162.79 -157.248)" opacity="0.2"/>
        <path id="Path_697" data-name="Path 697" d="M256.519,244.748a3.624,3.624,0,0,1,.407.029V244.4a.709.709,0,0,0-.709-.709h-3.548a.709.709,0,0,0-.709.709v.91c0,1.437,1.188,3.323,2.456,3.352A2.555,2.555,0,0,1,256.519,244.748Z" transform="translate(-172.051 -157.269)" opacity="0.2"/>
        <path id="Path_698" data-name="Path 698" d="M274.686,244.868v-.479a.709.709,0,0,0-.709-.709h-3.548a.709.709,0,0,0-.709.709v.91c0,1.46,1.2,3.352,2.485,3.352a1.3,1.3,0,0,0,.378-.062A2.54,2.54,0,0,1,274.686,244.868Z" transform="translate(-181.307 -157.264)" opacity="0.2"/>
        <path id="Path_699" data-name="Path 699" d="M291.772,244.686a2.687,2.687,0,0,1,.7.091V244.4a.714.714,0,0,0-.714-.709h-3.529a.714.714,0,0,0-.709.709v.91c0,1.35,1.025,3.055,2.188,3.314A2.539,2.539,0,0,1,291.772,244.686Z" transform="translate(-190.584 -157.269)" opacity="0.2"/>
        <path id="Path_700" data-name="Path 700" d="M309.7,244.686a2.81,2.81,0,0,1,.508.048V244.4a.714.714,0,0,0-.709-.709h-3.548a.713.713,0,0,0-.713.709v.91c0,1.437,1.149,3.261,2.394,3.352A2.562,2.562,0,0,1,309.7,244.686Z" transform="translate(-199.819 -157.269)" opacity="0.2"/>
        <path id="Path_701" data-name="Path 701" d="M327.6,244.93a3.109,3.109,0,0,1,.374.029v-.56a.709.709,0,0,0-.709-.709h-3.548a.709.709,0,0,0-.709.709v.91c0,1.437,1.149,3.256,2.394,3.352A2.541,2.541,0,0,1,327.6,244.93Z" transform="translate(-209.08 -157.269)" opacity="0.2"/>
        <path id="Path_702" data-name="Path 702" d="M345.736,244.82V244.4a.709.709,0,0,0-.709-.709h-3.548a.709.709,0,0,0-.709.709v.91c0,1.46,1.2,3.352,2.485,3.352a1.4,1.4,0,0,0,.536-.115A2.546,2.546,0,0,1,345.736,244.82Z" transform="translate(-218.335 -157.269)" opacity="0.2"/>
        <path id="Path_703" data-name="Path 703" d="M150.077,282.119a2.529,2.529,0,0,1,.273,0v-.1a.714.714,0,0,0-.713-.709h-3.548a.713.713,0,0,0-.709.709v.91c0,1.46,1.207,3.352,2.485,3.352a1.584,1.584,0,0,0,.263-.029C147.056,284.8,147.707,282.119,150.077,282.119Z" transform="translate(-116.506 -176.875)" opacity="0.2"/>
        <path id="Path_704" data-name="Path 704" d="M167.665,282.135a2.7,2.7,0,0,1,.445.038v-.124a.713.713,0,0,0-.709-.709h-3.548a.713.713,0,0,0-.713.709v.91c0,1.46,1.207,3.352,2.485,3.352h.105C164.634,284.836,165.28,282.135,167.665,282.135Z" transform="translate(-125.762 -176.891)" opacity="0.2"/>
        <path id="Path_705" data-name="Path 705" d="M185.352,282.249a2.748,2.748,0,0,1,.479.043v-.254a.709.709,0,0,0-.709-.709h-3.548a.713.713,0,0,0-.713.709v.91c0,1.437,1.188,3.318,2.456,3.352C182.364,284.811,183.029,282.249,185.352,282.249Z" transform="translate(-134.997 -176.885)" opacity="0.2"/>
        <path id="Path_706" data-name="Path 706" d="M203.267,282.312a2.979,2.979,0,0,1,.369.024v-.3a.709.709,0,0,0-.709-.709h-3.548a.709.709,0,0,0-.709.709v.91c0,1.46,1.2,3.352,2.485,3.352h.057A2.559,2.559,0,0,1,203.267,282.312Z" transform="translate(-144.279 -176.885)" opacity="0.2"/>
        <path id="Path_707" data-name="Path 707" d="M220.854,282.135a2.872,2.872,0,0,1,.546.053v-.139a.713.713,0,0,0-.713-.709h-3.548a.713.713,0,0,0-.709.709v.91c0,1.46,1.207,3.352,2.485,3.352h0C217.823,284.845,218.465,282.135,220.854,282.135Z" transform="translate(-153.534 -176.891)" opacity="0.2"/>
        <path id="Path_708" data-name="Path 708" d="M238.744,282.187a2.872,2.872,0,0,1,.417.034v-.182a.713.713,0,0,0-.709-.709H234.9a.713.713,0,0,0-.713.709v.91c0,1.46,1.207,3.352,2.485,3.352h.091C235.732,284.816,236.393,282.187,238.744,282.187Z" transform="translate(-162.79 -176.885)" opacity="0.2"/>
        <path id="Path_709" data-name="Path 709" d="M256.825,282.364h.1v-.335a.709.709,0,0,0-.709-.709h-3.548a.709.709,0,0,0-.709.709v.91c0,1.461,1.2,3.352,2.48,3.352a1.336,1.336,0,0,0,.278-.034A2.554,2.554,0,0,1,256.825,282.364Z" transform="translate(-172.051 -176.88)" opacity="0.2"/>
        <path id="Path_710" data-name="Path 710" d="M274.642,282.187h.029v-.148a.709.709,0,0,0-.709-.709h-3.534a.709.709,0,0,0-.709.709v.91c0,1.46,1.2,3.352,2.485,3.352a1.364,1.364,0,0,0,.431-.077A2.558,2.558,0,0,1,274.642,282.187Z" transform="translate(-181.307 -176.885)" opacity="0.2"/>
        <path id="Path_711" data-name="Path 711" d="M292.2,281.995h.268a.713.713,0,0,0-.709-.685h-3.529a.713.713,0,0,0-.709.709v.91c0,1.46,1.207,3.352,2.485,3.352a1.438,1.438,0,0,0,.345-.053C289.148,284.8,289.771,281.995,292.2,281.995Z" transform="translate(-190.584 -176.875)" opacity="0.2"/>
        <path id="Path_712" data-name="Path 712" d="M310.18,282.135h0v-.086a.713.713,0,0,0-.709-.709h-3.548a.713.713,0,0,0-.713.709v.91c0,1.46,1.207,3.352,2.485,3.352a1.51,1.51,0,0,0,.479-.086C307.173,284.74,307.834,282.135,310.18,282.135Z" transform="translate(-199.803 -176.891)" opacity="0.2"/>
        <path id="Path_713" data-name="Path 713" d="M327.8,282.124H328v-.1a.709.709,0,0,0-.709-.709h-3.548a.709.709,0,0,0-.709.709v.91c0,1.461,1.2,3.352,2.48,3.352a1.317,1.317,0,0,0,.335-.048A2.556,2.556,0,0,1,327.8,282.124Z" transform="translate(-209.09 -176.88)" opacity="0.2"/>
        <path id="Path_714" data-name="Path 714" d="M345.429,282.468h.306v-.479a.709.709,0,0,0-.709-.709h-3.548a.709.709,0,0,0-.709.709v.91c0,1.461,1.2,3.352,2.485,3.352h0A2.545,2.545,0,0,1,345.429,282.468Z" transform="translate(-218.335 -176.859)" opacity="0.2"/>
        <path id="Path_715" data-name="Path 715" d="M141.419,264.063h.062v-.235a.713.713,0,0,0-.713-.709h-3.539a.709.709,0,0,0-.709.709v.91c0,1.461,1.2,3.352,2.485,3.352a1.4,1.4,0,0,0,.364-.057A2.548,2.548,0,0,1,141.419,264.063Z" transform="translate(-111.888 -167.395)" opacity="0.2"/>
        <path id="Path_716" data-name="Path 716" d="M158.991,264.053h.239v-.244a.713.713,0,0,0-.713-.709h-3.548a.713.713,0,0,0-.709.709v.91c0,1.46,1.207,3.352,2.485,3.352a1.566,1.566,0,0,0,.211,0A2.563,2.563,0,0,1,158.991,264.053Z" transform="translate(-121.134 -167.385)" opacity="0.2"/>
        <path id="Path_717" data-name="Path 717" d="M176.937,264.063h.043v-.235a.713.713,0,0,0-.709-.709h-3.548a.713.713,0,0,0-.723.709v.91c0,1.46,1.207,3.352,2.485,3.352a1.276,1.276,0,0,0,.378-.062A2.559,2.559,0,0,1,176.937,264.063Z" transform="translate(-130.379 -167.395)" opacity="0.2"/>
        <path id="Path_718" data-name="Path 718" d="M194.535,264.031h.22v-.182a.709.709,0,0,0-.709-.709H190.5a.709.709,0,0,0-.709.709v.91c0,1.46,1.2,3.352,2.48,3.352a1.473,1.473,0,0,0,.259-.029A2.555,2.555,0,0,1,194.535,264.031Z" transform="translate(-139.651 -167.405)" opacity="0.2"/>
        <path id="Path_719" data-name="Path 719" d="M212.059,264.063a2.728,2.728,0,0,1,.455.038v-.273a.709.709,0,0,0-.709-.709h-3.577a.709.709,0,0,0-.709.709v.91c0,1.46,1.2,3.352,2.485,3.352h0A2.569,2.569,0,0,1,212.059,264.063Z" transform="translate(-148.891 -167.395)" opacity="0.2"/>
        <path id="Path_720" data-name="Path 720" d="M229.893,263.757a3.294,3.294,0,0,1,.383.024.714.714,0,0,0-.709-.661h-3.548a.713.713,0,0,0-.709.709v.91c0,1.46,1.207,3.352,2.485,3.352a1.326,1.326,0,0,0,.273-.034C226.823,266.635,227.431,263.757,229.893,263.757Z" transform="translate(-158.162 -167.395)" opacity="0.2"/>
        <path id="Path_721" data-name="Path 721" d="M247.72,264.1h.321v-.311a.713.713,0,0,0-.709-.709h-3.548a.713.713,0,0,0-.713.709v.91c0,1.461,1.207,3.352,2.485,3.352h.1A2.546,2.546,0,0,1,247.72,264.1Z" transform="translate(-167.418 -167.374)" opacity="0.2"/>
        <path id="Path_722" data-name="Path 722" d="M265.806,263.829a.709.709,0,0,0-.709-.709h-3.548a.709.709,0,0,0-.709.709v.91c0,1.461,1.2,3.352,2.48,3.352a1.556,1.556,0,0,0,.728-.2A2.579,2.579,0,0,1,265.806,263.829Z" transform="translate(-176.679 -167.395)" opacity="0.2"/>
        <path id="Path_723" data-name="Path 723" d="M283.6,264.031v-.182a.709.709,0,0,0-.709-.709h-3.548a.709.709,0,0,0-.709.709v.91c0,1.46,1.2,3.352,2.485,3.352a1.437,1.437,0,0,0,.594-.139A2.549,2.549,0,0,1,283.6,264.031Z" transform="translate(-185.95 -167.405)" opacity="0.2"/>
        <path id="Path_724" data-name="Path 724" d="M301.033,263.861h.3V263.8a.713.713,0,0,0-.713-.709h-3.548a.713.713,0,0,0-.709.709v.91c0,1.46,1.207,3.352,2.485,3.352a1.247,1.247,0,0,0,.268-.034C298,266.586,298.639,263.861,301.033,263.861Z" transform="translate(-195.191 -167.379)" opacity="0.2"/>
        <path id="Path_725" data-name="Path 725" d="M319.09,264.188v-.359a.713.713,0,0,0-.709-.709h-3.548a.714.714,0,0,0-.713.709v.91c0,1.461,1.207,3.352,2.485,3.352a1.435,1.435,0,0,0,.426-.072A2.544,2.544,0,0,1,319.09,264.188Z" transform="translate(-204.446 -167.395)" opacity="0.2"/>
        <path id="Path_726" data-name="Path 726" d="M336.453,263.939a3.518,3.518,0,0,1,.4.029v-.139a.709.709,0,0,0-.709-.709H332.6a.709.709,0,0,0-.709.709v.91c0,1.46,1.2,3.352,2.48,3.352a1.143,1.143,0,0,0,.134,0C333.432,266.611,334.083,263.939,336.453,263.939Z" transform="translate(-213.707 -167.395)" opacity="0.2"/>
        <path id="Path_727" data-name="Path 727" d="M354.285,264.308a2.446,2.446,0,0,1,.33,0v-.479a.709.709,0,0,0-.709-.709h-3.548a.709.709,0,0,0-.709.709v.91c0,1.437,1.192,3.352,2.471,3.352A2.538,2.538,0,0,1,354.285,264.308Z" transform="translate(-222.963 -167.395)" opacity="0.2"/>
        <rect id="Rectangle_17" data-name="Rectangle 17" width="5.88" height="66.185" rx="1.21" transform="translate(111.23 113.523) rotate(90)" opacity="0.2"/>
        <path id="Path_728" data-name="Path 728" d="M330.346,302.418v-.479a.709.709,0,0,0-.709-.709h-3.548a.709.709,0,0,0-.709.709v.91c0,1.46,1.2,3.352,2.485,3.352a1.438,1.438,0,0,0,.316-.043A2.538,2.538,0,0,1,330.346,302.418Z" transform="translate(-210.315 -187.256)" opacity="0.2"/>
        <path id="Path_729" data-name="Path 729" d="M165.324,302.116a2.868,2.868,0,0,1,.417.034v-.2a.714.714,0,0,0-.713-.709h-3.548a.714.714,0,0,0-.709.709v.91c0,1.46,1.207,3.352,2.485,3.352h.081C162.317,304.726,162.987,302.116,165.324,302.116Z" transform="translate(-124.527 -187.262)" opacity="0.2"/>
        <path id="Path_730" data-name="Path 730" d="M122.391,94.5H239.764a3.041,3.041,0,0,1,3.041,3.041v26.815H119.35V97.541A3.041,3.041,0,0,1,122.391,94.5Z" transform="translate(-102.94 -79.517)" opacity="0.2"/>
        <path id="Path_731" data-name="Path 731" d="M239.252,83.249H141.09a111.569,111.569,0,0,0-4.31-20.039h106.8a107.056,107.056,0,0,0-4.329,20.039Z" transform="translate(-112.024 -63.21)" fill="#fff"/>
        <g id="Group_37" data-name="Group 37" transform="translate(24.756)" clip-path="url(#clip-path-2)">
          <path id="Path_732" data-name="Path 732" d="M243.852,91.57c-.713,3.9-.958,6.46-.958,6.46H144.732s-.249-2.514-.982-6.46Z" transform="translate(-140.412 -77.99)" opacity="0.2"/>
        </g>
        <path id="Path_734" data-name="Path 734" d="M239.252,83.249H141.09a111.569,111.569,0,0,0-4.31-20.039h106.8a107.056,107.056,0,0,0-4.329,20.039Z" transform="translate(-112.024 -63.21)" fill="none" stroke="#263238" stroke-linecap="round" stroke-linejoin="round" stroke-width="1"/>
        <rect id="Rectangle_18" data-name="Rectangle 18" width="96.3" height="39.619" transform="translate(29.592 36.914)" fill="#263238"/>
        <g id="Group_38" data-name="Group 38" transform="translate(46.141 43.134)" opacity="0.4">
          <path id="Path_735" data-name="Path 735" d="M242.42,183.434l.508.024q.958-14.82,1.915-29.688Q243.622,168.643,242.42,183.434Z" transform="translate(-213.22 -153.54)" fill="#fff"/>
          <path id="Path_736" data-name="Path 736" d="M239,183.315l.508.043q1.662-14.724,3.318-29.578Q240.915,168.643,239,183.315Z" transform="translate(-211.438 -153.545)" fill="#fff"/>
          <path id="Path_737" data-name="Path 737" d="M235.67,183.128a4.57,4.57,0,0,1,.508.057q2.356-14.566,4.741-29.415Q238.284,168.633,235.67,183.128Z" transform="translate(-209.703 -153.54)" fill="#fff"/>
          <path id="Path_738" data-name="Path 738" d="M232.3,182.868l.512.081q3.055-14.365,6.158-29.209Q235.618,168.6,232.3,182.868Z" transform="translate(-207.946 -153.525)" fill="#fff"/>
          <path id="Path_739" data-name="Path 739" d="M228.94,182.577l.517.105q3.735-14.092,7.57-28.922Q232.948,168.595,228.94,182.577Z" transform="translate(-206.195 -153.535)" fill="#fff"/>
          <path id="Path_740" data-name="Path 740" d="M225.6,182.207l.517.129c2.935-9.184,5.952-18.708,8.978-28.587C231.892,163.628,228.7,173.11,225.6,182.207Z" transform="translate(-204.454 -153.53)" fill="#fff"/>
          <path id="Path_741" data-name="Path 741" d="M222.27,181.766l.522.153c3.352-8.926,6.862-18.32,10.376-28.189C229.477,163.6,225.8,172.941,222.27,181.766Z" transform="translate(-202.719 -153.519)" fill="#fff"/>
          <path id="Path_742" data-name="Path 742" d="M219,181.272l.522.168c3.788-8.619,7.762-17.866,11.765-27.72C227.088,163.575,222.931,172.754,219,181.272Z" transform="translate(-201.015 -153.514)" fill="#fff"/>
          <path id="Path_743" data-name="Path 743" d="M215.68,180.7l.527.192c4.195-8.294,8.653-17.353,13.144-27.193C224.673,163.54,220.028,172.518,215.68,180.7Z" transform="translate(-199.285 -153.504)" fill="#fff"/>
          <path id="Path_744" data-name="Path 744" d="M212.44,180.059l.527.22c4.578-7.92,9.519-16.759,14.5-26.6C222.285,163.5,217.166,172.293,212.44,180.059Z" transform="translate(-197.596 -153.493)" fill="#fff"/>
          <path id="Path_745" data-name="Path 745" d="M209.23,179.34l.527.254c4.942-7.494,10.367-16.137,15.85-25.934C219.927,163.457,214.315,172.019,209.23,179.34Z" transform="translate(-195.923 -153.483)" fill="#fff"/>
          <path id="Path_746" data-name="Path 746" d="M206.07,178.539l.527.287c5.267-7.025,11.19-15.423,17.171-25.2a288.17,288.17,0,0,1-17.7,24.909Z" transform="translate(-194.276 -153.467)" fill="#fff"/>
          <path id="Path_747" data-name="Path 747" d="M203,177.667c.172.11.354.211.532.316A250.33,250.33,0,0,0,222,153.61a227.756,227.756,0,0,1-19,24.057Z" transform="translate(-192.676 -153.457)" fill="#fff"/>
          <path id="Path_748" data-name="Path 748" d="M199.93,176.714l.522.359a199.085,199.085,0,0,0,19.733-23.463,182.081,182.081,0,0,1-20.255,23.1Z" transform="translate(-191.076 -153.457)" fill="#fff"/>
          <path id="Path_749" data-name="Path 749" d="M218.466,153.55A148.057,148.057,0,0,1,197,175.644l.512.4a161.209,161.209,0,0,0,20.954-22.491Z" transform="translate(-189.549 -153.425)" fill="#fff"/>
          <path id="Path_750" data-name="Path 750" d="M216.79,153.52A122.265,122.265,0,0,1,194.15,174.5l.508.436A131.907,131.907,0,0,0,216.79,153.52Z" transform="translate(-188.064 -153.41)" fill="#fff"/>
          <path id="Path_751" data-name="Path 751" d="M215.171,153.49c-8.7,9.5-17.176,16.094-23.731,19.771.158.163.316.326.479.479C198.412,169.766,206.7,163.019,215.171,153.49Z" transform="translate(-186.652 -153.394)" fill="#fff"/>
          <path id="Path_752" data-name="Path 752" d="M213.691,153.45c-9.175,9.409-18.091,15.562-24.751,18.483l.479.522C196.012,169.213,204.727,162.888,213.691,153.45Z" transform="translate(-185.349 -153.373)" fill="#fff"/>
          <path id="Path_753" data-name="Path 753" d="M186.64,170.519c.139.192.283.383.426.57,6.68-2.466,15.8-8.351,25.24-17.669C202.676,162.7,193.358,168.389,186.64,170.519Z" transform="translate(-184.15 -153.358)" fill="#fff"/>
          <path id="Path_754" data-name="Path 754" d="M184.6,169.027c.124.2.254.4.383.6,6.7-1.686,16.223-7.1,26.068-16.281C201.015,162.477,191.328,167.691,184.6,169.027Z" transform="translate(-183.087 -153.321)" fill="#fff"/>
          <path id="Path_755" data-name="Path 755" d="M182.86,167.553c.105.211.215.417.326.627,6.7-.91,16.549-5.847,26.767-14.82C199.567,162.247,189.564,166.978,182.86,167.553Z" transform="translate(-182.18 -153.326)" fill="#fff"/>
          <path id="Path_756" data-name="Path 756" d="M181.44,166c.086.211.177.426.268.637,6.665-.163,16.759-4.611,27.294-13.35C198.348,161.938,188.1,166.171,181.44,166Z" transform="translate(-181.44 -153.29)" fill="#fff"/>
          <path id="Path_757" data-name="Path 757" d="M245.81,183.506h.5q.23-14.844.479-29.726Q246.289,168.653,245.81,183.506Z" transform="translate(-214.987 -153.545)" fill="#fff"/>
          <path id="Path_758" data-name="Path 758" d="M248.7,183.526h.508q-.479-14.844-.958-29.726Z" transform="translate(-216.259 -153.556)" fill="#fff"/>
          <path id="Path_759" data-name="Path 759" d="M250.517,183.478h.508q-1.2-14.8-2.394-29.688Q249.573,168.663,250.517,183.478Z" transform="translate(-216.457 -153.551)" fill="#fff"/>
          <path id="Path_760" data-name="Path 760" d="M252.383,183.372l.508-.038q-1.915-14.686-3.831-29.554Q250.707,168.648,252.383,183.372Z" transform="translate(-216.681 -153.545)" fill="#fff"/>
          <path id="Path_761" data-name="Path 761" d="M254.15,183.214l.508-.062q-2.6-14.514-5.267-29.382Q251.789,168.638,254.15,183.214Z" transform="translate(-216.853 -153.54)" fill="#fff"/>
          <path id="Path_762" data-name="Path 762" d="M255.988,183l.512-.077q-3.3-14.293-6.68-29.152Q252.923,168.633,255.988,183Z" transform="translate(-217.077 -153.54)" fill="#fff"/>
          <path id="Path_763" data-name="Path 763" d="M257.8,182.72l.512-.1q-3.989-14.011-8.1-28.864Q254.041,168.614,257.8,182.72Z" transform="translate(-217.285 -153.535)" fill="#fff"/>
          <path id="Path_764" data-name="Path 764" d="M259.613,182.38l.522-.12c-3.1-9.1-6.3-18.613-9.515-28.51Q255.174,168.6,259.613,182.38Z" transform="translate(-217.494 -153.53)" fill="#fff"/>
          <path id="Path_765" data-name="Path 765" d="M261.42,181.977l.517-.148c-3.534-8.844-7.216-18.2-10.918-28.1C254.539,163.623,258.045,173.013,261.42,181.977Z" transform="translate(-217.702 -153.519)" fill="#fff"/>
          <path id="Path_766" data-name="Path 766" d="M263.214,181.507l.527-.172c-3.96-8.533-8.14-17.717-12.321-27.615C255.433,163.6,259.417,172.854,263.214,181.507Z" transform="translate(-217.911 -153.514)" fill="#fff"/>
          <path id="Path_767" data-name="Path 767" d="M265,180.965l.527-.2c-4.357-8.183-9.012-17.2-13.7-27.069C256.326,163.569,260.793,172.648,265,180.965Z" transform="translate(-218.119 -153.504)" fill="#fff"/>
          <path id="Path_768" data-name="Path 768" d="M266.767,180.356c.177-.077.359-.144.531-.22-4.74-7.786-9.883-16.6-15.079-26.456C257.224,163.535,262.17,172.417,266.767,180.356Z" transform="translate(-218.328 -153.493)" fill="#fff"/>
          <path id="Path_769" data-name="Path 769" d="M268.522,179.685l.532-.254c-5.1-7.341-10.736-15.926-16.434-25.762C258.122,163.5,263.561,172.168,268.522,179.685Z" transform="translate(-218.536 -153.488)" fill="#fff"/>
          <path id="Path_770" data-name="Path 770" d="M270.238,178.913c.177-.091.354-.192.527-.287a289.525,289.525,0,0,1-17.765-25C259.014,163.446,264.971,171.869,270.238,178.913Z" transform="translate(-218.734 -153.467)" fill="#fff"/>
          <path id="Path_771" data-name="Path 771" d="M271.961,178.074l.536-.316A228.328,228.328,0,0,1,253.42,153.61a250.178,250.178,0,0,0,18.541,24.464Z" transform="translate(-218.953 -153.457)" fill="#fff"/>
          <path id="Path_772" data-name="Path 772" d="M253.82,153.58a199.309,199.309,0,0,0,19.819,23.569l.531-.359A182.313,182.313,0,0,1,253.82,153.58Z" transform="translate(-219.162 -153.441)" fill="#fff"/>
          <path id="Path_773" data-name="Path 773" d="M254.22,153.55a160.667,160.667,0,0,0,21.069,22.582c.177-.129.345-.263.517-.4A147.656,147.656,0,0,1,254.22,153.55Z" transform="translate(-219.37 -153.426)" fill="#fff"/>
          <path id="Path_774" data-name="Path 774" d="M254.62,153.52a131.96,131.96,0,0,0,22.252,21.5c.172-.144.35-.287.517-.436A121.218,121.218,0,0,1,254.62,153.52Z" transform="translate(-219.578 -153.41)" fill="#fff"/>
          <path id="Path_775" data-name="Path 775" d="M255,153.49c8.547,9.577,16.879,16.372,23.391,20.341.168-.158.326-.326.479-.479C272.31,169.68,263.772,163.067,255,153.49Z" transform="translate(-219.777 -153.394)" fill="#fff"/>
          <path id="Path_776" data-name="Path 776" d="M255.42,153.45c9.036,9.51,17.818,15.864,24.421,19.082l.479-.527C273.659,169.118,264.671,162.941,255.42,153.45Z" transform="translate(-219.995 -153.373)" fill="#fff"/>
          <path id="Path_777" data-name="Path 777" d="M281.216,171.156c.148-.192.287-.383.431-.579-6.728-2.083-16.132-7.8-25.857-17.157C265.309,162.82,274.522,168.724,281.216,171.156Z" transform="translate(-220.188 -153.358)" fill="#fff"/>
          <path id="Path_778" data-name="Path 778" d="M282.474,169.694l.393-.613c-6.737-1.269-16.515-6.5-26.657-15.7C266.165,162.636,275.742,168.066,282.474,169.694Z" transform="translate(-220.407 -153.337)" fill="#fff"/>
          <path id="Path_779" data-name="Path 779" d="M283.659,168.184c.115-.211.225-.421.335-.637-6.7-.479-16.812-5.215-27.294-14.207C266.985,162.409,276.955,167.356,283.659,168.184Z" transform="translate(-220.662 -153.316)" fill="#fff"/>
          <path id="Path_780" data-name="Path 780" d="M257,153.29c10.649,8.839,20.877,13.288,27.533,13.355.1-.215.187-.431.278-.646C278.165,166.271,267.8,162.034,257,153.29Z" transform="translate(-220.819 -153.29)" fill="#fff"/>
        </g>
        <path id="Path_781" data-name="Path 781" d="M194.931,155.254c-1.815,4.654.148,18.2,13.245,18.2s17.851-9.515,17.32-15.395l17.482-2.816s5.358,14.806-6.019,25.163-50.815,9.687-59.151,1.815-3.711-23.425-3.711-23.425Z" transform="translate(-130.805 -111.172)" opacity="0.2"/>
        <path id="Path_782" data-name="Path 782" d="M379.24,103.214V99.948a.565.565,0,0,1,.4-.541l2.394-.747V95.395a1.475,1.475,0,0,1,1.475-1.475h2.873a.546.546,0,0,1,.556.517V95.49a.546.546,0,0,1-.541.546H382.74V99.23a.575.575,0,0,1-.273.479l-2.04,1.235v2.274Z" transform="translate(-238.384 -79.215)" fill="#999" stroke="#263238" stroke-linecap="round" stroke-linejoin="round" stroke-width="1"/>
        <rect id="Rectangle_19" data-name="Rectangle 19" width="3.151" height="9.424" transform="translate(140.856 23.999)" fill="#263238"/>
        <rect id="Rectangle_20" data-name="Rectangle 20" width="3.941" height="11.023" transform="translate(144.006 23.2)" fill="#757575"/>
        <g id="Group_39" data-name="Group 39" transform="translate(144.006 23.2)" clip-path="url(#clip-path-3)">
          <rect id="Rectangle_21" data-name="Rectangle 21" width="3.931" height="4.31" transform="translate(0 6.713)" opacity="0.2"/>
        </g>
        <rect id="Rectangle_23" data-name="Rectangle 23" width="3.941" height="11.023" transform="translate(144.006 23.2)" fill="none" stroke="#263238" stroke-linecap="round" stroke-linejoin="round" stroke-width="1"/>
        <rect id="Rectangle_24" data-name="Rectangle 24" width="3.151" height="9.424" transform="translate(15.419 33.418) rotate(180)" fill="#263238"/>
        <rect id="Rectangle_25" data-name="Rectangle 25" width="3.941" height="11.023" transform="translate(12.268 34.218) rotate(180)" fill="#757575"/>
        <g id="Group_40" data-name="Group 40" transform="translate(8.327 23.195)" clip-path="url(#clip-path-4)">
          <rect id="Rectangle_26" data-name="Rectangle 26" width="3.941" height="4.204" transform="translate(0.005 6.718)" opacity="0.2"/>
        </g>
        <rect id="Rectangle_28" data-name="Rectangle 28" width="3.941" height="11.023" transform="translate(12.268 34.218) rotate(180)" fill="none" stroke="#263238" stroke-linecap="round" stroke-linejoin="round" stroke-width="1"/>
        <path id="Path_783" data-name="Path 783" d="M100.025,117.206h0a3.831,3.831,0,0,0-1.13-4.31l-2.318-1.915a1.4,1.4,0,0,0-2.04.249L85.348,123.9a1.374,1.374,0,0,0-.268.819v13.613a1.379,1.379,0,0,0,1.4,1.379h0a1.379,1.379,0,0,0,1.379-1.379V127.28a1.322,1.322,0,0,1,.244-.761l6.871-9.577a.747.747,0,0,1,1.092-.134l1.264,1.073a1.733,1.733,0,0,0,1.12.412h0A1.7,1.7,0,0,0,100.025,117.206Z" transform="translate(-85.08 -87.934)" fill="#8f979a" stroke="#263238" stroke-linecap="round" stroke-linejoin="round" stroke-width="1"/>
        <ellipse id="Ellipse_2" data-name="Ellipse 2" cx="0.656" cy="0.656" rx="0.656" ry="0.656" transform="translate(12.392 26.719)" fill="#999" stroke="#263238" stroke-linecap="round" stroke-linejoin="round" stroke-width="1"/>
        <rect id="Rectangle_29" data-name="Rectangle 29" width="119.59" height="18.522" transform="translate(18.344 19.446)" fill="#263238"/>
        <rect id="Rectangle_30" data-name="Rectangle 30" width="117.503" height="4.319" rx="1.38" transform="translate(19.364 20.839)" fill="#fff" opacity="0.2"/>
        <path id="Path_784" data-name="Path 784" d="M239.252,128.469H141.09a51.442,51.442,0,0,1-4.31-20.039h106.8C243.58,117.71,239.252,128.469,239.252,128.469Z" transform="translate(-112.024 -86.777)" fill="#fff"/>
        <g id="Group_42" data-name="Group 42" transform="translate(24.756 21.653)" clip-path="url(#clip-path-5)">
          <g id="Group_41" data-name="Group 41" transform="translate(10.262 14.097)" opacity="0.7">
            <path id="Path_785" data-name="Path 785" d="M162.36,145.946a8.974,8.974,0,0,0,3.352-.838c1.2-.723,1.116.651,1.805.742s2.318-.479,3.18-.479.206.527,1.178.479.45.048.958-.048l4.161-.694a8.957,8.957,0,0,1,2.538-.2c.426.206.986,1.221,1.609.958s.292-.479,1.231-.479a6.224,6.224,0,0,1,1.714.249s.086-.244.517-.249h.771s1.633.431,1.891.431,2.188-.426,2.255-.431,1.915-.479,1.915-.479a3.108,3.108,0,0,0,1.437.852,8.3,8.3,0,0,1,1.963.139,6.5,6.5,0,0,0,2.26-.1,8.749,8.749,0,0,1,1.235.1,3.232,3.232,0,0,0,1.623-.048,6.187,6.187,0,0,1,2.969-.048c1.556.283,2.988-.426,3.649-.431s3.3.292,4.214.292a39.53,39.53,0,0,0,4.994.139,22.949,22.949,0,0,1,3.9.235c1.125,0,2.327-.048,2.586-.048a7.118,7.118,0,0,1,3.285-.618c1.781.2.2-.244,1.293,0s1.963.479,2.428.527a5.532,5.532,0,0,0,1.116-.048l1.915-.139h9.548" transform="translate(-160.373 -141.507)" fill="none" stroke="#263238" stroke-linecap="round" stroke-linejoin="round" stroke-width="1"/>
            <path id="Path_786" data-name="Path 786" d="M158.21,138.613s5.914,0,6.981-.1,1.638-.642,2.207-.642,3.448.546,3.448.546a.958.958,0,0,1,.958-.546c.781,0,.383.072,1.1.359s.345,0,.723.283a6.7,6.7,0,0,0,1.772.517s2.667.125,2.768-.517,1.437.517,1.437.517,3.62-.517,5.018-.517,4.9-.283,4.9-.283,2.873.378,3.007.378.608.752,1.12.421a2.377,2.377,0,0,1,1.614-.613,7.455,7.455,0,0,1,1.628.613l1.336-.709,1.532.1s1.561,1.039,2.677.613a24.459,24.459,0,0,0,2.485-1.159l1.374,1.159h.9l2.667-.517a1.614,1.614,0,0,0,1.748.517c1.13-.326,11.928,0,14.676,0s3.352-.709,3.352-.709l2.116.709h10.534" transform="translate(-158.21 -137.871)" fill="none" stroke="#263238" stroke-linecap="round" stroke-linejoin="round" stroke-width="1"/>
          </g>
          <path id="Path_787" data-name="Path 787" d="M243.708,144.5c-.579,1.724-1,2.768-1,2.768H144.545s-.479-1.006-1.135-2.768Z" transform="translate(-140.235 -127.228)" opacity="0.2"/>
          <path id="Path_788" data-name="Path 788" d="M243.465,129.36c-.33,1.437-.694,2.84-1.053,4.08H140.054c-.354-1.216-.718-2.591-1.034-4.08Z" transform="translate(-137.947 -119.338)" opacity="0.2"/>
        </g>
        <path id="Path_790" data-name="Path 790" d="M239.252,128.469H141.09a51.442,51.442,0,0,1-4.31-20.039h106.8C243.58,117.71,239.252,128.469,239.252,128.469Z" transform="translate(-112.024 -86.777)" fill="none" stroke="#263238" stroke-linecap="round" stroke-linejoin="round" stroke-width="1"/>
        <rect id="Rectangle_31" data-name="Rectangle 31" width="2.926" height="20.437" transform="translate(15.395 18.493)" fill="#757575"/>
        <g id="Group_43" data-name="Group 43" transform="translate(15.395 18.493)" clip-path="url(#clip-path-6)">
          <rect id="Rectangle_32" data-name="Rectangle 32" width="2.849" height="6.062" transform="translate(0.019 14.375)" opacity="0.2"/>
        </g>
        <rect id="Rectangle_34" data-name="Rectangle 34" width="2.926" height="20.437" transform="translate(15.395 18.493)" fill="none" stroke="#263238" stroke-linecap="round" stroke-linejoin="round" stroke-width="1"/>
        <rect id="Rectangle_35" data-name="Rectangle 35" width="2.926" height="20.437" transform="translate(137.954 18.493)" fill="#757575"/>
        <g id="Group_44" data-name="Group 44" transform="translate(137.954 18.493)" clip-path="url(#clip-path-6)">
          <rect id="Rectangle_36" data-name="Rectangle 36" width="2.95" height="6.062" transform="translate(-0.024 14.375)" opacity="0.2"/>
        </g>
        <rect id="Rectangle_38" data-name="Rectangle 38" width="2.926" height="20.437" transform="translate(137.954 18.493)" fill="none" stroke="#263238" stroke-linecap="round" stroke-linejoin="round" stroke-width="1"/>
        <path id="Path_791" data-name="Path 791" d="M241.721,100.04v14.906H122.039V100.04H120.89v15.907H242.87V100.04Z" transform="translate(-103.743 -82.404)" fill="#999" stroke="#263238" stroke-linecap="round" stroke-linejoin="round" stroke-width="1"/>
        <path id="Path_792" data-name="Path 792" d="M242.331,150.145v33.428A2.126,2.126,0,0,1,240.2,185.7H110.616a2.126,2.126,0,0,1-2.126-2.126V150.145a2.126,2.126,0,0,1,2.126-2.126h59.711v2.126s-10.195,8.844-27.773,12.105c2.519,11.4,16.281,20.111,32.887,20.111s30.368-8.72,32.892-20.111c-17.6-3.261-27.8-12.105-27.8-12.105V148h59.683a2.126,2.126,0,0,1,2.112,2.145Z" transform="translate(-97.28 -107.399)" fill="#29b6f6" stroke="#263238" stroke-linecap="round" stroke-linejoin="round" stroke-width="1"/>
        <path id="Path_793" data-name="Path 793" d="M242.325,150.145v33.428a2.126,2.126,0,0,1-2.131,2.126H110.611a2.126,2.126,0,0,1-2.131-2.126V150.145a2.136,2.136,0,0,1,2.131-2.131h59.711v2.131s-10.2,8.839-27.773,12.105c2.519,11.4,16.281,20.111,32.892,20.111s30.363-8.72,32.887-20.111c-17.6-3.266-27.8-12.105-27.8-12.105V148h59.683A2.131,2.131,0,0,1,242.325,150.145Z" transform="translate(-97.275 -107.399)" fill="#98b4ff"/>
        <g id="Group_45" data-name="Group 45" transform="translate(11.205 40.601)" clip-path="url(#clip-path-8)">
          <path id="Path_794" data-name="Path 794" d="M241.464,151.846v30.861a1.556,1.556,0,0,1-1.566,1.556h-126a1.551,1.551,0,0,1-1.556-1.556V151.846a1.561,1.561,0,0,1,1.556-1.566h58.419v1.053s-10.2,8.839-27.773,12.105c2.519,11.4,16.281,20.111,32.892,20.111s30.363-8.72,32.887-20.111c-17.6-3.266-27.8-12.105-27.8-12.105V150.28h57.389A1.566,1.566,0,0,1,241.464,151.846Z" transform="translate(-109.979 -148.422)" fill="#fff" opacity="0.2"/>
        </g>
        <path id="Path_796" data-name="Path 796" d="M242.325,150.145v33.428a2.126,2.126,0,0,1-2.131,2.126H110.611a2.126,2.126,0,0,1-2.131-2.126V150.145a2.136,2.136,0,0,1,2.131-2.131h59.711v2.131s-10.2,8.839-27.773,12.105c2.519,11.4,16.281,20.111,32.892,20.111s30.363-8.72,32.887-20.111c-17.6-3.266-27.8-12.105-27.8-12.105V148h59.683A2.131,2.131,0,0,1,242.325,150.145Z" transform="translate(-97.275 -107.399)" fill="none" stroke="#263238" stroke-linecap="round" stroke-linejoin="round" stroke-width="1"/>
      </g>
      <g id="freepik--right-hand--inject-326" transform="translate(118.19 84.289)">
        <path id="Path_797" data-name="Path 797" d="M285.347,245.476l6.364,17.751s2.753-19.537,4.4-19.537,5.181,10.683,5.181,10.683,2.184-5.574,4.252-5.775,3.941,13.685,3.941,13.685l.321,30.823-2.61,46.615s-16.649-18.34-21.5-23.066-9.5-15.127-10.836-17.238-1.681-13.168-1.681-13.168a11.851,11.851,0,0,0,2.509-7.623s3.907-6.541,3.668-11.368S278.5,243.676,285.347,245.476Z" transform="translate(-273.17 -241.558)" fill="rgba(0,0,0,0.7)" opacity="0.2"/>
        <path id="Path_798" data-name="Path 798" d="M339.795,329.158l-25.206,13.259c0-.134-3.314-5.5-7.317-11.574-1.81-2.749-3.764-5.636-5.617-8.25-3.036-4.276-6.9-7.968-7.226-8.772-.958-2.394-8.341-11.358-9.993-14.844s-2.03-14.332-2.758-16.884,1.36-4.99,3.036-6.177a16.572,16.572,0,0,0,3.433-4.31s-1.853-7.221-1.872-10.894-1.269-16.491.225-17.688,2.83-.694,3.2.129c1.226,2.715,2.327,9.543,3.271,12.689s2.715,12.273,3.586,12.929,2.423-1.805,2.423-1.805.148-7.661.479-10.836l-.479-10.056s-.9-6.043,1.188-6.618c2.873-.79,3.922,1.015,4.247,1.777s1.666,5.148,1.666,5.148l.077.3v.144q.034.125.072.273c.053.2.115.441.182.713.637,2.495,1.863,7.489,1.81,8.72-.072,1.662-.651,10.865.168,12.775l1.274-12.713s-2.054-9.8-1.456-11.21,3.419.148,3.754.7,3.074,3.917,3.563,5.2l.479,1.283s.675-3.036,2.26-2.246,1.781,4.65,1.891,6.335,1.259,12.526,1.437,12.546a25.6,25.6,0,0,1,1.757,9.371c-.522,7.963.857,13.886.9,16.941S322,305.652,322,305.652h0a18.037,18.037,0,0,1,2,4.942c.3,1.647,5.669,7.6,10.056,12.335h0C337.1,326.194,339.661,328.866,339.795,329.158Z" transform="translate(-277.526 -239.25)" fill="#ffbda7"/>
        <path id="Path_799" data-name="Path 799" d="M307.282,330.863h0c-1.81-2.749-3.764-5.636-5.617-8.25-3.036-4.276-6.9-7.968-7.226-8.772-.958-2.394-8.341-11.358-9.993-14.844s-2.03-14.332-2.758-16.884,1.36-4.99,3.036-6.177a16.572,16.572,0,0,0,3.433-4.31s-1.853-7.221-1.872-10.894-1.269-16.491.225-17.688,2.83-.694,3.2.129c1.226,2.715,2.327,9.543,3.27,12.689s2.715,12.273,3.586,12.929,2.423-1.805,2.423-1.805.148-7.661.479-10.836l-.479-10.056s-.9-6.043,1.188-6.618c2.873-.79,3.922,1.015,4.247,1.777s1.666,5.148,1.666,5.148l.077.3v.144q.029.124.072.273c.053.2.115.441.182.713A4.967,4.967,0,0,0,303.3,245.4c-3.831-.747-3,3.515-2.638,6.072a17.719,17.719,0,0,1-.12,5.1l.958-.551c-.69,1.231-1.676,11.459-1.676,13.733a2.346,2.346,0,0,1-3.414,2.365c-1.614-.666-2.188-11.1-3.414-12.977s-4.635,1.7-4.788,4.975,2.9,13.024,2.174,15.323-.713,11.013-.713,11.013l-.881-2.246c.057.306,0,1.336-1.844,4.367a9.026,9.026,0,0,0-1,7.451c1.125,2.485,6.833,9.036,7.791,9.711,0,0,.694-2.844,2.873-2.088a12.565,12.565,0,0,0-1.6,3.831c-.45,2.088,4.094,3.424,5.516,5.411C301.392,318.1,301.976,321.789,307.282,330.863Z" transform="translate(-277.531 -239.26)" fill="#898989" opacity="0.4"/>
        <path id="Path_800" data-name="Path 800" d="M371.627,334.829c-4.482-4.516-12.368-8.815-11.89-9.941.642-1.513-.172-4.736-1.551-7.35s.479-6.857.479-6.857l.852,2.466a20.988,20.988,0,0,0,.235-8.677c-.872-4.889-1.551-3.17-1.551-3.17a33.418,33.418,0,0,1,.958-6.809c.781-2.4,1.437-8.241.359-11.693s-3.352-2.8-3.96-1.614.043,5.818.546,7.336-1.638,4.07-1.681,2.174-.852-7.183-.852-7.183l1.623-10.616-1.623-8.432s.675-3.036,2.26-2.246,1.781,4.65,1.891,6.335,1.259,12.526,1.437,12.546a25.6,25.6,0,0,1,1.757,9.371c-.522,7.963.857,13.886.9,16.941s-2.255,10.132-2.255,10.132h0a18.035,18.035,0,0,1,2,4.942c.3,1.647,5.669,7.6,10.056,12.335Z" transform="translate(-315.071 -251.145)" fill="#898989" opacity="0.4"/>
        <path id="Path_801" data-name="Path 801" d="M344.45,257.327c.091.239.168.436.225.594-1.523-3.539-4.118-2.442-4.578-1.437s1.087,7.245,1.437,8.212-1.389,8.691-1.642,11.248-.929,3.079-.929,3.079c-1.719.129-1.915-4.616-1.915-5.267a6.11,6.11,0,0,0,.316,1.6l1.274-12.713s-2.1-9.807-1.5-11.219,3.419.148,3.754.7S343.962,256.044,344.45,257.327Z" transform="translate(-306.449 -245.288)" fill="#898989" opacity="0.4"/>
        <path id="Path_802" data-name="Path 802" d="M339.8,329.146c-.326-.737-15.28-15.8-15.8-18.569a18,18,0,0,0-2-4.946s2.3-7.063,2.255-10.132-1.437-8.978-.905-16.941a25.5,25.5,0,0,0-1.757-9.371c-.182-.019-1.331-10.86-1.436-12.546s-.3-5.545-1.891-6.335S316,252.55,316,252.55l-.479-1.283c-.479-1.283-3.227-4.645-3.563-5.2s-3.151-2.121-3.754-.7,1.5,11.2,1.5,11.2l-1.264,12.728c-.819-1.915-.239-11.114-.168-12.775s-2.179-10.151-2.179-10.151-1.35-4.367-1.666-5.152-1.374-2.567-4.247-1.777c-2.083.575-1.188,6.618-1.188,6.618l.479,10.056c-.321,3.189-.479,10.836-.479,10.836s-1.551,2.456-2.423,1.805-2.643-9.773-3.587-12.929-2.045-9.974-3.27-12.689c-.374-.824-1.709-1.326-3.2-.129s-.249,14.011-.225,17.688,1.872,10.894,1.872,10.894a16.9,16.9,0,0,1-3.433,4.31c-1.676,1.207-3.764,3.62-3.036,6.177s1.106,13.408,2.758,16.884,9.017,12.45,9.993,14.844c.33.8,4.19,4.5,7.226,8.772,5.962,8.394,12.929,19.632,12.929,19.824" transform="translate(-277.532 -239.237)" fill="none" stroke="#263238" stroke-linecap="round" stroke-linejoin="round" stroke-width="1"/>
        <path id="Path_803" data-name="Path 803" d="M292.355,306.84s1.188,5.885,1.144,6.871a43.872,43.872,0,0,0-1.049,7.489,29.977,29.977,0,0,0-1.954,3.462c-.4,1.063-1.121,3.677-.824,5.133" transform="translate(-281.735 -274.469)" fill="none" stroke="#263238" stroke-linecap="round" stroke-linejoin="round" stroke-width="1"/>
        <path id="Path_804" data-name="Path 804" d="M290.82,325s2.911.024,2.725,1.25" transform="translate(-282.368 -283.933)" fill="none" stroke="#263238" stroke-linecap="round" stroke-linejoin="round" stroke-width="1"/>
        <path id="Path_805" data-name="Path 805" d="M292.8,336.515s-1.867-.809-2.523.278" transform="translate(-282.087 -289.783)" fill="none" stroke="#263238" stroke-linecap="round" stroke-linejoin="round" stroke-width="1"/>
        <path id="Path_806" data-name="Path 806" d="M316.562,297.14s-.134,4.511-1.322,4.152" transform="translate(-295.095 -269.414)" fill="none" stroke="#263238" stroke-linecap="round" stroke-linejoin="round" stroke-width="1"/>
        <path id="Path_807" data-name="Path 807" d="M337.652,302s-.345,2.466.584,3.227" transform="translate(-306.743 -271.947)" fill="none" stroke="#263238" stroke-linecap="round" stroke-linejoin="round" stroke-width="1"/>
        <path id="Path_808" data-name="Path 808" d="M353.54,267.06s1.293,6.225,1.59,7.7-1.47,9-1.437,10.961.871,4.76.757,6.076" transform="translate(-315.056 -253.737)" fill="none" stroke="#263238" stroke-linecap="round" stroke-linejoin="round" stroke-width="1"/>
        <path id="Path_809" data-name="Path 809" d="M364.247,365.79s-.417,4.065.833,5.8" transform="translate(-320.601 -305.191)" fill="none" stroke="#263238" stroke-linecap="round" stroke-linejoin="round" stroke-width="1"/>
        <path id="Path_810" data-name="Path 810" d="M309.723,382.59s-2.787,2.538-1.767,5.66" transform="translate(-291.182 -313.947)" fill="none" stroke="#263238" stroke-linecap="round" stroke-linejoin="round" stroke-width="1"/>
        <path id="Path_811" data-name="Path 811" d="M348.926,316.51c.043,1.791-1.006,3.879-1.116,6.354" transform="translate(-312.069 -279.509)" fill="none" stroke="#263238" stroke-linecap="round" stroke-linejoin="round" stroke-width="1"/>
        <path id="Path_812" data-name="Path 812" d="M330.6,313.17c.594,1.465-.7,4.654-.9,5.851a7.321,7.321,0,0,0,.3,2.777" transform="translate(-302.619 -277.768)" fill="none" stroke="#263238" stroke-linecap="round" stroke-linejoin="round" stroke-width="1"/>
        <path id="Path_813" data-name="Path 813" d="M364.761,323.71c-.239,1.556-1.341,2.667-1.551,7.456" transform="translate(-320.095 -283.261)" fill="none" stroke="#263238" stroke-linecap="round" stroke-linejoin="round" stroke-width="1"/>
        <path id="Path_814" data-name="Path 814" d="M309.67,312.22c.8.876.263,5.061.479,5.746" transform="translate(-292.192 -277.273)" fill="none" stroke="#263238" stroke-linecap="round" stroke-linejoin="round" stroke-width="1"/>
        <path id="Path_815" data-name="Path 815" d="M341,261.006a3.948,3.948,0,0,1,5.095.359" transform="translate(-308.52 -250.168)" fill="none" stroke="#263238" stroke-linecap="round" stroke-linejoin="round" stroke-width="1"/>
        <path id="Path_816" data-name="Path 816" d="M321.3,251.55s.479-.8,2.792-.6,2.725,1.5,2.725,1.5" transform="translate(-298.253 -245.323)" fill="none" stroke="#263238" stroke-linecap="round" stroke-linejoin="round" stroke-width="1"/>
        <path id="Path_817" data-name="Path 817" d="M300.9,279.873a2.691,2.691,0,0,0-2.82-.766c-2.045.378-2.954,3.27-2.954,3.27" transform="translate(-284.615 -259.976)" fill="#ffbda7" stroke="#263238" stroke-linecap="round" stroke-linejoin="round" stroke-width="1"/>
        <path id="Path_818" data-name="Path 818" d="M361.124,299.976s-1.7-2.471-3.754-1.413" transform="translate(-317.052 -270.018)" fill="none" stroke="#263238" stroke-linecap="round" stroke-linejoin="round" stroke-width="1"/>
      </g>
      <g id="freepik--left-hand--inject-326" transform="translate(35.93 85.997)">
        <path id="Path_819" data-name="Path 819" d="M165.536,261.728c2.873,2.227.45,15.893.45,15.893l.254,4.448,4.927-2.145,2.246,9.505s-.057,3.481,1.767,4.788a121.851,121.851,0,0,1,0,13.518c-.45,5.708-9.577,12.416-12.723,18.407s-23.664,23.6-23.664,23.6l-17.372-8.265,12.56-50.728,11.253-14.466,6.67-16.64s1.144,10.87.479,18.2Z" transform="translate(-111.824 -251.579)" fill="rgba(0,0,0,0.7)" opacity="0.2"/>
        <path id="Path_820" data-name="Path 820" d="M159.933,283.336c-.436,2.1.613,13.594.431,15.146s-9.328,11.971-9.787,12.761-6.574,4.31-8,5.99a76.158,76.158,0,0,0-13.192,22.051h0c-.56,1.379-1.1,2.763-1.623,4.152L101.39,328.112c2.217-2.749,4.31-5.191,6.225-7.412,3.831-4.506,6.881-8.112,8.375-11.516a19.037,19.037,0,0,1,1.571-2.49c.594-.843,1.125-1.537,1.125-1.537s-1.915-5.4-1.47-7.092-.551-15.629-.551-15.629-1.3-9.486-2.576-11.88a3.946,3.946,0,0,1-.412-2.021c.062-2.188,1.331-4.946,1.954-8.14.833-4.31.431-6.44,3.045-4.951s1.393,10.535,1.393,10.535l3.95,8.753c1.039-2.116,0-8.293-.053-9.754,0-.239,0-.637-.038-1.154-.081-2.519-.249-7.762-.034-9.831a.844.844,0,0,1,.038-.316c.321-2.136,1.465-8.93,2.193-9.687,1.082-1.12,2.8-2.064,4.42.479.9,1.437.517,12.828.517,12.828s3.754-4.53,4.894-5.636,4.6-3.127,5.521-.785-2.485,9.577-2.485,9.577c.713,1.676.8,6.316.8,6.316s1.614,5.8,2.6,5.746h.043c.287-.062.6-1.116.934-2.6.814-3.625,1.7-9.826,2.394-10.367l.479-.383a.359.359,0,0,1,.077-.072l.177-.158c1.7-1.508,5.267-4.86,5.267-4.86s.254-1.6,3.381-1.111-1.389,9.72-1.389,9.72c-.627,2.935-1.59,10.487-1.59,10.487-.292,3.141-.12,11.583-.12,11.583s1.48-4.913,1.384-6.7,2.94-6.177,3.831-7.307,4.865-.733,3.759,1.437S160.369,281.229,159.933,283.336Z" transform="translate(-101.385 -242.828)" fill="#ffbda7"/>
        <path id="Path_821" data-name="Path 821" d="M122.735,378.71a19.04,19.04,0,0,1,1.571-2.49,34.21,34.21,0,0,0-1.709,6.6c-.1,1.513-4.085,4.132-8.236,7.4C118.215,385.72,121.241,382.115,122.735,378.71Z" transform="translate(-108.145 -312.336)" fill="#898989" opacity="0.4"/>
        <path id="Path_822" data-name="Path 822" d="M131.352,336.888c.594-.843,1.125-1.537,1.125-1.537s-1.915-5.4-1.47-7.092-.551-15.629-.551-15.629-1.3-9.486-2.576-11.88l2.978,5.205s-.292,4.113.555,6.369a76.373,76.373,0,0,1,1.915,9.136s-1.255,5.784-.828,7.867a1.667,1.667,0,0,0,2.346,1.326S135.79,334.465,131.352,336.888Z" transform="translate(-115.191 -273.004)" fill="#898989" opacity="0.4"/>
        <path id="Path_823" data-name="Path 823" d="M137.851,280.742c2.054,12.029-1.484,8.7-2.763,6.105s-4.281-7.508-6.541-6.46a3.534,3.534,0,0,0-1.528,1.379c.062-2.188,1.331-4.946,1.954-8.14.833-4.31.431-6.44,3.045-4.951s1.393,10.534,1.393,10.534l3.95,8.753c1.039-2.117,0-8.294-.053-9.754,0-.239,0-.637-.038-1.154Q137.509,278.714,137.851,280.742Z" transform="translate(-114.743 -256.041)" fill="#898989" opacity="0.4"/>
        <path id="Path_824" data-name="Path 824" d="M154,255.65s-2.217-2.9-4.142-2.753a1.7,1.7,0,0,0-1.5,1.106.845.845,0,0,1,.038-.316c.321-2.136,1.465-8.93,2.193-9.687,1.082-1.12,2.8-2.064,4.42.479.905,1.437.517,12.828.517,12.828s3.754-4.53,4.894-5.636,4.6-3.127,5.521-.785-2.485,9.577-2.485,9.577c.713,1.676.8,6.316.8,6.316s1.614,5.8,2.6,5.746c-2.184,4.108-3.639-4.975-3.639-4.975.326-1.877-.833-5.947-.718-7.02s-2.011-4.865-5.593-3.831-1,15.189-1,15.189a7.91,7.91,0,0,0-1.2,3.745c-1.106-1.365,0-5.267,0-5.267C153.737,266.63,154,255.65,154,255.65Z" transform="translate(-125.864 -242.834)" fill="#898989" opacity="0.4"/>
        <path id="Path_825" data-name="Path 825" d="M191.873,276.9c-1.527,1.6-1.317,5.66-2.873,10.75.814-3.625,1.7-9.826,2.394-10.367Z" transform="translate(-147.044 -260.574)" fill="#29b6f6" opacity="0.4"/>
        <path id="Path_826" data-name="Path 826" d="M190.405,294.235c-.436,2.1.613,13.594.431,15.146s-9.328,11.971-9.787,12.761-6.574,4.31-8,5.99a76.159,76.159,0,0,0-13.192,22.051,94.359,94.359,0,0,1,3.97-10.9c3.146-7.072,4.429-8.332,6.316-10.352s1.681-6.316,1.681-6.316a18.09,18.09,0,0,1,4.252-.5c2.394,0,9.481-10.1,11.918-11.875s2.873-1.772,0-5.679-2.059.627-2.921.479-1.331,1.738-1.331,1.738c-.3-3.984-2.873-8.619-3.414-9.778s1.312-7.953.929-9.845,1.647-13.408,1.647-13.408-.254-4.42-4.257-4.434a2.624,2.624,0,0,0-1.714.517c1.7-1.508,5.267-4.86,5.267-4.86s.254-1.6,3.381-1.111-1.389,9.72-1.389,9.72c-.627,2.935-1.59,10.487-1.59,10.487-.292,3.141-.12,11.583-.12,11.583s1.48-4.913,1.384-6.7,2.94-6.177,3.831-7.307,4.865-.733,3.759,1.437S190.841,292.128,190.405,294.235Z" transform="translate(-131.857 -253.728)" fill="#898989" opacity="0.4"/>
        <path id="Path_827" data-name="Path 827" d="M127.755,343.455c3.251-8.586,6.886-16.965,14.82-26.221,1.436-1.657,7.532-5.176,8-5.99s9.61-11.214,9.787-12.761-.867-13.048-.431-15.146-.072-9.012,1.029-11.167-2.873-2.547-3.759-1.437-3.912,5.535-3.831,7.307-1.384,6.7-1.384,6.7-.172-8.442.12-11.583c0,0,.958-7.551,1.59-10.487,0,0,4.511-9.232,1.389-9.72s-3.381,1.111-3.381,1.111-4.985,4.683-5.971,5.449-2.332,12.737-3.323,12.962-2.648-5.746-2.648-5.746-.086-4.64-.8-6.316c0,0,3.4-7.216,2.485-9.577s-4.377-.316-5.521.785-4.894,5.636-4.894,5.636.388-11.4-.517-12.828c-1.618-2.552-3.352-1.609-4.42-.479-.728.757-1.872,7.551-2.193,9.687s0,9.835.034,11.3,1.092,7.637.053,9.754l-3.95-8.753s1.226-9.055-1.393-10.534-2.212.656-3.045,4.951-2.816,7.786-1.542,10.185,2.576,11.88,2.576,11.88.986,13.934.551,15.629,1.484,7.1,1.484,7.1a35.036,35.036,0,0,0-2.7,4.027c-2.231,5.071-7.877,10.616-14.59,18.957" transform="translate(-101.38 -242.805)" fill="none" stroke="#263238" stroke-linecap="round" stroke-linejoin="round" stroke-width="1"/>
        <path id="Path_828" data-name="Path 828" d="M162.452,273.05a4.7,4.7,0,0,0-.8,2.792c0,1.82,1.192,11.779,1.192,11.779a4.073,4.073,0,0,0-.91,1.915" transform="translate(-132.787 -258.567)" fill="none" stroke="#263238" stroke-linecap="round" stroke-linejoin="round" stroke-width="1"/>
        <path id="Path_829" data-name="Path 829" d="M207.08,330.34a14.035,14.035,0,0,0,1.279,4.855,5.423,5.423,0,0,1,.373,4.741,16.9,16.9,0,0,0-.407,3.491" transform="translate(-156.467 -288.425)" fill="none" stroke="#263238" stroke-linecap="round" stroke-linejoin="round" stroke-width="1"/>
        <path id="Path_830" data-name="Path 830" d="M148.723,305.33s.833,2.643-.713,3.9" transform="translate(-125.682 -275.391)" fill="none" stroke="#263238" stroke-linecap="round" stroke-linejoin="round" stroke-width="1"/>
        <path id="Path_831" data-name="Path 831" d="M185.667,304.77s.163,1.039-1.307,1.135" transform="translate(-144.626 -275.099)" fill="none" stroke="#263238" stroke-linecap="round" stroke-linejoin="round" stroke-width="1"/>
        <path id="Path_832" data-name="Path 832" d="M200.581,277.461s-3.687-4.022-6.551-.991" transform="translate(-149.665 -259.76)" fill="none" stroke="#263238" stroke-linecap="round" stroke-linejoin="round" stroke-width="1"/>
        <path id="Path_833" data-name="Path 833" d="M169.037,272.845s-1.7-2.15-3.175-2.021-3.467,1.03-3.692,2.212" transform="translate(-133.061 -257.404)" fill="none" stroke="#263238" stroke-linecap="round" stroke-linejoin="round" stroke-width="1"/>
        <path id="Path_834" data-name="Path 834" d="M211.19,347.68a8.476,8.476,0,0,1,1.279,2.811" transform="translate(-158.609 -297.462)" fill="none" stroke="#263238" stroke-linecap="round" stroke-linejoin="round" stroke-width="1"/>
        <path id="Path_835" data-name="Path 835" d="M190.08,313.54c-1.144,2.131-.6,5.746-1.02,6.737" transform="translate(-147.075 -279.669)" fill="none" stroke="#263238" stroke-linecap="round" stroke-linejoin="round" stroke-width="1"/>
        <path id="Path_836" data-name="Path 836" d="M165.088,306.15c.268,1.226-.579,3.223-.709,4.693s1.073,3.74.852,5.8" transform="translate(-134.208 -275.818)" fill="none" stroke="#263238" stroke-linecap="round" stroke-linejoin="round" stroke-width="1"/>
        <path id="Path_837" data-name="Path 837" d="M148.6,316.63a11.75,11.75,0,0,0-.958,3.831c.043,1.523.584,4.86.584,4.86" transform="translate(-125.487 -281.28)" fill="none" stroke="#263238" stroke-linecap="round" stroke-linejoin="round" stroke-width="1"/>
        <path id="Path_838" data-name="Path 838" d="M134.185,316.4a8.009,8.009,0,0,0,.479,4.08,32.152,32.152,0,0,1,1.662,5.267" transform="translate(-118.436 -281.16)" fill="none" stroke="#263238" stroke-linecap="round" stroke-linejoin="round" stroke-width="1"/>
        <path id="Path_839" data-name="Path 839" d="M137.48,370.868a2.284,2.284,0,0,0,1.662-1.958" transform="translate(-120.194 -308.526)" fill="none" stroke="#263238" stroke-linecap="round" stroke-linejoin="round" stroke-width="1"/>
        <path id="Path_840" data-name="Path 840" d="M186.838,388.24s.915,3.385-.838,5.564" transform="translate(-145.481 -318.6)" fill="none" stroke="#263238" stroke-linecap="round" stroke-linejoin="round" stroke-width="1"/>
        <path id="Path_841" data-name="Path 841" d="M127.07,294.337s2.576-2.514,4.525-.393" transform="translate(-114.769 -269.013)" fill="none" stroke="#263238" stroke-linecap="round" stroke-linejoin="round" stroke-width="1"/>
        <path id="Path_842" data-name="Path 842" d="M148.44,264.543a2.826,2.826,0,0,1,4.156.139" transform="translate(-125.906 -253.69)" fill="none" stroke="#263238" stroke-linecap="round" stroke-linejoin="round" stroke-width="1"/>
      </g>
    </g>
  </g>
</svg>
