<svg xmlns="http://www.w3.org/2000/svg" width="279.107" height="285.263" viewBox="0 0 279.107 285.263">
  <g id="Group_57" data-name="Group 57" transform="translate(-55.446 -90)">
    <path id="Path_633" data-name="Path 633" d="M99.317.562c60.6-5.376,60.726,28.806,88.037,60.667s33.161,46.313,22.863,83.042-44.993,65.55-87.919,49.211-67.514-.645-94.591-15.151S-9.437,135.855,10.4,102.865,24.569,7.223,99.317.562Z" transform="translate(334.553 189.083) rotate(120)" fill="#5583ff"/>
    <g id="Typewriter-bro" transform="translate(101.864 127.62)">
      <g id="Reading_a_letter-rafiki" data-name="Reading a letter-rafiki" transform="translate(0 0)">
        <g id="freepik--Letter--inject-2" transform="translate(39.144)">
          <path id="Path_847" data-name="Path 847" d="M334.7,350.386H221.016a2.576,2.576,0,0,1-2.576-2.576V269.866l54.468-41.21a5.711,5.711,0,0,1,6.787-.09l57.584,41.3V347.83a2.576,2.576,0,0,1-2.576,2.556Z" transform="translate(-218.44 -180.892)" fill="#436fe3"/>
          <path id="Path_848" data-name="Path 848" d="M334.7,350.386l-104.712-5.608c-1.422,0-3.136,1.422-3.136,0l-2.415-74.912,48.468-41.21a5.711,5.711,0,0,1,6.787-.09L342.068,269.8l-4.79,78.032a2.576,2.576,0,0,1-2.576,2.556Z" transform="translate(-223.44 -180.892)" opacity="0.2"/>
          <path id="Path_849" data-name="Path 849" d="M323.228,287.912H242.74a7.083,7.083,0,0,0,3.22-5.943V161.14a6.632,6.632,0,0,1,3.863-6.02h80.488a6.632,6.632,0,0,0-3.863,6.02V281.969a7.083,7.083,0,0,1-3.22,5.943Z" transform="translate(-227.093 -155.12)" fill="#29b6f6"/>
          <path id="Path_850" data-name="Path 850" d="M323.228,287.912H242.74a7.083,7.083,0,0,0,3.22-5.943V161.14a6.632,6.632,0,0,1,3.863-6.02h80.488a6.632,6.632,0,0,0-3.863,6.02V281.969a7.083,7.083,0,0,1-3.22,5.943Z" transform="translate(-227.093 -155.12)" fill="#fff"/>
          <path id="Path_851" data-name="Path 851" d="M325.475,210.841c-1.14-.567-4.559.052-5.454.155s-1.32.052-2.138.148-.9,0-1.043-.3-1.571-.1-1.932-.238-3.574.547-7.012.541-1.133.058-1.629-.541-2.151.444-2.511.509-1.211.09-1.339-.528-1.017.644-1.887.515,1.011-1.487-.18-.876a15.147,15.147,0,0,1-3.934.876l.869.644c-3.284.052-6.143.1-6.716.155s-.927.052-1.571-.985-.573.264-3,.882-3,.464-4.147-.1-1.713.052-2.576.155-1.32.052-2.138.148-.9,0-1.043-.3-1.571-.1-1.932-.238-3.574.547-7.012.541-1.133.058-1.629-.541-2.151.444-2.5.509-1.217.09-1.339-.528-1.024.644-1.887.515,1.011-1.487-.187-.876a15.2,15.2,0,0,1-3.934.876" transform="translate(-231.698 -174.686)" fill="none" stroke="#263238" stroke-linecap="round" stroke-linejoin="round" stroke-width="1"/>
          <path id="Path_852" data-name="Path 852" d="M278.443,173.565c-.361-.135-3.574.547-7.012.541s-1.133.058-1.623-.541-2.157.444-2.511.509-1.217.09-1.339-.528-1.017.644-1.887.515,1.011-1.487-.18-.869a14.807,14.807,0,0,1-3.941.869" transform="translate(-233.222 -161.498)" fill="none" stroke="#263238" stroke-linecap="round" stroke-linejoin="round" stroke-width="1"/>
          <path id="Path_853" data-name="Path 853" d="M353.853,314.123c-.354-.135-3.567.547-7.006.541s-1.14.058-1.629-.541-2.151.444-2.511.509-1.211.09-1.339-.528-1.017.644-1.887.515,1.011-1.487-.18-.876a15.179,15.179,0,0,1-3.941.876" transform="translate(-260.075 -211.549)" fill="none" stroke="#263238" stroke-linecap="round" stroke-linejoin="round" stroke-width="1"/>
          <path id="Path_854" data-name="Path 854" d="M255.56,221.91a1.854,1.854,0,0,1,1.449,0l.579-.412c.335.406.972.3,1.436.064a2.691,2.691,0,0,1,1.442-.515c-.032.219-.071.444-.1.644a7.38,7.38,0,0,0,1.99-.554.4.4,0,0,0,.167.534,1.043,1.043,0,0,0,.6.09l5.95-.213,1.05-.039a.245.245,0,0,1,.155.3,3.516,3.516,0,0,0,1.99-1.088.889.889,0,0,0,.676.992,1.822,1.822,0,0,0,1.288-.232,1.616,1.616,0,0,1,.554-.212.425.425,0,0,1,.457.3c.367-.167.76.122,1.153.225a2.576,2.576,0,0,0,.74.045l8.036-.328,1.964.38a15.079,15.079,0,0,0,3.941-.869c1.191-.612-.683.715.18.869s1.764-1.133,1.887-.515.985.592,1.339.528,2.022-1.1,2.511-.5-1.809.528,1.629.534,6.651-.644,7.006-.534,1.79-.071,1.932.232.219.4,1.043.3,1.243-.045,2.138-.148,1.462-.715,2.608-.155,1.713.721,4.147.1,2.357-1.932,3-.876,4.4,1.03,4.971.979" transform="translate(-231.658 -178.388)" fill="none" stroke="#263238" stroke-linecap="round" stroke-linejoin="round" stroke-width="1"/>
          <path id="Path_855" data-name="Path 855" d="M329.667,202.439c-.245,0,.245,0,0-.045-.386-.1.367-.393,0-.225a21.318,21.318,0,0,0-3.831-.3,1.526,1.526,0,0,0-.554.206,1.822,1.822,0,0,1-1.288.232.889.889,0,0,1-.644-.992,3.561,3.561,0,0,1-1.99,1.095.251.251,0,0,0-.155-.3l-1.05.039-5.95.219a1.108,1.108,0,0,1-.6-.1.4.4,0,0,1-.167-.534,7.379,7.379,0,0,1-1.99.554c.039-.225.071-.451.1-.644a2.75,2.75,0,0,0-1.442.515c-.464.232-1.1.341-1.436-.064l-.579.419a1.829,1.829,0,0,0-1.449,0l-5.8-.567a14.984,14.984,0,0,1-3.1-.18c-.425-.238-1.932.6-1.932.6h-1.932l-2.466.09v-.47a19.049,19.049,0,0,1-2.891.38c-1.391.052-1.713.251-1.777-.38s-1.867.174-3.3.47-1.14.238-1.571-.47-.966.1-1.713.386a3.046,3.046,0,0,1-2.466,0c-.644-.393-3.432.245-4.565.258s-.045-.316-.283-.863-1.05.927-1.816.863.644-1.475-.431-1.365a9.511,9.511,0,0,0-2.878,1.191" transform="translate(-235.992 -171.551)" fill="none" stroke="#263238" stroke-linecap="round" stroke-linejoin="round" stroke-width="1"/>
          <path id="Path_856" data-name="Path 856" d="M320.421,230.812c-.425,0-1-.328-.972-1.256-.29-.283-.605.225-.882.58s-.74.393-.818-.29a.85.85,0,0,1-1.333-.1,1.088,1.088,0,0,1-1.243.786l-11.371-.476a1.288,1.288,0,0,1-.8-.225c-.167-.129-.315-.335-.489-.406-.464-.206-.882.592-1.288,1.069s-1.108.38-1.178-.644c-.483.934-1.211,1.2-1.809.644-.27.225-.56.451-.844.348a1.352,1.352,0,0,1-.5-1.288,2.164,2.164,0,0,1-1.288,1.706,2.44,2.44,0,0,1-1.565-.3l-4.565.18a13.992,13.992,0,0,1-4.507-.367c.039.316-.444.438-.8.444l-3,.052a1.622,1.622,0,0,1-.644-.084.438.438,0,0,1-.3-.489,4.063,4.063,0,0,1-1.887.039c-.354-.187-.74.167-1.107.328a2.473,2.473,0,0,1-1.05.135l-5.183-.084a1.507,1.507,0,0,1-1.256-.406A6.04,6.04,0,0,0,267.705,232a2.092,2.092,0,0,0,0-1.127,5,5,0,0,0-1.487.85c-.058-.7-.122-1.4-.187-2.1-1.03.116-1.745,1.095-2.782,1.2a13.307,13.307,0,0,0-1.751-.039c-.457.1-1.011.425-1.333.109-.09-.084-.135-.212-.251-.27a.592.592,0,0,0-.464.045,6.89,6.89,0,0,1-4.14.187" transform="translate(-231.569 -181.567)" fill="none" stroke="#263238" stroke-linecap="round" stroke-linejoin="round" stroke-width="1"/>
          <path id="Path_857" data-name="Path 857" d="M254.5,251.217a9.89,9.89,0,0,0,3.149-.876c.953-.618-.547.721.148.876s1.41-1.14,1.513-.522.786.6,1.069.534,1.616-1.108,2.009-.509-1.449.534,1.288.541,5.325-.644,5.608-.541,1.429-.071,1.545.238.174.393.831.3,1-.045,1.713-.148,1.172-.721,2.093-.155,1.372.715,3.316.1,1.887-1.932,2.4-.882.8,1.037,1.256.985,2.749-.1,5.377-.155l4.752-.161a6.864,6.864,0,0,0,4.134-.18.592.592,0,0,1,.464-.045c.116.058.167.18.258.27.315.309.869,0,1.333-.116a14.56,14.56,0,0,1,1.751.045c1.03-.1,1.745-1.082,2.782-1.2.058.7.122,1.4.187,2.1a4.946,4.946,0,0,1,1.481-.844,2.035,2.035,0,0,1,0,1.127A5.886,5.886,0,0,1,307,250.715c.245.354.786.4,1.249.406l5.19.084a2.5,2.5,0,0,0,1.05-.135c.367-.161.753-.515,1.108-.335a3.979,3.979,0,0,0,1.887-.032.438.438,0,0,0,.3.489,1.622,1.622,0,0,0,.644.077l3-.052c.354,0,.831-.122.8-.438a5.493,5.493,0,0,0,2.769.367" transform="translate(-231.281 -188.771)" fill="none" stroke="#263238" stroke-linecap="round" stroke-linejoin="round" stroke-width="1"/>
          <path id="Path_858" data-name="Path 858" d="M331.5,240.462c-1.932.612-1.127.457-2.041-.1s-1.371.051-2.086.155-1.062.052-1.719.148-.715,0-.831-.3-1.256-.1-1.545-.238-2.859.547-5.608.541-.908.058-1.288-.541-1.719.444-2.009.509-.972.09-1.069-.534-.818.644-1.513.522.811-1.487-.142-.876a10.1,10.1,0,0,1-3.155.876l-5.441-.167-4.089.045c-.425,0-1-.328-.966-1.288-.3-.283-.605.225-.889.58s-.741.393-.811-.29a.856.856,0,0,1-1.339-.1,1.088,1.088,0,0,1-1.236.786l-11.371-.476a1.288,1.288,0,0,1-.8-.225,2.736,2.736,0,0,0-.483-.406c-.47-.206-.889.592-1.288,1.069s-1.114.386-1.178-.644c-.489.934-1.217,1.2-1.816.644-.27.225-.554.457-.837.348a1.365,1.365,0,0,1-.5-1.288,2.176,2.176,0,0,1-1.288,1.706,2.466,2.466,0,0,1-1.571-.3" transform="translate(-237.719 -185.003)" fill="none" stroke="#263238" stroke-linecap="round" stroke-linejoin="round" stroke-width="1"/>
          <path id="Path_859" data-name="Path 859" d="M352.389,175.006l-11.371-.483a1.243,1.243,0,0,1-.8-.225,2.822,2.822,0,0,0-.489-.406c-.464-.2-.882.592-1.288,1.075s-1.114.38-1.178-.644c-.489.934-1.217,1.2-1.816.644-.27.225-.554.457-.844.354a1.371,1.371,0,0,1-.5-1.288,2.176,2.176,0,0,1-1.288,1.706,2.537,2.537,0,0,1-1.571-.3" transform="translate(-258.611 -161.794)" fill="none" stroke="#263238" stroke-linecap="round" stroke-linejoin="round" stroke-width="1"/>
          <path id="Path_860" data-name="Path 860" d="M352.389,322.247l-11.371-.477a1.288,1.288,0,0,1-.8-.225,2.865,2.865,0,0,0-.489-.412c-.464-.2-.882.6-1.288,1.075s-1.114.38-1.178-.644c-.489.934-1.217,1.2-1.816.644-.27.225-.554.451-.844.348a1.371,1.371,0,0,1-.5-1.288,2.176,2.176,0,0,1-1.288,1.706,2.454,2.454,0,0,1-1.571-.3" transform="translate(-258.611 -214.226)" fill="none" stroke="#263238" stroke-linecap="round" stroke-linejoin="round" stroke-width="1"/>
          <path id="Path_861" data-name="Path 861" d="M254.5,270.136a10.56,10.56,0,0,0,5.151-.187.908.908,0,0,1,.579-.045c.142.058.2.18.315.27.4.309,1.082,0,1.655-.116.7-.129,1.449.1,2.17.045,1.288-.1,2.17-1.082,3.458-1.2l.232,2.1a6.889,6.889,0,0,1,1.842-.844,1.655,1.655,0,0,1,0,1.127,7.779,7.779,0,0,1,2.543-1.288A2.2,2.2,0,0,0,274,270.4l6.439.084a3.761,3.761,0,0,0,1.288-.135c.457-.161.934-.515,1.378-.328a6.24,6.24,0,0,0,2.344-.039c-.084.193.109.4.361.489a2.68,2.68,0,0,0,.824.084l3.728-.058c.438,0,1.037-.122.992-.438a21.7,21.7,0,0,0,5.6.367l4.6.245a3.6,3.6,0,0,1,2.054,0l.818-.419a2.256,2.256,0,0,0,2.041.064,5.152,5.152,0,0,1,2.048-.515c-.045.225-.1.444-.142.644a14.106,14.106,0,0,0,2.82-.554c-.174.174,0,.431.232.534a2.221,2.221,0,0,0,.856.1l8.435-.219,1.494-.039c.167.032.277.18.219.3a5.151,5.151,0,0,0,2.608-1.088c-.155.431-.6.876,0,.985" transform="translate(-231.281 -195.637)" fill="none" stroke="#263238" stroke-linecap="round" stroke-linejoin="round" stroke-width="1"/>
          <path id="Path_862" data-name="Path 862" d="M324.862,260.217c-.444-.18.457.167,0,.335s.438.135,0,.135l-7.186-.09a2.228,2.228,0,0,1-1.558-.4,7.9,7.9,0,0,0-2.543,1.288,1.636,1.636,0,0,0,0-1.12,6.511,6.511,0,0,0-1.842.844l-.232-2.1c-1.288.122-2.17,1.1-3.458,1.2a20.437,20.437,0,0,0-2.17-.045c-.573.109-1.288.425-1.655.109-.116-.084-.174-.212-.315-.27a.953.953,0,0,0-.579.045,10.406,10.406,0,0,1-5.151.187l-1.887.167-11.4.328a5.232,5.232,0,0,1-1.056-.045c-.554-.1-1.114-.393-1.636-.225-.052-.2-.367-.316-.644-.3a2.694,2.694,0,0,0-.779.212,3.567,3.567,0,0,1-1.8.232c-.605-.109-1.114-.56-.959-.992a5.8,5.8,0,0,1-2.82,1.088c.052-.116-.051-.264-.225-.3l-1.487.045-8.435.212a2.2,2.2,0,0,1-.856-.09c-.251-.109-.406-.367-.238-.534a13.934,13.934,0,0,1-2.82.554c.051-.225.1-.451.148-.676a5.022,5.022,0,0,0-2.048.522,2.278,2.278,0,0,1-2.041-.064l-.824.412a3.651,3.651,0,0,0-2.054,0" transform="translate(-231.213 -192.151)" fill="none" stroke="#263238" stroke-linecap="round" stroke-linejoin="round" stroke-width="1"/>
          <path id="Path_863" data-name="Path 863" d="M254.29,280.353a5.151,5.151,0,0,0,1.629.142,1.751,1.751,0,0,0,1.365-.844.644.644,0,0,0,.515.644,1.687,1.687,0,0,0,.876-.174,1.8,1.8,0,0,0,1.887-.335c.071.515.786.567,1.223.328s.876-.644,1.359-.534a3.779,3.779,0,0,1,.509.2,2.428,2.428,0,0,0,.831.116l11.828.238a1.52,1.52,0,0,0,1.288-.393,1.578,1.578,0,0,0,1.391.052c.077.341.56.315.85.142s.612-.425.914-.283c-.032.457.567.644,1.011.644h4.25l1.507-.077a3.6,3.6,0,0,1,2.054,0l.824-.419a2.276,2.276,0,0,0,2.041.064,5.01,5.01,0,0,1,2.048-.515c-.052.225-.1.444-.148.644a14.078,14.078,0,0,0,2.827-.554c-.174.174,0,.431.232.534a2.2,2.2,0,0,0,.856.1l8.435-.219,1.487-.039c.174.032.277.18.225.3a5.879,5.879,0,0,0,2.82-1.095c-.155.438.361.882.959.992a3.483,3.483,0,0,0,1.8-.232,2.665,2.665,0,0,1,.786-.206c.277,0,.592.1.644.3a3.581,3.581,0,0,1,1.636.225,4.8,4.8,0,0,0,1.056.045" transform="translate(-231.206 -199.241)" fill="none" stroke="#263238" stroke-linecap="round" stroke-linejoin="round" stroke-width="1"/>
          <path id="Path_864" data-name="Path 864" d="M337.293,293.3v77.97a2.576,2.576,0,0,1-2.3,2.537H220.766a2.576,2.576,0,0,1-2.286-2.537V293.3L269.1,328.238l2.769,1.932,4.443,3.071L281,330.17l2.923-1.932Z" transform="translate(-218.454 -204.326)" fill="#a8c0ff"/>
          <path id="Path_865" data-name="Path 865" d="M337.292,389.571v.766a2.724,2.724,0,0,1-2.3,2.782H220.765a2.724,2.724,0,0,1-2.286-2.782v-.773L269.1,347.55l2.769,1.932,4.443,3.071L281,349.482l2.923-1.932Z" transform="translate(-218.453 -223.644)" opacity="0.2"/>
          <path id="Path_866" data-name="Path 866" d="M337.278,389.853v.7a2.576,2.576,0,0,1-2.576,2.576H221.016a2.576,2.576,0,0,1-2.576-2.576v-.7l53.386-40.418,1.082-.818a5.718,5.718,0,0,1,6.787-.09l1.288.908Z" transform="translate(-218.44 -223.611)" fill="#a8c0ff"/>
        </g>
        <g id="freepik--Character--inject-2" transform="translate(0 4.811)">
          <path id="Path_867" data-name="Path 867" d="M186.564,164.316a5.19,5.19,0,0,1,4.855-1.629c3.22.509,9.659,6.123,9.06,12.189s-2.466,11.59-4.372,11.835c0,0-1.693-2.157-10.592-1.887s-7.283-5.357-5.834-9.845S180.7,162.211,186.564,164.316Z" transform="translate(-165.089 -162.591)" fill="#263238"/>
          <path id="Path_868" data-name="Path 868" d="M208.16,204.08c1.771,1.655,7.521,11.4,8.2,11.822s.966-4.012.966-4.012l3.136-.554s1.693,10.747-2.852,9.768c-5.1-1.108-11.8-10.405-11.8-10.405s.483-3.013.728-4.115A7.1,7.1,0,0,1,208.16,204.08Z" transform="translate(-174.799 -177.365)" fill="#29b6f6"/>
          <path id="Path_869" data-name="Path 869" d="M217.606,221.1c-3.941-.856-8.828-6.594-10.85-9.163-.6-.76-.947-1.243-.947-1.243s.258-1.59.483-2.878c.09-.489.18-.934.245-1.236a7.126,7.126,0,0,1,1.623-2.5c1.771,1.655,7.521,11.4,8.2,11.822s.966-4.012.966-4.012l3.136-.554S222.152,222.058,217.606,221.1Z" transform="translate(-174.799 -177.365)" fill="#a8c0ff"/>
          <path id="Path_870" data-name="Path 870" d="M206.757,214.011c-.6-.76-.947-1.243-.947-1.243s.258-1.59.483-2.878A8,8,0,0,1,206.757,214.011Z" transform="translate(-174.799 -179.434)" opacity="0.2"/>
          <path id="Path_871" data-name="Path 871" d="M191.443,210.184c-.824,2.473-1.468,4.61-1.99,6.529a73.16,73.16,0,0,0-2.7,14.732l-19.826-2.131c-.522-14.166,0-21.976.431-25.865.483-4.14,1.127-4.282,1.127-4.282s4.507-.348,8.422-.238a63.294,63.294,0,0,1,9.015,1.127,58.906,58.906,0,0,1,8.313,2.183c-.483,1.288-.921,2.524-1.326,3.677C192.37,207.447,191.88,208.864,191.443,210.184Z" transform="translate(-160.876 -175.523)" fill="#29b6f6"/>
          <path id="Path_872" data-name="Path 872" d="M194.236,202.236c-.483,1.288-.921,2.524-1.326,3.677-.541,1.533-1.03,2.949-1.468,4.269-.824,2.473-1.468,4.61-1.99,6.529a73.16,73.16,0,0,0-2.7,14.732l-19.826-2.131c-.064-1.745-.109-3.387-.148-4.945-.077-3.5-.09-6.536-.052-9.156v-1.352c.09-4.327.3-7.418.515-9.555.039-.309.064-.592.1-.856.483-4.14,1.127-4.282,1.127-4.282s4.507-.348,8.422-.245a64.237,64.237,0,0,1,9.015,1.133,58.907,58.907,0,0,1,8.332,2.183Z" transform="translate(-160.875 -175.521)" fill="#a8c0ff"/>
          <path id="Path_873" data-name="Path 873" d="M169.217,208a26.864,26.864,0,0,1-2.447,8.847c.09-4.327.3-7.418.515-9.555A8.693,8.693,0,0,1,169.217,208Z" transform="translate(-160.897 -178.509)" opacity="0.2"/>
          <path id="Path_874" data-name="Path 874" d="M185.756,232.569l-5.872-.708s-.882,1.751-2.279,1.932-4.655-2.318-4.655-2.318a16.9,16.9,0,0,1-6.169,1.932c-.077-3.5-.09-6.536-.052-9.156a39.736,39.736,0,0,1,13,3.728C180.534,228.326,185.756,232.569,185.756,232.569Z" transform="translate(-160.874 -184.548)" opacity="0.2"/>
          <path id="Path_875" data-name="Path 875" d="M221.37,403.175l-4.063.715-1.668-5.538-1.52-5.08,4.681-1.642,1.365,6.111Z" transform="translate(-177.758 -244.152)" fill="#ffbda7"/>
          <path id="Path_876" data-name="Path 876" d="M220.193,397.887l-4.527.592-1.526-5.138,4.675-1.661Z" transform="translate(-177.765 -244.17)" opacity="0.2"/>
          <path id="Path_877" data-name="Path 877" d="M180.275,405.865h-4.127l-.676-5.808-.612-5.3,4.894-.818.277,6.31Z" transform="translate(-163.778 -244.974)" fill="#ffbda7"/>
          <path id="Path_878" data-name="Path 878" d="M180.031,400.315l-4.559-.206-.612-5.325,4.894-.824Z" transform="translate(-163.778 -244.981)" opacity="0.2"/>
          <path id="Path_879" data-name="Path 879" d="M201.355,341.916l-6.677,1.178c-6.735-16.787-11.526-30.8-14.913-42.427-1.822-6.272-3.342-11.854-4.436-16.806l.206,18.274V343.3h-6.581c-16.49-78.556-4.694-98.169-4.694-98.169l19.626-1.571a89.076,89.076,0,0,1,1.655,11.082l.889,6.548,7.727,39.838Z" transform="translate(-158.548 -191.424)" fill="#263238"/>
          <path id="Path_880" data-name="Path 880" d="M188.2,313.266c-1.822-6.272-3.219-11.854-4.333-16.806a154.6,154.6,0,0,1,1.288-17.521S188.036,301.515,188.2,313.266Z" transform="translate(-166.986 -204.023)" opacity="0.2"/>
          <path id="Path_881" data-name="Path 881" d="M166.7,241.11l20.328,1.191-.322,3.5-20.483-1.236Z" transform="translate(-160.701 -190.552)"/>
          <path id="Path_882" data-name="Path 882" d="M186.208,242.252a1.417,1.417,0,0,0-.947-.464l-2.5-.161a1.037,1.037,0,0,0-1.133,1.075v1.61a1.481,1.481,0,0,0,1.243,1.429h.109l2.5.155a1.037,1.037,0,0,0,1.127-1.075v-1.6A1.442,1.442,0,0,0,186.208,242.252Zm-.786,3.007-2.5-.155a.676.676,0,0,1-.464-.225.715.715,0,0,1-.193-.476v-1.6a.509.509,0,0,1,.554-.522l2.5.155h.052a.734.734,0,0,1,.406.225.7.7,0,0,1,.193.47v.245a.27.27,0,0,0-.1,0l-.7-.052a.367.367,0,0,0-.393.4.522.522,0,0,0,.457.464l.7.052h.032v.528a.5.5,0,0,1-.547.5Z" transform="translate(-166.188 -190.734)" fill="#fff"/>
          <path id="Path_883" data-name="Path 883" d="M175.039,407.971c0-.425,5.306-.09,5.306-.09s3.252,3.31,6.439,4.057,1.4,2.64-2.138,2.64h-8.77C173.365,414.577,174.936,412.42,175.039,407.971Z" transform="translate(-163.635 -249.894)" fill="#263238"/>
          <path id="Path_884" data-name="Path 884" d="M186.675,408.7a6.625,6.625,0,0,1-2.2-.644l-.045-.032h0a.161.161,0,0,1,0-.109c0-.051.464-1.288,1.185-1.584a.792.792,0,0,1,.683,0q.367.174.348.444c0,.277-.393.56-.824.786a2.17,2.17,0,0,1,1.191.129.573.573,0,0,1,.277.361.522.522,0,0,1-.122.567A.753.753,0,0,1,186.675,408.7Zm-1.706-.76c.779.335,1.745.644,2,.419,0,0,.09-.071,0-.277a.283.283,0,0,0-.148-.187A3.483,3.483,0,0,0,184.969,407.937Zm.947-1.455a.554.554,0,0,0-.219.045,2.376,2.376,0,0,0-.908,1.14c.786-.3,1.545-.708,1.558-.947,0-.077-.116-.148-.187-.18a.593.593,0,0,0-.245-.058Z" transform="translate(-167.184 -249.358)" fill="#263238"/>
          <path id="Path_885" data-name="Path 885" d="M217.039,407.971c0-.425,5.306-.09,5.306-.09s3.252,3.31,6.439,4.057,1.4,2.64-2.138,2.64h-8.77C215.365,414.577,216.936,412.42,217.039,407.971Z" transform="translate(-178.591 -249.894)" fill="#263238"/>
          <path id="Path_886" data-name="Path 886" d="M228.675,408.7a6.625,6.625,0,0,1-2.2-.644l-.045-.032h0a.161.161,0,0,1,0-.109c0-.051.464-1.288,1.185-1.584a.792.792,0,0,1,.683,0q.367.174.348.444c0,.277-.393.56-.824.786a2.17,2.17,0,0,1,1.191.129.573.573,0,0,1,.277.361.522.522,0,0,1-.122.567.754.754,0,0,1-.5.084Zm-1.706-.76c.779.335,1.745.644,2,.419,0,0,.09-.071,0-.277a.283.283,0,0,0-.148-.187A3.483,3.483,0,0,0,226.969,407.937Zm.947-1.455a.554.554,0,0,0-.219.045,2.376,2.376,0,0,0-.908,1.14c.786-.3,1.545-.708,1.558-.947,0-.077-.116-.148-.187-.18a.593.593,0,0,0-.245-.058Z" transform="translate(-182.14 -249.358)" fill="#263238"/>
          <path id="Path_887" data-name="Path 887" d="M214.338,197.17s-5.647,5.241-5.879,7.147-1.52,9.124-1.52,9.124h9.819s1.533-6.915,2.292-8.145,4.842-4.668,4.842-4.668Z" transform="translate(-175.201 -174.905)" fill="#29b6f6"/>
          <path id="Path_888" data-name="Path 888" d="M214.338,197.17s-5.647,5.241-5.879,7.147-1.52,9.124-1.52,9.124h9.819s1.533-6.915,2.292-8.145,4.842-4.668,4.842-4.668Z" transform="translate(-175.201 -174.905)" fill="#fff"/>
          <path id="Path_889" data-name="Path 889" d="M174.16,198.857a13.618,13.618,0,0,0,9.787,6.3c6.69.766,9.015-4.25,9.015-4.25A46.254,46.254,0,0,0,174.16,198.857Z" transform="translate(-163.528 -175.413)" fill="#ffbda7"/>
          <path id="Path_890" data-name="Path 890" d="M187.017,200.76c-4.185-2.221-4.8-4.6-4.8-4.6,3.786-1.578,3.187-7.012,3.187-7.012l4.919,2.988a16.876,16.876,0,0,0-1.05,2.144c-1.249,3.22.187,3.78.187,3.78C189.741,200.148,187.017,200.76,187.017,200.76Z" transform="translate(-166.399 -172.049)" fill="#ffbda7"/>
          <path id="Path_891" data-name="Path 891" d="M192.093,192.127a16.876,16.876,0,0,0-1.05,2.144,6.29,6.29,0,0,1-3.863-5.151Z" transform="translate(-168.165 -172.038)" opacity="0.2"/>
          <path id="Path_892" data-name="Path 892" d="M193.934,168.945c4.694,1.481,5.409,4.507,4.224,9.42-1.481,6.181-4.179,10.051-9.658,6.9C181.094,181,186.136,166.479,193.934,168.945Z" transform="translate(-167.346 -164.754)" fill="#ffbda7"/>
          <path id="Path_893" data-name="Path 893" d="M200.55,181.83a10.385,10.385,0,0,0,.753,2.382,1.352,1.352,0,0,1-1.4.135Z" transform="translate(-172.694 -169.442)" fill="#d4827d"/>
          <path id="Path_894" data-name="Path 894" d="M196.114,179.356c-.109.386-.412.644-.644.567a.687.687,0,0,1-.27-.844c.109-.393.419-.644.644-.567A.687.687,0,0,1,196.114,179.356Z" transform="translate(-171.008 -168.256)" fill="#263238"/>
          <path id="Path_895" data-name="Path 895" d="M196.05,178.454l.947-.084S196.366,178.956,196.05,178.454Z" transform="translate(-171.323 -168.21)" fill="#263238"/>
          <path id="Path_896" data-name="Path 896" d="M203.636,181.409c-.116.386-.419.644-.676.567s-.38-.451-.264-.837.412-.644.676-.567S203.745,181.023,203.636,181.409Z" transform="translate(-173.674 -168.99)" fill="#263238"/>
          <path id="Path_897" data-name="Path 897" d="M203.59,180.51l.94-.09S203.906,181.012,203.59,180.51Z" transform="translate(-174.008 -168.94)" fill="#263238"/>
          <path id="Path_898" data-name="Path 898" d="M196.91,174.643a2.576,2.576,0,0,0-2.26.064" transform="translate(-170.825 -166.801)" fill="none" stroke="#263238" stroke-linecap="round" stroke-linejoin="round" stroke-width="0.725"/>
          <path id="Path_899" data-name="Path 899" d="M203.55,176.14a2.305,2.305,0,0,1,1.751.972" transform="translate(-173.994 -167.416)" fill="none" stroke="#263238" stroke-linecap="round" stroke-linejoin="round" stroke-width="0.725"/>
          <path id="Path_900" data-name="Path 900" d="M196.169,187.251a12.092,12.092,0,0,0-1.062,1.455l-.3-.122c-1.288-.573-1.745-1.288-1.816-1.88a1.854,1.854,0,0,1,.122-.869,1.88,1.88,0,0,1,.238-.444,6.813,6.813,0,0,0,2.363,1.655C195.989,187.18,196.169,187.251,196.169,187.251Z" transform="translate(-170.232 -170.71)" fill="#263238"/>
          <path id="Path_901" data-name="Path 901" d="M195.791,187.085l-.322.425a4.324,4.324,0,0,1-2.279-1.636,1.88,1.88,0,0,1,.238-.444,6.812,6.812,0,0,0,2.363,1.655Z" transform="translate(-170.305 -170.724)" fill="#fff"/>
          <path id="Path_902" data-name="Path 902" d="M194.816,189.31c-1.288-.573-1.745-1.288-1.816-1.88a4.507,4.507,0,0,1,1.339.927A1.674,1.674,0,0,1,194.816,189.31Z" transform="translate(-170.237 -171.436)" fill="#de5753"/>
          <path id="Path_903" data-name="Path 903" d="M185.888,174.027s3.413-3.162,4.018-6.246c0,0,10.5-.863,7.978,8.725,0,0,3.561-8.094-4.449-10.83s-11.706,9.079-8.654,13.908C184.781,179.584,183.763,176.042,185.888,174.027Z" transform="translate(-166.931 -163.545)" fill="#263238"/>
          <path id="Path_904" data-name="Path 904" d="M185.926,179.343a2.157,2.157,0,0,0-1.623-2.576c-1.507-.3-3.142,2.466.251,4.327C185.038,181.359,185.5,180.94,185.926,179.343Z" transform="translate(-166.519 -167.632)" fill="#ffbda7"/>
          <path id="Path_905" data-name="Path 905" d="M225.08,211.822l-.245-2.067s.476-1.288.245-1.816c-.438-1.05-3.219-2.344-3.638-2.576s-2.382,2.891-2.125,3.522,3.484,2.08,3.484,2.08v1.288Z" transform="translate(-179.601 -177.818)" fill="#ffbda7"/>
          <path id="Path_906" data-name="Path 906" d="M195.355,227.64l-2.666-3.78s-6.845.792-6.935,1l-2.093,4.887a.425.425,0,0,0,.251.567l8.706,2.949a.425.425,0,0,0,.522-.232l2.183-4.907A1.037,1.037,0,0,0,195.355,227.64Z" transform="translate(-166.9 -184.409)" fill="#436fe3"/>
          <path id="Path_907" data-name="Path 907" d="M196.55,227.806a7.682,7.682,0,0,1-4.024.386c-2.247-.5-5.6-3.355-5.6-3.355.09-.206,6.935-1,6.935-1l2.666,3.78S196.543,227.71,196.55,227.806Z" transform="translate(-168.076 -184.402)" opacity="0.1"/>
          <path id="Path_908" data-name="Path 908" d="M187.63,225.59a31.738,31.738,0,0,0,9.169,2.84S191.609,226.7,187.63,225.59Z" transform="translate(-168.325 -185.025)" opacity="0.1"/>
          <path id="Path_909" data-name="Path 909" d="M167.306,228.866l7.553.547s1.191-.8,1.835-.644,4.082,2.035,4.153,2.576-1.758,2.975-2.576,2.859a13.533,13.533,0,0,1-3.747-2.485l-9.015.167Z" transform="translate(-160.448 -186.15)" fill="#ffbda7"/>
          <path id="Path_910" data-name="Path 910" d="M165.846,199.224c.908.29,1.629,3.11-.747,7.9,0,0-3.22,7.27-2.576,8.487.728,1.475,7.218,2.679,7.218,2.679l-.515,4.16s-8.609,1.191-11.069-4.179S162.781,198.232,165.846,199.224Z" transform="translate(-157.649 -175.619)" fill="#29b6f6"/>
          <path id="Path_911" data-name="Path 911" d="M165.846,199.224c.908.29,1.629,3.11-.747,7.9,0,0-3.22,7.27-2.576,8.487.728,1.475,7.218,2.679,7.218,2.679l-.515,4.16s-8.609,1.191-11.069-4.179S162.781,198.232,165.846,199.224Z" transform="translate(-157.649 -175.619)" fill="#a8c0ff"/>
          <path id="Path_912" data-name="Path 912" d="M197.51,165.219s3.863-2.73,8.2,3.3a12.575,12.575,0,0,1,1.7,11.919" transform="translate(-171.843 -163.307)" fill="none" stroke="#263238" stroke-linecap="round" stroke-linejoin="round" stroke-width="0.5"/>
        </g>
      </g>
    </g>
  </g>
</svg>
