<svg xmlns="http://www.w3.org/2000/svg" xmlns:xlink="http://www.w3.org/1999/xlink" width="269.878" height="280.321" viewBox="0 0 269.878 280.321">
  <defs>
    <clipPath id="clip-path">
      <path id="Path_961" data-name="Path 961" d="M308.358,337.515l.055-20.289c.22-.817.4-3.828.867-5.925.8-3.515-2.341-7.756-2.561-7.894a6.74,6.74,0,0,0-2.754-.537,12.059,12.059,0,0,0-3.474-2.754,8.2,8.2,0,0,0-3.515-.459,16.8,16.8,0,0,0-4.176-2.529,3.438,3.438,0,0,0-3.515.661L287.233,301a2.391,2.391,0,0,0,.28,2.992c.982.968,2.24.514,2.873.514.877,0,1.207-.991,1.207-.991a52.081,52.081,0,0,1,0,5.824h0a10.625,10.625,0,0,1-1.868,2.194l-5.507-7.265a52.549,52.549,0,0,1-4.943-8.16,3.9,3.9,0,0,0-.62-.959c-.964-1.092-3.024-1.409-3.561.606a3.993,3.993,0,0,0,.087,1.946c2.295,6.783,5.223,11.909,7.889,17.251,1.583,3.171,1,3.135,1.785,4.566-.092.064-.046.184-.147.243-.385,1.542-.656,3.089-1.046,4.631a21.111,21.111,0,0,0-1.758-5.59,12.623,12.623,0,0,0,.243-3.268,4.305,4.305,0,0,0-1.377-2.9,2.832,2.832,0,0,0-1.6-.624,1.671,1.671,0,0,0-1.762,1.432,17.2,17.2,0,0,1-.459,2.483,24.989,24.989,0,0,1-1.267,3.121c0,2.047,1.267,1.712,2.189,9.945.716,6.425,8.977,10.652,13.474,15.283l4.791,15.081a92.845,92.845,0,0,0,16.044-8.394Z" transform="translate(-275.014 -294.286)" fill="#fff"/>
    </clipPath>
    <clipPath id="clip-path-2">
      <path id="Path_1009" data-name="Path 1009" d="M194.964,314.091c-.2-.918-1.487-.776-1.487-.776-4.337.257-4.92,7.054-4.92,7.054L187,325.023l-.459-7,.046-9.027s1.313-8.637.73-9.991a1.978,1.978,0,0,0-1.794-1.313c-2.524-.633-2.671,3.006-2.671,3.006l-2.129,7.426-.877,8.008-.725-.385s-.344-8.5-.2-8.642,1.019-5.87,1.019-5.87.482-1.069,1.069-2.428a2.951,2.951,0,0,0,0-2.428,1.939,1.939,0,0,0-3.593,0,32.313,32.313,0,0,1-1.744,3.3l-2.432,6.65c.092,1.505-.771,8.931-.771,8.931l-.877-.4-1.409-4.36,1.074-4.465s2.327-2.57,1.937-4.075-2.377-1.065-2.377-1.065l-4,4.745h-1.17L162.9,309.13a22.153,22.153,0,0,0-.633,11.606l.633,2.951v19.073a34.545,34.545,0,0,0-1.891,3.346c0,.133-.78,2.543-1.868,5.549a93.433,93.433,0,0,0,11.762,6.108q2.065.812,4.13,1.547c1.744-4.9,3.782-10.133,4.906-11.359,2.23-2.423,6.6-7.086,6.6-7.086s4.961-7.972,5.544-10.62c.459-2.175,1.643-6.127,2.047-7.481a2.648,2.648,0,0,0,.11-.95c-.032-.716-.1-2.107-.1-3.332C194.12,316.744,195.157,315,194.964,314.091Z" transform="translate(-159.14 -295.152)" fill="#fff"/>
    </clipPath>
  </defs>
  <g id="Group_58" data-name="Group 58" transform="translate(-60.061 -94.717)">
    <path id="Path_633" data-name="Path 633" d="M103.192.584c62.968-5.586,63.1,29.93,91.472,63.034s34.455,48.12,23.755,86.282-46.749,68.107-91.35,51.131-70.149-.67-98.282-15.742S-9.806,141.156,10.8,106.879,25.528,7.505,103.192.584Z" transform="translate(136.458 375.038) rotate(-110)" fill="#5583ff"/>
    <g id="Typewriter-bro" transform="translate(97.127 142.49)">
      <g id="Code_typing-bro" data-name="Code typing-bro" transform="translate(0)">
        <g id="freepik--Plant--inject-2" transform="translate(0 68.414)">
          <path id="Path_913" data-name="Path 913" d="M32.069,262.188C31.977,262.128,32,262.087,32.069,262.188Z" transform="translate(-30.505 -228.804)" fill="#263238" opacity="0.2"/>
          <path id="Path_914" data-name="Path 914" d="M76.4,219.05a8.408,8.408,0,0,1-5.769,6.641l-1.138.372c-4.094,5.8-11.271,8.261-17.389,4.677l-1.79-1.051L45.3,223.722h-.06a5.115,5.115,0,0,1-4.557-1.033,1.56,1.56,0,1,1-2.529-1.492c-1.01.89-2.57.482-3.543-.491a30.611,30.611,0,0,1,.918-7.935,32,32,0,0,1,1.551-4.681,33.137,33.137,0,0,1,1.648-3.369c.046-.092.1-.188.156-.28a40.323,40.323,0,0,1,3.052-4.589l.578-.523c.459-.4.877-.789,1.322-1.184l.083-.073q1.065-.918,2.162-1.836c1.124-.941,2.267-1.863,3.419-2.781l.115-.092c.987-.78,1.983-1.556,2.974-2.327l1.5-1.157a4.106,4.106,0,0,1,.881.207c1.225.427,1.436,1.551,2.295,2.322,1.129,1.033,2.212-.7,3.951-.647,5.347.165,3.272,5.649,5.884,4.961,11.276-2.974,9.381,11.45,4.479,14.617C74.469,213.712,76.961,215.3,76.4,219.05Z" transform="translate(-31.914 -189.714)" opacity="0.2"/>
          <ellipse id="Ellipse_4" data-name="Ellipse 4" cx="19.018" cy="18.784" rx="19.018" ry="18.784" transform="translate(1.224 5.48)" fill="#fff" stroke="#263238" stroke-width="1"/>
          <ellipse id="Ellipse_5" data-name="Ellipse 5" cx="17.339" cy="17.127" rx="17.339" ry="17.127" transform="translate(2.903 6.375)" fill="#263238" stroke="#fff" stroke-width="1"/>
          <path id="Path_915" data-name="Path 915" d="M30.343,219.772a3.056,3.056,0,0,0-.546,3.951c.858.991,2.506.225,2.841-1.317a.514.514,0,0,0,.918.129,1.056,1.056,0,0,0,.064-.964c-.083-.069-.05-.119,0,0,.56.459,1.524-.041,1.657-.991-.408,2.524,1.886,4.727,3.575,3.442a2.126,2.126,0,0,0,1.028,2.754,3.276,3.276,0,0,0,2.643-.812A5.589,5.589,0,0,1,45.13,224.7a6.426,6.426,0,0,1,2.295.679c2.414.84,5.241-.275,7.086-2.8,1.221,2.088,4.227,1.317,5.048-1.28a2.272,2.272,0,0,0,1.932,2.152,2.576,2.576,0,0,0,2.185-2.1h0c0,1.152,1.046,1.716,1.781.978a4.3,4.3,0,0,0,1.06-4.071c1.248-.051,2.46-1.5,2.648-3.18s-.656-3.369-1.863-3.7c2.074-.858,3.671-3.671,3.772-6.558s-1.4-5.549-3.437-6.219a2.157,2.157,0,0,0-2.331.486,5.577,5.577,0,0,0-2.084-3.837c-1.744-1.179-4.172-.372-5.47,1.836a4.319,4.319,0,0,0,.1-3.846,2.009,2.009,0,0,0-2.7-1c-.207-1.758-1.565-3.006-2.891-2.666s-2.4,2.221-2.295,4a1.276,1.276,0,0,0-2.423-.583c.05.11-.028.046,0,0a3.511,3.511,0,0,0-4.153-2.162c-1.693.555-3.116,2.68-3.336,5a2.988,2.988,0,0,0-4.13.115,6.384,6.384,0,0,0-1.758,5.2c-1.317-1.3-3.534-.587-4.438,1.423s-.285,4.856,1.244,5.7c-1.051.161-1.978,1.556-1.978,2.969s.918,2.625,1.987,2.588c-1.065.092-2.07,1.349-2.226,2.777S29.315,219.46,30.343,219.772Z" transform="translate(-28.733 -189.518)" fill="#cddbff" stroke="#707070" stroke-width="1"/>
          <g id="Group_48" data-name="Group 48" transform="translate(3.918 6.977)" opacity="0.2">
            <path id="Path_916" data-name="Path 916" d="M66.506,238.658a1.983,1.983,0,0,0-1.836-.459,2.207,2.207,0,0,0-1.377,1.707c-.147.831.239,1.749.872,1.9.776.193,1.57-.675,2.359-.578a5.094,5.094,0,0,1,.812.266c1.134.317,2.295-.7,3.24-1.657a4.506,4.506,0,0,0,.918-1.143,1.863,1.863,0,0,0,.119-1.51,1.27,1.27,0,0,0-1.542-.551,6.168,6.168,0,0,0-3.213,1.882c.032-.234.064-.459.1-.7Z" transform="translate(-51.334 -221.962)" fill="#2943f6"/>
            <path id="Path_917" data-name="Path 917" d="M103.877,235.427a2.612,2.612,0,0,0-.982-.606.945.945,0,0,0-1.037.459,1.505,1.505,0,0,0,.257,1.726,2.391,2.391,0,0,0,1.436.537c.523.069,1.184.055,1.455-.555a1.322,1.322,0,0,0-.22-1.322,2.262,2.262,0,0,0-1.019-.583Z" transform="translate(-72.128 -220.994)" fill="#2943f6"/>
            <path id="Path_918" data-name="Path 918" d="M47.29,213.063a5.048,5.048,0,0,0-2.175,3.359c-.083.431-.083.973.211,1.184a.766.766,0,0,0,.711,0l3.047-1.1a4.59,4.59,0,0,0-1.377,1.005,2.3,2.3,0,0,0-.551,1.8,1.322,1.322,0,0,0,1.377,1.12,2.956,2.956,0,0,0,1.684-.955,3.1,3.1,0,0,0,1.092-2.042c0-.826-.78-1.547-1.29-.987a11.235,11.235,0,0,0,3.277-2.107,3.942,3.942,0,0,0,.959-1.184,1.987,1.987,0,0,0,.124-1.579c-.991-2.336-2.364,1.262-3.006,1.615C50.167,213.862,48.836,212.155,47.29,213.063Z" transform="translate(-41.489 -208.006)" fill="#2943f6"/>
            <path id="Path_919" data-name="Path 919" d="M38.17,235.506a1.455,1.455,0,0,0,.243,1.322.6.6,0,0,0,.973-.312,3.718,3.718,0,0,0-1.836,1.418c-.459.753-.353,2.015.317,2.253.418.151.867-.142,1.262-.436a26.085,26.085,0,0,0,3.18-2.822,1.45,1.45,0,0,0,1.138,1.9,3.457,3.457,0,0,0,2.125-1.065c.8-.665,1.73-1.657,1.542-2.795a1.377,1.377,0,0,0-1.941-1.037,5.392,5.392,0,0,0-1.932,1.973,1.433,1.433,0,0,0-.886-2.033,2.261,2.261,0,0,0-1.914,1.23c.854-.643,1.069-2.189-.055-2.295C39.643,232.734,38.362,234.731,38.17,235.506Z" transform="translate(-37.27 -219.916)" fill="#2943f6"/>
            <path id="Path_920" data-name="Path 920" d="M87.107,228.013c-.633-.266-1.441.312-1.625,1.161s.289,1.776.955,1.863a2.033,2.033,0,0,0-1.3.918,1.634,1.634,0,0,0-.289.982.918.918,0,0,0,.89.826,2.46,2.46,0,0,0,1.189-.5,2.01,2.01,0,0,0-1.17.5,1.179,1.179,0,0,0-.2,1.377c.239.294.638.216.968.078a5.191,5.191,0,0,0,2.01-1.547,1.62,1.62,0,0,0,1.648.794,1.593,1.593,0,0,0,.982-1.79,1.152,1.152,0,0,0-1.01-.89,2.649,2.649,0,0,0-1.322.344,3.4,3.4,0,0,0,1.088-1.551c.17-.661-.161-1.51-.693-1.427-.6.1-.918,1.157-1.4,1.56C87.254,230.06,88.374,228.541,87.107,228.013Z" transform="translate(-63.013 -217.288)" fill="#2943f6"/>
            <path id="Path_921" data-name="Path 921" d="M65.275,222.187a3.818,3.818,0,0,0-.918,2.85,3.17,3.17,0,0,0,1.244,2.781c1.083.542,2.474-.7,2.7-2.217a3.708,3.708,0,0,0-1.565-3.635A1.317,1.317,0,0,0,65.275,222.187Z" transform="translate(-51.924 -213.982)" fill="#2943f6"/>
            <path id="Path_922" data-name="Path 922" d="M80.537,217.361l.275.294a1.2,1.2,0,0,0-1.992-.078,2.18,2.18,0,0,0-.055,2.552,1.244,1.244,0,0,0,2-.3,1.836,1.836,0,0,0,2.4-.721,2.324,2.324,0,0,0-.271-2.873c-.73-.5-1.918.39-1.836,1.492l-.321-.459Z" transform="translate(-59.513 -210.871)" fill="#2943f6"/>
            <path id="Path_923" data-name="Path 923" d="M99.744,221.384A6.292,6.292,0,0,0,98.4,223.8c-.216.95.087,2.12.821,2.295s1.432-.62,1.868-1.446a3.7,3.7,0,0,0,.491-2.478c-.2-.812-1.124-1.244-1.6-.578Z" transform="translate(-70.308 -213.674)" fill="#2943f6"/>
            <path id="Path_924" data-name="Path 924" d="M72.316,207.524a1.056,1.056,0,0,0-1.707-.5,2.345,2.345,0,0,0-.578,2.295,1.8,1.8,0,0,0,1.537,1.335,1.693,1.693,0,0,0,1.657-1.877,1.473,1.473,0,0,0,1.574.67,4.1,4.1,0,0,0,1.666-.89,3.058,3.058,0,0,0,1.409-2.409,1.469,1.469,0,0,0-1.285-1.432,2.354,2.354,0,0,0-1.771.941c-.39.436-.716.973-1.138,1.377a1.2,1.2,0,0,1-1.423.344Z" transform="translate(-54.946 -204.72)" fill="#2943f6"/>
          </g>
        </g>
        <g id="freepik--Keyboard--inject-2" transform="translate(48.39 100.886)">
          <rect id="Rectangle_40" data-name="Rectangle 40" width="105.862" height="44.586" transform="translate(0 0.45)" fill="#a7b0ff" stroke="#263238" stroke-linecap="round" stroke-linejoin="round" stroke-width="1"/>
          <rect id="Rectangle_41" data-name="Rectangle 41" width="9.959" height="5.512" transform="translate(2.212 3.148)" fill="#fff" stroke="#263238" stroke-width="1"/>
          <rect id="Rectangle_42" data-name="Rectangle 42" width="15.686" height="5.512" transform="translate(87.725 30.024)" fill="#fff" stroke="#263238" stroke-width="1"/>
          <rect id="Rectangle_43" data-name="Rectangle 43" width="9.684" height="5.512" transform="translate(93.728 10.032)" fill="#fff" stroke="#263238" stroke-width="1"/>
          <rect id="Rectangle_44" data-name="Rectangle 44" width="9.959" height="5.512" transform="translate(2.212 23.227)" fill="#fff" stroke="#263238" stroke-width="1"/>
          <rect id="Rectangle_45" data-name="Rectangle 45" width="8.063" height="5.512" transform="translate(2.212 16.586)" fill="#fff" stroke="#263238" stroke-width="1"/>
          <rect id="Rectangle_46" data-name="Rectangle 46" width="5.512" height="5.512" transform="translate(2.212 9.867)" fill="#fff" stroke="#263238" stroke-width="1"/>
          <rect id="Rectangle_47" data-name="Rectangle 47" width="5.512" height="5.512" transform="translate(9.252 9.867)" fill="#fff" stroke="#263238" stroke-width="1"/>
          <rect id="Rectangle_48" data-name="Rectangle 48" width="5.512" height="5.512" transform="translate(16.288 9.867)" fill="#fff" stroke="#263238" stroke-width="1"/>
          <rect id="Rectangle_49" data-name="Rectangle 49" width="5.512" height="5.512" transform="translate(23.323 9.867)" fill="#fff" stroke="#263238" stroke-width="1"/>
          <rect id="Rectangle_50" data-name="Rectangle 50" width="5.512" height="5.512" transform="translate(30.363 9.867)" fill="#fff" stroke="#263238" stroke-width="1"/>
          <rect id="Rectangle_51" data-name="Rectangle 51" width="5.512" height="5.512" transform="translate(37.399 9.867)" fill="#fff" stroke="#263238" stroke-width="1"/>
          <rect id="Rectangle_52" data-name="Rectangle 52" width="5.512" height="5.512" transform="translate(44.434 9.867)" fill="#fff" stroke="#263238" stroke-width="1"/>
          <rect id="Rectangle_53" data-name="Rectangle 53" width="5.512" height="5.512" transform="translate(51.474 9.867)" fill="#fff" stroke="#263238" stroke-width="1"/>
          <rect id="Rectangle_54" data-name="Rectangle 54" width="5.512" height="5.512" transform="translate(58.51 9.867)" fill="#fff" stroke="#263238" stroke-width="1"/>
          <rect id="Rectangle_55" data-name="Rectangle 55" width="5.512" height="5.512" transform="translate(65.545 9.867)" fill="#fff" stroke="#263238" stroke-width="1"/>
          <rect id="Rectangle_56" data-name="Rectangle 56" width="5.512" height="5.512" transform="translate(72.585 9.867)" fill="#fff" stroke="#263238" stroke-width="1"/>
          <rect id="Rectangle_57" data-name="Rectangle 57" width="5.512" height="5.512" transform="translate(79.621 9.867)" fill="#fff" stroke="#263238" stroke-width="1"/>
          <rect id="Rectangle_58" data-name="Rectangle 58" width="5.512" height="5.512" transform="translate(86.661 9.867)" fill="#fff" stroke="#263238" stroke-width="1"/>
          <rect id="Rectangle_59" data-name="Rectangle 59" width="5.512" height="5.512" transform="translate(2.212 36.825)" fill="#fff" stroke="#263238" stroke-width="1"/>
          <rect id="Rectangle_60" data-name="Rectangle 60" width="5.512" height="5.512" transform="translate(9.252 36.825)" fill="#fff" stroke="#263238" stroke-width="1"/>
          <rect id="Rectangle_61" data-name="Rectangle 61" width="5.512" height="5.512" transform="translate(16.288 36.825)" fill="#fff" stroke="#263238" stroke-width="1"/>
          <rect id="Rectangle_62" data-name="Rectangle 62" width="6.728" height="5.512" transform="translate(23.323 36.825)" fill="#fff" stroke="#263238" stroke-width="1"/>
          <rect id="Rectangle_63" data-name="Rectangle 63" width="33.663" height="5.512" transform="translate(31.575 36.825)" fill="#fff" stroke="#263238" stroke-width="1"/>
          <rect id="Rectangle_64" data-name="Rectangle 64" width="5.512" height="5.512" transform="translate(76.555 36.825)" fill="#fff" stroke="#263238" stroke-width="1"/>
          <rect id="Rectangle_65" data-name="Rectangle 65" width="5.512" height="5.512" transform="translate(83.59 36.825)" fill="#fff" stroke="#263238" stroke-width="1"/>
          <rect id="Rectangle_66" data-name="Rectangle 66" width="5.512" height="5.512" transform="translate(90.64 36.825)" fill="#fff" stroke="#263238" stroke-width="1"/>
          <rect id="Rectangle_67" data-name="Rectangle 67" width="8.559" height="5.512" transform="translate(66.614 36.825)" fill="#fff" stroke="#263238" stroke-width="1"/>
          <rect id="Rectangle_68" data-name="Rectangle 68" width="5.512" height="5.512" transform="translate(97.9 36.825)" fill="#fff" stroke="#263238" stroke-width="1"/>
          <rect id="Rectangle_69" data-name="Rectangle 69" width="5.512" height="5.512" transform="translate(11.841 16.586)" fill="#fff" stroke="#263238" stroke-width="1"/>
          <rect id="Rectangle_70" data-name="Rectangle 70" width="5.512" height="5.512" transform="translate(18.876 16.586)" fill="#fff" stroke="#263238" stroke-width="1"/>
          <rect id="Rectangle_71" data-name="Rectangle 71" width="5.512" height="5.512" transform="translate(25.916 16.586)" fill="#fff" stroke="#263238" stroke-width="1"/>
          <rect id="Rectangle_72" data-name="Rectangle 72" width="5.512" height="5.512" transform="translate(32.952 16.586)" fill="#fff" stroke="#263238" stroke-width="1"/>
          <rect id="Rectangle_73" data-name="Rectangle 73" width="5.512" height="5.512" transform="translate(39.992 16.586)" fill="#fff" stroke="#263238" stroke-width="1"/>
          <rect id="Rectangle_74" data-name="Rectangle 74" width="5.512" height="5.512" transform="translate(47.027 16.586)" fill="#fff" stroke="#263238" stroke-width="1"/>
          <rect id="Rectangle_75" data-name="Rectangle 75" width="5.512" height="5.512" transform="translate(54.063 16.586)" fill="#fff" stroke="#263238" stroke-width="1"/>
          <rect id="Rectangle_76" data-name="Rectangle 76" width="5.512" height="5.512" transform="translate(61.103 16.586)" fill="#fff" stroke="#263238" stroke-width="1"/>
          <rect id="Rectangle_77" data-name="Rectangle 77" width="5.512" height="5.512" transform="translate(68.138 16.586)" fill="#fff" stroke="#263238" stroke-width="1"/>
          <rect id="Rectangle_78" data-name="Rectangle 78" width="5.512" height="5.512" transform="translate(75.174 16.586)" fill="#fff" stroke="#263238" stroke-width="1"/>
          <rect id="Rectangle_79" data-name="Rectangle 79" width="5.512" height="5.512" transform="translate(82.214 16.586)" fill="#fff" stroke="#263238" stroke-width="1"/>
          <rect id="Rectangle_80" data-name="Rectangle 80" width="5.512" height="5.512" transform="translate(89.249 16.586)" fill="#fff" stroke="#263238" stroke-width="1"/>
          <path id="Path_925" data-name="Path 925" d="M362.607,307.92v12.235H357.1v-6.719H355.48V307.92Z" transform="translate(-259.195 -291.334)" fill="#fff" stroke="#263238" stroke-width="1"/>
          <rect id="Rectangle_81" data-name="Rectangle 81" width="5.512" height="5.512" transform="translate(13.456 23.305)" fill="#fff" stroke="#263238" stroke-width="1"/>
          <rect id="Rectangle_82" data-name="Rectangle 82" width="5.512" height="5.512" transform="translate(20.491 23.305)" fill="#fff" stroke="#263238" stroke-width="1"/>
          <rect id="Rectangle_83" data-name="Rectangle 83" width="5.512" height="5.512" transform="translate(27.527 23.305)" fill="#fff" stroke="#263238" stroke-width="1"/>
          <rect id="Rectangle_84" data-name="Rectangle 84" width="5.512" height="5.512" transform="translate(34.567 23.305)" fill="#fff" stroke="#263238" stroke-width="1"/>
          <rect id="Rectangle_85" data-name="Rectangle 85" width="5.512" height="5.512" transform="translate(41.602 23.305)" fill="#fff" stroke="#263238" stroke-width="1"/>
          <rect id="Rectangle_86" data-name="Rectangle 86" width="5.512" height="5.512" transform="translate(48.642 23.305)" fill="#fff" stroke="#263238" stroke-width="1"/>
          <rect id="Rectangle_87" data-name="Rectangle 87" width="5.512" height="5.512" transform="translate(55.678 23.305)" fill="#fff" stroke="#263238" stroke-width="1"/>
          <rect id="Rectangle_88" data-name="Rectangle 88" width="5.512" height="5.512" transform="translate(62.713 23.305)" fill="#fff" stroke="#263238" stroke-width="1"/>
          <rect id="Rectangle_89" data-name="Rectangle 89" width="5.512" height="5.512" transform="translate(69.753 23.305)" fill="#fff" stroke="#263238" stroke-width="1"/>
          <rect id="Rectangle_90" data-name="Rectangle 90" width="5.512" height="5.512" transform="translate(76.789 23.305)" fill="#fff" stroke="#263238" stroke-width="1"/>
          <rect id="Rectangle_91" data-name="Rectangle 91" width="5.512" height="5.512" transform="translate(83.824 23.305)" fill="#fff" stroke="#263238" stroke-width="1"/>
          <rect id="Rectangle_92" data-name="Rectangle 92" width="5.512" height="5.512" transform="translate(90.864 23.305)" fill="#fff" stroke="#263238" stroke-width="1"/>
          <rect id="Rectangle_93" data-name="Rectangle 93" width="5.512" height="5.512" transform="translate(10.464 30.024)" fill="#fff" stroke="#263238" stroke-width="1"/>
          <rect id="Rectangle_94" data-name="Rectangle 94" width="5.512" height="5.512" transform="translate(17.499 30.024)" fill="#fff" stroke="#263238" stroke-width="1"/>
          <rect id="Rectangle_95" data-name="Rectangle 95" width="5.512" height="5.512" transform="translate(24.539 30.024)" fill="#fff" stroke="#263238" stroke-width="1"/>
          <rect id="Rectangle_96" data-name="Rectangle 96" width="5.512" height="5.512" transform="translate(31.575 30.024)" fill="#fff" stroke="#263238" stroke-width="1"/>
          <rect id="Rectangle_97" data-name="Rectangle 97" width="5.512" height="5.512" transform="translate(38.61 30.024)" fill="#fff" stroke="#263238" stroke-width="1"/>
          <rect id="Rectangle_98" data-name="Rectangle 98" width="5.512" height="5.512" transform="translate(45.65 30.024)" fill="#fff" stroke="#263238" stroke-width="1"/>
          <rect id="Rectangle_99" data-name="Rectangle 99" width="5.512" height="5.512" transform="translate(52.686 30.024)" fill="#fff" stroke="#263238" stroke-width="1"/>
          <rect id="Rectangle_100" data-name="Rectangle 100" width="5.512" height="5.512" transform="translate(59.726 30.024)" fill="#fff" stroke="#263238" stroke-width="1"/>
          <rect id="Rectangle_101" data-name="Rectangle 101" width="5.512" height="5.512" transform="translate(66.761 30.024)" fill="#fff" stroke="#263238" stroke-width="1"/>
          <rect id="Rectangle_102" data-name="Rectangle 102" width="5.512" height="5.512" transform="translate(73.797 30.024)" fill="#fff" stroke="#263238" stroke-width="1"/>
          <rect id="Rectangle_103" data-name="Rectangle 103" width="5.512" height="5.512" transform="translate(80.837 30.024)" fill="#fff" stroke="#263238" stroke-width="1"/>
          <rect id="Rectangle_104" data-name="Rectangle 104" width="5.512" height="5.512" transform="translate(13.456 3.479)" fill="#fff" stroke="#263238" stroke-width="1"/>
          <rect id="Rectangle_105" data-name="Rectangle 105" width="5.512" height="5.512" transform="translate(20.491 3.479)" fill="#fff" stroke="#263238" stroke-width="1"/>
          <rect id="Rectangle_106" data-name="Rectangle 106" width="5.512" height="5.512" transform="translate(27.527 3.479)" fill="#fff" stroke="#263238" stroke-width="1"/>
          <rect id="Rectangle_107" data-name="Rectangle 107" width="5.512" height="5.512" transform="translate(34.567 3.479)" fill="#fff" stroke="#263238" stroke-width="1"/>
          <rect id="Rectangle_108" data-name="Rectangle 108" width="5.512" height="5.512" transform="translate(41.602 3.479)" fill="#fff" stroke="#263238" stroke-width="1"/>
          <rect id="Rectangle_109" data-name="Rectangle 109" width="5.512" height="5.512" transform="translate(48.642 3.479)" fill="#fff" stroke="#263238" stroke-width="1"/>
          <rect id="Rectangle_110" data-name="Rectangle 110" width="5.512" height="5.512" transform="translate(55.678 3.479)" fill="#fff" stroke="#263238" stroke-width="1"/>
          <rect id="Rectangle_111" data-name="Rectangle 111" width="5.512" height="5.512" transform="translate(62.713 3.479)" fill="#fff" stroke="#263238" stroke-width="1"/>
          <rect id="Rectangle_112" data-name="Rectangle 112" width="5.512" height="5.512" transform="translate(69.753 3.479)" fill="#fff" stroke="#263238" stroke-width="1"/>
          <rect id="Rectangle_113" data-name="Rectangle 113" width="5.512" height="5.512" transform="translate(76.789 3.479)" fill="#fff" stroke="#263238" stroke-width="1"/>
          <rect id="Rectangle_114" data-name="Rectangle 114" width="5.512" height="5.512" transform="translate(83.824 3.479)" fill="#fff" stroke="#263238" stroke-width="1"/>
          <rect id="Rectangle_115" data-name="Rectangle 115" width="5.512" height="5.512" transform="translate(90.864 3.479)" fill="#fff" stroke="#263238" stroke-width="1"/>
          <rect id="Rectangle_116" data-name="Rectangle 116" width="5.512" height="5.512" transform="translate(97.9 3.479)" fill="#fff" stroke="#263238" stroke-width="1"/>
          <rect id="Rectangle_117" data-name="Rectangle 117" width="6.677" height="5.512" transform="translate(2.212 30.024)" fill="#fff" stroke="#263238" stroke-width="1"/>
          <path id="Path_926" data-name="Path 926" d="M145.68,272.514l2.212-.734H250.106l1.455.725Z" transform="translate(-145.68 -271.78)" fill="#263238"/>
        </g>
        <g id="freepik--Hands--inject-2" transform="translate(54.554 111.215)">
          <path id="Path_927" data-name="Path 927" d="M290.542,361.576l-2.152-12.965a10.588,10.588,0,0,0-2.914-5.076c-4.282-4.13-9.941-8.371-10.184-13.768-.372-8.261-1.661-8.027-1.524-10.069a24.811,24.811,0,0,0,1.473-3.029,17.654,17.654,0,0,0,.624-2.451,1.671,1.671,0,0,1,1.836-1.308,2.841,2.841,0,0,1,1.556.73,4.309,4.309,0,0,1,1.166,2.983,12.753,12.753,0,0,1-.459,3.24,21.184,21.184,0,0,1,1.377,5.7c.491-1.514.863-3.043,1.354-4.553.1-.055.064-.174.161-.229-.693-1.487-.106-1.4-1.478-4.677-2.295-5.507-4.883-10.817-6.723-17.738a3.933,3.933,0,0,1,.041-1.946c.665-1.978,2.7-1.524,3.593-.372a3.8,3.8,0,0,1,.551,1,53.447,53.447,0,0,0,4.392,8.467l5,7.618a10.643,10.643,0,0,0,2.006-2.065h0a51.593,51.593,0,0,0,.39-5.815s-.395.968-1.271.918c-.633-.046-1.918.321-2.832-.707a2.391,2.391,0,0,1-.083-3L288.7,299.4a3.433,3.433,0,0,1,3.552-.427,16.9,16.9,0,0,1,4,2.8,8.174,8.174,0,0,1,3.479.67,11.97,11.97,0,0,1,3.281,2.983,6.64,6.64,0,0,1,2.708.725c.211.151,3.061,4.589,2.033,8.045-.61,2.061-.987,5.048-1.262,5.856l-1.4,20.234,2.822,13.309-6.035,3.364a43.141,43.141,0,0,1-6.9,3.089Z" transform="translate(-221.142 -294.703)" opacity="0.2"/>
          <path id="Path_928" data-name="Path 928" d="M308.358,337.515l.055-20.289c.22-.817.4-3.828.867-5.925.8-3.515-2.341-7.756-2.561-7.894a6.74,6.74,0,0,0-2.754-.537,12.059,12.059,0,0,0-3.474-2.754,8.2,8.2,0,0,0-3.515-.459,16.8,16.8,0,0,0-4.176-2.529,3.438,3.438,0,0,0-3.515.661L287.233,301a2.391,2.391,0,0,0,.28,2.992c.982.968,2.24.514,2.873.514.877,0,1.207-.991,1.207-.991a52.081,52.081,0,0,1,0,5.824h0a10.625,10.625,0,0,1-1.868,2.194l-5.507-7.265a52.549,52.549,0,0,1-4.943-8.16,3.9,3.9,0,0,0-.62-.959c-.964-1.092-3.024-1.409-3.561.606a3.993,3.993,0,0,0,.087,1.946c2.295,6.783,5.223,11.909,7.889,17.251,1.583,3.171,1,3.135,1.785,4.566-.092.064-.046.184-.147.243-.385,1.542-.656,3.089-1.046,4.631a21.111,21.111,0,0,0-1.758-5.59,12.623,12.623,0,0,0,.243-3.268,4.305,4.305,0,0,0-1.377-2.9,2.832,2.832,0,0,0-1.6-.624,1.671,1.671,0,0,0-1.762,1.432,17.2,17.2,0,0,1-.459,2.483,24.989,24.989,0,0,1-1.267,3.121c0,2.047,1.267,1.712,2.189,9.945.716,6.425,8.977,10.652,13.474,15.283l4.791,15.081a92.845,92.845,0,0,0,16.044-8.394Z" transform="translate(-221.822 -294.286)" fill="#ffbda7"/>
          <g id="Group_52" data-name="Group 52" transform="translate(53.192)" clip-path="url(#clip-path)">
            <path id="Path_929" data-name="Path 929" d="M340.332,319.86a3.529,3.529,0,0,1,1.051-1.588,1.345,1.345,0,0,1,1.758.06q-.514-1.574-1.092-3.135a4.846,4.846,0,0,0-1.276-2.148,1.714,1.714,0,0,0-2.295,0,24.8,24.8,0,0,1,.129,7.256c-.17,1.3-.39,2.8.487,3.777.243.2.665-.156.509-.427-.073-.129-.33-.138-.459-.129A23.321,23.321,0,0,1,340.332,319.86Z" transform="translate(-309.337 -304.199)" fill="#29b6f6"/>
            <path id="Path_930" data-name="Path 930" d="M340.332,319.86a3.529,3.529,0,0,1,1.051-1.588,1.345,1.345,0,0,1,1.758.06q-.514-1.574-1.092-3.135a4.846,4.846,0,0,0-1.276-2.148,1.714,1.714,0,0,0-2.295,0,24.8,24.8,0,0,1,.129,7.256c-.17,1.3-.39,2.8.487,3.777.243.2.665-.156.509-.427-.073-.129-.33-.138-.459-.129A23.321,23.321,0,0,1,340.332,319.86Z" transform="translate(-309.337 -304.199)" fill="#29b6f6"/>
            <path id="Path_931" data-name="Path 931" d="M340.332,319.86a3.529,3.529,0,0,1,1.051-1.588,1.345,1.345,0,0,1,1.758.06q-.514-1.574-1.092-3.135a4.846,4.846,0,0,0-1.276-2.148,1.714,1.714,0,0,0-2.295,0,24.8,24.8,0,0,1,.129,7.256c-.17,1.3-.39,2.8.487,3.777.243.2.665-.156.509-.427-.073-.129-.33-.138-.459-.129A23.321,23.321,0,0,1,340.332,319.86Z" transform="translate(-309.337 -304.199)" fill="#ffbda7"/>
            <path id="Path_932" data-name="Path 932" d="M325,314.315a12.977,12.977,0,0,0,.248,2.634,3.277,3.277,0,0,0,1.469,2.116,13.23,13.23,0,0,1,.037-5.269l.459-3.213a2.373,2.373,0,0,1,.326-1.065.826.826,0,0,1,.968-.349c-.459.266-1.042-.092-1.317-.542a13.508,13.508,0,0,0-.7-1.414,2.949,2.949,0,0,0-2.836-.753C323.921,309.1,324.894,311.607,325,314.315Z" transform="translate(-301.329 -300.83)" fill="#29b6f6"/>
            <path id="Path_933" data-name="Path 933" d="M325,314.315a12.977,12.977,0,0,0,.248,2.634,3.277,3.277,0,0,0,1.469,2.116,13.23,13.23,0,0,1,.037-5.269l.459-3.213a2.373,2.373,0,0,1,.326-1.065.826.826,0,0,1,.968-.349c-.459.266-1.042-.092-1.317-.542a13.508,13.508,0,0,0-.7-1.414,2.949,2.949,0,0,0-2.836-.753C323.921,309.1,324.894,311.607,325,314.315Z" transform="translate(-301.329 -300.83)" fill="#29b6f6"/>
            <g id="Group_49" data-name="Group 49" transform="translate(22.321 5.551)">
              <path id="Path_934" data-name="Path 934" d="M325,314.315a12.977,12.977,0,0,0,.248,2.634,3.277,3.277,0,0,0,1.469,2.116,13.23,13.23,0,0,1,.037-5.269l.459-3.213a2.373,2.373,0,0,1,.326-1.065.826.826,0,0,1,.968-.349c-.459.266-1.042-.092-1.317-.542a13.508,13.508,0,0,0-.7-1.414,2.949,2.949,0,0,0-2.836-.753C323.921,309.1,324.894,311.607,325,314.315Z" transform="translate(-323.65 -306.38)" fill="#ffbda7"/>
            </g>
            <path id="Path_935" data-name="Path 935" d="M305.635,306.032a1.611,1.611,0,0,1-.486-.964,1.377,1.377,0,0,0-.537-.918c-1.409.895-.638,3.515-2.065,4.383-.275.17-.629.266-.78.551a.725.725,0,0,0,.151.808,1.377,1.377,0,0,0,.78.367,3.144,3.144,0,0,0,3-1.3,3.7,3.7,0,0,0,.67-2.923A.707.707,0,0,1,305.635,306.032Z" transform="translate(-289.455 -299.623)" fill="#29b6f6"/>
            <path id="Path_936" data-name="Path 936" d="M278.327,341.744c0,.1-.041.22.037.285s.28-.055.372-.184a2.455,2.455,0,0,1,2.731-.886c.372,0,.5-.574.257-.854a1.326,1.326,0,0,0-1.028-.33,2,2,0,0,1-1.083-.179,1.074,1.074,0,0,1-.459-1.156C278.919,339.546,278.63,340.643,278.327,341.744Z" transform="translate(-276.801 -318.176)" fill="#29b6f6"/>
            <g id="Group_50" data-name="Group 50" transform="translate(1.516 4.527)">
              <path id="Path_937" data-name="Path 937" d="M305.635,306.032a1.611,1.611,0,0,1-.486-.964,1.377,1.377,0,0,0-.537-.918c-1.409.895-.638,3.515-2.065,4.383-.275.17-.629.266-.78.551a.725.725,0,0,0,.151.808,1.377,1.377,0,0,0,.78.367,3.144,3.144,0,0,0,3-1.3,3.7,3.7,0,0,0,.67-2.923A.707.707,0,0,1,305.635,306.032Z" transform="translate(-290.971 -304.15)" fill="#ffbda7"/>
              <path id="Path_938" data-name="Path 938" d="M278.327,341.744c0,.1-.041.22.037.285s.28-.055.372-.184a2.455,2.455,0,0,1,2.731-.886c.372,0,.5-.574.257-.854a1.326,1.326,0,0,0-1.028-.33,2,2,0,0,1-1.083-.179,1.074,1.074,0,0,1-.459-1.156C278.919,339.546,278.63,340.643,278.327,341.744Z" transform="translate(-278.316 -322.703)" fill="#ffbda7"/>
            </g>
            <path id="Path_939" data-name="Path 939" d="M310.9,303.37a6.176,6.176,0,0,1-2.354-.537c-.872-.514-1.473-1.606-2.487-1.652-.918-.041-1.574.785-2.084,1.528a2.786,2.786,0,0,1,1.808-2.584,4.488,4.488,0,0,1,3.281.128,12.313,12.313,0,0,1,2.845,1.776,3.812,3.812,0,0,1,.964.918C314,304.751,311.6,303.466,310.9,303.37Z" transform="translate(-290.681 -297.31)" fill="#29b6f6"/>
            <path id="Path_940" data-name="Path 940" d="M310.9,303.37a6.176,6.176,0,0,1-2.354-.537c-.872-.514-1.473-1.606-2.487-1.652-.918-.041-1.574.785-2.084,1.528a2.786,2.786,0,0,1,1.808-2.584,4.488,4.488,0,0,1,3.281.128,12.313,12.313,0,0,1,2.845,1.776,3.812,3.812,0,0,1,.964.918C314,304.751,311.6,303.466,310.9,303.37Z" transform="translate(-290.681 -297.31)" fill="#ffbda7"/>
            <path id="Path_941" data-name="Path 941" d="M287.779,363.917a3.167,3.167,0,0,0,.147-.307A.349.349,0,0,0,287.779,363.917Z" transform="translate(-281.92 -331.795)" fill="#29b6f6"/>
            <path id="Path_942" data-name="Path 942" d="M285.2,340.459c-.092-1.129.069-2.267.023-3.4a4.459,4.459,0,0,0-1.17-3.107c-1.184-1.115-4.429-.546-3.341,1.574a1.377,1.377,0,0,0,1.684.629,1.225,1.225,0,0,0,.574-1.657,5.879,5.879,0,0,1-.28,6.682,5.333,5.333,0,0,1,1.294,6.081.67.67,0,0,1,.757,0,2.294,2.294,0,0,1,.583,1.037c.161.372.459.757.863.73a6.869,6.869,0,0,0,0-4.3A24.244,24.244,0,0,1,285.2,340.459Z" transform="translate(-277.978 -315.445)" fill="#29b6f6"/>
            <path id="Path_943" data-name="Path 943" d="M314.061,301.338a4.59,4.59,0,0,0-2.171-.918Z" transform="translate(-294.966 -297.605)" fill="#29b6f6"/>
            <path id="Path_944" data-name="Path 944" d="M322.017,316.758c-.174-.78-.537-1.505-.753-2.295-.5-1.794-.184-3.713-.413-5.562a9.6,9.6,0,0,0-3.41-6.173l-.822-.349a4.631,4.631,0,0,1,1.652,2.4,43.3,43.3,0,0,1,1.12,6.746,90.468,90.468,0,0,0,1.9,10.409A10.058,10.058,0,0,0,322.017,316.758Z" transform="translate(-297.525 -298.665)" fill="#29b6f6"/>
            <path id="Path_945" data-name="Path 945" d="M306.954,311.006a2.886,2.886,0,0,0,.968-1.886,7.8,7.8,0,0,0-.05-1.937.643.643,0,0,1-.725.436,1.629,1.629,0,0,1-.867-.789l-.165.574-.069-.312-.22.28a3.385,3.385,0,0,1,.138,2.827,3.318,3.318,0,0,1-1.033.955,1.744,1.744,0,0,0,2.024-.147Z" transform="translate(-291.2 -301.073)" fill="#29b6f6"/>
            <path id="Path_946" data-name="Path 946" d="M311.28,307.1l.028.229a.367.367,0,0,0-.027-.229Z" transform="translate(-294.636 -301.219)" fill="#29b6f6"/>
            <path id="Path_947" data-name="Path 947" d="M278.98,295.746c.184,0,1.078-.087,1.175.032a13.957,13.957,0,0,1,3.079,8.9c.647-.509,1.537.2,2.042.849A149.791,149.791,0,0,1,294,317.963c-.523-1.9-.537-3.91-1.1-5.792C292.5,311,279.774,294.989,278.98,295.746Z" transform="translate(-277.16 -293.605)" fill="#ffbda7"/>
            <path id="Path_948" data-name="Path 948" d="M336.175,324.186a20.106,20.106,0,0,0,1.436-6.352,10.4,10.4,0,0,0-1.441-5.75c-.266-.427-1.377-2.189-1.969-2.047-1.079.257.335,2.129.583,2.6.918,1.767,1.886,3.635,1.836,5.631a14.724,14.724,0,0,1-1.212,4.429,9.542,9.542,0,0,0-.647,3.148c-.078.119-.151.243-.239.353a4.713,4.713,0,0,1-2.882,1.9c.459-1.377.886-2.754,1.331-4.13a1.744,1.744,0,0,0-.069-1.5,1.285,1.285,0,0,0,.142-.6,3.033,3.033,0,0,0-.39-1.056,8.183,8.183,0,0,1-.257-4.309,13.624,13.624,0,0,0-.271-5.351,5.761,5.761,0,0,0-3.447-3.887l.459.459-.578-.422,1.074,2.24-.395.564a1.273,1.273,0,0,1,1.62.748,3.938,3.938,0,0,1,.133,1.978,39.559,39.559,0,0,0,.542,11.134,5.407,5.407,0,0,1-.661,2.446,2.409,2.409,0,0,1-2.295,1.244,2.414,2.414,0,0,0-.886-2.446c-.918,1.285-.376,3.281-.239,4.745a51.6,51.6,0,0,0,1.069,6.59,21.3,21.3,0,0,1,1.17-5.507q.743,2.717,1.5,5.438a3.212,3.212,0,0,1,.285-1.482,1.106,1.106,0,0,1,1.267-.587,1.565,1.565,0,0,1,.757.945,16.866,16.866,0,0,1,.918,9.927,1.4,1.4,0,0,0,1.776-.684,4.13,4.13,0,0,0,.326-2.065Q336.331,333.37,336.175,324.186Z" transform="translate(-303.234 -301.311)" fill="#ffbda7"/>
            <path id="Path_949" data-name="Path 949" d="M312.836,347.945c-.294.514.918,2.561,1.106,3.047q1.515,3.7,3.034,7.412a35.088,35.088,0,0,0-2.35-9.491C314.419,348.4,313.419,346.921,312.836,347.945Z" transform="translate(-295.453 -323.128)" fill="#29b6f6"/>
            <path id="Path_950" data-name="Path 950" d="M313.177,313.461c-.174.262-.418.583-.716.491s-.33-.459-.326-.748q.046-2.575.087-5.154c-1.377,1-1.212,2.295-1.308,3.782-.055.858.193,4.957-.395,5.457a15.3,15.3,0,0,0,3.414-4.158C313.7,312.933,313.347,313.2,313.177,313.461Z" transform="translate(-294.225 -301.733)" fill="#29b6f6"/>
            <g id="Group_51" data-name="Group 51" transform="translate(2.514 2.815)">
              <path id="Path_951" data-name="Path 951" d="M287.779,363.917a3.167,3.167,0,0,0,.147-.307A.349.349,0,0,0,287.779,363.917Z" transform="translate(-284.434 -334.61)" fill="#ffbda7"/>
              <path id="Path_952" data-name="Path 952" d="M285.2,340.459c-.092-1.129.069-2.267.023-3.4a4.459,4.459,0,0,0-1.17-3.107c-1.184-1.115-4.429-.546-3.341,1.574a1.377,1.377,0,0,0,1.684.629,1.225,1.225,0,0,0,.574-1.657,5.879,5.879,0,0,1-.28,6.682,5.333,5.333,0,0,1,1.294,6.081.67.67,0,0,1,.757,0,2.294,2.294,0,0,1,.583,1.037c.161.372.459.757.863.73a6.869,6.869,0,0,0,0-4.3A24.244,24.244,0,0,1,285.2,340.459Z" transform="translate(-280.491 -318.26)" fill="#ffbda7"/>
              <path id="Path_953" data-name="Path 953" d="M314.061,301.338a4.59,4.59,0,0,0-2.171-.918Z" transform="translate(-297.48 -300.42)" fill="#ffbda7"/>
              <path id="Path_954" data-name="Path 954" d="M322.017,316.758c-.174-.78-.537-1.505-.753-2.295-.5-1.794-.184-3.713-.413-5.562a9.6,9.6,0,0,0-3.41-6.173l-.822-.349a4.631,4.631,0,0,1,1.652,2.4,43.3,43.3,0,0,1,1.12,6.746,90.468,90.468,0,0,0,1.9,10.409A10.058,10.058,0,0,0,322.017,316.758Z" transform="translate(-300.039 -301.48)" fill="#ffbda7"/>
              <path id="Path_955" data-name="Path 955" d="M306.954,311.006a2.886,2.886,0,0,0,.968-1.886,7.8,7.8,0,0,0-.05-1.937.643.643,0,0,1-.725.436,1.629,1.629,0,0,1-.867-.789l-.165.574-.069-.312-.22.28a3.385,3.385,0,0,1,.138,2.827,3.318,3.318,0,0,1-1.033.955,1.744,1.744,0,0,0,2.024-.147Z" transform="translate(-293.714 -303.888)" fill="#ffbda7"/>
              <path id="Path_956" data-name="Path 956" d="M311.28,307.1l.028.229a.367.367,0,0,0-.027-.229Z" transform="translate(-297.15 -304.034)" fill="#ffbda7"/>
              <path id="Path_959" data-name="Path 959" d="M312.836,347.945c-.294.514.918,2.561,1.106,3.047q1.515,3.7,3.034,7.412a35.088,35.088,0,0,0-2.35-9.491C314.419,348.4,313.419,346.921,312.836,347.945Z" transform="translate(-297.967 -325.943)" fill="#ffbda7"/>
              <path id="Path_960" data-name="Path 960" d="M313.177,313.461c-.174.262-.418.583-.716.491s-.33-.459-.326-.748q.046-2.575.087-5.154c-1.377,1-1.212,2.295-1.308,3.782-.055.858.193,4.957-.395,5.457a15.3,15.3,0,0,0,3.414-4.158C313.7,312.933,313.347,313.2,313.177,313.461Z" transform="translate(-296.739 -304.548)" fill="#ffbda7"/>
            </g>
          </g>
          <path id="Path_962" data-name="Path 962" d="M324,307.59a36.137,36.137,0,0,1,1.248,9.179,4.962,4.962,0,0,0,.165,1.542,1.533,1.533,0,0,0,1.051,1.051" transform="translate(-248.326 -301.484)" fill="none"/>
          <path id="Path_963" data-name="Path 963" d="M338.11,314.16c1.377,2.873-.032,9.293.069,9.743a1.62,1.62,0,0,0,.776,1.1" transform="translate(-255.961 -305.039)" fill="none"/>
          <path id="Path_964" data-name="Path 964" d="M309.625,305.809c-.161.918-.294,1.969-.459,2.882a5.3,5.3,0,0,1-1.836-3.671" transform="translate(-239.307 -300.094)" fill="none"/>
          <path id="Path_965" data-name="Path 965" d="M292,360.09l-1,.418" transform="translate(-230.471 -329.89)" fill="none"/>
          <path id="Path_966" data-name="Path 966" d="M293.58,361.82a5.736,5.736,0,0,0,0,2.322" transform="translate(-231.803 -330.826)" fill="none"/>
          <path id="Path_967" data-name="Path 967" d="M306.36,343.14c.367.656.73,1.317,1.1,1.978" transform="translate(-238.782 -320.719)" fill="none"/>
          <path id="Path_968" data-name="Path 968" d="M311,325.542,312.092,324" transform="translate(-241.292 -310.363)" fill="none"/>
          <path id="Path_969" data-name="Path 969" d="M344.04,343.14l-.33,1.207" transform="translate(-258.991 -320.719)" fill="none"/>
          <path id="Path_970" data-name="Path 970" d="M338.61,332.294q.459-1.542.968-3.084" transform="translate(-256.231 -313.182)" fill="none"/>
          <path id="Path_971" data-name="Path 971" d="M345.65,323.835a1.244,1.244,0,0,1,1.671.519" transform="translate(-260.04 -310.198)" fill="none"/>
          <path id="Path_972" data-name="Path 972" d="M331.28,312.427a2.373,2.373,0,0,1,2.207.5" transform="translate(-252.265 -304.054)" fill="none"/>
          <path id="Path_973" data-name="Path 973" d="M286.74,317.91a3.355,3.355,0,0,1,2.845-1.074" transform="translate(-228.166 -306.476)" fill="none"/>
          <path id="Path_974" data-name="Path 974" d="M277.71,299.654a3.075,3.075,0,0,1,2.295-.542" transform="translate(-223.28 -296.876)" fill="none"/>
          <path id="Path_975" data-name="Path 975" d="M277.985,345.09a5.857,5.857,0,0,0-1.345,1.51Z" transform="translate(-222.701 -321.774)" fill="#fff"/>
          <path id="Path_976" data-name="Path 976" d="M280.53,338.2c.725-.519,1.882.638,2.547.046a1.056,1.056,0,0,0,.225-.991,3.443,3.443,0,0,1-.133-1.051" transform="translate(-224.806 -316.964)" fill="none"/>
          <path id="Path_977" data-name="Path 977" d="M325.12,333.61a8.312,8.312,0,0,1,.5,5.884" transform="translate(-248.932 -315.563)" fill="none"/>
          <path id="Path_978" data-name="Path 978" d="M336.2,339.78a3.823,3.823,0,0,1-.459,2.524" transform="translate(-254.678 -318.901)" fill="none"/>
          <path id="Path_979" data-name="Path 979" d="M296.207,359.37l-4.791-15.081c-4.5-4.631-12.758-8.867-13.474-15.283-.918-8.233-2.189-7.9-2.189-9.945a25,25,0,0,0,1.267-3.121,17.213,17.213,0,0,0,.459-2.483,1.671,1.671,0,0,1,1.762-1.432,2.832,2.832,0,0,1,1.6.624,4.3,4.3,0,0,1,1.377,2.9,12.622,12.622,0,0,1-.243,3.268,21.11,21.11,0,0,1,1.758,5.59c.39-1.542.661-3.089,1.046-4.631.1-.06.055-.179.147-.243-.789-1.432-.2-1.377-1.785-4.566-2.666-5.342-5.59-10.468-7.889-17.251a3.993,3.993,0,0,1-.087-1.946c.537-2.015,2.6-1.7,3.561-.606a3.9,3.9,0,0,1,.62.959,52.553,52.553,0,0,0,4.943,8.16l5.507,7.265a10.628,10.628,0,0,0,1.868-2.194h0a52.082,52.082,0,0,0,0-5.824s-.33.991-1.207.991c-.633,0-1.891.459-2.873-.514a2.391,2.391,0,0,1-.28-2.992l2.051-3.213a3.437,3.437,0,0,1,3.515-.661,16.8,16.8,0,0,1,4.176,2.529,8.2,8.2,0,0,1,3.515.459,12.007,12.007,0,0,1,3.474,2.754,6.92,6.92,0,0,1,2.754.537c.22.138,3.359,4.378,2.561,7.894-.459,2.1-.647,5.108-.867,5.925l-.055,20.289,3.791,13.447" transform="translate(-221.859 -294.291)" fill="none" stroke="#263238" stroke-width="1"/>
          <path id="Path_980" data-name="Path 980" d="M324,307.59a36.137,36.137,0,0,1,1.248,9.179,4.962,4.962,0,0,0,.165,1.542,1.533,1.533,0,0,0,1.051,1.051" transform="translate(-248.326 -301.484)" fill="none" stroke="#263238" stroke-width="1"/>
          <path id="Path_981" data-name="Path 981" d="M338.11,314.16c1.377,2.873-.032,9.293.069,9.743a1.62,1.62,0,0,0,.776,1.1" transform="translate(-255.961 -305.039)" fill="none" stroke="#263238" stroke-width="1"/>
          <path id="Path_982" data-name="Path 982" d="M309.625,305.809c-.161.918-.294,1.969-.459,2.882a5.3,5.3,0,0,1-1.836-3.671" transform="translate(-239.307 -300.094)" fill="none" stroke="#263238" stroke-width="1"/>
          <path id="Path_983" data-name="Path 983" d="M292,360.09l-1,.418" transform="translate(-230.471 -329.89)" fill="none" stroke="#263238" stroke-width="1"/>
          <path id="Path_984" data-name="Path 984" d="M293.58,361.82a5.736,5.736,0,0,0,0,2.322" transform="translate(-231.803 -330.826)" fill="none" stroke="#263238" stroke-width="1"/>
          <path id="Path_985" data-name="Path 985" d="M306.36,343.14c.367.656.73,1.317,1.1,1.978" transform="translate(-238.782 -320.719)" fill="none" stroke="#263238" stroke-width="1"/>
          <path id="Path_986" data-name="Path 986" d="M311,325.542,312.092,324" transform="translate(-241.292 -310.363)" fill="none" stroke="#263238" stroke-width="1"/>
          <path id="Path_987" data-name="Path 987" d="M344.04,343.14l-.33,1.207" transform="translate(-258.991 -320.719)" fill="none" stroke="#263238" stroke-width="1"/>
          <path id="Path_988" data-name="Path 988" d="M338.61,332.294q.459-1.542.968-3.084" transform="translate(-256.231 -313.182)" fill="none" stroke="#263238" stroke-width="1"/>
          <path id="Path_989" data-name="Path 989" d="M345.65,323.835a1.244,1.244,0,0,1,1.671.519" transform="translate(-260.04 -310.198)" fill="none" stroke="#263238" stroke-width="1"/>
          <path id="Path_990" data-name="Path 990" d="M331.28,312.427a2.373,2.373,0,0,1,2.207.5" transform="translate(-252.265 -304.054)" fill="none" stroke="#263238" stroke-width="1"/>
          <path id="Path_991" data-name="Path 991" d="M286.74,317.91a3.355,3.355,0,0,1,2.845-1.074" transform="translate(-228.166 -306.476)" fill="none" stroke="#263238" stroke-width="1"/>
          <path id="Path_992" data-name="Path 992" d="M277.71,299.654a3.075,3.075,0,0,1,2.295-.542" transform="translate(-223.28 -296.876)" fill="none" stroke="#263238" stroke-width="1"/>
          <path id="Path_993" data-name="Path 993" d="M277.985,345.09a5.857,5.857,0,0,0-1.345,1.51" transform="translate(-222.701 -321.774)" fill="none" stroke="#263238" stroke-width="1"/>
          <path id="Path_994" data-name="Path 994" d="M280.53,338.2c.725-.519,1.882.638,2.547.046a1.056,1.056,0,0,0,.225-.991,3.443,3.443,0,0,1-.133-1.051" transform="translate(-224.806 -316.964)" fill="none" stroke="#263238" stroke-width="1"/>
          <path id="Path_995" data-name="Path 995" d="M325.12,333.61a8.312,8.312,0,0,1,.5,5.884" transform="translate(-248.932 -315.563)" fill="none" stroke="#263238" stroke-width="1"/>
          <path id="Path_996" data-name="Path 996" d="M336.2,339.78a3.823,3.823,0,0,1-.459,2.524" transform="translate(-254.678 -318.901)" fill="none" stroke="#263238" stroke-width="1"/>
          <path id="Path_997" data-name="Path 997" d="M201.3,324.748a2.781,2.781,0,0,1-.041.955c-.3,1.377-1.161,5.406-1.478,7.609-.376,2.689-4.722,11.014-4.722,11.014s-4,4.975-6.04,7.563c-1,1.271-2.584,6.425-3.928,11.317q-2.547-.771-5.048-1.661-2.065-.737-4.13-1.547a67.5,67.5,0,0,1-7.169-3.488c.762-2.754,1.271-4.9,1.262-5.021a34.211,34.211,0,0,1,1.634-3.479L170.2,328.974l-.854-2.9a21.75,21.75,0,0,1-.84-4.589,22.185,22.185,0,0,1,.592-7.035l2.492-3.7,1.166-.087,3.607-5.048s1.95-.587,2.451.881-1.625,4.213-1.625,4.213l-.73,4.53,1.735,4.241.918.33s.3-7.467.1-8.958l1.882-6.788a32.372,32.372,0,0,0,1.5-3.424,1.93,1.93,0,0,1,3.58-.271,2.951,2.951,0,0,1,.184,2.419c-.482,1.4-.881,2.5-.881,2.5s-.459,5.773-.574,5.934.849,8.6.849,8.6l.753.335.266-8.054,1.565-7.568s-.128-3.639,2.437-3.213a1.983,1.983,0,0,1,1.886,1.175c.684,1.308.032,10.019.032,10.019l.633,9,1.014,6.944,1.193-4.759s.069-6.82,4.374-7.4c0,0,1.28-.229,1.542.661s-.638,2.708-.509,4.452C201.043,322.655,201.218,324.036,201.3,324.748Z" transform="translate(-164.159 -296.98)" opacity="0.2"/>
          <path id="Path_998" data-name="Path 998" d="M194.964,314.091c-.2-.918-1.487-.776-1.487-.776-4.337.257-4.92,7.054-4.92,7.054L187,325.023l-.459-7,.046-9.027s1.313-8.637.73-9.991a1.978,1.978,0,0,0-1.794-1.313c-2.524-.633-2.671,3.006-2.671,3.006l-2.129,7.426-.877,8.008-.725-.385s-.344-8.5-.2-8.642,1.019-5.87,1.019-5.87.482-1.069,1.069-2.428a2.951,2.951,0,0,0,0-2.428,1.939,1.939,0,0,0-3.593,0,32.313,32.313,0,0,1-1.744,3.3l-2.432,6.65c.092,1.505-.771,8.931-.771,8.931l-.877-.4-1.409-4.36,1.074-4.465s2.327-2.57,1.937-4.075-2.377-1.065-2.377-1.065l-4,4.745h-1.17L162.9,309.13a22.153,22.153,0,0,0-.633,11.606l.633,2.951v19.073a34.545,34.545,0,0,0-1.891,3.346c0,.133-.78,2.543-1.868,5.549a93.433,93.433,0,0,0,11.762,6.108q2.065.812,4.13,1.547c1.744-4.9,3.782-10.133,4.906-11.359,2.23-2.423,6.6-7.086,6.6-7.086s4.961-7.972,5.544-10.62c.459-2.175,1.643-6.127,2.047-7.481a2.648,2.648,0,0,0,.11-.95c-.032-.716-.1-2.107-.1-3.332C194.12,316.744,195.157,315,194.964,314.091Z" transform="translate(-159.126 -294.754)" fill="#ffbda7"/>
          <g id="Group_54" data-name="Group 54" transform="translate(0.014 0.398)" clip-path="url(#clip-path-2)">
            <path id="Path_999" data-name="Path 999" d="M167.28,310.069a2.244,2.244,0,0,1,3.13-.459,3.29,3.29,0,0,1,.785,1.836,3.914,3.914,0,0,0,.693,1.891,1.264,1.264,0,0,0,1.79.225c.064,1.005.124,2.01.188,3.015a11.955,11.955,0,0,0,1.579-6.159,13.375,13.375,0,0,1,.064-3.121,2.5,2.5,0,0,1,2.074-2.051,2.533,2.533,0,0,1,2.295,2.212,13.7,13.7,0,0,1-.106,3.46,10.528,10.528,0,0,0,.991,5.145l.73-1.478c.22.991.459,1.978.656,2.965q.285-3.263.569-6.521a4.754,4.754,0,0,1,.4-1.79,1.588,1.588,0,0,1,1.473-.918c.826.083,1.3.964,1.579,1.744,2.07,5.851,1.216,12.272.34,18.412.574.106,1.06-.459,1.2-1.042a13.315,13.315,0,0,1,.307-1.716c.216-.546.877-.991,1.377-.679.725.459.22,1.863.978,2.253a10.473,10.473,0,0,1,2.079-5.016c.509-.661,1.271-1.317,2.079-1.106a1.634,1.634,0,0,1,1.088,1.377c.087.615.978-1.927.821-1.326.349-3.538-.349-3.91,0-7.453.064-.638,1.1-1.744.656-2.212s-1.666-1.1-2.221-.844a11.154,11.154,0,0,0-2.712,1.648c-2.258,3.116-2.1,7.623-2.8,11.4-.6-5.764-1.193-11.625-.138-17.32.583-3.144,1.657-6.425.642-9.449-.459-1.377-1.693-2.754-3.13-2.506-1.157.211-1.836,1.377-2.327,2.46a49.88,49.88,0,0,0-2.974,11.473l2.579-11.772a7.963,7.963,0,0,0,.266-3.093,2.719,2.719,0,0,0-1.909-2.249,3.32,3.32,0,0,0-2.781,1.083c-2.754,2.5-3.745,6.306-4.635,9.895a7.123,7.123,0,0,0,.532-2.9,2.43,2.43,0,0,0-1.684-2.2c-1.253-.271-2.386.844-2.937,2s-.817,2.487-1.693,3.419a2.083,2.083,0,0,0-2.634-.142,5.09,5.09,0,0,0-1.675,2.295,21.35,21.35,0,0,0-1.776,10.317,3.777,3.777,0,0,1,3.768-2.148c-.092-.78-.179-1.56-.271-2.345" transform="translate(-161.24 -293.048)" fill="#29b6f6"/>
            <path id="Path_1000" data-name="Path 1000" d="M178.749,347.677c-.041.578-.078,1.157-.119,1.735a.835.835,0,0,1,1.271-.321,1.9,1.9,0,0,1,.289-1.074c.147-.349.161-.844-.179-1.01s-.8.266-1.014.661a3.556,3.556,0,0,0-.05-.431Z" transform="translate(-169.685 -323.189)" fill="#29b6f6"/>
            <path id="Path_1001" data-name="Path 1001" d="M192.148,345.828a4.057,4.057,0,0,0-.918,1.918,1.977,1.977,0,0,1,.675-.5.679.679,0,0,1,.762.174c.1.138.138.34.294.418a.362.362,0,0,0,.459-.165,1.047,1.047,0,0,0,.115-.5,2.791,2.791,0,0,0-.055-1,.968.968,0,0,0-.661-.693.6.6,0,0,0-.721.5Z" transform="translate(-176.503 -322.377)" fill="#29b6f6"/>
            <path id="Path_1002" data-name="Path 1002" d="M205.984,348.44a5.214,5.214,0,0,0-.964,2.295,2.01,2.01,0,0,0,.895-.482,1.772,1.772,0,0,1,.918-.459.638.638,0,0,1,.711.56,4.319,4.319,0,0,1,.037-1.166,2.455,2.455,0,0,0-.083-1.157.978.978,0,0,0-.886-.652.615.615,0,0,0-.542.826Z" transform="translate(-183.964 -323.411)" fill="#29b6f6"/>
            <path id="Path_1003" data-name="Path 1003" d="M168.277,354.654a4.589,4.589,0,0,0-.537,2.157.753.753,0,0,1,.675-.67,1.505,1.505,0,0,1,.978.262,2.652,2.652,0,0,0,.064-1.056.918.918,0,0,0-.67-.734c-.353-.055-.739.28-.643.62l-.106-.262Z" transform="translate(-163.793 -327.321)" fill="#29b6f6"/>
            <path id="Path_1004" data-name="Path 1004" d="M167.28,310.069a2.244,2.244,0,0,1,3.13-.459,3.29,3.29,0,0,1,.785,1.836,3.914,3.914,0,0,0,.693,1.891,1.264,1.264,0,0,0,1.79.225c.064,1.005.124,2.01.188,3.015a11.955,11.955,0,0,0,1.579-6.159,13.375,13.375,0,0,1,.064-3.121,2.5,2.5,0,0,1,2.074-2.051,2.533,2.533,0,0,1,2.295,2.212,13.7,13.7,0,0,1-.106,3.46,10.528,10.528,0,0,0,.991,5.145l.73-1.478c.22.991.459,1.978.656,2.965q.285-3.263.569-6.521a4.754,4.754,0,0,1,.4-1.79,1.588,1.588,0,0,1,1.473-.918c.826.083,1.3.964,1.579,1.744,2.07,5.851,1.216,12.272.34,18.412.574.106,1.06-.459,1.2-1.042a13.315,13.315,0,0,1,.307-1.716c.216-.546.877-.991,1.377-.679.725.459.22,1.863.978,2.253a10.473,10.473,0,0,1,2.079-5.016c.509-.661,1.271-1.317,2.079-1.106a1.634,1.634,0,0,1,1.088,1.377c.087.615.978-1.927.821-1.326.349-3.538-.349-3.91,0-7.453.064-.638,1.1-1.744.656-2.212s-1.666-1.1-2.221-.844a11.154,11.154,0,0,0-2.712,1.648c-2.258,3.116-2.1,7.623-2.8,11.4-.6-5.764-1.193-11.625-.138-17.32.583-3.144,1.657-6.425.642-9.449-.459-1.377-1.693-2.754-3.13-2.506-1.157.211-1.836,1.377-2.327,2.46a49.88,49.88,0,0,0-2.974,11.473l2.579-11.772a7.963,7.963,0,0,0,.266-3.093,2.719,2.719,0,0,0-1.909-2.249,3.32,3.32,0,0,0-2.781,1.083c-2.754,2.5-3.745,6.306-4.635,9.895a7.123,7.123,0,0,0,.532-2.9,2.43,2.43,0,0,0-1.684-2.2c-1.253-.271-2.386.844-2.937,2s-.817,2.487-1.693,3.419a2.083,2.083,0,0,0-2.634-.142,5.09,5.09,0,0,0-1.675,2.295,21.35,21.35,0,0,0-1.776,10.317,3.777,3.777,0,0,1,3.768-2.148c-.092-.78-.179-1.56-.271-2.345" transform="translate(-161.24 -293.048)" fill="#ffbda7"/>
            <g id="Group_53" data-name="Group 53" transform="translate(3.947 23.092)">
              <path id="Path_1005" data-name="Path 1005" d="M178.749,347.677c-.041.578-.078,1.157-.119,1.735a.835.835,0,0,1,1.271-.321,1.9,1.9,0,0,1,.289-1.074c.147-.349.161-.844-.179-1.01s-.8.266-1.014.661a3.556,3.556,0,0,0-.05-.431Z" transform="translate(-173.632 -346.282)" fill="#ffbda7"/>
              <path id="Path_1006" data-name="Path 1006" d="M192.148,345.828a4.057,4.057,0,0,0-.918,1.918,1.977,1.977,0,0,1,.675-.5.679.679,0,0,1,.762.174c.1.138.138.34.294.418a.362.362,0,0,0,.459-.165,1.047,1.047,0,0,0,.115-.5,2.791,2.791,0,0,0-.055-1,.968.968,0,0,0-.661-.693.6.6,0,0,0-.721.5Z" transform="translate(-180.45 -345.469)" fill="#ffbda7"/>
              <path id="Path_1007" data-name="Path 1007" d="M205.984,348.44a5.214,5.214,0,0,0-.964,2.295,2.01,2.01,0,0,0,.895-.482,1.772,1.772,0,0,1,.918-.459.638.638,0,0,1,.711.56,4.319,4.319,0,0,1,.037-1.166,2.455,2.455,0,0,0-.083-1.157.978.978,0,0,0-.886-.652.615.615,0,0,0-.542.826Z" transform="translate(-187.911 -346.503)" fill="#ffbda7"/>
              <path id="Path_1008" data-name="Path 1008" d="M168.277,354.654a4.589,4.589,0,0,0-.537,2.157.753.753,0,0,1,.675-.67,1.505,1.505,0,0,1,.978.262,2.652,2.652,0,0,0,.064-1.056.918.918,0,0,0-.67-.734c-.353-.055-.739.28-.643.62l-.106-.262Z" transform="translate(-167.74 -350.413)" fill="#ffbda7"/>
            </g>
          </g>
          <path id="Path_1010" data-name="Path 1010" d="M159.11,351.664c1.088-3.006,1.868-5.415,1.868-5.548a34.546,34.546,0,0,1,1.891-3.346V323.7l-.633-2.951a22.153,22.153,0,0,1,.633-11.606l2.754-3.493h1.17l3.974-4.755s1.992-.459,2.377,1.065-1.937,4.075-1.937,4.075l-1.074,4.465,1.409,4.36.877.4s.863-7.426.771-8.931l2.432-6.65a32.3,32.3,0,0,0,1.744-3.3,1.939,1.939,0,0,1,3.593,0,2.951,2.951,0,0,1,0,2.428c-.587,1.377-1.069,2.428-1.069,2.428s-.872,5.723-1.019,5.87.2,8.642.2,8.642l.725.385.877-8.008L182.8,300.7s.147-3.639,2.671-3.006A1.978,1.978,0,0,1,187.266,299c.583,1.354-.73,9.991-.73,9.991l-.032,9.036.459,7,1.556-4.654s.583-6.8,4.92-7.054c0,0,1.29-.133,1.487.776s-.844,2.653-.844,4.4c0,1.225.069,2.616.1,3.332a2.648,2.648,0,0,1-.11.95c-.4,1.377-1.57,5.305-2.047,7.481-.583,2.648-5.544,10.62-5.544,10.62s-4.369,4.663-6.6,7.086c-1.124,1.225-3.162,6.462-4.906,11.359" transform="translate(-159.11 -294.754)" fill="none" stroke="#263238" stroke-width="1"/>
          <path id="Path_1011" data-name="Path 1011" d="M187.232,340.52a2.754,2.754,0,0,1-.652,2.616" transform="translate(-173.973 -319.301)" fill="#fff" stroke="#263238" stroke-width="1"/>
          <path id="Path_1012" data-name="Path 1012" d="M171.84,337.034a5.538,5.538,0,0,0,1.074-3.465c-.33-2.253-1.377-4.846-.918-7.077.294-1.423.587-2.85.886-4.273" transform="translate(-165.998 -309.4)" fill="#fff" stroke="#263238" stroke-width="1"/>
          <path id="Path_1013" data-name="Path 1013" d="M211.71,307.362a4.5,4.5,0,0,1,2.295,0,6.02,6.02,0,0,1,.023-.643" transform="translate(-187.57 -301.013)" fill="none" stroke="#263238" stroke-width="1"/>
          <path id="Path_1014" data-name="Path 1014" d="M198.58,300.435a1.469,1.469,0,0,0,2.295-1.225" transform="translate(-180.466 -296.95)" fill="none" stroke="#263238" stroke-width="1"/>
          <path id="Path_1015" data-name="Path 1015" d="M232.23,336.59a2.813,2.813,0,0,0-2.107,2.905l1.124.34" transform="translate(-197.53 -317.175)" fill="none" stroke="#263238" stroke-width="1"/>
          <path id="Path_1016" data-name="Path 1016" d="M202.525,337.81c.05.771-.046,2.611,0,3.382" transform="translate(-182.593 -317.835)" fill="#fff" stroke="#263238" stroke-width="1"/>
          <path id="Path_1017" data-name="Path 1017" d="M204.05,340.14q-.138,1.886-.28,3.782v-.482" transform="translate(-183.274 -319.096)" fill="#fff" stroke="#263238" stroke-width="1"/>
          <path id="Path_1018" data-name="Path 1018" d="M219.131,363.31a6.306,6.306,0,0,1-.431,4.158" transform="translate(-191.352 -331.632)" fill="#fff" stroke="#263238" stroke-width="1"/>
          <path id="Path_1019" data-name="Path 1019" d="M193.449,348.9c-1,1.1-.854,3.731-.147,5.177" transform="translate(-177.303 -323.836)" fill="none" stroke="#263238" stroke-width="1"/>
          <path id="Path_1020" data-name="Path 1020" d="M208.955,352.85a5.154,5.154,0,0,1-1.225,3.364" transform="translate(-185.417 -325.973)" fill="none" stroke="#263238" stroke-width="1"/>
          <path id="Path_1021" data-name="Path 1021" d="M178.35,350a4.69,4.69,0,0,0,.684,3.213" transform="translate(-169.492 -324.431)" fill="none" stroke="#263238" stroke-width="1"/>
          <path id="Path_1022" data-name="Path 1022" d="M169.124,357.51a3.915,3.915,0,0,0,.707,2.451" transform="translate(-164.525 -328.494)" fill="none" stroke="#263238" stroke-width="1"/>
          <path id="Path_1023" data-name="Path 1023" d="M181.85,310.831a1.455,1.455,0,0,1,1.606.257l.564-.748" transform="translate(-171.414 -302.972)" fill="none" stroke="#263238" stroke-width="1"/>
          <path id="Path_1024" data-name="Path 1024" d="M192.11,318.437a1.909,1.909,0,0,1,2.428.408" transform="translate(-176.965 -307.209)" fill="none" stroke="#263238" stroke-width="1"/>
          <path id="Path_1025" data-name="Path 1025" d="M208.13,323.439a3.075,3.075,0,0,1,2.611.055" transform="translate(-185.633 -309.916)" fill="none" stroke="#263238" stroke-width="1"/>
          <path id="Path_1026" data-name="Path 1026" d="M172.48,330.715a2.483,2.483,0,0,1,2.4-1.193" transform="translate(-166.344 -313.343)" fill="none" stroke="#263238" stroke-width="1"/>
          <path id="Path_1027" data-name="Path 1027" d="M165.77,340.261a1.3,1.3,0,0,1,1.088-1.221" transform="translate(-162.714 -318.501)" fill="none" stroke="#263238" stroke-width="1"/>
        </g>
        <g id="freepik--Coffee--inject-2" transform="translate(158.601 112.994)">
          <ellipse id="Ellipse_6" data-name="Ellipse 6" cx="19.023" cy="19.023" rx="19.023" ry="19.023" transform="translate(0 0)" fill="#00359f" stroke="#263238" stroke-linecap="round" stroke-linejoin="round" stroke-width="1"/>
          <path id="Path_1028" data-name="Path 1028" d="M434.933,209.058c-4.057,6.65-5.507,5.75-19.33,12.391-7.026,3.369-13.814-7.449-9.22-18.55.225-.542,2.207-3.281,2.207-3.281a10.133,10.133,0,0,1,17.706-4.185,10.941,10.941,0,0,1,9.72-2.322c.161.459.312.918.459,1.377.055.174.115.344.165.519.174.537.34,1.074.491,1.615q.459,1.542.844,3.1a6.218,6.218,0,0,0-4.516.271c-1.014.5-1.863,1.313-2.919,1.716s-2.515.174-2.919-.881c.509,2.12,2.754,1.487,4.874,1.9C435.8,203.372,436.64,206.259,434.933,209.058Z" transform="translate(-394.377 -189.535)" opacity="0.2"/>
          <path id="Path_1029" data-name="Path 1029" d="M451.026,221.992a25.474,25.474,0,0,1,5.021-.216,3.1,3.1,0,0,1,1.978,1.12,1.089,1.089,0,0,1,.234.61l.184,2.662a1.088,1.088,0,0,1-.294.821c-.665.693-2.671,1.955-8.61,2.409C441.172,230.037,451.026,221.992,451.026,221.992Z" transform="translate(-416.716 -205.75)" fill="#fff" stroke="#263238" stroke-linecap="round" stroke-linejoin="round" stroke-width="1"/>
          <path id="Path_1030" data-name="Path 1030" d="M419.764,202.118a12.708,12.708,0,0,1,2.79,8.1c0,3.171-3.671,14-13.075,15.324-9.954,1.377-17.958-7.123-16.251-17.375C394.412,201.067,411.774,192.186,419.764,202.118Z" transform="translate(-387.946 -192.755)" fill="#fff" stroke="#263238" stroke-linecap="round" stroke-linejoin="round" stroke-width="1"/>
          <ellipse id="Ellipse_7" data-name="Ellipse 7" cx="14.443" cy="13.672" rx="14.443" ry="13.672" transform="translate(5.214 3.066)" fill="#fff"/>
          <ellipse id="Ellipse_8" data-name="Ellipse 8" cx="11.859" cy="11.221" rx="11.859" ry="11.221" transform="translate(7.77 6.232)" fill="#263238"/>
          <path id="Path_1031" data-name="Path 1031" d="M422.235,207.3c0-7.549-6.466-13.667-14.443-13.667S393.35,199.766,393.35,207.3" transform="translate(-388.137 -190.56)" fill="none" stroke="#263238" stroke-linecap="round" stroke-linejoin="round" stroke-width="1"/>
          <path id="Path_1032" data-name="Path 1032" d="M448,232.662a13.213,13.213,0,0,0,3.809-9.252" transform="translate(-417.706 -206.673)" fill="none" stroke="#263238" stroke-linecap="round" stroke-linejoin="round" stroke-width="1"/>
          <path id="Path_1033" data-name="Path 1033" d="M402.78,244.67a14.815,14.815,0,0,0,10.1,3.915,15.076,15.076,0,0,0,6.705-1.556" transform="translate(-393.239 -218.176)" fill="none" stroke="#263238" stroke-linecap="round" stroke-linejoin="round" stroke-width="1"/>
          <path id="Path_1034" data-name="Path 1034" d="M398.24,239.36c.188.285.39.56.6.826" transform="translate(-390.782 -215.303)" fill="none" stroke="#263238" stroke-linecap="round" stroke-linejoin="round" stroke-width="1"/>
          <path id="Path_1035" data-name="Path 1035" d="M393.35,223.41a13.028,13.028,0,0,0,1.377,5.833" transform="translate(-388.137 -206.673)" fill="none" stroke="#263238" stroke-linecap="round" stroke-linejoin="round" stroke-width="1"/>
          <path id="Path_1036" data-name="Path 1036" d="M463.036,230.563s-2.575-1.8-6.756-.17" transform="translate(-422.186 -210.08)" fill="#fff" stroke="#263238" stroke-linecap="round" stroke-linejoin="round" stroke-width="1"/>
          <path id="Path_1037" data-name="Path 1037" d="M459.882,234.29a26.207,26.207,0,0,1-5.342.84" transform="translate(-421.244 -212.559)" fill="#fff" stroke="#263238" stroke-linecap="round" stroke-linejoin="round" stroke-width="1"/>
          <path id="Path_1038" data-name="Path 1038" d="M468.333,233.05a2.5,2.5,0,0,1-.643.335" transform="translate(-428.359 -211.889)" fill="#fff" stroke="#263238" stroke-linecap="round" stroke-linejoin="round" stroke-width="1"/>
        </g>
        <g id="freepik--Monitor--inject-2" transform="translate(24.264)">
          <path id="Path_1040" data-name="Path 1040" d="M259.512,79.662a58.285,58.285,0,0,1-9.133,6.425c-16.71,9.885-35.586,15.806-54.788,18.692s-38.752,2.8-58.1,1.207c-3.8-.312-7.664-.7-11.157-2.23a13.076,13.076,0,0,1-6.884-6.5c4.19-4.773,8.086-9.6,12.423-14.158q1.551-1.629,3.176-3.213c.918-.877,1.836-1.739,2.818-2.584,1.111-.95,2.226-1.918,3.405-2.836,1.629-1.267,3.346-2.483,5.181-3.644.459-.289.918-.569,1.345-.844,45.76-28.454,79.442-19.156,101.911,0q2.556,2.194,4.92,4.488c.955.918,1.877,1.877,2.754,2.841.1.1.193.207.289.317Q258.622,78.643,259.512,79.662Z" transform="translate(-107.362 -51.953)" opacity="0.2"/>
          <path id="Path_1041" data-name="Path 1041" d="M247.069,95.935l-153.959.7,2.327-3.493a6.044,6.044,0,0,1,5.021-2.685H239.772a6.03,6.03,0,0,1,4.7,2.253Z" transform="translate(-93.11 -72.788)" fill="#fff" stroke="#263238" stroke-linecap="round" stroke-linejoin="round" stroke-width="1"/>
          <rect id="Rectangle_118" data-name="Rectangle 118" width="39.78" height="39.78" rx="19.89" transform="translate(55.554 46.222)" fill="#757575" stroke="#263238" stroke-linecap="round" stroke-linejoin="round" stroke-width="1"/>
          <path id="Path_1042" data-name="Path 1042" d="M229.91,203.34v5.654a3.213,3.213,0,0,0,3.213,3.213h19.4a3.213,3.213,0,0,0,3.213-3.19c.023-2.547.161-5.677.161-5.677Z" transform="translate(-167.128 -133.863)" fill="#999" stroke="#263238" stroke-linecap="round" stroke-linejoin="round" stroke-width="1"/>
          <path id="Path_1043" data-name="Path 1043" d="M226.9,149.442H113.442a2.905,2.905,0,0,1-2.708-1.836l-17.5-44.925A1.79,1.79,0,0,1,94.9,100.24H245.427a1.79,1.79,0,0,1,1.671,2.442l-17.5,44.911A2.905,2.905,0,0,1,226.9,149.442Z" transform="translate(-93.111 -78.08)" fill="#bfbfbf" stroke="#263238" stroke-linecap="round" stroke-linejoin="round" stroke-width="1"/>
          <path id="Path_1044" data-name="Path 1044" d="M231.667,148.887H116.259L100.38,106.44H247.473Z" transform="translate(-97.044 -81.434)" fill="#263238"/>
          <rect id="Rectangle_119" data-name="Rectangle 119" width="25.728" height="1.762" transform="translate(62.906 71.303)" fill="#263238"/>
          <path id="Path_1045" data-name="Path 1045" d="M238.814,150.135h-81.5c-.459,0-.872-.2-.955-.459L144.77,112.828c-.129-.413.234-.748.812-.748H250.549c.578,0,.918.335.808.748l-11.588,36.848A1.063,1.063,0,0,1,238.814,150.135Z" transform="translate(-121.047 -84.486)" fill="#a7b0ff"/>
          <path id="Path_1046" data-name="Path 1046" d="M242.075,154.979H161.183L151.33,122.62h100.6Z" transform="translate(-124.611 -90.189)" fill="#263238"/>
          <path id="Path_1047" data-name="Path 1047" d="M179.375,140.13H164.06c-.381,0-.629.2-.555.459a.831.831,0,0,0,.808.459H179.54c.376,0,.642-.2.6-.459S179.751,140.13,179.375,140.13Z" transform="translate(-131.191 -99.663)" fill="#fff"/>
          <path id="Path_1048" data-name="Path 1048" d="M183.192,146.22H170.167c-.372,0-.62.2-.551.459a.812.812,0,0,0,.785.436h12.951c.372,0,.633-.2.592-.436S183.554,146.22,183.192,146.22Z" transform="translate(-134.499 -102.958)" fill="#fff"/>
          <path id="Path_1049" data-name="Path 1049" d="M182.217,152.1H167.439c-.367,0-.606.193-.542.422a.808.808,0,0,0,.78.422h14.686c.363,0,.624-.188.583-.422S182.584,152.1,182.217,152.1Z" transform="translate(-133.028 -106.139)" fill="#fff" opacity="0.5"/>
          <path id="Path_1050" data-name="Path 1050" d="M190.44,157.78h-8.678c-.358,0-.606.184-.551.408s.39.408.748.408h8.633c.358,0,.615-.184.574-.408S190.8,157.78,190.44,157.78Z" transform="translate(-140.774 -109.212)" fill="#fff"/>
          <path id="Path_1051" data-name="Path 1051" d="M184.873,163.26H170.591c-.349,0-.587.179-.523.4a.771.771,0,0,0,.748.39h14.2c.353,0,.606-.174.569-.39S185.226,163.26,184.873,163.26Z" transform="translate(-134.743 -112.178)" fill="#fff"/>
          <path id="Path_1052" data-name="Path 1052" d="M189.087,168.57H177.558c-.349,0-.583.17-.528.381s.381.381.725.381h11.473c.344,0,.592-.17.555-.381S189.436,168.57,189.087,168.57Z" transform="translate(-138.512 -115.051)" fill="#fff"/>
          <path id="Path_1053" data-name="Path 1053" d="M190.259,173.7h-11.34c-.344,0-.574.165-.519.367s.372.372.711.372H190.4c.34,0,.583-.165.546-.372S190.6,173.7,190.259,173.7Z" transform="translate(-139.253 -117.826)" fill="#fff"/>
          <path id="Path_1054" data-name="Path 1054" d="M189.941,178.66H177.55c-.335,0-.564.161-.509.358s.367.358.7.358h12.313c.335,0,.578-.161.542-.358S190.281,178.66,189.941,178.66Z" transform="translate(-138.517 -120.51)" fill="#fff"/>
          <path id="Path_1055" data-name="Path 1055" d="M196.012,183.47h-7.995c-.33,0-.56.156-.514.349s.353.344.679.344h7.953c.33,0,.569-.156.537-.344S196.342,183.47,196.012,183.47Z" transform="translate(-144.18 -123.112)" fill="#fff" opacity="0.5"/>
          <path id="Path_1056" data-name="Path 1056" d="M182.794,133.805H171.381c-.385,0-.643.211-.574.459a.826.826,0,0,0,.812.459h11.345c.386,0,.656-.207.61-.459A.762.762,0,0,0,182.794,133.805Z" transform="translate(-135.143 -96.238)" fill="#fff" opacity="0.5"/>
          <path id="Path_1057" data-name="Path 1057" d="M176.311,127.256H160.423c-.39,0-.647.22-.569.491a.881.881,0,0,0,.844.486H176.49c.39,0,.67-.22.62-.486A.776.776,0,0,0,176.311,127.256Z" transform="translate(-129.215 -92.695)" fill="#fff"/>
          <path id="Path_1058" data-name="Path 1058" d="M190.784,188.13H177.617c-.326,0-.546.151-.5.335s.358.335.684.335h13.1c.321,0,.56-.147.528-.335S191.11,188.13,190.784,188.13Z" transform="translate(-138.562 -125.634)" fill="#fff"/>
          <path id="Path_1059" data-name="Path 1059" d="M209.62,141.014h2.969l-.147-1.134H209.45Z" transform="translate(-156.058 -99.527)" fill="#fff" opacity="0.5"/>
          <path id="Path_1060" data-name="Path 1060" d="M210.525,147.077h2.919l-.142-1.1H210.36Z" transform="translate(-156.55 -102.828)" fill="#fff" opacity="0.5"/>
          <path id="Path_1061" data-name="Path 1061" d="M211.406,152.926h2.868l-.138-1.056H211.25Z" transform="translate(-157.031 -106.015)" fill="#fff" opacity="0.5"/>
          <path id="Path_1062" data-name="Path 1062" d="M212.251,158.579h2.822l-.138-1.019H212.1Z" transform="translate(-157.491 -109.093)" fill="#fff" opacity="0.5"/>
          <path id="Path_1063" data-name="Path 1063" d="M213.077,164.037h2.772l-.133-.987H212.93Z" transform="translate(-157.94 -112.064)" fill="#fff" opacity="0.5"/>
          <path id="Path_1064" data-name="Path 1064" d="M213.862,169.315h2.726l-.124-.955H213.72Z" transform="translate(-158.368 -114.937)" fill="#fff" opacity="0.5"/>
          <path id="Path_1065" data-name="Path 1065" d="M214.638,174.422h2.68l-.119-.922h-2.7Z" transform="translate(-158.79 -117.718)" fill="#fff" opacity="0.5"/>
          <path id="Path_1066" data-name="Path 1066" d="M215.373,179.36h2.639l-.115-.89H215.24Z" transform="translate(-159.19 -120.407)" fill="#fff" opacity="0.5"/>
          <path id="Path_1067" data-name="Path 1067" d="M216.093,184.147h2.6l-.115-.867H215.96Z" transform="translate(-159.58 -123.01)" fill="#fff" opacity="0.5"/>
          <path id="Path_1068" data-name="Path 1068" d="M208.674,134.735H211.7l-.151-1.175H208.5Z" transform="translate(-155.544 -96.108)" fill="#fff" opacity="0.5"/>
          <path id="Path_1069" data-name="Path 1069" d="M207.694,128.211h3.079l-.156-1.221H207.51Z" transform="translate(-155.008 -92.553)" fill="#fff" opacity="0.5"/>
          <path id="Path_1070" data-name="Path 1070" d="M216.789,188.79h2.556l-.11-.84H216.66Z" transform="translate(-159.959 -125.536)" fill="#fff" opacity="0.5"/>
          <path id="Path_1071" data-name="Path 1071" d="M251.05,179.018c0-.2.257-.358.592-.358h43.975c.335,0,.56.161.5.358a.743.743,0,0,1-.707.358h-43.75C251.33,179.376,251.055,179.215,251.05,179.018Z" transform="translate(-178.566 -120.51)" fill="#fff"/>
          <path id="Path_1072" data-name="Path 1072" d="M319.743,174.439H295.392c-.34,0-.6-.165-.574-.372s.317-.367.661-.367h24.475c.34,0,.569.165.509.367a.748.748,0,0,1-.72.372Z" transform="translate(-202.247 -117.826)" fill="#fff"/>
          <path id="Path_1073" data-name="Path 1073" d="M273.844,174.439H266.28c-.34,0-.615-.165-.61-.372s.28-.367.624-.367h7.6c.34,0,.606.165.587.367S274.183,174.439,273.844,174.439Z" transform="translate(-186.476 -117.826)" fill="#fff" opacity="0.5"/>
          <path id="Path_1074" data-name="Path 1074" d="M276.663,169.332H242.316c-.344,0-.633-.17-.647-.381s.257-.381.606-.381h34.53c.344,0,.6.17.555.381S277.012,169.332,276.663,169.332Z" transform="translate(-173.49 -115.051)" fill="#fff"/>
          <path id="Path_1075" data-name="Path 1075" d="M226.741,168.57h2.451c.344,0,.642.17.661.381s-.248.381-.592.381h-2.437c-.344,0-.643-.17-.665-.381S226.4,168.57,226.741,168.57Z" transform="translate(-165.097 -115.051)" fill="#fff" opacity="0.5"/>
          <path id="Path_1076" data-name="Path 1076" d="M288.987,163.659c-.046.216-.367.39-.721.39H255.9c-.353,0-.638-.174-.643-.39s.28-.4.629-.4h32.543C288.785,163.26,289.033,163.439,288.987,163.659Z" transform="translate(-180.844 -112.178)" fill="#fff"/>
          <path id="Path_1077" data-name="Path 1077" d="M226.164,163.26h9.179c.353,0,.647.179.656.4s-.271.39-.62.39h-9.133c-.349,0-.652-.174-.679-.39S225.811,163.26,226.164,163.26Z" transform="translate(-164.777 -112.178)" fill="#fff"/>
          <path id="Path_1078" data-name="Path 1078" d="M225.57,157.78h35.31c.358,0,.624.184.592.408s-.344.408-.7.408H225.657c-.353,0-.665-.184-.688-.408S225.212,157.78,225.57,157.78Z" transform="translate(-164.453 -109.212)" fill="#fff"/>
          <path id="Path_1079" data-name="Path 1079" d="M275.478,152.944c-.363,0-.647-.188-.638-.422s.312-.422.679-.422h18.628c.367,0,.629.193.587.422s-.367.422-.73.422Z" transform="translate(-191.438 -106.139)" fill="#fff"/>
          <path id="Path_1080" data-name="Path 1080" d="M224.953,152.1h16.122c.367,0,.661.193.661.422s-.3.422-.661.422H225.045c-.367,0-.679-.188-.707-.422S224.586,152.1,224.953,152.1Z" transform="translate(-164.112 -106.139)" fill="#fff"/>
          <path id="Path_1081" data-name="Path 1081" d="M303.814,147.075H259.43c-.367,0-.67-.2-.67-.436s.3-.459.67-.459h44.631c.372,0,.615.2.546.459a.831.831,0,0,1-.794.436Z" transform="translate(-182.737 -102.936)" fill="#fff"/>
          <path id="Path_1082" data-name="Path 1082" d="M311.826,141.028H272.775c-.376,0-.675-.2-.665-.459s.321-.459.7-.459h39.28c.376,0,.624.2.551.459a.84.84,0,0,1-.812.459Z" transform="translate(-189.96 -99.652)" fill="#fff"/>
          <path id="Path_1083" data-name="Path 1083" d="M350.106,134.774h-8.178c-.385,0-.647-.207-.587-.459a.812.812,0,0,1,.808-.459h8.21c.386,0,.638.211.56.459a.854.854,0,0,1-.812.459Z" transform="translate(-227.414 -96.266)" fill="#fff" opacity="0.5"/>
          <path id="Path_1084" data-name="Path 1084" d="M293.946,134.778H263.918c-.381,0-.693-.207-.688-.459s.312-.459.7-.459h30.207c.385,0,.652.211.6.459A.785.785,0,0,1,293.946,134.778Z" transform="translate(-185.156 -96.27)" fill="#fff"/>
          <path id="Path_1085" data-name="Path 1085" d="M228.349,183.47h27.733c.33,0,.583.156.56.349s-.3.344-.629.344H228.436c-.33,0-.615-.156-.638-.344S228.028,183.47,228.349,183.47Z" transform="translate(-165.984 -123.112)" fill="#fff"/>
          <path id="Path_1086" data-name="Path 1086" d="M228.87,188.13h42.607c.321,0,.555.151.514.335s-.33.335-.656.335H228.943c-.326,0-.606-.147-.624-.335S228.544,188.13,228.87,188.13Z" transform="translate(-166.266 -125.634)" fill="#fff"/>
          <path id="Path_1087" data-name="Path 1087" d="M300.538,128.238H278.849c-.39,0-.693-.22-.679-.486s.34-.491.734-.491h21.818c.395,0,.67.22.62.491A.8.8,0,0,1,300.538,128.238Z" transform="translate(-193.239 -92.699)" fill="#fff"/>
          <path id="Path_1088" data-name="Path 1088" d="M242.084,128.238H222.35c-.39,0-.734-.22-.762-.486s.262-.491.656-.491h19.849c.39,0,.707.22.7.491S242.474,128.238,242.084,128.238Z" transform="translate(-162.624 -92.699)" fill="#fff" opacity="0.5"/>
          <path id="Path_1089" data-name="Path 1089" d="M299.575,183.47c.33,0,.578.156.551.349s-.317.344-.647.344h-2.129c-.326,0-.574-.156-.551-.344s.307-.349.638-.349Z" transform="translate(-203.318 -123.112)" fill="#fff" opacity="0.5"/>
          <path id="Path_1090" data-name="Path 1090" d="M240.659,179.018c0,.2-.252.358-.587.358h-2.919c-.335,0-.62-.161-.633-.358s.243-.358.578-.358h2.933C240.365,178.66,240.65,178.816,240.659,179.018Z" transform="translate(-170.704 -120.51)" fill="#fff" opacity="0.5"/>
          <path id="Path_1091" data-name="Path 1091" d="M316.725,158.188c-.041.225-.367.408-.721.408H312.59c-.358,0-.615-.184-.583-.408s.358-.408.716-.408h3.433C316.514,157.78,316.771,157.964,316.725,158.188Z" transform="translate(-211.546 -109.212)" fill="#fff" opacity="0.5"/>
          <path id="Path_1092" data-name="Path 1092" d="M341.4,163.256c.353,0,.592.179.532.4a.762.762,0,0,1-.739.39h-2.721c-.353,0-.592-.174-.542-.39a.743.743,0,0,1,.734-.4Z" transform="translate(-225.571 -112.173)" fill="#fff" opacity="0.5"/>
          <path id="Path_1093" data-name="Path 1093" d="M247.7,147.075c-.367,0-.675-.2-.688-.436s.285-.459.656-.459h2.9c.372,0,.675.2.679.459s-.294.436-.661.436Z" transform="translate(-176.379 -102.936)" fill="#fff" opacity="0.5"/>
          <path id="Path_1094" data-name="Path 1094" d="M159.2,115.714a.978.978,0,0,1-.964,1.377,2.038,2.038,0,0,1-1.808-1.377.978.978,0,0,1,.955-1.377A2.029,2.029,0,0,1,159.2,115.714Z" transform="translate(-127.323 -85.706)" fill="#fff"/>
          <path id="Path_1095" data-name="Path 1095" d="M167.362,115.765a1.01,1.01,0,0,1-1.01,1.377,1.96,1.96,0,0,1-1.762-1.377,1.014,1.014,0,0,1,1-1.377A1.946,1.946,0,0,1,167.362,115.765Z" transform="translate(-131.749 -85.734)" fill="#fff"/>
          <path id="Path_1096" data-name="Path 1096" d="M175.608,115.715a1.042,1.042,0,0,1-1.051,1.377,1.877,1.877,0,0,1-1.721-1.377,1.046,1.046,0,0,1,1.046-1.377A1.863,1.863,0,0,1,175.608,115.715Z" transform="translate(-136.218 -85.707)" fill="#fff"/>
          <path id="Path_1097" data-name="Path 1097" d="M100.38,106.44,112.748,139.5l14.92-33.057Z" transform="translate(-97.044 -81.434)" fill="#fff" opacity="0.1"/>
          <path id="Path_1098" data-name="Path 1098" d="M145.85,148.887,170.6,106.44h25.907l-36.426,42.447Z" transform="translate(-121.646 -81.434)" fill="#fff" opacity="0.1"/>
          <path id="Path_1099" data-name="Path 1099" d="M235.078,105.98,196.5,148.638h5.943L242.4,106.191Z" transform="translate(-149.051 -81.185)" fill="#fff" opacity="0.1"/>
          <path id="Path_1100" data-name="Path 1100" d="M297.16,148.887l42.4-42.447h5.984l-43.714,42.447Z" transform="translate(-203.514 -81.434)" fill="#fff" opacity="0.1"/>
        </g>
        <g id="freepik--speech-bubbles--inject-2" transform="translate(30.749 78.986)">
          <path id="Path_1101" data-name="Path 1101" d="M157.784,239.07H148.1a2.3,2.3,0,0,0-2.295,2.295v4.709a2.3,2.3,0,0,0,2.295,2.295h2.529l1.918,4.346,2.7-4.346h2.529a2.3,2.3,0,0,0,2.295-2.295v-4.741a2.3,2.3,0,0,0-2.295-2.263Z" transform="translate(-128.109 -232.181)" fill="#fff" stroke="#263238" stroke-linecap="round" stroke-linejoin="round" stroke-width="1"/>
          <path id="Path_1102" data-name="Path 1102" d="M158.42,244.4a.46.46,0,1,1,.459.427A.459.459,0,0,1,158.42,244.4Zm.1.959h.739v3.148h-.739Z" transform="translate(-134.932 -234.816)" fill="#263238"/>
          <path id="Path_1103" data-name="Path 1103" d="M162.665,245.365v.188h.863v.592h-.84v2.533h-.739v-2.533h-.519v-.592h.519v-.2a1.019,1.019,0,0,1,1.124-1.092,1.211,1.211,0,0,1,.67.17l-.207.555a.73.73,0,0,0-.408-.128C162.825,244.86,162.665,245.03,162.665,245.365Z" transform="translate(-136.56 -234.988)" fill="#263238"/>
          <path id="Path_1104" data-name="Path 1104" d="M221.987,240.5h-9.693A2.3,2.3,0,0,0,210,242.795v4.713a2.3,2.3,0,0,0,2.295,2.295h2.533l1.914,4.346,2.7-4.346h2.533a2.3,2.3,0,0,0,2.295-2.295v-4.732A2.3,2.3,0,0,0,221.987,240.5Z" transform="translate(-162.84 -232.955)" fill="#fff" stroke="#263238" stroke-linecap="round" stroke-linejoin="round" stroke-width="1"/>
          <path id="Path_1105" data-name="Path 1105" d="M215.677,250.239H213.2a.955.955,0,0,0,1.023.757,1.129,1.129,0,0,0,.854-.344l.395.459a1.767,1.767,0,0,1-3.006-1.1,1.565,1.565,0,0,1,1.625-1.611,1.533,1.533,0,0,1,1.592,1.629C215.686,250.083,215.682,250.17,215.677,250.239Zm-2.478-.486h1.808a.854.854,0,0,0-.89-.766A.867.867,0,0,0,213.2,249.752Z" transform="translate(-164.175 -237.228)" fill="#263238"/>
          <path id="Path_1106" data-name="Path 1106" d="M221,245.8h.734v4.374H221Z" transform="translate(-168.792 -235.823)" fill="#263238"/>
          <path id="Path_1107" data-name="Path 1107" d="M224,251.263l.28-.56a2.12,2.12,0,0,0,1.1.312c.459,0,.661-.128.661-.349,0-.6-1.946-.037-1.946-1.29,0-.6.537-.987,1.377-.987a2.529,2.529,0,0,1,1.179.271l-.285.56a1.735,1.735,0,0,0-.918-.234c-.459,0-.661.147-.661.353,0,.638,1.946.069,1.946,1.3,0,.587-.542.973-1.427.973A2.478,2.478,0,0,1,224,251.263Z" transform="translate(-170.415 -237.224)" fill="#263238"/>
          <path id="Path_1108" data-name="Path 1108" d="M233.987,250.239h-2.474a.955.955,0,0,0,1.023.757,1.129,1.129,0,0,0,.854-.344l.395.459a1.767,1.767,0,0,1-3.006-1.1A1.565,1.565,0,0,1,232.4,248.4,1.533,1.533,0,0,1,234,250.028C234,250.083,233.992,250.17,233.987,250.239Zm-2.478-.486h1.785a.854.854,0,0,0-.89-.766A.867.867,0,0,0,231.509,249.752Z" transform="translate(-174.082 -237.228)" fill="#263238"/>
          <path id="Path_1109" data-name="Path 1109" d="M284.258,239.9h-9.684a2.3,2.3,0,0,0-2.295,2.272v4.713a2.3,2.3,0,0,0,2.295,2.295h2.533l1.914,4.346,2.7-4.346h2.533a2.3,2.3,0,0,0,2.295-2.295v-4.713a2.3,2.3,0,0,0-2.295-2.272Z" transform="translate(-196.537 -232.63)" fill="#fff" stroke="#263238" stroke-linecap="round" stroke-linejoin="round" stroke-width="1"/>
          <path id="Path_1110" data-name="Path 1110" d="M280.665,246.2v.188h.863v.592h-.844v2.533h-.734v-2.533h-.519v-.592h.519v-.2a1.019,1.019,0,0,1,1.12-1.092,1.166,1.166,0,0,1,.665.17l-.207.555a.707.707,0,0,0-.4-.129C280.825,245.69,280.665,245.86,280.665,246.2Z" transform="translate(-200.406 -235.438)" fill="#263238"/>
          <path id="Path_1111" data-name="Path 1111" d="M284.419,249.234a1.68,1.68,0,1,1,1.675,1.615,1.588,1.588,0,0,1-1.675-1.615Zm2.611,0a.918.918,0,1,0-.243.694A.918.918,0,0,0,287.03,249.234Z" transform="translate(-203.104 -236.737)" fill="#263238"/>
          <path id="Path_1112" data-name="Path 1112" d="M295.077,247.774v.7a1.19,1.19,0,0,0-.17,0,.858.858,0,0,0-.918.973v1.528h-.739v-3.148h.7v.459a1.244,1.244,0,0,1,1.124-.514Z" transform="translate(-207.884 -236.888)" fill="#263238"/>
          <path id="Path_1113" data-name="Path 1113" d="M345.618,239.07h-9.684a2.3,2.3,0,0,0-2.295,2.295v4.709a2.3,2.3,0,0,0,2.295,2.295h2.533l1.914,4.346,2.7-4.346h2.533a2.3,2.3,0,0,0,2.295-2.295v-4.741A2.3,2.3,0,0,0,345.618,239.07Z" transform="translate(-229.737 -232.181)" fill="#fff" stroke="#263238" stroke-linecap="round" stroke-linejoin="round" stroke-width="1"/>
          <path id="Path_1114" data-name="Path 1114" d="M346.45,246.69h2.717v.6H346.45Zm0,1.427h2.717v.592H346.45Z" transform="translate(-236.668 -236.304)" fill="#263238"/>
          <path id="Path_1115" data-name="Path 1115" d="M189.96,227.19h-9.665A2.3,2.3,0,0,0,178,229.485v4.709a2.3,2.3,0,0,0,2.295,2.295h2.533l1.914,4.346,2.7-4.346h2.533a2.3,2.3,0,0,0,2.295-2.295v-4.727a2.3,2.3,0,0,0-2.313-2.276Z" transform="translate(-145.526 -225.753)" fill="#fff" stroke="#263238" stroke-linecap="round" stroke-linejoin="round" stroke-width="1"/>
          <path id="Path_1116" data-name="Path 1116" d="M188.55,231.45h1.409v.592h-.675v4.337h.675v.592H188.55Z" transform="translate(-151.234 -228.058)" fill="#263238"/>
          <path id="Path_1117" data-name="Path 1117" d="M195.6,236.971v-.592h.665v-4.337H195.6v-.592H197v5.507Z" transform="translate(-155.049 -228.058)" fill="#263238"/>
          <path id="Path_1118" data-name="Path 1118" d="M252.658,226.14h-9.684a2.3,2.3,0,0,0-2.295,2.295v4.709a2.3,2.3,0,0,0,2.295,2.295h2.533l1.918,4.346,2.7-4.346h2.529a2.3,2.3,0,0,0,2.295-2.295v-4.727A2.3,2.3,0,0,0,252.658,226.14Z" transform="translate(-179.44 -225.185)" fill="#fff" stroke="#263238" stroke-linecap="round" stroke-linejoin="round" stroke-width="1"/>
          <path id="Path_1119" data-name="Path 1119" d="M250.966,233.128c.234.073.349.234.349.6v1.12a.395.395,0,0,0,.459.459h.124v.592h-.3a.877.877,0,0,1-1-.964v-1.212c0-.2-.1-.285-.266-.285h-.193v-.6h.193c.165,0,.266-.087.266-.285v-1.212a.877.877,0,0,1,1-.964h.3v.592h-.124a.395.395,0,0,0-.459.459v1.12C251.315,232.889,251.2,233.05,250.966,233.128Z" transform="translate(-184.558 -227.474)" fill="#263238"/>
          <path id="Path_1120" data-name="Path 1120" d="M259.657,232.775v.587h-.2c-.161,0-.262.087-.262.285v1.212a.877.877,0,0,1-1.005.964h-.3v-.578h.124a.4.4,0,0,0,.459-.459v-1.12c0-.367.106-.528.34-.6-.234-.078-.34-.239-.34-.606v-1.12a.4.4,0,0,0-.459-.459h-.124v-.592h.3a.877.877,0,0,1,1.005.964v1.212c0,.2.1.285.262.285Z" transform="translate(-188.751 -227.424)" fill="#263238"/>
          <path id="Path_1121" data-name="Path 1121" d="M314.718,224.06h-9.684a2.3,2.3,0,0,0-2.295,2.295v4.709a2.3,2.3,0,0,0,2.295,2.295h2.529l1.918,4.346,2.7-4.346h2.533a2.3,2.3,0,0,0,2.295-2.295v-4.736A2.3,2.3,0,0,0,314.718,224.06Z" transform="translate(-213.018 -224.06)" fill="#fff" stroke="#263238" stroke-linecap="round" stroke-linejoin="round" stroke-width="1"/>
          <path id="Path_1122" data-name="Path 1122" d="M317.447,231.031a.486.486,0,1,1,.227.46A.487.487,0,0,1,317.447,231.031Zm.968,2.244a1.378,1.378,0,0,1-.138.509l-.3.831h-.459l.239-.918a.459.459,0,0,1-.28-.436.48.48,0,1,1,.959,0Z" transform="translate(-220.975 -227.543)" fill="#263238"/>
          <path id="Path_1123" data-name="Path 1123" d="M243.655,387.436h9.679a2.3,2.3,0,0,0,2.295-2.295v-4.69a2.3,2.3,0,0,0-2.295-2.295H250.8l-.739-4.346-3.883,4.346h-2.529a2.3,2.3,0,0,0-2.295,2.295v4.709A2.3,2.3,0,0,0,243.655,387.436Z" transform="translate(-179.808 -305.085)" fill="#fff" stroke="#263238" stroke-linecap="round" stroke-linejoin="round" stroke-width="1"/>
          <path id="Path_1124" data-name="Path 1124" d="M250.567,390.6l-2.033.78,2.033.757v.62L247.85,391.7v-.638l2.717-1.056Z" transform="translate(-183.319 -313.85)" fill="#263238"/>
          <path id="Path_1125" data-name="Path 1125" d="M256.156,386.63h.656l-1.946,5.558h-.656Z" transform="translate(-186.76 -312.021)" fill="#263238"/>
          <path id="Path_1126" data-name="Path 1126" d="M262.907,391.037v.638l-2.717,1.056v-.615l2.033-.757-2.033-.762V390Z" transform="translate(-189.996 -313.844)" fill="#263238"/>
          <path id="Path_1127" data-name="Path 1127" d="M109.535,312.686h9.679a2.3,2.3,0,0,0,2.295-2.272V305.7a2.3,2.3,0,0,0-2.295-2.295h-2.529l.551-4.346-5.172,4.346h-2.529a2.3,2.3,0,0,0-2.295,2.295v4.713A2.3,2.3,0,0,0,109.535,312.686Z" transform="translate(-107.24 -264.64)" fill="#fff" stroke="#263238" stroke-linecap="round" stroke-linejoin="round" stroke-width="1"/>
          <path id="Path_1128" data-name="Path 1128" d="M118.49,317.873a.459.459,0,1,1,.459.459A.459.459,0,0,1,118.49,317.873Zm.041-3.713h.872l-.147,2.754h-.583Z" transform="translate(-113.327 -272.81)" fill="#263238"/>
          <path id="Path_1129" data-name="Path 1129" d="M122.14,316.46h2.717v.592H122.14Zm0,1.427h2.717v.592H122.14Z" transform="translate(-115.302 -274.054)" fill="#263238"/>
        </g>
      </g>
    </g>
  </g>
</svg>
