<svg xmlns="http://www.w3.org/2000/svg" width="24.305" height="24.305" viewBox="0 0 24.305 24.305">
  <g id="grid-2" transform="translate(-4.25 -2.179)">
    <path id="Path_15435" data-name="Path 15435" d="M35.114,28H29.423A1.423,1.423,0,0,0,28,29.423v5.691a1.423,1.423,0,0,0,1.423,1.423h5.691a1.423,1.423,0,0,0,1.423-1.423V29.423A1.423,1.423,0,0,0,35.114,28Z" transform="translate(-9.91 -10.803)" fill="none" stroke="#263238" stroke-linecap="round" stroke-linejoin="round" stroke-width="1.5"/>
    <path id="Path_15436" data-name="Path 15436" d="M12.114,28H6.423A1.423,1.423,0,0,0,5,29.423v5.691a1.423,1.423,0,0,0,1.423,1.423h5.691a1.423,1.423,0,0,0,1.423-1.423V29.423A1.423,1.423,0,0,0,12.114,28Z" transform="translate(0 -10.803)" fill="none" stroke="#263238" stroke-linecap="round" stroke-linejoin="round" stroke-width="1.5"/>
    <path id="Path_15437" data-name="Path 15437" d="M12.114,5H6.423A1.423,1.423,0,0,0,5,6.423v5.691a1.423,1.423,0,0,0,1.423,1.423h5.691a1.423,1.423,0,0,0,1.423-1.423V6.423A1.423,1.423,0,0,0,12.114,5Z" transform="translate(0 -0.892)" fill="none" stroke="#263238" stroke-linecap="round" stroke-linejoin="round" stroke-width="1.5"/>
    <path id="Path_15438" data-name="Path 15438" d="M36.406,7.37,32.382,3.346a1.423,1.423,0,0,0-2.012,0L26.346,7.37a1.423,1.423,0,0,0,0,2.012l4.024,4.024a1.423,1.423,0,0,0,2.012,0l4.024-4.024A1.423,1.423,0,0,0,36.406,7.37Z" transform="translate(-9.018)" fill="none" stroke="#263238" stroke-linecap="round" stroke-linejoin="round" stroke-width="1.5"/>
  </g>
</svg>
