<svg xmlns="http://www.w3.org/2000/svg" width="33.267" height="38.824" viewBox="0 0 33.267 38.824">
  <g id="Group_180" data-name="Group 180" transform="translate(0)">
    <g id="freepik--character-boy--inject-37" transform="translate(0)">
      <circle id="Ellipse_9" data-name="Ellipse 9" cx="10.452" cy="10.452" r="10.452" transform="matrix(-0.987, -0.16, 0.16, -0.987, 20.634, 25.166)" fill="#263238"/>
      <path id="Path_1383" data-name="Path 1383" d="M184.7,144.665l2.178-16.745a3.905,3.905,0,0,1,3.252,1.14c1.394,1.452-1.234,10.83-1.546,12.187h0a58.363,58.363,0,0,1-1.953,7.338,3.586,3.586,0,0,1-2.083,1.677Z" transform="translate(-158.976 -118.72)" fill="#263238"/>
      <path id="Path_1384" data-name="Path 1384" d="M204.968,137.857c.639.385,1.553-.849,2.344-1.669s3.361-1.953,4.645.726-1.132,6.4-3.165,7.041c-3.491,1.1-4.014-1.147-4.014-1.147l-.261,12.876c0-.032-11.384.035-11.381,0v-4.449a22.37,22.37,0,0,1-4.711.247c-2.569-.4-4.188-2.432-4.972-5.212-1.248-4.471-1.727-8.079-.661-16.861,1.161-9.632,12.339-9.734,18.415-5.93S204.968,137.857,204.968,137.857Z" transform="translate(-179.051 -116.869)" fill="#ffc8c7"/>
      <path id="Path_1385" data-name="Path 1385" d="M213.261,137.317c.319,0,1.546-2.018,2.344-2.744,1.1-1.009-.327-10.1-.327-10.1a4.3,4.3,0,0,0-1.06-4.6c-1.517-1.662-4.043-1.851-8.354-2.526-1.386-.218-2.7-.094-4.1-.218l-5.611-.479a22.276,22.276,0,0,1-6.845-1.314.682.682,0,0,0-.392-.08c-.232.058-.319.334-.356.573a9.168,9.168,0,0,0,.726,4.478c1.452,3.876,4.616,5.168,8.478,5.64a61.179,61.179,0,0,0,11.345-.218c1.183-.16,1.452.987,2.076,4.13C211.715,132.621,212.18,137.3,213.261,137.317Z" transform="translate(-187.344 -115.256)" fill="#263238"/>
      <path id="Path_1386" data-name="Path 1386" d="M184.459,127.689l3.869-2.076a2.134,2.134,0,0,0-2.9-.973A2.308,2.308,0,0,0,184.459,127.689Z" transform="translate(-156.524 -117.763)" fill="#263238"/>
      <path id="Path_1387" data-name="Path 1387" d="M194.12,160.775s5.734-1.154,7.745-2.221a6.612,6.612,0,0,0,2.773-2.744,9.058,9.058,0,0,1-1.575,3.237c-1.452,1.873-8.942,3.259-8.942,3.259Z" transform="translate(-180.019 -126.374)" fill="#ffb1b0"/>
      <path id="Path_1388" data-name="Path 1388" d="M206.072,142.768a1.147,1.147,0,1,0,1.147-1.2,1.183,1.183,0,0,0-1.147,1.2Z" transform="translate(-192.421 -122.47)" fill="#263238"/>
      <path id="Path_1389" data-name="Path 1389" d="M203.747,136.131l2.671.878a1.452,1.452,0,0,0-.929-1.815,1.365,1.365,0,0,0-1.742.936Z" transform="translate(-188.855 -120.703)" fill="#263238"/>
      <path id="Path_1390" data-name="Path 1390" d="M211.807,153.88l-2.628.987a1.379,1.379,0,0,0,1.786.864A1.452,1.452,0,0,0,211.807,153.88Z" transform="translate(-198.207 -125.845)" fill="#ffb1b0"/>
      <path id="Path_1391" data-name="Path 1391" d="M219.09,136.258l2.657-1.038a1.35,1.35,0,0,0-1.793-.827,1.452,1.452,0,0,0-.864,1.865Z" transform="translate(-215.187 -120.475)" fill="#263238"/>
      <path id="Path_1392" data-name="Path 1392" d="M219.021,142.448a1.154,1.154,0,1,0,1.154-1.2,1.169,1.169,0,0,0-1.154,1.2Z" transform="translate(-214.785 -122.382)" fill="#263238"/>
      <path id="Path_1393" data-name="Path 1393" d="M217.182,142.03l-.377,6.917-3.615-1.234Z" transform="translate(-206.406 -122.596)" fill="#ffb1b0"/>
    </g>
    <rect id="Rectangle_6125" data-name="Rectangle 6125" width="7.346" height="0.581" transform="matrix(-1, -0.027, 0.027, -1, 26.038, 20.445)" fill="#263238" stroke="#263238" stroke-width="0.5"/>
    <path id="Path_1397" data-name="Path 1397" d="M209.3,141.688a3.578,3.578,0,0,0-3.535-3.23h-.211a3.571,3.571,0,0,0-3.7,3.034,3.455,3.455,0,0,0,3.339,3.862h.53a3.462,3.462,0,0,0,3.578-3.666Zm-3.368-2.642a2.9,2.9,0,0,1,2.722,3.52,2.947,2.947,0,0,1-2.983,2.221h-.319a2.94,2.94,0,0,1-2.86-2.366,2.9,2.9,0,0,1,2.9-3.375Z" transform="translate(-190.289 -121.616)" fill="#5583ff" stroke="#5583ff" stroke-width="0.5"/>
    <path id="Path_1398" data-name="Path 1398" d="M222.934,141.309a3.578,3.578,0,0,0-3.535-3.23h-.174a3.586,3.586,0,0,0-3.7,3.041,3.47,3.47,0,0,0,3.339,3.861h.537a3.462,3.462,0,0,0,3.535-3.673Zm-3.368-2.642a2.9,2.9,0,0,1,2.722,3.52,2.947,2.947,0,0,1-2.983,2.178h-.356a2.871,2.871,0,1,1,.044-5.741Z" transform="translate(-213.842 -121.512)" fill="#5583ff" stroke="#5583ff" stroke-width="0.5"/>
    <path id="Path_1399" data-name="Path 1399" d="M214.561,141.175a2.555,2.555,0,0,0-1.5-.6,1.815,1.815,0,0,0-1.6.559l-.457-.37a2.388,2.388,0,0,1,2.1-.769,3.107,3.107,0,0,1,1.836.726C215.106,140.891,214.678,141.291,214.561,141.175Z" transform="translate(-202.61 -122.031)" fill="#263238" stroke="#263238" stroke-width="0.5"/>
  </g>
</svg>
