<svg width="350" height="470" viewBox="0 0 350 470" fill="none" xmlns="http://www.w3.org/2000/svg">
<mask id="mask0_3_588" style="mask-type:alpha" maskUnits="userSpaceOnUse" x="0" y="0" width="350" height="470">
<rect width="350" height="470" fill="white"/>
</mask>
<g mask="url(#mask0_3_588)">
<path d="M94.44 432.648C94.44 432.648 62.529 435.966 50.934 412.688C39.339 389.411 59.634 361.119 37.882 351.139C16.13 341.159 -9.97301 374.441 -53.479 346.15C-96.985 317.86 -73.796 281.283 -62.179 253.017C-50.562 224.751 -44.779 211.429 -72.338 193.14C-99.897 174.851 -130.353 121.612 -111.493 70.0681C-92.633 18.5244 -44.188 47.2084 -19.542 20.6129C3.92098 -4.70601 356.167 -7.65429 408.374 20.6129C460.581 48.88 427.974 104.971 401.874 123.283C363.894 149.953 408.683 201.672 415.883 233.332C426.433 279.612 395.245 347.671 355.306 345.6C291.506 342.257 274.25 299.596 261.198 321.202C248.146 342.808 288.759 347.823 282.951 382.75C277.143 417.678 265.551 430.976 239.445 430.976C213.339 430.976 197.397 404.38 169.836 417.679C142.275 430.977 107.492 440.955 94.44 432.648Z" fill="#484848" stroke="#2F2F2F" stroke-linecap="round" stroke-linejoin="round"/>
<path d="M429.214 328.2C425.301 325.66 421.016 323.746 416.514 322.53C410.582 320.821 404.614 324.587 407.671 328.06C411.477 332.388 413.79 338.026 409.471 344.151C400.006 357.624 390.471 351.166 390.471 351.166C390.471 351.166 378.226 331.857 370.297 344.151C373.271 318.781 319.511 309.328 319.511 309.328C319.511 309.328 322.224 273.471 307.852 244.034C293.48 214.598 287.161 240.682 276.752 228.762C266.343 216.841 265.874 166.052 270.414 151.325C274.954 136.598 250.887 123.428 253.201 115.56C255.515 107.692 258.872 116.431 260.949 111.551C263.026 106.672 247.759 104.599 247.759 104.599C247.759 104.599 232.107 103.863 218.973 121.145C205.839 138.427 262.354 138.459 241.597 146.358C220.84 154.258 89.389 150.167 69.738 165.133C50.087 180.1 82.785 194.462 69.738 210.758C56.691 227.055 42.546 230.327 35.112 252.841C27.678 275.355 35.112 309.329 35.112 309.329C35.112 309.329 -16.665 320.353 -17.871 335.3C-18.1853 340.03 -17.7403 344.78 -16.553 349.368C-16.553 349.704 -14.725 367.927 -22.001 374.009C-29.277 380.091 -34.001 384.18 -39.413 379.982C-44.825 375.785 -46.701 369.649 -46.513 357.496C-46.325 345.343 -46.339 340.182 -56.463 335.749C-66.587 331.317 -89.795 328.964 -83.463 337.675C-77.131 346.387 -71.585 348.098 -67.419 351.505C-63.253 354.912 -50.591 365.108 -64.446 383.146C-78.301 401.185 -79.122 418.749 -64.135 438.995C-49.148 459.241 -46.287 451.764 -32.535 457.391C-31.7737 457.645 -30.9633 457.714 -30.1701 457.594C-29.3769 457.473 -28.6233 457.167 -27.971 456.699C-28.671 457.478 -29.389 458.235 -30.148 458.96H374.764C392.873 451.818 399.203 430.371 399.203 430.371L401.939 396.608C401.939 396.608 421.316 374.597 432.386 362.196C443.456 349.794 441.925 336.814 429.214 328.2Z" fill="#121212"/>
<path d="M170.876 45.5042C170.813 44.1588 169.832 43.1408 168.844 43.3552C168.285 43.6148 167.819 44.0394 167.508 44.5721C167.198 45.1048 167.057 45.72 167.105 46.3352C167.185 47.6831 168.163 48.6846 169.177 48.4387C169.72 48.1741 170.172 47.7532 170.475 47.2299C170.777 46.7066 170.917 46.1047 170.877 45.5012L170.876 45.5042Z" fill="#C8C8C8"/>
<path d="M202.668 68.9647C202.653 68.4244 202.265 68.0209 201.862 68.1041C201.63 68.2066 201.437 68.3808 201.311 68.601C201.185 68.8213 201.133 69.0761 201.162 69.3283C201.19 69.8704 201.582 70.2745 201.987 70.1755C202.21 70.0669 202.394 69.8929 202.516 69.6766C202.638 69.4603 202.691 69.212 202.668 68.9647Z" fill="#C8C8C8"/>
<path d="M165.23 36.6148C165.203 36.0727 164.811 35.6686 164.408 35.7517C164.178 35.8559 163.986 36.0304 163.86 36.2502C163.735 36.47 163.681 36.724 163.708 36.9759C163.736 37.5181 164.128 37.9222 164.533 37.8232C164.756 37.7136 164.941 37.5402 165.065 37.3251C165.189 37.11 165.247 36.8628 165.23 36.6148Z" fill="#C8C8C8"/>
<path d="M195.582 52.5353C195.554 51.9932 195.165 51.5732 194.76 51.6722C194.532 51.7848 194.344 51.9632 194.219 52.1842C194.093 52.4053 194.037 52.6589 194.057 52.9122C194.103 53.4411 194.495 53.8442 194.901 53.7462C195.126 53.6409 195.313 53.4674 195.434 53.2501C195.556 53.0327 195.607 52.7825 195.579 52.5348L195.582 52.5353Z" fill="#C8C8C8"/>
<path d="M155.059 24.2869C155.064 24.2466 155.06 24.2056 155.047 24.1669C155.034 24.1283 155.013 24.0929 154.985 24.0635C154.957 24.0341 154.923 24.0113 154.885 23.9968C154.847 23.9823 154.806 23.9765 154.766 23.9797C154.684 24.0156 154.615 24.077 154.571 24.1549C154.526 24.2328 154.508 24.323 154.518 24.4122C154.513 24.4526 154.517 24.4936 154.53 24.5322C154.543 24.5709 154.564 24.6062 154.592 24.6356C154.62 24.6651 154.654 24.6879 154.692 24.7023C154.73 24.7168 154.771 24.7227 154.811 24.7194C154.89 24.6798 154.956 24.6176 155 24.5407C155.044 24.4637 155.064 24.3754 155.059 24.2869Z" fill="#C8C8C8"/>
<path d="M73.8823 111.793C73.8546 111.251 73.4654 110.831 73.0599 110.93C72.8291 111.039 72.6369 111.216 72.5091 111.437C72.3813 111.658 72.324 111.914 72.3449 112.168C72.3909 112.697 72.7828 113.1 73.1881 113.002C73.416 112.9 73.6059 112.728 73.7305 112.51C73.8552 112.293 73.9083 112.042 73.8823 111.793Z" fill="#C8C8C8"/>
<path d="M50.0865 149.127C50.0227 147.782 49.0451 146.748 48.056 146.965C47.5016 147.23 47.0394 147.656 46.7294 148.187C46.4194 148.719 46.2759 149.331 46.3174 149.945C46.3995 151.277 47.394 152.281 48.392 152.033C48.9315 151.773 49.3811 151.358 49.683 150.84C49.985 150.322 50.1255 149.725 50.0865 149.127Z" fill="#C8C8C8"/>
<path d="M37.3733 192.494C37.3456 191.952 36.9538 191.548 36.5509 191.631C36.3204 191.735 36.1287 191.91 36.0031 192.13C35.8774 192.349 35.8243 192.603 35.8512 192.855C35.8789 193.398 36.2864 193.804 36.6761 193.703C36.9015 193.597 37.0892 193.424 37.2138 193.208C37.3385 192.992 37.3941 192.743 37.3733 192.494Z" fill="#C8C8C8"/>
<path d="M22.7193 143.594C22.6916 143.052 22.3023 142.632 21.8994 142.715C21.6689 142.819 21.4772 142.994 21.3516 143.214C21.2259 143.433 21.1727 143.687 21.1997 143.939C21.2274 144.481 21.6191 144.886 22.0246 144.787C22.2468 144.681 22.432 144.511 22.556 144.298C22.68 144.085 22.7369 143.84 22.7193 143.594Z" fill="#C8C8C8"/>
<path d="M128.744 31.9793C128.68 30.6339 127.702 29.6 126.713 29.8175C126.159 30.0824 125.697 30.5082 125.387 31.0395C125.077 31.5709 124.933 32.1833 124.975 32.7974C125.057 34.1295 126.051 35.1335 127.049 34.8851C127.589 34.6253 128.038 34.2099 128.34 33.692C128.642 33.1742 128.783 32.5777 128.744 31.9793Z" fill="#C8C8C8"/>
<path d="M110.209 76.0175C110.182 75.4754 109.79 75.0713 109.387 75.1544C109.156 75.2586 108.965 75.4331 108.839 75.6529C108.713 75.8727 108.66 76.1267 108.687 76.3786C108.715 76.9208 109.122 77.3274 109.512 77.2259C109.737 77.1199 109.925 76.9473 110.05 76.7313C110.174 76.5153 110.23 76.2662 110.209 76.0175Z" fill="#C8C8C8"/>
<path d="M74.6498 22.2042C74.622 21.662 74.2328 21.2421 73.8299 21.3252C73.5994 21.4294 73.4077 21.6039 73.282 21.8237C73.1564 22.0435 73.1032 22.2975 73.1301 22.5494C73.1579 23.0916 73.5496 23.4957 73.9551 23.3967C74.1773 23.2912 74.3625 23.1209 74.4865 22.9081C74.6105 22.6953 74.6674 22.45 74.6498 22.2042Z" fill="#C8C8C8"/>
<path d="M52.8168 44.2424C52.753 42.897 51.7753 41.8632 50.7862 42.0806C50.2318 42.3456 49.7697 42.7713 49.4597 43.3027C49.1497 43.834 49.0061 44.4465 49.0476 45.0606C49.1297 46.3926 50.1242 47.3967 51.1223 47.1482C51.6617 46.8885 52.1113 46.473 52.4133 45.9552C52.7153 45.4374 52.8558 44.8409 52.8168 44.2424Z" fill="#C8C8C8"/>
<path d="M38.0166 83.0758C37.9889 82.5337 37.5971 82.1296 37.1942 82.2128C36.9637 82.3169 36.772 82.4914 36.6464 82.7112C36.5207 82.9311 36.4676 83.185 36.4945 83.4369C36.5222 83.9791 36.9297 84.3857 37.3194 84.2842C37.5448 84.1783 37.7325 84.0057 37.8571 83.7896C37.9818 83.5736 38.0374 83.3245 38.0166 83.0758Z" fill="#C8C8C8"/>
<path d="M12.339 36.6285C12.3112 36.0864 11.922 35.6664 11.5191 35.7496C11.2886 35.8538 11.0969 36.0282 10.9712 36.2481C10.8456 36.4679 10.7924 36.7219 10.8193 36.9738C10.8471 37.5159 11.2388 37.92 11.6442 37.821C11.8665 37.7156 12.0517 37.5453 12.1757 37.3325C12.2996 37.1197 12.3566 36.8743 12.339 36.6285Z" fill="#C8C8C8"/>
<path d="M282.296 114.076C273.656 107.391 247.466 90.4354 232.786 89.8842C223.757 89.6365 214.827 91.8202 206.926 96.2077C206.926 96.2077 177.076 98.3422 174.626 95.0953C172.176 91.8484 170.166 77.3476 166.896 73.0484C163.626 68.7493 145.666 62.4058 142.716 62.025C139.766 61.6442 138.126 50.3301 136.396 46.993C134.666 43.6559 122.396 55.5712 121.396 60.8224C120.396 66.0736 118.206 76.0047 123.396 85.9358C128.586 95.867 150.456 94.6845 148.586 98.8533C146.716 103.022 102.246 123.796 98.426 131.002C94.606 138.207 100.736 160.064 100.736 160.064C93.2803 164.459 86.3286 169.661 80.006 175.577C69.096 185.598 76.306 188.524 77.006 193.054C78.566 203.205 86.886 210.892 89.296 213.577C91.706 216.263 109.196 220.352 109.196 220.352C105.092 228.913 100.09 237.012 94.276 244.513C89.406 250.907 80.426 267.903 90.746 287.184C101.066 306.465 144.306 342.842 150.356 345.228C156.406 347.613 190.671 346.237 206.641 344.964C222.611 343.691 250.156 310.935 253.406 305.453C272.286 273.806 269.476 266.139 269.476 266.139C269.476 266.139 260.706 223.759 257.476 216.804C252.126 205.39 248.476 190.328 247.306 176.058C246.136 161.787 250.576 157.709 260.106 152.598C270.246 147.186 285.406 150.132 289.606 141.574C294.946 130.791 291.346 121.071 282.296 114.076ZM214.226 143.448C214.226 143.448 218.226 136.854 214.566 133.427C210.906 130 204.406 131.984 198.816 129.418C193.226 126.853 194.876 120.399 194.876 120.399L197.586 113.725C197.586 113.725 199.336 122.804 206.636 123.957C208.236 124.217 220.736 128.096 220.856 135.581C220.976 143.067 214.226 143.448 214.226 143.448Z" fill="#7298FF"/>
<path opacity="0.1" d="M201.965 172.468L221.879 185.367L240.661 201.615C240.661 201.615 241.472 185.046 240.761 175.016C240.761 175.016 233.894 178.915 231.961 174.393C223.726 155.241 240.036 163.945 240.036 163.945C246.073 157.58 227.536 144.042 227.536 144.042C227.536 144.042 223.763 151.258 210.179 154.295C204.104 155.66 199.085 144.334 193.454 137.159C187.823 129.984 186.304 119.946 186.304 119.946C186.304 119.946 164.419 130.463 160.834 121.984C157.249 113.504 165.72 113.046 167.768 110.531C169.816 108.017 172.268 106.145 170.468 101.603C168.668 97.0615 162.921 91.7302 162.921 91.7302L166.326 100.083C163.496 100.902 140.526 113.952 137.96 118.27C135.02 123.792 133.202 129.845 132.611 136.077C132.29 141.379 136.677 153.075 139.563 152.84L152.77 151.749C152.77 151.749 155.883 160.891 153.893 166.369C151.903 171.847 136.573 180.453 135.97 182.256C135.367 184.059 129.706 218.522 130.65 221.378C131.594 224.234 141.366 233.074 138.659 235.685C135.952 238.297 107.529 255.276 105.067 270.773C102.605 286.27 119.217 303.658 144.687 309.194C170.157 314.73 196.487 317.264 201.674 309.194C206.861 301.124 201.495 297.498 208.617 295.714C215.739 293.93 220.248 295.929 221.38 291.728C222.512 287.527 220.569 281.221 220.569 281.221C220.569 281.221 229.408 282.849 231.069 285.646C232.73 288.443 230.994 281.416 238.342 273.18C245.69 264.945 234.059 201.895 231.942 193.259C229.825 184.624 238.611 242.163 224.226 234.547C209.841 226.931 201.586 232.88 198.756 243.094C195.926 253.308 200.011 268.825 199.699 274.137C199.387 279.45 182.247 301.997 163.767 278.854C145.287 255.712 156.701 259.829 163.767 248.095C170.833 236.361 181.379 227.227 185.36 212.228C189.341 197.228 194.378 171.02 201.944 172.491" fill="white"/>
<path d="M131.526 263.544C131.526 263.544 144.116 267.472 156.696 248.111C158.836 244.814 147.236 235.083 149.316 230.273C152.526 222.897 172.766 223.549 175.446 211.834C176.116 208.918 176.966 201.993 178.256 199.357C186.646 182.191 202.626 171.207 202.626 171.207C193.884 167.642 184.107 167.588 175.326 171.057C159.836 177.19 142.106 206.242 141.536 206.673C140.676 207.314 128.046 250.566 128.046 250.566L131.526 263.544Z" fill="#7298FF"/>
<g opacity="0.1">
<path d="M131.526 263.544C131.526 263.544 144.116 267.472 156.696 248.111C158.836 244.814 147.236 235.083 149.316 230.273C152.526 222.897 172.766 223.549 175.446 211.834C176.116 208.918 176.966 201.993 178.256 199.357C186.646 182.191 202.626 171.207 202.626 171.207C193.884 167.642 184.107 167.588 175.326 171.057C159.836 177.19 142.106 206.242 141.536 206.673C140.676 207.314 128.046 250.566 128.046 250.566L131.526 263.544Z" fill="white"/>
</g>
<path opacity="0.1" d="M95.366 169.834C95.366 169.834 85.626 174.194 88.916 184.385C92.346 195.018 97.166 201.091 99.916 203.867C102.666 206.643 115.756 201.311 115.656 203.025L118.276 222.366L123.746 196.942C123.746 196.942 120.336 182.411 109.296 182.07C104.916 181.94 95.866 187.081 95.606 178.453L95.366 169.834Z" fill="white"/>
<path opacity="0.1" d="M246.746 145.873C246.746 145.873 253.156 142.456 248.376 136.363C243.596 130.27 228.106 121.772 228.106 121.772L226.716 101.88C226.716 101.88 236.646 115.368 242.186 117.323C247.726 119.277 263.256 125.069 263.266 128.546C263.286 141.183 246.746 145.873 246.746 145.873Z" fill="white"/>
<path opacity="0.3" d="M172.266 168.491C173.586 165.194 169.456 146.134 168.336 144.981C167.216 143.829 156.646 140.863 155.336 139.219C154.026 137.576 150.096 130.992 150.096 130.992V140.211C150.096 140.211 156.656 150.744 158.316 151.405C159.976 152.067 157.966 164.242 158.316 165.555C158.666 166.868 154.376 182.02 152.406 185.107C150.436 188.193 140.246 191.571 137.946 194.186C135.646 196.802 141.096 222.025 141.096 222.025L142.206 214.71C142.743 211.208 144.01 207.859 145.924 204.881C147.838 201.903 150.357 199.361 153.316 197.423C154.796 196.421 156.386 195.419 158.066 194.206C163.966 190.067 155.066 209.529 155.066 209.529L177.296 190.909C181.984 183.929 185.014 175.965 186.156 167.63C186.646 164.062 186.826 161.897 187.216 161.396C188.006 160.394 171.006 171.789 172.266 168.491Z" fill="white"/>
<path opacity="0.3" d="M250.576 134.68C250.576 134.68 250.576 131.833 248.576 130.942C246.576 130.05 238.146 120.58 238.146 120.58C238.146 120.58 243.386 121.051 246.516 123.586C254.116 129.619 250.576 134.68 250.576 134.68Z" fill="white"/>
<path opacity="0.1" d="M155.006 86.3668C155.006 86.3668 135.866 82.2079 134.926 79.2717C133.986 76.3354 130.076 66.7851 130.076 65.803C130.076 64.8209 132.766 61.8847 132.766 61.8847C132.766 61.8847 131.546 65.0614 132.526 65.803C133.506 66.5446 148.896 74.1307 149.626 77.067C150.356 80.0032 155.006 86.3668 155.006 86.3668Z" fill="white"/>
<path opacity="0.8" d="M171.736 86.968C170.326 81.7169 168.836 75.5738 166.896 73.0083C163.626 68.6791 145.666 62.3657 142.716 61.9849C139.766 61.6041 138.126 50.29 136.396 46.9529C136.311 46.778 136.176 46.6317 136.009 46.532C135.842 46.4324 135.65 46.3836 135.456 46.3917C135.456 46.6322 136.386 58.5676 140.176 61.8045C143.966 65.0414 160.936 70.2124 164.456 72.5073C166.466 73.9002 169.506 81.0655 171.736 86.968Z" fill="white"/>
<path opacity="0.8" d="M98.548 130.88C100.357 127.847 107.284 123.531 107.284 123.531C107.284 123.531 131.996 107.455 121.136 117.085C114.977 122.56 106.917 125.993 103.031 130.054C96.538 136.837 97.625 143.469 98.151 146.375C97.141 145.567 95.07 136.703 98.548 130.88Z" fill="white"/>
<path opacity="0.8" d="M263.505 265.799C263.505 265.799 257.265 235.634 253.355 222.025C253.355 222.025 259.455 249.033 259.415 252.139C259.375 255.246 262.615 263.534 259.145 273.465C255.411 283.023 250.822 292.223 245.435 300.953C242.505 305.403 233.785 317.368 227.535 325.886C237.335 317.609 245.665 308.078 247.435 305.112C266.315 273.515 263.505 265.799 263.505 265.799Z" fill="white"/>
<path opacity="0.3" d="M111.056 311.937L96.646 291.313L92.406 280.46C89.6789 273.476 88.8507 265.892 90.006 258.483L90.616 250.366C86.326 258.693 82.746 272.252 90.736 287.184C94.386 294.039 102.216 303.048 111.056 311.937Z" fill="black"/>
<path opacity="0.3" d="M101.226 208.537C101.166 208.617 101.226 208.837 101.416 209.178C101.386 208.717 101.336 208.386 101.226 208.537Z" fill="black"/>
<path opacity="0.3" d="M109.166 220.352C109.166 220.352 102.656 211.683 101.416 209.178C101.486 210.802 101.226 214.76 101.226 214.76C101.226 214.76 97.796 217.265 84.376 202.344C76.686 193.795 75.716 185.307 76.286 179.555C71.046 186.52 76.386 189.186 76.976 193.054C78.536 203.205 86.856 210.892 89.266 213.577C91.676 216.263 109.166 220.352 109.166 220.352Z" fill="black"/>
<path d="M191.776 226.605C191.076 227.888 186.186 226.475 180.226 226.284C174.266 226.094 169.226 226.966 168.676 225.623C168.416 224.992 169.436 223.829 171.556 222.807C174.351 221.579 177.389 221.009 180.438 221.139C183.487 221.269 186.466 222.097 189.146 223.559C191.166 224.751 192.086 225.984 191.776 226.605Z" fill="#7298FF"/>
<path d="M330.426 190.485C331.766 190.586 332.894 189.735 332.802 188.725C332.613 188.138 332.249 187.623 331.759 187.249C331.269 186.875 330.677 186.66 330.062 186.633C328.717 186.548 327.606 187.399 327.726 188.438C327.922 189.01 328.284 189.51 328.765 189.875C329.247 190.24 329.826 190.453 330.428 190.486L330.426 190.485Z" fill="#C8C8C8"/>
<path d="M303.315 219.249C303.852 219.299 304.299 218.962 304.266 218.551C304.192 218.308 304.043 218.095 303.841 217.943C303.638 217.791 303.392 217.708 303.138 217.706C302.598 217.667 302.15 218.008 302.199 218.423C302.279 218.658 302.429 218.863 302.628 219.01C302.828 219.158 303.067 219.241 303.315 219.249Z" fill="#C8C8C8"/>
<path d="M339.918 185.953C340.458 185.991 340.906 185.651 340.873 185.24C340.798 184.998 340.648 184.786 340.446 184.634C340.244 184.483 339.999 184.399 339.746 184.395C339.205 184.356 338.757 184.697 338.806 185.112C338.888 185.347 339.037 185.552 339.235 185.702C339.433 185.851 339.67 185.939 339.918 185.953Z" fill="#C8C8C8"/>
<path d="M320.451 214.202C320.991 214.241 321.455 213.905 321.406 213.489C321.322 213.249 321.168 213.04 320.965 212.889C320.761 212.737 320.517 212.651 320.263 212.64C319.734 212.621 319.287 212.962 319.335 213.377C319.411 213.614 319.56 213.821 319.761 213.968C319.961 214.116 320.203 214.197 320.452 214.199L320.451 214.202Z" fill="#C8C8C8"/>
<path d="M247.576 40.0234C248.916 40.1239 250.059 39.2774 249.964 38.2671C249.769 37.6834 249.404 37.1718 248.916 36.7987C248.427 36.4256 247.838 36.2082 247.225 36.1746C245.895 36.0939 244.78 36.9608 244.904 37.9838C245.096 38.552 245.452 39.0499 245.929 39.4133C246.405 39.7768 246.978 39.9892 247.576 40.0234Z" fill="#C8C8C8"/>
<path d="M236.824 34.8927C237.365 34.9312 237.813 34.5908 237.78 34.1798C237.704 33.9379 237.555 33.726 237.353 33.5742C237.15 33.4224 236.905 33.3386 236.652 33.3347C236.112 33.2962 235.66 33.652 235.713 34.0519C235.79 34.2891 235.938 34.4968 236.137 34.6471C236.336 34.7974 236.576 34.8831 236.824 34.8927Z" fill="#C8C8C8"/>
<path d="M276.591 85.9303C277.131 85.9688 277.595 85.6328 277.546 85.2175C277.466 84.9746 277.315 84.7619 277.111 84.6078C276.908 84.4538 276.662 84.3657 276.407 84.3554C275.878 84.3367 275.431 84.6774 275.478 85.0924C275.552 85.3317 275.7 85.5415 275.899 85.6919C276.099 85.8424 276.341 85.9258 276.591 85.9303Z" fill="#C8C8C8"/>
<path d="M251.33 31.1648C251.87 31.2033 252.333 30.8673 252.3 30.4564C252.225 30.2145 252.076 30.0025 251.873 29.8508C251.671 29.699 251.426 29.6152 251.173 29.6112C250.633 29.5727 250.185 29.9131 250.233 30.3285C250.311 30.5624 250.457 30.7674 250.652 30.9166C250.848 31.0659 251.084 31.1524 251.33 31.1648Z" fill="#C8C8C8"/>
<path d="M348.806 117.926C349.91 117.159 350.267 115.781 349.559 115.055C349.041 114.724 348.436 114.557 347.822 114.575C347.208 114.594 346.614 114.796 346.116 115.157C345.032 115.932 344.71 117.31 345.449 118.026C345.954 118.347 346.544 118.509 347.143 118.491C347.741 118.473 348.32 118.277 348.806 117.926Z" fill="#C8C8C8"/>
<path d="M305.681 119.549C306.125 119.238 306.26 118.691 305.976 118.392C305.765 118.252 305.516 118.181 305.264 118.191C305.011 118.201 304.768 118.29 304.569 118.446C304.125 118.757 303.997 119.319 304.289 119.597C304.498 119.732 304.744 119.8 304.993 119.791C305.241 119.783 305.482 119.698 305.681 119.549Z" fill="#C8C8C8"/>
<path d="M321.054 49.4014C321.498 49.0906 321.647 48.5372 321.363 48.2388C321.153 48.0982 320.904 48.0277 320.651 48.0374C320.398 48.0471 320.155 48.1366 319.956 48.2929C319.512 48.6038 319.378 49.1508 319.676 49.4429C319.883 49.5759 320.126 49.6431 320.371 49.6357C320.617 49.6283 320.855 49.5466 321.054 49.4014Z" fill="#C8C8C8"/>
<path d="M339.426 45.6796C339.362 44.3342 338.384 43.3003 337.395 43.5176C336.841 43.7825 336.379 44.2082 336.069 44.7395C335.758 45.2709 335.615 45.8833 335.656 46.4974C335.738 47.8294 336.733 48.8336 337.731 48.5852C338.27 48.3256 338.72 47.9101 339.022 47.3923C339.324 46.8745 339.464 46.2781 339.426 45.6796Z" fill="#C8C8C8"/>
<path d="M324.82 72.3298C324.792 71.7876 324.401 71.3835 323.998 71.4666C323.767 71.5708 323.575 71.7452 323.45 71.965C323.324 72.1848 323.271 72.4388 323.298 72.6907C323.325 73.2329 323.733 73.6395 324.123 73.5381C324.348 73.4321 324.536 73.2596 324.66 73.0435C324.785 72.8275 324.841 72.5784 324.82 72.3298Z" fill="#C8C8C8"/>
<path d="M290.856 36.7799C290.829 36.2378 290.44 35.8178 290.037 35.9009C289.806 36.0051 289.614 36.1795 289.489 36.3993C289.363 36.6192 289.31 36.8732 289.337 37.1251C289.364 37.6672 289.756 38.0713 290.162 37.9724C290.384 37.8669 290.569 37.6967 290.693 37.4839C290.817 37.2711 290.874 37.0257 290.856 36.7799Z" fill="#C8C8C8"/>
<g clip-path="url(#clip0_3_588)">
<path d="M94.44 432.648C94.44 432.648 62.529 435.966 50.934 412.688C39.339 389.411 59.634 361.119 37.882 351.139C16.13 341.159 -9.97301 374.441 -53.479 346.15C-96.985 317.86 -73.796 281.283 -62.179 253.017C-50.562 224.751 -44.779 211.429 -72.338 193.14C-99.897 174.851 -130.353 121.612 -111.493 70.0681C-92.633 18.5244 -44.188 47.2084 -19.542 20.6129C3.92098 -4.70601 356.167 -7.65429 408.374 20.6129C460.581 48.88 427.974 104.971 401.874 123.283C363.894 149.953 408.683 201.672 415.883 233.332C426.433 279.612 395.245 347.671 355.306 345.6C291.506 342.257 274.25 299.596 261.198 321.202C248.146 342.808 288.759 347.823 282.951 382.75C277.143 417.678 265.551 430.976 239.445 430.976C213.339 430.976 197.397 404.38 169.836 417.679C142.275 430.977 107.492 440.955 94.44 432.648Z" fill="#263238" stroke="#263238" stroke-linecap="round" stroke-linejoin="round"/>
<path d="M429.214 328.2C425.301 325.66 421.016 323.746 416.514 322.53C410.582 320.821 404.614 324.587 407.671 328.06C411.477 332.388 413.79 338.026 409.471 344.151C400.006 357.624 390.471 351.166 390.471 351.166C390.471 351.166 378.226 331.857 370.297 344.151C373.271 318.781 319.511 309.328 319.511 309.328C319.511 309.328 322.224 273.471 307.852 244.034C293.48 214.598 287.161 240.682 276.752 228.762C266.343 216.841 265.874 166.052 270.414 151.325C274.954 136.598 250.887 123.428 253.201 115.56C255.515 107.692 258.872 116.431 260.949 111.551C263.026 106.672 247.759 104.599 247.759 104.599C247.759 104.599 232.107 103.863 218.973 121.145C205.839 138.427 262.354 138.459 241.597 146.358C220.84 154.258 89.389 150.167 69.738 165.133C50.087 180.1 82.785 194.462 69.738 210.758C56.691 227.055 42.546 230.327 35.112 252.841C27.678 275.355 35.112 309.329 35.112 309.329C35.112 309.329 -16.665 320.353 -17.871 335.3C-18.1853 340.03 -17.7403 344.78 -16.553 349.368C-16.553 349.704 -14.725 367.927 -22.001 374.009C-29.277 380.091 -34.001 384.18 -39.413 379.982C-44.825 375.785 -46.701 369.649 -46.513 357.496C-46.325 345.343 -46.339 340.182 -56.463 335.749C-66.587 331.317 -89.795 328.964 -83.463 337.675C-77.131 346.387 -71.585 348.098 -67.419 351.505C-63.253 354.912 -50.591 365.108 -64.446 383.146C-78.301 401.185 -79.122 418.749 -64.135 438.995C-49.148 459.241 -46.287 451.764 -32.535 457.391C-31.7737 457.645 -30.9633 457.714 -30.1701 457.594C-29.3769 457.473 -28.6233 457.167 -27.971 456.699C-28.671 457.478 -29.389 458.235 -30.148 458.96H374.764C392.873 451.818 399.203 430.371 399.203 430.371L401.939 396.608C401.939 396.608 421.316 374.597 432.386 362.196C443.456 349.794 441.925 336.814 429.214 328.2Z" fill="white"/>
<path d="M170.876 45.5057C170.813 44.1608 169.833 43.1424 168.844 43.3561C168.285 43.6151 167.819 44.0393 167.509 44.5715C167.198 45.1038 167.057 45.7187 167.105 46.3337C167.185 47.6811 168.163 48.683 169.177 48.4379C169.72 48.1738 170.171 47.7534 170.474 47.2305C170.777 46.7076 170.917 46.106 170.877 45.5027L170.876 45.5057Z" fill="#C8C8C8"/>
<path d="M202.668 68.9653C202.653 68.4252 202.265 68.0216 201.862 68.1044C201.63 68.2068 201.437 68.3807 201.312 68.6008C201.186 68.8209 201.133 69.0756 201.162 69.3277C201.19 69.8696 201.582 70.2739 201.987 70.1752C202.21 70.0668 202.394 69.893 202.516 69.6769C202.638 69.4607 202.691 69.2125 202.668 68.9653Z" fill="#C8C8C8"/>
<path d="M165.23 36.6154C165.203 36.0735 164.811 35.6692 164.408 35.7521C164.178 35.856 163.986 36.0303 163.86 36.25C163.735 36.4696 163.682 36.7235 163.708 36.9753C163.736 37.5173 164.128 37.9215 164.533 37.8228C164.756 37.7135 164.941 37.5403 165.065 37.3254C165.189 37.1104 165.247 36.8633 165.23 36.6154Z" fill="#C8C8C8"/>
<path d="M195.582 52.5359C195.554 51.994 195.165 51.5739 194.76 51.6725C194.532 51.7849 194.344 51.9631 194.219 52.184C194.093 52.4049 194.037 52.6583 194.057 52.9116C194.103 53.4403 194.495 53.8435 194.9 53.7458C195.126 53.6408 195.313 53.4675 195.434 53.2503C195.556 53.0331 195.607 52.7831 195.579 52.5355L195.582 52.5359Z" fill="#C8C8C8"/>
<path d="M155.059 24.2871C155.064 24.2468 155.06 24.2058 155.047 24.1672C155.034 24.1285 155.013 24.0932 154.985 24.0638C154.957 24.0343 154.923 24.0115 154.885 23.997C154.847 23.9825 154.806 23.9766 154.766 23.9798C154.684 24.0156 154.615 24.077 154.571 24.1548C154.526 24.2327 154.508 24.3228 154.518 24.412C154.513 24.4523 154.517 24.4933 154.53 24.532C154.543 24.5706 154.564 24.6059 154.592 24.6354C154.62 24.6648 154.654 24.6876 154.692 24.7021C154.73 24.7167 154.771 24.7225 154.811 24.7193C154.89 24.6798 154.956 24.6177 155 24.5408C155.044 24.4639 155.064 24.3756 155.059 24.2871Z" fill="#C8C8C8"/>
<path d="M73.8822 111.794C73.8546 111.252 73.4654 110.832 73.06 110.931C72.8292 111.039 72.637 111.216 72.5092 111.437C72.3814 111.658 72.3241 111.913 72.3449 112.168C72.3909 112.696 72.7827 113.1 73.1879 113.002C73.4159 112.899 73.6057 112.728 73.7304 112.511C73.855 112.294 73.9082 112.043 73.8822 111.794Z" fill="#C8C8C8"/>
<path d="M50.086 149.13C50.0227 147.786 49.0457 146.751 48.0568 146.967C47.5025 147.231 47.0404 147.656 46.7303 148.186C46.4202 148.717 46.2765 149.328 46.3178 149.942C46.3995 151.273 47.3933 152.278 48.3912 152.031C48.9305 151.772 49.3801 151.358 49.6821 150.841C49.9842 150.324 50.1248 149.728 50.086 149.13Z" fill="#C8C8C8"/>
<path d="M37.3731 192.496C37.3455 191.954 36.9541 191.549 36.5512 191.632C36.3208 191.736 36.1291 191.91 36.0034 192.129C35.8777 192.349 35.8245 192.602 35.8513 192.854C35.8789 193.396 36.2862 193.803 36.6757 193.702C36.9011 193.596 37.0888 193.424 37.2135 193.209C37.3381 192.993 37.3938 192.744 37.3731 192.496Z" fill="#C8C8C8"/>
<path d="M22.7191 143.595C22.6915 143.054 22.3026 142.633 21.8997 142.716C21.6693 142.82 21.4776 142.994 21.3519 143.213C21.2262 143.433 21.173 143.686 21.1998 143.938C21.2274 144.48 21.6189 144.884 22.0242 144.786C22.2464 144.681 22.4316 144.511 22.5556 144.298C22.6796 144.086 22.7366 143.841 22.7191 143.595Z" fill="#C8C8C8"/>
<path d="M128.743 31.9822C128.68 30.6377 127.703 29.6032 126.714 29.8191C126.16 30.0831 125.698 30.5079 125.388 31.0384C125.078 31.5689 124.934 32.1807 124.975 32.7944C125.057 34.1256 126.051 35.1304 127.048 34.8835C127.588 34.6247 128.037 34.2102 128.339 33.6932C128.641 33.1762 128.782 32.5803 128.743 31.9822Z" fill="#C8C8C8"/>
<path d="M110.209 76.0187C110.181 75.4769 109.79 75.0726 109.387 75.1551C109.157 75.2589 108.965 75.4329 108.839 75.6524C108.714 75.8719 108.661 76.1256 108.687 76.3774C108.715 76.9192 109.122 77.3261 109.512 77.2252C109.737 77.1197 109.925 76.9475 110.049 76.7318C110.174 76.5161 110.23 76.2672 110.209 76.0187Z" fill="#C8C8C8"/>
<path d="M74.6495 22.2054C74.622 21.6636 74.2331 21.2434 73.8303 21.3259C73.5999 21.4297 73.4082 21.6037 73.2825 21.8232C73.1568 22.0427 73.1036 22.2965 73.1304 22.5482C73.1579 23.09 73.5493 23.4944 73.9546 23.396C74.1768 23.291 74.362 23.1211 74.486 22.9086C74.61 22.6961 74.667 22.451 74.6495 22.2054Z" fill="#C8C8C8"/>
<path d="M52.8162 44.2454C52.753 42.9009 51.7761 41.8664 50.7872 42.0822C50.233 42.3462 49.7708 42.771 49.4607 43.3015C49.1507 43.832 49.0069 44.4438 49.0482 45.0575C49.1297 46.3887 50.1235 47.3934 51.1213 47.1466C51.6606 46.8879 52.1102 46.4733 52.4122 45.9563C52.7143 45.4393 52.855 44.8435 52.8162 44.2454Z" fill="#C8C8C8"/>
<path d="M38.0164 83.0771C37.9889 82.5353 37.5974 82.1309 37.1946 82.2134C36.9642 82.3172 36.7725 82.4913 36.6468 82.7108C36.5211 82.9302 36.4679 83.184 36.4947 83.4357C36.5222 83.9775 36.9294 84.3844 37.319 84.2835C37.5444 84.178 37.732 84.0058 37.8567 83.7901C37.9814 83.5744 38.0371 83.3256 38.0164 83.0771Z" fill="#C8C8C8"/>
<path d="M12.3387 36.6297C12.3112 36.0879 11.9223 35.6677 11.5195 35.7503C11.2891 35.854 11.0974 36.0281 10.9717 36.2476C10.846 36.4671 10.7927 36.7208 10.8196 36.9726C10.847 37.5144 11.2385 37.9187 11.6438 37.8204C11.866 37.7153 12.0512 37.5454 12.1752 37.3329C12.2992 37.1205 12.3562 36.8754 12.3387 36.6297Z" fill="#C8C8C8"/>
<path d="M282.296 114.076C273.656 107.391 247.466 90.4354 232.786 89.8842C223.757 89.6365 214.827 91.8202 206.926 96.2077C206.926 96.2077 177.076 98.3422 174.626 95.0953C172.176 91.8484 170.166 77.3476 166.896 73.0484C163.626 68.7493 145.666 62.4058 142.716 62.025C139.766 61.6442 138.126 50.3301 136.396 46.993C134.666 43.6559 122.396 55.5712 121.396 60.8224C120.396 66.0736 118.206 76.0047 123.396 85.9358C128.586 95.867 150.456 94.6845 148.586 98.8533C146.716 103.022 102.246 123.796 98.426 131.002C94.606 138.207 100.736 160.064 100.736 160.064C93.2803 164.459 86.3286 169.661 80.006 175.577C69.096 185.598 76.306 188.524 77.006 193.054C78.566 203.205 86.886 210.892 89.296 213.577C91.706 216.263 109.196 220.352 109.196 220.352C105.092 228.913 100.09 237.012 94.276 244.513C89.406 250.907 80.426 267.903 90.746 287.184C101.066 306.465 144.306 342.842 150.356 345.228C156.406 347.613 190.671 346.237 206.641 344.964C222.611 343.691 250.156 310.935 253.406 305.453C272.286 273.806 269.476 266.139 269.476 266.139C269.476 266.139 260.706 223.759 257.476 216.804C252.126 205.39 248.476 190.328 247.306 176.058C246.136 161.787 250.576 157.709 260.106 152.598C270.246 147.186 285.406 150.132 289.606 141.574C294.946 130.791 291.346 121.071 282.296 114.076ZM214.226 143.448C214.226 143.448 218.226 136.854 214.566 133.427C210.906 130 204.406 131.984 198.816 129.418C193.226 126.853 194.876 120.399 194.876 120.399L197.586 113.725C197.586 113.725 199.336 122.804 206.636 123.957C208.236 124.217 220.736 128.096 220.856 135.581C220.976 143.067 214.226 143.448 214.226 143.448Z" fill="#4275FF"/>
<path opacity="0.1" d="M201.965 172.468L221.879 185.367L240.661 201.615C240.661 201.615 241.472 185.046 240.761 175.016C240.761 175.016 233.894 178.915 231.961 174.393C223.726 155.241 240.036 163.945 240.036 163.945C246.073 157.58 227.536 144.042 227.536 144.042C227.536 144.042 223.763 151.258 210.179 154.295C204.104 155.66 199.085 144.334 193.454 137.159C187.823 129.984 186.304 119.946 186.304 119.946C186.304 119.946 164.419 130.463 160.834 121.984C157.249 113.505 165.72 113.046 167.768 110.531C169.816 108.017 172.268 106.145 170.468 101.603C168.668 97.0615 162.921 91.7302 162.921 91.7302L166.326 100.083C163.496 100.902 140.526 113.952 137.96 118.27C135.02 123.792 133.202 129.845 132.611 136.077C132.29 141.379 136.677 153.075 139.563 152.84L152.77 151.749C152.77 151.749 155.883 160.891 153.893 166.369C151.903 171.847 136.573 180.453 135.97 182.256C135.367 184.059 129.706 218.522 130.65 221.378C131.594 224.234 141.366 233.074 138.659 235.685C135.952 238.297 107.529 255.276 105.067 270.773C102.605 286.27 119.217 303.658 144.687 309.194C170.157 314.73 196.487 317.264 201.674 309.194C206.861 301.124 201.495 297.498 208.617 295.714C215.739 293.93 220.248 295.929 221.38 291.728C222.512 287.527 220.569 281.221 220.569 281.221C220.569 281.221 229.408 282.849 231.069 285.646C232.73 288.443 230.994 281.416 238.342 273.18C245.69 264.945 234.059 201.895 231.942 193.259C229.825 184.624 238.611 242.163 224.226 234.547C209.841 226.931 201.586 232.88 198.756 243.094C195.926 253.308 200.011 268.825 199.699 274.137C199.387 279.45 182.247 301.997 163.767 278.854C145.287 255.712 156.701 259.829 163.767 248.095C170.833 236.361 181.379 227.227 185.36 212.228C189.341 197.228 194.378 171.02 201.944 172.491" fill="white"/>
<path d="M131.526 263.544C131.526 263.544 144.116 267.472 156.696 248.111C158.836 244.814 147.236 235.083 149.316 230.273C152.526 222.897 172.766 223.549 175.446 211.834C176.116 208.918 176.966 201.993 178.256 199.357C186.646 182.191 202.626 171.207 202.626 171.207C193.884 167.642 184.107 167.588 175.326 171.057C159.836 177.19 142.106 206.242 141.536 206.673C140.676 207.314 128.046 250.566 128.046 250.566L131.526 263.544Z" fill="#4275FF"/>
<g opacity="0.1">
<path d="M131.526 263.544C131.526 263.544 144.116 267.472 156.696 248.111C158.836 244.814 147.236 235.083 149.316 230.273C152.526 222.897 172.766 223.549 175.446 211.834C176.116 208.918 176.966 201.993 178.256 199.357C186.646 182.191 202.626 171.207 202.626 171.207C193.884 167.642 184.107 167.588 175.326 171.057C159.836 177.19 142.106 206.242 141.536 206.673C140.676 207.314 128.046 250.566 128.046 250.566L131.526 263.544Z" fill="white"/>
</g>
<path opacity="0.1" d="M95.366 169.834C95.366 169.834 85.626 174.194 88.916 184.385C92.346 195.018 97.166 201.091 99.916 203.867C102.666 206.643 115.756 201.311 115.656 203.025L118.276 222.366L123.746 196.942C123.746 196.942 120.336 182.411 109.296 182.07C104.916 181.94 95.866 187.081 95.606 178.453L95.366 169.834Z" fill="white"/>
<path opacity="0.1" d="M246.746 145.873C246.746 145.873 253.156 142.456 248.376 136.363C243.596 130.27 228.106 121.772 228.106 121.772L226.716 101.88C226.716 101.88 236.646 115.368 242.186 117.323C247.726 119.277 263.256 125.069 263.266 128.547C263.286 141.183 246.746 145.873 246.746 145.873Z" fill="white"/>
<path opacity="0.3" d="M172.266 168.491C173.586 165.194 169.456 146.134 168.336 144.981C167.216 143.829 156.646 140.863 155.336 139.219C154.026 137.576 150.096 130.992 150.096 130.992V140.211C150.096 140.211 156.656 150.744 158.316 151.405C159.976 152.067 157.966 164.242 158.316 165.555C158.666 166.868 154.376 182.02 152.406 185.107C150.436 188.193 140.246 191.571 137.946 194.186C135.646 196.802 141.096 222.025 141.096 222.025L142.206 214.71C142.743 211.208 144.01 207.859 145.924 204.881C147.838 201.903 150.357 199.361 153.316 197.423C154.796 196.421 156.386 195.419 158.066 194.206C163.966 190.067 155.066 209.529 155.066 209.529L177.296 190.909C181.984 183.929 185.014 175.965 186.156 167.63C186.646 164.062 186.826 161.897 187.216 161.396C188.006 160.394 171.006 171.788 172.266 168.491Z" fill="white"/>
<path opacity="0.3" d="M250.576 134.68C250.576 134.68 250.576 131.834 248.576 130.942C246.576 130.05 238.146 120.58 238.146 120.58C238.146 120.58 243.386 121.051 246.516 123.586C254.116 129.619 250.576 134.68 250.576 134.68Z" fill="white"/>
<path opacity="0.1" d="M155.006 86.3668C155.006 86.3668 135.866 82.2079 134.926 79.2717C133.986 76.3354 130.076 66.7851 130.076 65.803C130.076 64.8209 132.766 61.8847 132.766 61.8847C132.766 61.8847 131.546 65.0614 132.526 65.803C133.506 66.5446 148.896 74.1307 149.626 77.067C150.356 80.0032 155.006 86.3668 155.006 86.3668Z" fill="white"/>
<path opacity="0.8" d="M171.736 86.968C170.326 81.7169 168.836 75.5738 166.896 73.0083C163.626 68.6791 145.666 62.3657 142.716 61.9849C139.766 61.6041 138.126 50.29 136.396 46.9529C136.311 46.778 136.176 46.6317 136.009 46.532C135.842 46.4324 135.65 46.3836 135.456 46.3917C135.456 46.6322 136.386 58.5676 140.176 61.8045C143.966 65.0414 160.936 70.2124 164.456 72.5073C166.466 73.9002 169.506 81.0655 171.736 86.968Z" fill="white"/>
<path opacity="0.8" d="M98.548 130.88C100.357 127.847 107.284 123.531 107.284 123.531C107.284 123.531 131.996 107.455 121.136 117.085C114.977 122.56 106.917 125.993 103.031 130.054C96.538 136.837 97.625 143.469 98.151 146.375C97.141 145.567 95.07 136.703 98.548 130.88Z" fill="white"/>
<path opacity="0.8" d="M263.505 265.799C263.505 265.799 257.265 235.634 253.355 222.025C253.355 222.025 259.455 249.033 259.415 252.139C259.375 255.246 262.615 263.534 259.145 273.465C255.411 283.023 250.822 292.223 245.435 300.953C242.505 305.403 233.785 317.368 227.535 325.886C237.335 317.609 245.665 308.079 247.435 305.112C266.315 273.515 263.505 265.799 263.505 265.799Z" fill="white"/>
<path opacity="0.3" d="M111.056 311.937L96.646 291.313L92.406 280.46C89.6789 273.476 88.8507 265.892 90.006 258.483L90.616 250.366C86.326 258.693 82.746 272.252 90.736 287.184C94.386 294.039 102.216 303.048 111.056 311.937Z" fill="black"/>
<path opacity="0.3" d="M101.226 208.537C101.166 208.617 101.226 208.837 101.416 209.178C101.386 208.717 101.336 208.386 101.226 208.537Z" fill="black"/>
<path opacity="0.3" d="M109.166 220.352C109.166 220.352 102.656 211.683 101.416 209.178C101.486 210.802 101.226 214.76 101.226 214.76C101.226 214.76 97.796 217.265 84.376 202.344C76.686 193.795 75.716 185.307 76.286 179.555C71.046 186.52 76.386 189.186 76.976 193.054C78.536 203.205 86.856 210.892 89.266 213.577C91.676 216.263 109.166 220.352 109.166 220.352Z" fill="black"/>
<path opacity="0.1" d="M65.546 257.371C65.546 257.751 65.296 263.233 70.276 265.087C72.8883 266.174 75.7123 266.653 78.536 266.49C78.536 266.49 74.666 264.426 71.906 263.083C71.0888 262.657 70.3821 262.045 69.8422 261.297C69.3023 260.549 68.944 259.685 68.796 258.774C68.796 258.774 65.066 253.492 65.546 257.371Z" fill="white"/>
<path d="M191.776 226.605C191.076 227.888 186.186 226.475 180.226 226.284C174.266 226.094 169.226 226.966 168.676 225.623C168.416 224.992 169.436 223.829 171.556 222.807C174.351 221.579 177.389 221.009 180.438 221.139C183.487 221.269 186.466 222.097 189.146 223.559C191.166 224.751 192.086 225.984 191.776 226.605Z" fill="#4275FF"/>
<path d="M330.426 190.484C331.766 190.586 332.894 189.736 332.802 188.728C332.613 188.141 332.249 187.625 331.759 187.251C331.269 186.877 330.677 186.662 330.062 186.634C328.717 186.548 327.606 187.398 327.726 188.435C327.922 189.007 328.284 189.508 328.765 189.873C329.247 190.238 329.826 190.451 330.429 190.485L330.426 190.484Z" fill="#C8C8C8"/>
<path d="M303.315 219.248C303.852 219.299 304.299 218.963 304.266 218.552C304.192 218.309 304.043 218.096 303.841 217.944C303.638 217.792 303.392 217.709 303.138 217.706C302.598 217.668 302.15 218.007 302.199 218.422C302.279 218.657 302.429 218.862 302.628 219.009C302.828 219.157 303.067 219.24 303.315 219.248Z" fill="#C8C8C8"/>
<path d="M339.918 185.952C340.458 185.991 340.906 185.652 340.873 185.241C340.798 184.999 340.648 184.787 340.446 184.635C340.244 184.483 339.999 184.399 339.746 184.395C339.205 184.356 338.757 184.696 338.806 185.111C338.888 185.346 339.037 185.551 339.235 185.701C339.433 185.851 339.67 185.938 339.918 185.952Z" fill="#C8C8C8"/>
<path d="M320.451 214.202C320.991 214.241 321.455 213.905 321.406 213.49C321.322 213.25 321.168 213.041 320.965 212.89C320.761 212.738 320.517 212.651 320.263 212.64C319.734 212.621 319.287 212.961 319.335 213.376C319.411 213.613 319.56 213.82 319.761 213.967C319.961 214.115 320.203 214.196 320.452 214.199L320.451 214.202Z" fill="#C8C8C8"/>
<path d="M247.576 40.0221C248.916 40.1238 250.059 39.279 249.964 38.2693C249.77 37.6858 249.404 37.1743 248.916 36.801C248.427 36.4277 247.838 36.2099 247.225 36.1758C245.895 36.094 244.78 36.9592 244.904 37.9816C245.096 38.5496 245.452 39.0474 245.929 39.411C246.405 39.7746 246.978 39.9875 247.576 40.0221Z" fill="#C8C8C8"/>
<path d="M236.825 34.8922C237.365 34.9312 237.813 34.5914 237.78 34.1807C237.704 33.9389 237.555 33.727 237.353 33.5751C237.15 33.4233 236.905 33.3393 236.652 33.3351C236.112 33.2962 235.66 33.6513 235.713 34.051C235.79 34.2881 235.938 34.4958 236.137 34.6461C236.336 34.7965 236.576 34.8824 236.825 34.8922Z" fill="#C8C8C8"/>
<path d="M276.591 85.9298C277.131 85.9688 277.595 85.6335 277.546 85.2184C277.467 84.9756 277.315 84.7629 277.111 84.6088C276.908 84.4546 276.662 84.3664 276.407 84.3558C275.878 84.3367 275.431 84.6767 275.478 85.0915C275.552 85.3307 275.7 85.5405 275.899 85.691C276.099 85.8415 276.341 85.9251 276.591 85.9298Z" fill="#C8C8C8"/>
<path d="M251.33 31.1643C251.87 31.2033 252.334 30.868 252.3 30.4573C252.225 30.2155 252.076 30.0036 251.873 29.8517C251.671 29.6999 251.426 29.6159 251.173 29.6117C250.633 29.5727 250.185 29.9125 250.233 30.3276C250.311 30.5614 250.457 30.7664 250.652 30.9157C250.848 31.065 251.084 31.1517 251.33 31.1643Z" fill="#C8C8C8"/>
<path d="M348.805 117.925C349.91 117.157 350.268 115.779 349.56 115.054C349.042 114.724 348.436 114.558 347.822 114.576C347.209 114.595 346.614 114.798 346.116 115.159C345.032 115.935 344.709 117.312 345.448 118.027C345.954 118.347 346.544 118.509 347.142 118.491C347.74 118.472 348.32 118.275 348.805 117.925Z" fill="#C8C8C8"/>
<path d="M305.681 119.548C306.125 119.237 306.26 118.69 305.976 118.392C305.766 118.252 305.516 118.181 305.264 118.191C305.011 118.201 304.768 118.291 304.569 118.447C304.125 118.758 303.997 119.32 304.289 119.597C304.498 119.732 304.743 119.8 304.992 119.791C305.241 119.782 305.482 119.698 305.681 119.548Z" fill="#C8C8C8"/>
<path d="M321.054 49.4007C321.498 49.0896 321.647 48.5364 321.363 48.2384C321.153 48.0981 320.904 48.0278 320.651 48.0377C320.398 48.0476 320.155 48.1372 319.956 48.2936C319.512 48.6047 319.378 49.1516 319.676 49.4433C319.883 49.5761 320.125 49.643 320.371 49.6354C320.617 49.6278 320.855 49.546 321.054 49.4007Z" fill="#C8C8C8"/>
<path d="M339.426 45.6766C339.362 44.3303 338.384 43.297 337.394 43.5159C336.84 43.7818 336.378 44.2085 336.068 44.7407C335.758 45.2729 335.614 45.886 335.656 46.5005C335.738 47.8334 336.733 48.8368 337.732 48.5868C338.271 48.3262 338.721 47.9098 339.023 47.3912C339.325 46.8726 339.465 46.2754 339.426 45.6766Z" fill="#C8C8C8"/>
<path d="M324.82 72.3285C324.792 71.786 324.4 71.3821 323.997 71.4659C323.767 71.5705 323.575 71.7453 323.449 71.9655C323.324 72.1857 323.271 72.4399 323.298 72.692C323.325 73.2345 323.733 73.6408 324.123 73.5387C324.348 73.4324 324.536 73.2594 324.661 73.0431C324.785 72.8267 324.841 72.5773 324.82 72.3285Z" fill="#C8C8C8"/>
<path d="M290.857 36.7787C290.829 36.2362 290.439 35.8165 290.036 35.9002C289.806 36.0048 289.614 36.1797 289.488 36.3998C289.363 36.62 289.31 36.8742 289.337 37.1263C289.364 37.6688 289.756 38.0727 290.162 37.973C290.384 37.8672 290.569 37.6965 290.693 37.4834C290.817 37.2703 290.874 37.0246 290.857 36.7787Z" fill="#C8C8C8"/>
<path d="M314.143 438.925C314.143 456.43 250.785 470.621 172.629 470.621C94.473 470.621 31.115 456.43 31.115 438.925C31.115 421.42 94.473 407.228 172.629 407.228C250.785 407.228 314.143 421.42 314.143 438.925Z" fill="#EAEAEA"/>
<path d="M148.234 443.36L161.544 444.597C162.031 444.646 161.32 446.796 161.345 447.275C161.345 447.275 163.916 453.786 163.831 456.655C163.746 459.523 161.997 459.836 160.048 459.8C155.519 459.722 154.256 458.084 148.339 458.306C144.728 458.437 141.42 458.634 137.226 455.691C133.228 452.88 132.557 449.391 136.725 449.854C146.67 450.984 144.917 449.712 147.767 446.714C148.241 446.178 147.531 443.288 148.234 443.36Z" fill="#F0BDB0"/>
<path d="M188.357 440.804L174.252 444.151C173.735 444.278 174.822 446.48 174.867 446.999C174.867 446.999 173.084 454.382 173.606 457.452C174.128 460.522 176.052 460.594 178.139 460.261C182.989 459.493 184.1 457.544 190.487 456.888C194.383 456.484 197.964 456.197 202.026 452.402C205.899 448.779 206.093 444.928 201.688 446.055C191.18 448.775 192.872 447.139 189.363 444.348C188.772 443.842 189.1 440.63 188.357 440.804Z" fill="#F0BDB0"/>
<path d="M109.269 424.779C135.379 424.117 152.319 444.05 152.319 444.05C149.759 452.217 148.119 458.33 148.119 458.33C133.839 455.624 117.599 454.532 104.229 451.045C92.159 447.898 90.899 431.553 92.229 424.689C93.559 417.824 100.409 416.221 107.149 413.986C114.839 411.43 129.499 411.23 140.009 411.19C151.089 411.19 165.649 412.192 173.189 413.896C173.189 413.896 189.189 413.184 201.079 413.385C208.019 412.212 203.839 423.546 192.819 433.207C187.376 438.037 180.933 441.598 173.953 443.635C166.972 445.671 159.628 446.131 152.449 444.982H152.359" fill="#262D36"/>
<path d="M234.849 424.779C208.739 424.117 185.569 444.05 185.569 444.05C188.129 452.217 189.769 458.33 189.769 458.33C204.049 455.624 226.519 454.532 239.889 451.045C251.969 447.898 253.219 431.553 251.889 424.689C250.559 417.824 243.709 416.221 236.969 413.986C229.279 411.43 214.619 411.23 204.109 411.19C193.029 411.19 178.469 412.192 170.929 413.896C170.929 413.896 154.929 413.184 143.049 413.385C136.099 412.212 140.279 423.546 151.299 433.207C156.736 438.03 163.171 441.587 170.142 443.623C177.113 445.659 184.448 446.123 191.619 444.982H191.709" fill="#262D36"/>
<path d="M152.439 353.788C150.179 361.511 147.796 369.194 145.289 376.837C144.039 380.665 142.769 384.483 141.449 388.291C140.129 392.099 138.849 395.877 137.389 399.725L137.209 400.207L136.969 400.788C136.809 401.169 136.629 401.529 136.449 401.89C136.086 402.56 135.686 403.21 135.249 403.834C134.45 404.954 133.542 405.991 132.539 406.931C130.778 408.567 128.851 410.015 126.789 411.25C123.053 413.462 119.115 415.311 115.029 416.772C107.231 419.589 99.1755 421.633 90.979 422.875L89.449 416.381C93.089 415.078 96.839 413.695 100.449 412.192C104.059 410.689 107.639 409.186 111.049 407.442C114.377 405.838 117.565 403.958 120.579 401.82C123.399 399.816 125.649 397.3 125.879 395.807L132.559 372.828C134.819 365.142 137.152 357.459 139.559 349.779L152.439 353.788Z" fill="#F0BDB0"/>
<path d="M92.059 416.521L79.849 413.595L85.669 424.669C85.669 424.669 93.949 425.008 96.669 420.66L92.059 416.521Z" fill="#F0BDB0"/>
<path d="M188.849 264.76C184.469 261.584 166.922 264.398 164.022 269.238C161.122 274.078 158.622 284.27 153.792 286.735C148.962 289.2 143.212 299.091 146.372 307.78C149.532 316.468 137.042 314.123 136.372 327.321C135.702 340.52 154.452 347.194 166.292 340.68C178.132 334.166 186.462 300.174 185.712 286.735C184.962 273.296 188.849 264.76 188.849 264.76Z" fill="#263238"/>
<path d="M172.999 269.659C174.992 266.838 177.917 264.816 181.256 263.951C184.594 263.085 188.131 263.431 191.239 264.929C205.039 270.811 200.709 277.155 203.239 290.563C205.769 303.972 221.189 306.367 220.489 325.026C219.299 356.804 191.239 350.912 183.489 342.474C175.739 334.036 184.319 303.06 184.319 303.06L172.999 269.659Z" fill="#263238"/>
<path d="M69.949 417.793L77.509 422.533L85.604 424.302L79.576 413.744L69.949 417.793Z" fill="#F0BDB0"/>
<path d="M143.949 335.609C138.639 336.972 134.949 358.879 134.949 358.879L149.589 368.9C149.589 368.9 163.589 346.793 159.589 340.94C155.259 334.797 151.709 333.635 143.949 335.609Z" fill="#5E89FF"/>
<path opacity="0.2" d="M143.469 343.576L154.849 346.222L155.939 357.365C154.006 361.289 151.876 365.112 149.559 368.82L140.679 362.807C141.059 357.686 142.029 347.043 143.469 343.576Z" fill="black"/>
<path d="M143.949 335.609C143.949 335.609 137.849 337.754 150.109 413.595H202.479C201.599 392.24 201.569 379.072 211.759 335.238C204.427 333.719 196.994 332.738 189.519 332.302C180.709 331.871 173.519 331.591 165.749 332.302C155.529 333.234 143.949 335.609 143.949 335.609Z" fill="#5E89FF"/>
<path opacity="0.2" d="M199.439 355.592L206.199 361.354C204.749 369.02 203.789 375.384 203.199 381.086C201.899 375.394 198.689 359.941 199.439 355.592Z" fill="black"/>
<path d="M187.169 305.475C185.669 313.141 184.169 327.181 189.519 332.302C189.519 332.302 184.519 343.786 171.269 343.786C158.019 343.786 165.749 332.302 165.749 332.302C174.279 330.298 174.059 323.914 172.569 317.962L187.169 305.475Z" fill="#F6BEAF"/>
<path d="M189.519 332.302C180.709 331.871 173.519 331.591 165.739 332.302C162.059 332.633 158.209 333.154 154.789 333.685C152.529 337.784 143.559 356.213 165.569 356.213C188.649 356.213 198.269 335.95 199.469 333.164C196.379 332.803 192.959 332.472 189.519 332.302Z" fill="#F6BEAF"/>
<path opacity="0.2" d="M181.219 310.566L172.579 317.952C172.941 319.338 173.185 320.753 173.309 322.181C176.569 321.71 181.049 318.122 181.389 314.705C181.583 313.326 181.525 311.924 181.219 310.566Z" fill="black"/>
<path d="M197.249 290.984C194.849 303.581 194.079 308.962 186.849 314.644C175.969 323.203 161.059 317.481 159.669 304.413C158.419 292.658 162.579 274.038 175.669 270.591C178.54 269.826 181.558 269.809 184.437 270.54C187.316 271.271 189.961 272.727 192.122 274.769C194.283 276.811 195.889 279.372 196.786 282.21C197.683 285.047 197.842 288.067 197.249 290.984Z" fill="#F6BEAF"/>
<path d="M174.849 269.238C170.339 271.773 173.329 276.253 181.469 279.43C189.609 282.606 190.099 283.188 188.769 289.782C187.439 296.376 199.299 302.479 199.449 295.664C199.599 288.85 202.019 275.922 195.689 272.324C189.359 268.727 179.619 266.602 174.849 269.238Z" fill="#263238"/>
<path d="M174.169 272.415C170.169 273.707 161.079 283.598 161.749 280.342C162.419 277.085 164.119 272.575 168.919 270.911C171.187 270.01 173.57 269.433 175.999 269.198L174.169 272.415Z" fill="#263238"/>
<path d="M199.629 301.567C198.451 303.739 196.492 305.381 194.149 306.156C191.039 307.159 189.469 304.463 190.319 301.517C191.089 298.861 193.619 295.143 196.749 295.424C199.879 295.704 201.039 298.901 199.629 301.567Z" fill="#F6BEAF"/>
<path d="M151.179 460.104L156.009 441.935L149.649 439.3L140.679 458.811L151.179 460.104Z" fill="#5E89FF"/>
<path d="M185.899 460.485L178.309 442.116L184.179 439.701L196.069 457.569L185.899 460.485Z" fill="#5E89FF"/>
<path d="M170.549 293.018C170.549 293.018 168.229 297.237 166.019 299.131C167.219 300.585 169.609 300.304 169.609 300.304L170.549 293.018Z" fill="#263238"/>
<path d="M182.189 287.056C182.246 287.087 182.309 287.104 182.374 287.104C182.439 287.104 182.502 287.087 182.559 287.056C182.602 287.028 182.64 286.992 182.67 286.95C182.699 286.908 182.72 286.861 182.731 286.81C182.742 286.76 182.744 286.708 182.735 286.657C182.726 286.606 182.707 286.558 182.679 286.515C182.205 285.709 181.544 285.03 180.752 284.536C179.959 284.042 179.06 283.748 178.129 283.679C178.073 283.67 178.016 283.673 177.962 283.688C177.907 283.703 177.857 283.73 177.814 283.767C177.771 283.804 177.736 283.849 177.713 283.901C177.689 283.952 177.677 284.008 177.677 284.064C177.677 284.121 177.689 284.177 177.713 284.228C177.736 284.28 177.771 284.325 177.814 284.362C177.857 284.399 177.907 284.426 177.962 284.441C178.016 284.456 178.073 284.459 178.129 284.45C178.929 284.526 179.699 284.791 180.377 285.223C181.055 285.655 181.621 286.242 182.029 286.936C182.072 286.987 182.127 287.029 182.189 287.056Z" fill="#263238"/>
<path d="M160.849 283.218C160.909 283.254 160.979 283.273 161.049 283.273C161.119 283.273 161.189 283.254 161.249 283.218C161.866 282.698 162.599 282.335 163.386 282.161C164.173 281.986 164.991 282.005 165.769 282.215C165.867 282.248 165.974 282.241 166.067 282.196C166.161 282.151 166.233 282.072 166.269 281.975C166.286 281.926 166.294 281.875 166.291 281.823C166.289 281.771 166.276 281.721 166.253 281.674C166.231 281.628 166.2 281.586 166.161 281.552C166.123 281.517 166.078 281.491 166.029 281.474C165.13 281.22 164.183 281.186 163.268 281.375C162.353 281.563 161.496 281.968 160.769 282.556C160.728 282.588 160.694 282.627 160.668 282.672C160.642 282.716 160.626 282.766 160.619 282.817C160.613 282.868 160.616 282.92 160.63 282.97C160.644 283.02 160.667 283.067 160.699 283.107C160.737 283.158 160.79 283.196 160.849 283.218Z" fill="#263238"/>
<path d="M203.259 410.518L203.679 415.208C203.859 415.579 203.429 415.95 202.829 415.95H149.849C149.379 415.95 148.989 415.72 148.959 415.419L148.489 410.719C148.489 410.398 148.869 410.118 149.379 410.118H202.379C202.548 410.098 202.719 410.125 202.874 410.196C203.029 410.267 203.162 410.378 203.259 410.518Z" fill="#407BFF"/>
<path d="M203.259 410.518L203.679 415.208C203.859 415.579 203.429 415.95 202.829 415.95H149.849C149.379 415.95 148.989 415.72 148.959 415.419L148.489 410.719C148.489 410.398 148.869 410.118 149.379 410.118H202.379C202.548 410.098 202.719 410.125 202.874 410.196C203.029 410.267 203.162 410.378 203.259 410.518Z" fill="#C2DCFF"/>
<path d="M196.139 416.461H197.559C197.839 416.461 198.059 416.311 198.039 416.13L197.369 410.027C197.369 409.847 197.109 409.707 196.819 409.707H195.399C195.119 409.707 194.899 409.847 194.919 410.027L195.589 416.13C195.609 416.311 195.849 416.461 196.139 416.461Z" fill="#263238"/>
<path d="M153.849 416.461H155.269C155.549 416.461 155.759 416.311 155.739 416.13L155.079 410.027C155.079 409.847 154.809 409.707 154.529 409.707H153.109C152.829 409.707 152.609 409.847 152.629 410.027L153.299 416.13C153.319 416.311 153.559 416.461 153.849 416.461Z" fill="#263238"/>
<path d="M174.989 416.461H176.409C176.699 416.461 176.909 416.311 176.889 416.13L176.229 410.027C176.229 409.847 175.959 409.707 175.679 409.707H174.259C173.969 409.707 173.759 409.847 173.779 410.027L174.439 416.13C174.459 416.311 174.709 416.461 174.989 416.461Z" fill="#263238"/>
<path d="M216.409 350.781L220.699 373.951C221.429 377.799 222.169 381.637 222.949 385.435C223.329 387.329 223.769 389.203 224.179 391.057L224.839 393.793L225.479 396.138C225.886 397.188 226.517 398.135 227.329 398.914C228.46 400.071 229.695 401.121 231.019 402.05C234.023 404.13 237.187 405.97 240.479 407.552C243.859 409.236 247.389 410.769 250.959 412.232C254.529 413.695 258.219 415.068 261.799 416.361L260.269 422.855C252.18 421.624 244.23 419.61 236.529 416.842C232.505 415.415 228.619 413.623 224.919 411.491C222.898 410.304 220.996 408.925 219.239 407.372C217.082 405.51 215.373 403.184 214.239 400.567L214.009 399.996L213.859 399.565L213.589 398.804L213.059 397.26L212.129 394.254C211.542 392.25 210.999 390.279 210.499 388.341C209.466 384.426 208.529 380.511 207.689 376.596C205.949 368.76 204.459 360.953 203.179 353.026L216.409 350.781Z" fill="#F0BDB0"/>
<path d="M211.759 335.238C217.009 336.832 223.509 353.748 223.509 353.748L203.149 368.339C203.149 368.339 195.529 354.409 197.739 347.615C200.029 340.54 205.769 333.414 211.759 335.238Z" fill="#5E89FF"/>
<path d="M259.199 416.702L271.429 413.595L265.599 425.36C265.599 425.36 257.329 425.721 254.599 421.101L259.199 416.702Z" fill="#F0BDB0"/>
<path d="M75.9972 403.293C75.9972 403.293 82.2926 400.47 87.8811 400.563C93.4696 400.655 99.3963 402.443 104.941 402.62C110.486 402.798 113.892 402.557 113.892 402.557L112.738 407.257L75.4078 405.969L53.8163 392.188L52.9334 386.675C55.1369 388.661 57.5546 390.396 60.1417 391.847C64.9028 394.641 70.6495 396.407 73.457 398.611C76.2645 400.814 75.9972 403.293 75.9972 403.293Z" fill="white" stroke="#263238" stroke-width="1.00052" stroke-linecap="round" stroke-linejoin="round"/>
<path d="M114.316 403.828C106.945 403.818 99.5883 403.156 92.3322 401.852C86.8511 400.949 81.2319 401.444 75.9964 403.292C73.2046 400.008 69.5951 397.519 65.5335 396.078C60.6962 394.18 56.1158 391.683 51.9001 388.644L52.4577 392.114L76.2746 404.861L114.075 406.479L114.316 403.828Z" fill="white" stroke="#263238" stroke-width="1.00052" stroke-linecap="round" stroke-linejoin="round"/>
<path d="M114.951 405.17C108.967 405.576 102.955 405.159 97.0834 403.931C87.5452 401.769 76.2585 403.377 76.2585 403.377C73.0312 400.281 69.1687 397.926 64.9401 396.474C60.1596 394.958 55.5882 392.846 51.3338 390.189C51.3304 390.714 51.211 391.231 50.9843 391.704C50.7577 392.177 50.4292 392.594 50.0225 392.925L75.2563 406.97L114.411 407.576L114.951 405.17Z" fill="white" stroke="#263238" stroke-width="1.00052" stroke-linecap="round" stroke-linejoin="round"/>
<path d="M114.805 407.246L77.0223 405.242L76.653 406.448L73.6752 405.62L74.0999 404.233L49.4079 392.153C49.4079 392.153 48.3524 391.542 48.929 393.105C49.5055 394.667 61.7446 414.389 61.7446 414.389L79.7055 422.008L109.723 424.481L114.805 407.246Z" fill="#407BFF"/>
<mask id="mask1_3_588" style="mask-type:luminance" maskUnits="userSpaceOnUse" x="48" y="392" width="67" height="33">
<path d="M114.805 407.253L77.0234 405.243L76.6537 406.448L73.6763 405.619L74.1014 404.233L49.4133 392.151C49.4133 392.151 48.3579 391.541 48.934 393.103C49.5101 394.665 61.7432 414.385 61.7432 414.385L79.7017 422.005L109.718 424.483L114.805 407.253Z" fill="white"/>
</mask>
<g mask="url(#mask1_3_588)">
<path opacity="0.3" d="M76.6533 406.447L77.0291 405.221L114.805 407.246L109.69 424.539L79.684 422.05L79.1971 421.846L75.8636 406.226L76.6533 406.447Z" fill="black"/>
</g>
<path d="M114.805 407.246L77.0223 405.242L76.653 406.448L73.6752 405.62L74.0999 404.233L49.4079 392.153C49.4079 392.153 48.3524 391.542 48.929 393.105C49.5055 394.667 61.7446 414.389 61.7446 414.389L79.7055 422.008L109.723 424.481L114.805 407.246Z" stroke="#263238" stroke-width="1.00052" stroke-linecap="round" stroke-linejoin="round"/>
<path d="M76.6472 406.474L80.2958 422.277L78.7817 421.91L73.671 405.642L76.6472 406.474Z" fill="#2C56B2" stroke="#263238" stroke-width="1.00052" stroke-linecap="round" stroke-linejoin="round"/>
<path d="M281.449 390.798C278.779 389.709 276.533 387.781 275.049 385.305C274.75 384.908 274.545 384.448 274.451 383.96C274.356 383.472 274.375 382.969 274.505 382.489C274.875 381.794 275.496 381.266 276.24 381.013C277.331 380.539 278.499 380.27 279.686 380.218C280.181 380.152 280.684 380.194 281.162 380.34C281.639 380.487 282.079 380.734 282.453 381.066C283.062 381.946 283.317 383.025 283.164 384.085C283.134 385.611 283.103 387.137 283.072 388.663C283.091 389.024 283.03 389.385 282.894 389.72C282.822 389.886 282.699 390.025 282.543 390.116C282.387 390.207 282.206 390.245 282.026 390.225C281.441 390.1 281.366 389.306 281.401 388.706C281.557 387.335 281.349 385.947 280.798 384.682C280.511 384.057 280.049 383.529 279.467 383.164C278.885 382.799 278.21 382.613 277.523 382.628C277.15 382.665 276.718 382.854 276.672 383.227C276.676 383.482 276.776 383.727 276.953 383.91L281.966 390.585" fill="#407BFF"/>
<path d="M279.788 404.898C279.788 404.898 281.015 404.12 280.207 403.604C279.399 403.088 279.013 402.918 277.632 404.053C276.25 405.187 273.201 406.968 271.669 407.196C270.137 407.423 269.051 406.841 267.014 408.717C264.977 410.592 261.202 414.83 261.202 414.83L259.519 415.523L259.517 424.51C259.563 424.471 265.632 425.352 265.641 425.342C267.934 424.505 270.183 423.551 272.38 422.484C273.625 421.491 275.745 420.414 277.076 419.081C277.97 418.324 278.714 417.405 279.269 416.373C280.433 414.403 280.155 414.407 280.155 414.407C280.155 414.407 283.193 415.103 283.715 413.264C283.855 412.691 283.872 412.095 283.765 411.515C283.658 410.935 283.429 410.385 283.093 409.901L279.79 404.903L279.788 404.898Z" fill="#F0BDB0"/>
<path d="M292.421 364.587L267.935 416.659L273.416 419.323L297.64 366.803C297.64 366.803 296.411 364.724 292.424 364.58L292.421 364.587Z" fill="#407BFF"/>
<path opacity="0.8" d="M292.421 364.587L267.935 416.659L273.416 419.323L297.64 366.803C297.64 366.803 296.411 364.724 292.424 364.58L292.421 364.587Z" fill="white"/>
<path d="M280.166 390.649C280.166 390.649 281.162 394.76 285.099 393.993L287.063 389.735C287.063 389.735 282.35 388.905 282.281 386.149L280.165 390.649L280.166 390.649Z" fill="#407BFF"/>
<path d="M283.437 410.714C283.355 410.772 280.6 407.783 279.395 409.661C278.191 411.539 281.755 413.772 281.755 413.772" fill="#F0BDB0"/>
<path d="M280.154 414.402C280.196 414.155 280.157 413.901 280.044 413.677C279.931 413.454 279.75 413.273 279.526 413.16C278.703 412.624 272.305 410.739 271.539 410.957C270.774 411.175 269.688 411.751 269.991 412.544L270.338 413.153C270.338 413.153 267.922 412.18 267.25 412.916C266.578 413.652 266.798 415.036 268.371 415.584C268.371 415.584 266.937 415.168 266.472 416.242C266.008 417.316 266.334 417.763 267.403 418.231C268.41 418.775 269.36 419.419 270.238 420.154L270.305 422.108" fill="#F0BDB0"/>
<path d="M267.077 415.124C267.293 415.364 267.553 415.56 267.843 415.702C267.902 415.733 267.971 415.738 268.034 415.718C268.097 415.698 268.15 415.653 268.181 415.594C268.211 415.535 268.217 415.466 268.197 415.403C268.176 415.34 268.132 415.287 268.073 415.256C267.855 415.167 267.661 415.029 267.505 414.852C267.349 414.676 267.236 414.465 267.175 414.237C267.145 413.989 267.169 413.737 267.244 413.498C267.318 413.259 267.443 413.038 267.608 412.851C267.924 412.471 269.439 412.938 270.363 413.372L274.017 414.621C274.49 414.747 274.931 414.968 275.314 415.273C275.474 415.407 275.589 415.587 275.644 415.788C275.698 415.989 275.69 416.203 275.62 416.399C275.606 416.429 275.597 416.461 275.594 416.494C275.592 416.527 275.596 416.56 275.607 416.591C275.617 416.622 275.633 416.651 275.655 416.676C275.677 416.701 275.703 416.721 275.732 416.736C275.762 416.751 275.794 416.76 275.826 416.762C275.859 416.764 275.892 416.76 275.923 416.75C275.955 416.739 275.983 416.723 276.008 416.701C276.033 416.68 276.053 416.653 276.068 416.624C276.19 416.331 276.215 416.007 276.141 415.699C276.067 415.391 275.898 415.114 275.656 414.909C275.224 414.552 274.72 414.292 274.179 414.147L270.549 412.909C270.134 412.712 267.902 411.716 267.224 412.531C267.006 412.773 266.845 413.061 266.752 413.373C266.658 413.685 266.635 414.014 266.684 414.337C266.745 414.629 266.881 414.9 267.079 415.122L267.077 415.124Z" fill="#E97A75"/>
<path d="M269.932 422.096C269.964 422.134 270.007 422.161 270.055 422.174C270.103 422.187 270.154 422.185 270.201 422.169C270.248 422.154 270.289 422.124 270.319 422.084C270.349 422.045 270.367 421.997 270.37 421.948L270.484 420.171C270.487 420.126 270.478 420.082 270.458 420.042C270.438 420.003 270.408 419.969 270.371 419.945L268.575 418.772C267.97 418.426 266.341 417.292 266.628 416.527C266.731 416.261 266.922 416.037 267.169 415.893C267.416 415.749 267.704 415.693 267.986 415.734C269.342 416.18 270.626 416.823 271.794 417.644C272.432 418.166 272.889 418.876 273.102 419.673C273.119 419.737 273.16 419.792 273.218 419.826C273.275 419.859 273.343 419.868 273.407 419.851C273.472 419.834 273.526 419.793 273.56 419.735C273.593 419.678 273.602 419.609 273.586 419.545C273.346 418.645 272.83 417.844 272.109 417.257C270.881 416.389 269.53 415.712 268.1 415.249C267.7 415.178 267.287 415.249 266.933 415.45C266.578 415.651 266.305 415.969 266.16 416.35C265.67 417.652 268.042 419.046 268.315 419.2L269.976 420.285L269.872 421.916C269.868 421.982 269.89 422.046 269.933 422.096L269.932 422.096Z" fill="#E97A75"/>
<path d="M267.077 415.124C267.293 415.364 267.553 415.56 267.843 415.702C267.902 415.733 267.971 415.738 268.034 415.718C268.097 415.698 268.15 415.653 268.181 415.594C268.211 415.535 268.217 415.466 268.197 415.403C268.176 415.34 268.132 415.287 268.073 415.256C267.855 415.167 267.661 415.029 267.505 414.852C267.349 414.676 267.236 414.465 267.175 414.237C267.145 413.989 267.169 413.737 267.244 413.498C267.318 413.259 267.443 413.038 267.608 412.851C267.924 412.471 269.439 412.938 270.363 413.372L274.017 414.621C274.49 414.747 274.931 414.968 275.314 415.273C275.474 415.407 275.589 415.587 275.644 415.788C275.698 415.989 275.69 416.203 275.62 416.399C275.606 416.429 275.597 416.461 275.594 416.494C275.592 416.527 275.596 416.56 275.607 416.591C275.617 416.622 275.633 416.651 275.655 416.676C275.677 416.701 275.703 416.721 275.732 416.736C275.762 416.751 275.794 416.76 275.826 416.762C275.859 416.764 275.892 416.76 275.923 416.75C275.955 416.739 275.983 416.723 276.008 416.701C276.033 416.68 276.053 416.653 276.068 416.624C276.19 416.331 276.215 416.007 276.141 415.699C276.067 415.391 275.898 415.114 275.656 414.909C275.224 414.552 274.72 414.292 274.179 414.147L270.549 412.909C270.134 412.712 267.902 411.716 267.224 412.531C267.006 412.773 266.845 413.061 266.752 413.373C266.658 413.685 266.635 414.014 266.684 414.337C266.745 414.629 266.881 414.9 267.079 415.122L267.077 415.124Z" fill="#E97A75"/>
<path d="M271.089 413.338C271.301 413.538 271.547 413.697 271.816 413.809C271.842 413.822 271.87 413.828 271.898 413.83C271.926 413.831 271.955 413.826 271.981 413.816C272.007 413.805 272.031 413.79 272.052 413.77C272.072 413.75 272.088 413.726 272.098 413.7C272.117 413.644 272.114 413.583 272.09 413.529C272.066 413.476 272.023 413.433 271.969 413.41C271.494 413.202 270.382 412.849 270.269 412.49C270.087 411.932 270.619 411.473 270.719 411.325C270.954 410.978 272.913 411.32 273.765 411.657L277.08 412.578C277.51 412.668 277.917 412.841 278.279 413.088C278.563 413.317 279.778 413.771 279.654 414.104C279.614 414.216 279.927 414.569 280.041 414.618C280.156 414.668 280.163 414.392 280.204 414.28C280.408 413.725 278.948 413.075 278.539 412.753C278.128 412.462 277.662 412.258 277.169 412.155L273.879 411.242C273.497 411.089 270.962 410.405 270.457 411.148C270.116 411.647 269.78 411.985 269.944 412.488C270.005 412.686 270.851 413.105 271.091 413.337L271.089 413.338Z" fill="#E97A75"/>
<path d="M284.938 391.108C287.497 389.777 290.417 389.313 293.261 389.786C293.756 389.814 294.238 389.956 294.67 390.201C295.102 390.445 295.472 390.786 295.751 391.196C296.039 391.929 296.037 392.744 295.746 393.476C295.398 394.616 294.845 395.683 294.114 396.623C293.842 397.043 293.484 397.4 293.063 397.669C292.642 397.938 292.169 398.113 291.674 398.183C290.611 398.077 289.627 397.572 288.92 396.768L285.507 393.729C285.221 393.508 284.986 393.228 284.82 392.906C284.741 392.744 284.715 392.561 284.747 392.383C284.78 392.205 284.868 392.042 284.999 391.918C285.474 391.551 286.13 392.011 286.557 392.424C287.498 393.43 288.686 394.169 290.003 394.567C290.664 394.753 291.363 394.741 292.017 394.533C292.671 394.326 293.25 393.931 293.683 393.399C293.895 393.089 294.035 392.638 293.781 392.361C293.585 392.198 293.334 392.117 293.08 392.132L284.757 391.629" fill="#407BFF"/>
<path d="M165.936 289.96C165.926 291.095 165.276 292.064 164.482 292.114C163.688 292.163 163.054 291.292 163.064 290.156C163.074 289.021 163.724 288.052 164.517 288.003C165.31 287.954 165.945 288.826 165.935 289.961L165.936 289.96Z" fill="#263238"/>
<path d="M164.759 287.963L161.959 287.438C161.959 287.438 163.57 289.437 164.759 287.963Z" fill="#263238"/>
<path d="M177.936 291.027C177.926 292.163 177.276 293.132 176.482 293.181C175.688 293.23 175.054 292.359 175.064 291.224C175.074 290.088 175.724 289.119 176.517 289.07C177.31 289.021 177.945 289.893 177.935 291.028L177.936 291.027Z" fill="#263238"/>
<path d="M176.759 289.03L173.959 288.505C173.959 288.505 175.57 290.504 176.759 289.03Z" fill="#263238"/>
<path d="M166.917 304.955C167.356 306.365 167.693 307.804 167.924 309.261C168.183 309.266 168.443 309.272 168.703 309.262C172.228 309.241 173.855 308.065 174.59 306.767C174.935 306.126 175.121 305.411 175.134 304.682C175.155 304.27 175.119 303.857 175.027 303.455C173.166 304.584 169.881 304.857 168.121 304.93C167.384 304.968 166.92 304.956 166.92 304.956L166.917 304.955Z" fill="#263238"/>
<path d="M168.119 304.928L168.449 306.189C171.769 306.161 174.103 305.695 175.135 304.681C175.156 304.269 175.12 303.856 175.028 303.454C173.164 304.582 169.879 304.855 168.119 304.928Z" fill="white"/>
<path d="M168.703 309.263C172.228 309.241 173.855 308.065 174.59 306.767C173.249 306.8 171.925 307.071 170.68 307.568C169.86 307.912 169.169 308.505 168.703 309.263Z" fill="#FB504E"/>
<path d="M84.8196 419.927C84.8196 419.927 88.7257 416.04 90.2094 416.799C91.693 417.557 89.4693 420.59 86.9637 423.193C84.4582 425.795 82.2859 425.289 81.9714 423.719C81.6569 422.148 84.8196 419.927 84.8196 419.927Z" fill="#F0BDB0" stroke="#E97A75" stroke-linecap="round" stroke-linejoin="round"/>
<path d="M80.8498 418.611C80.8498 418.611 84.0086 414.092 85.5972 414.572C87.1858 415.052 85.5457 418.43 83.5352 421.442C81.5246 424.454 79.3061 424.337 78.703 422.859C78.0998 421.381 80.8498 418.611 80.8498 418.611Z" fill="#F0BDB0" stroke="#E97A75" stroke-linecap="round" stroke-linejoin="round"/>
<path d="M77.4648 417.406C77.4648 417.406 80.6267 412.898 82.2122 413.376C83.7978 413.854 82.1615 417.235 80.1502 420.246C78.1389 423.258 75.9082 423.13 75.3309 421.648C74.7536 420.165 77.4648 417.406 77.4648 417.406Z" fill="#F0BDB0" stroke="#E97A75" stroke-linecap="round" stroke-linejoin="round"/>
<path d="M73.3429 416.732C73.3429 416.732 74.8844 412.42 76.5293 412.497C78.1742 412.573 77.6945 415.648 76.7685 418.522C75.8425 421.396 73.6944 421.726 72.6768 420.632C71.6593 419.538 73.3429 416.732 73.3429 416.732Z" fill="#F0BDB0" stroke="#E97A75" stroke-linecap="round" stroke-linejoin="round"/>
</g>
<path d="M165.936 289.96C165.926 291.095 165.276 292.064 164.482 292.114C163.688 292.163 163.054 291.292 163.064 290.156C163.074 289.021 163.724 288.052 164.517 288.003C165.31 287.954 165.945 288.826 165.935 289.961L165.936 289.96Z" fill="#263238"/>
<path d="M164.759 287.963L161.959 287.438C161.959 287.438 163.57 289.437 164.759 287.963Z" fill="#263238"/>
<path d="M177.936 291.027C177.926 292.163 177.276 293.132 176.482 293.181C175.688 293.23 175.054 292.359 175.064 291.224C175.074 290.088 175.724 289.119 176.517 289.07C177.31 289.021 177.945 289.893 177.935 291.028L177.936 291.027Z" fill="#263238"/>
<path d="M176.759 289.03L173.959 288.505C173.959 288.505 175.57 290.504 176.759 289.03Z" fill="#263238"/>
<path d="M166.917 304.958C167.356 306.368 167.693 307.807 167.924 309.266C168.183 309.271 168.443 309.275 168.703 309.266C172.228 309.241 173.855 308.063 174.59 306.764C174.935 306.122 175.121 305.406 175.134 304.677C175.155 304.265 175.119 303.852 175.027 303.449C173.166 304.581 169.881 304.857 168.121 304.932C167.384 304.97 166.92 304.959 166.92 304.959L166.917 304.958Z" fill="#263238"/>
<path d="M168.119 304.931L168.449 306.193C171.769 306.162 174.103 305.694 175.135 304.677C175.156 304.265 175.12 303.852 175.028 303.449C173.164 304.58 169.879 304.857 168.119 304.931Z" fill="white"/>
<path d="M168.703 309.266C172.228 309.241 173.855 308.063 174.59 306.764C173.249 306.798 171.925 307.07 170.68 307.568C169.86 307.914 169.169 308.507 168.703 309.266Z" fill="#FB504E"/>
<path d="M84.8196 419.927C84.8196 419.927 88.7257 416.04 90.2094 416.799C91.693 417.557 89.4693 420.59 86.9637 423.193C84.4582 425.795 82.2859 425.289 81.9714 423.719C81.6569 422.148 84.8196 419.927 84.8196 419.927Z" fill="#F0BDB0" stroke="#E97A75" stroke-linecap="round" stroke-linejoin="round"/>
<path d="M80.8498 418.611C80.8498 418.611 84.0086 414.092 85.5972 414.572C87.1858 415.052 85.5457 418.43 83.5352 421.442C81.5246 424.454 79.3061 424.337 78.703 422.859C78.0998 421.381 80.8498 418.611 80.8498 418.611Z" fill="#F0BDB0" stroke="#E97A75" stroke-linecap="round" stroke-linejoin="round"/>
<path d="M77.4648 417.406C77.4648 417.406 80.6267 412.898 82.2122 413.376C83.7978 413.854 82.1615 417.234 80.1502 420.246C78.1389 423.258 75.9082 423.13 75.3309 421.647C74.7536 420.165 77.4648 417.406 77.4648 417.406Z" fill="#F0BDB0" stroke="#E97A75" stroke-linecap="round" stroke-linejoin="round"/>
<path d="M73.3429 416.732C73.3429 416.732 74.8844 412.42 76.5293 412.497C78.1742 412.573 77.6945 415.648 76.7685 418.522C75.8425 421.396 73.6944 421.726 72.6768 420.632C71.6593 419.538 73.3429 416.732 73.3429 416.732Z" fill="#F0BDB0" stroke="#E97A75" stroke-linecap="round" stroke-linejoin="round"/>
</g>
<defs>
<clipPath id="clip0_3_588">
<rect width="557.804" height="470.621" fill="white" transform="translate(-118)"/>
</clipPath>
</defs>
</svg>
