<svg xmlns="http://www.w3.org/2000/svg" width="11.8" height="8.957" viewBox="0 0 11.8 8.957">
  <g id="handshake" transform="translate(-0.6 -4.348)">
    <path id="Path_1971" data-name="Path 1971" d="M6.75,8.75l2,1.666A1,1,0,0,1,8.686,12L6.132,13.8a1,1,0,0,1-1.223-.054L2.25,11.5H1V7H3" transform="translate(0 -1.121)" fill="none" stroke="#8d8d8d" stroke-width="0.8"/>
    <path id="Path_1972" data-name="Path 1972" d="M10.513,7.129,8.823,8.444a.8.8,0,0,1-1.061-.066h0A.8.8,0,0,1,7.693,7.32L9.364,5.148a1,1,0,0,1,1.035-.36l2.364.591h2.5v4.5h-1" transform="translate(-3.263)" fill="none" stroke="#8d8d8d" stroke-linecap="square" stroke-width="0.8"/>
    <path id="Path_1973" data-name="Path 1973" d="M12,18.983l-.5-.483" transform="translate(-5.25 -6.871)" fill="none" stroke="#8d8d8d" stroke-linecap="square" stroke-width="0.8"/>
    <path id="Path_1974" data-name="Path 1974" d="M14.25,16.75,13.5,16" transform="translate(-6.25 -5.621)" fill="none" stroke="#8d8d8d" stroke-linecap="square" stroke-width="0.8"/>
  </g>
</svg>
