<svg xmlns="http://www.w3.org/2000/svg" width="34.819" height="38.824" viewBox="0 0 34.819 38.824">
  <g id="Group_182" data-name="Group 182" transform="translate(0)">
    <g id="Group_181" data-name="Group 181">
      <path id="Path_1479" data-name="Path 1479" d="M17.482,33.836h-3.4C6.306,33.836,0,26.79,0,18.1H0C0,8.1,7.252,0,16.2,0h0c8.488,0,15.368,7.688,15.368,17.172V18.1c0,8.691-6.306,15.737-14.084,15.737Z" transform="translate(3.253 0)" fill="#263238"/>
      <path id="Path_1482" data-name="Path 1482" d="M295.82,126.95c-1.794,1.053-4.007,5.566-3.786,15,.185,8.007,2.776,9.964,4.078,10.555s3.815.221,6.263-.185v5.153h10.69l-.057-11.046s1.423,1.423,3.872-.712c2.014-1.758,2.69-4.726,1.125-6.32a3.509,3.509,0,0,0-5.58,1.11c-.669,1.459-2.214,1.48-2.214-.178,0-4.555-2.648-5.494-3.053-12.5C302.076,126.145,299.557,126.807,295.82,126.95Z" transform="translate(-287.073 -118.651)" fill="#ffc8c7"/>
      <path id="Path_1483" data-name="Path 1483" d="M294.714,120c-6.121.712-9.644,5.366-9.644,13.21h0c7.167,0,16.284-.954,20.825-6.285l.491-1.879Z" transform="translate(-285.07 -116.719)" fill="#263238"/>
      <path id="Path_1484" data-name="Path 1484" d="M298.62,118.874a19.3,19.3,0,0,1,11.046,2.669c5.793,3.374,6.669,10.953,6.405,14.185a3.4,3.4,0,0,1,1.915-.32s2.455-10.306-3.808-15.658-11.516-3.245-11.516-3.245a10.946,10.946,0,0,0-4.043,2.37Z" transform="translate(-288.976 -115.593)" fill="#5583ff"/>
      <path id="Path_1485" data-name="Path 1485" d="M304.589,144.905a1.018,1.018,0,0,0,.954,1.089,1.046,1.046,0,1,0-.954-1.089Z" transform="translate(-290.696 -123.61)" fill="#263238"/>
      <path id="Path_1486" data-name="Path 1486" d="M303.272,154.84l-2.342.712a1.21,1.21,0,0,0,1.523.84,1.288,1.288,0,0,0,.818-1.552Z" transform="translate(-289.642 -126.763)" fill="#ff8a89"/>
      <path id="Path_1487" data-name="Path 1487" d="M293.147,140.758l2.036-1.423a1.189,1.189,0,0,0-1.687-.342A1.3,1.3,0,0,0,293.147,140.758Z" transform="translate(-287.34 -122.133)" fill="#263238"/>
      <path id="Path_1488" data-name="Path 1488" d="M307.886,141.195l-2.035-1.423a1.189,1.189,0,0,1,1.694-.349A1.3,1.3,0,0,1,307.886,141.195Z" transform="translate(-291.06 -122.256)" fill="#263238"/>
      <path id="Path_1489" data-name="Path 1489" d="M293.66,143.886a1,1,0,1,0,1.06-1,1.025,1.025,0,0,0-1.06,1Z" transform="translate(-287.546 -123.317)" fill="#263238"/>
      <path id="Path_1490" data-name="Path 1490" d="M298.975,143.48l-.157,6.057-3.189-.989Z" transform="translate(-288.114 -123.488)" fill="#ffb1b0"/>
      <path id="Path_1491" data-name="Path 1491" d="M306.57,161.1c2.569-.335,7.865-1.858,8.69-3.95a5.374,5.374,0,0,1-1.85,2.669c-1.587,1.359-6.84,2.847-6.84,2.847Z" transform="translate(-291.268 -127.428)" fill="#ffb1b0"/>
      <path id="Path_1492" data-name="Path 1492" d="M328.59,116.24a2.071,2.071,0,1,1-1.26,3.943Z" transform="translate(-299.253 -115.635)" fill="#263238"/>
      <path id="Path_1493" data-name="Path 1493" d="M332.274,120.1a2.071,2.071,0,0,1-4.014,1.025Z" transform="translate(-299.521 -116.748)" fill="#263238"/>
    </g>
  </g>
</svg>
