<svg xmlns="http://www.w3.org/2000/svg" width="23.737" height="25.3" viewBox="0 0 23.737 25.3">
  <g id="journals-svgrepo-com" transform="translate(0.15 0.15)">
    <path id="Path_15386" data-name="Path 15386" d="M7.25,0h12.5a3.125,3.125,0,0,1,3.125,3.125V18.75a3.125,3.125,0,0,1-3.125,3.125A3.125,3.125,0,0,1,16.625,25H4.125A3.125,3.125,0,0,1,1,21.875H2.563a1.562,1.562,0,0,0,1.563,1.563h12.5a1.563,1.563,0,0,0,1.563-1.562V6.25a1.563,1.563,0,0,0-1.562-1.562H4.125A1.562,1.562,0,0,0,2.563,6.25H1A3.125,3.125,0,0,1,4.125,3.125h12.5A3.125,3.125,0,0,1,19.75,6.25V20.313a1.563,1.563,0,0,0,1.563-1.562V3.125A1.563,1.563,0,0,0,19.75,1.563H7.25A1.563,1.563,0,0,0,5.688,3.125H4.125A3.125,3.125,0,0,1,7.25,0Z" transform="translate(0.563)" fill="#263238" stroke="#263238" stroke-width="0.3"/>
    <path id="Path_15387" data-name="Path 15387" d="M1.563,6.563V5.781a.781.781,0,0,1,1.563,0v.781h.781a.781.781,0,0,1,0,1.563H.781a.781.781,0,0,1,0-1.562Zm0,4.688v-.781a.781.781,0,0,1,1.563,0v.781h.781a.781.781,0,0,1,0,1.563H.781a.781.781,0,0,1,0-1.562Zm0,3.906v.781H.781a.781.781,0,0,0,0,1.563H3.906a.781.781,0,0,0,0-1.562H3.125v-.781a.781.781,0,0,0-1.562,0Z" transform="translate(0 2.813)" fill="#263238" stroke="#263238" stroke-width="0.3"/>
  </g>
</svg>
