<svg xmlns="http://www.w3.org/2000/svg" width="26.547" height="25.409" viewBox="0 0 26.547 25.409">
  <g id="language" transform="translate(-1.25 -1.25)">
    <path id="Path_12031" data-name="Path 12031" d="M15.662,7.408V3.423A1.423,1.423,0,0,0,14.239,2H3.423A1.423,1.423,0,0,0,2,3.423V13.67a1.423,1.423,0,0,0,1.423,1.423H5.416v2.562L9.4,15.093h1.139" fill="none" stroke="#e84941" stroke-linecap="round" stroke-linejoin="round" stroke-width="1.5"/>
    <path id="Path_12032" data-name="Path 12032" d="M23.423,16.5H34.239a1.423,1.423,0,0,1,1.423,1.423V28.17a1.423,1.423,0,0,1-1.423,1.423H32.247v2.562l-3.985-2.562H23.423A1.423,1.423,0,0,1,22,28.17V17.923A1.423,1.423,0,0,1,23.423,16.5Z" transform="translate(-8.615 -6.246)" fill="none" stroke="#e84941" stroke-linecap="round" stroke-linejoin="round" stroke-width="1.5"/>
    <path id="Path_12033" data-name="Path 12033" d="M29.095,28.762H29L31.372,22.5h.949l2.372,6.262H34.6" transform="translate(-11.63 -8.83)" fill="none" stroke="#e84941" stroke-linecap="round" stroke-linejoin="round" stroke-width="1.5"/>
    <path id="Path_12034" data-name="Path 12034" d="M30.5,30h3.985" transform="translate(-12.276 -12.061)" fill="none" stroke="#e84941" stroke-linecap="round" stroke-linejoin="round" stroke-width="1.5"/>
    <path id="Path_12035" data-name="Path 12035" d="M8,10h6.831" transform="translate(-2.584 -3.446)" fill="none" stroke="#e84941" stroke-linecap="round" stroke-linejoin="round" stroke-width="1.5"/>
    <path id="Path_12036" data-name="Path 12036" d="M14,7V8.708" transform="translate(-5.169 -2.154)" fill="none" stroke="#e84941" stroke-linecap="round" stroke-linejoin="round" stroke-width="1.5"/>
    <path id="Path_12037" data-name="Path 12037" d="M8,15.123c2.906-.214,4.664-1.967,5.693-5.123H13.06" transform="translate(-2.584 -3.446)" fill="none" stroke="#e84941" stroke-linecap="round" stroke-linejoin="round" stroke-width="1.5"/>
    <path id="Path_12038" data-name="Path 12038" d="M10.658,10H10c.819,2.525,2.082,4.191,3.985,4.934" transform="translate(-3.446 -3.446)" fill="none" stroke="#e84941" stroke-linecap="round" stroke-linejoin="round" stroke-width="1.5"/>
  </g>
</svg>
