<svg id="library-svgrepo-com" xmlns="http://www.w3.org/2000/svg" width="18.5" height="18.5" viewBox="0 0 18.5 18.5">
  <path id="Path_1334" data-name="Path 1334" d="M8.25,17.9A.645.645,0,0,1,8.9,17.25h5.163a.645.645,0,1,1,0,1.291H8.9A.645.645,0,0,1,8.25,17.9Z" transform="translate(-2.227 -3.483)" fill="#8d8d8d" fill-rule="evenodd"/>
  <path id="Path_1335" data-name="Path 1335" d="M7.66,1.25h5.68a4.538,4.538,0,0,1,.461.014A2.366,2.366,0,0,1,15.912,3.5,2.485,2.485,0,0,1,17.68,5.846a2.871,2.871,0,0,1,1.328.794,3.118,3.118,0,0,1,.742,2.225,24.148,24.148,0,0,1-.329,3.215l-.378,2.679a21,21,0,0,1-.446,2.52,3.161,3.161,0,0,1-1,1.683,3.427,3.427,0,0,1-1.864.7,24.68,24.68,0,0,1-2.694.084H7.959a24.683,24.683,0,0,1-2.694-.084,3.427,3.427,0,0,1-1.864-.7,3.161,3.161,0,0,1-1-1.683,21,21,0,0,1-.446-2.52L1.579,12.08A24.15,24.15,0,0,1,1.25,8.865,3.118,3.118,0,0,1,1.992,6.64,2.871,2.871,0,0,1,3.32,5.846,2.485,2.485,0,0,1,5.088,3.5,2.366,2.366,0,0,1,7.2,1.264,4.538,4.538,0,0,1,7.66,1.25ZM4.639,5.619c.8-.067,1.773-.067,2.949-.067h5.824c1.175,0,2.152,0,2.948.067A1.19,1.19,0,0,0,15.2,4.692H5.8A1.19,1.19,0,0,0,4.639,5.619Zm9.024-3.072A1.076,1.076,0,0,1,14.6,3.4H6.4a1.076,1.076,0,0,1,.939-.854c.048-.005.117-.006.359-.006H13.3C13.546,2.541,13.615,2.542,13.663,2.547ZM2.939,7.517a2.174,2.174,0,0,1,1.414-.57,28.05,28.05,0,0,1,3.284-.1h5.727a28.051,28.051,0,0,1,3.284.1,2.174,2.174,0,0,1,1.414.57,1.858,1.858,0,0,1,.4,1.358,23.692,23.692,0,0,1-.324,3.078l-.364,2.581a20.486,20.486,0,0,1-.418,2.4,1.9,1.9,0,0,1-.578,1.037,2.169,2.169,0,0,1-1.195.416A24.166,24.166,0,0,1,13,18.459H8a24.166,24.166,0,0,1-2.582-.075,2.169,2.169,0,0,1-1.195-.416,1.9,1.9,0,0,1-.578-1.037,20.488,20.488,0,0,1-.418-2.4l-.364-2.581a23.707,23.707,0,0,1-.324-3.078A1.858,1.858,0,0,1,2.939,7.517Z" transform="translate(-1.25 -1.25)" fill="#8d8d8d" fill-rule="evenodd"/>
</svg>
