<svg width="375" height="435" viewBox="0 0 375 435" fill="none" xmlns="http://www.w3.org/2000/svg">
<g clip-path="url(#clip0_10_419)">
<mask id="mask0_10_419" style="mask-type:luminance" maskUnits="userSpaceOnUse" x="0" y="0" width="375" height="435">
<path d="M375 0H0V435H375V0Z" fill="white"/>
</mask>
<g mask="url(#mask0_10_419)">
<path d="M106.496 399.826C106.496 399.826 74.568 402.899 62.9669 381.337C51.3658 359.776 71.6714 333.57 49.9081 324.326C28.1447 315.081 2.02805 345.91 -41.5007 319.705C-85.0295 293.5 -61.8283 259.62 -50.2053 233.437C-38.5822 207.255 -32.7962 194.915 -60.3696 177.974C-87.943 161.033 -118.415 111.719 -99.5451 63.9746C-80.6752 16.2306 -32.2049 42.8001 -7.54596 18.1651C15.9293 -5.28734 368.36 -8.01828 420.594 18.1651C472.828 44.3484 440.204 96.3049 414.09 113.267C376.091 137.971 420.903 185.877 428.107 215.203C438.662 258.071 407.458 321.113 367.498 319.195C303.665 316.099 286.4 276.583 273.341 296.596C260.282 316.609 300.916 321.254 295.105 353.607C289.294 385.959 277.696 398.277 251.576 398.277C225.457 398.277 209.507 373.642 181.931 385.96C154.356 398.278 119.554 407.521 106.496 399.826Z" fill="#263238" stroke="#263238" stroke-linecap="round" stroke-linejoin="round"/>
<path d="M441.445 303.078C437.53 300.724 433.242 298.952 428.738 297.826C422.803 296.242 416.832 299.731 419.89 302.948C423.698 306.957 426.013 312.18 421.691 317.853C412.221 330.333 402.681 324.351 402.681 324.351C402.681 324.351 390.43 306.465 382.497 317.853C385.472 294.353 331.684 285.597 331.684 285.597C331.684 285.597 334.399 252.383 320.019 225.116C305.64 197.85 299.317 222.011 288.903 210.97C278.489 199.928 278.019 152.883 282.562 139.241C287.104 125.6 263.024 113.401 265.34 106.113C267.655 98.8251 271.014 106.92 273.092 102.4C275.17 97.8801 259.895 95.9596 259.895 95.9596C259.895 95.9596 244.235 95.2782 231.094 111.286C217.953 127.294 274.497 127.324 253.73 134.641C232.962 141.958 101.442 138.168 81.7807 152.032C62.1195 165.895 94.8346 179.198 81.7807 194.294C68.7269 209.389 54.5745 212.42 47.1366 233.274C39.6988 254.128 47.1366 285.598 47.1366 285.598C47.1366 285.598 -4.66744 295.809 -5.87407 309.655C-6.18854 314.036 -5.74332 318.435 -4.55538 322.686C-4.55538 322.996 -2.72642 339.876 -10.0062 345.51C-17.286 351.143 -22.0125 354.931 -27.4273 351.043C-32.8422 347.154 -34.7191 341.471 -34.531 330.214C-34.3429 318.957 -34.357 314.176 -44.4863 310.071C-54.6155 305.965 -77.8357 303.785 -71.5004 311.855C-65.1651 319.924 -59.6162 321.508 -55.448 324.665C-51.2798 327.821 -38.6112 337.265 -52.4734 353.973C-66.3357 370.682 -67.1571 386.952 -52.1623 405.705C-37.1674 424.459 -34.3049 417.533 -20.5457 422.745C-19.784 422.98 -18.9732 423.044 -18.1796 422.933C-17.386 422.821 -16.632 422.537 -15.9793 422.104C-16.6797 422.826 -17.3981 423.527 -18.1575 424.199H386.966C405.085 417.583 411.418 397.717 411.418 397.717L414.155 366.443C414.155 366.443 433.543 346.054 444.618 334.567C455.694 323.08 454.162 311.056 441.445 303.078Z" fill="white"/>
<path d="M182.955 41.2007C182.907 39.9483 181.949 39.0099 180.969 39.2194C180.413 39.4667 179.947 39.8669 179.634 40.3661C179.32 40.8653 179.174 41.4397 179.215 42.0122C179.279 43.2667 180.236 44.1898 181.241 43.9507C181.781 43.6988 182.233 43.3024 182.538 42.812C182.844 42.3216 182.989 41.7596 182.956 41.1979L182.955 41.2007Z" fill="#C8C8C8"/>
<path d="M214.774 62.9441C214.765 62.4411 214.386 62.0692 213.986 62.1507C213.756 62.2485 213.563 62.4126 213.436 62.6189C213.309 62.8253 213.254 63.0632 213.28 63.2977C213.301 63.8023 213.684 64.1748 214.087 64.0786C214.308 63.9752 214.493 63.8113 214.616 63.6087C214.738 63.406 214.794 63.1742 214.774 62.9441Z" fill="#C8C8C8"/>
<path d="M177.317 32.9789C177.295 32.4743 176.912 32.1018 176.513 32.1833C176.284 32.2826 176.092 32.447 175.965 32.6529C175.838 32.8589 175.783 33.096 175.807 33.3303C175.828 33.835 176.211 34.2074 176.613 34.1112C176.835 34.0069 177.02 33.8437 177.145 33.6421C177.27 33.4405 177.33 33.2097 177.317 32.9789Z" fill="#C8C8C8"/>
<path d="M207.684 47.7259C207.663 47.2212 207.282 46.834 206.88 46.9302C206.654 47.0374 206.465 47.2053 206.339 47.4125C206.213 47.6196 206.154 47.8563 206.171 48.0921C206.211 48.5841 206.594 48.9556 206.996 48.8603C207.22 48.7601 207.407 48.5966 207.53 48.393C207.653 48.1894 207.706 47.9559 207.681 47.7255L207.684 47.7259Z" fill="#C8C8C8"/>
<path d="M167.144 21.5653C167.149 21.5276 167.146 21.4895 167.134 21.4536C167.122 21.4177 167.101 21.385 167.074 21.3579C167.046 21.3308 167.013 21.3099 166.975 21.2968C166.938 21.2836 166.898 21.2786 166.858 21.282C166.776 21.3163 166.707 21.3742 166.662 21.4472C166.618 21.5202 166.598 21.6044 166.608 21.6873C166.602 21.725 166.606 21.7631 166.618 21.799C166.63 21.8349 166.65 21.8676 166.678 21.8947C166.705 21.9218 166.739 21.9427 166.776 21.9558C166.814 21.969 166.854 21.974 166.894 21.9706C166.973 21.9329 167.038 21.8743 167.083 21.8022C167.127 21.7301 167.148 21.6476 167.144 21.5653Z" fill="#C8C8C8"/>
<path d="M85.9206 102.616C85.8993 102.111 85.5189 101.724 85.1167 101.82C84.8871 101.923 84.695 102.09 84.5661 102.297C84.4372 102.505 84.3776 102.743 84.3954 102.98C84.4349 103.472 84.8181 103.844 85.2202 103.748C85.4469 103.65 85.6366 103.488 85.7624 103.285C85.8881 103.082 85.9435 102.847 85.9206 102.616Z" fill="#C8C8C8"/>
<path d="M62.0905 137.172C62.0535 135.915 61.1136 134.965 60.1386 135.184C59.5894 135.441 59.1277 135.846 58.8133 136.348C58.4989 136.85 58.3463 137.424 58.3754 137.998C58.4306 139.241 59.3876 140.164 60.3719 139.915C60.9064 139.664 61.3556 139.268 61.6618 138.779C61.9681 138.29 62.1173 137.73 62.0905 137.172Z" fill="#C8C8C8"/>
<path d="M49.3879 177.362C49.371 176.856 48.9942 176.484 48.5972 176.569C48.3691 176.67 48.1776 176.836 48.0501 177.043C47.9226 177.251 47.8655 177.489 47.8872 177.724C47.904 178.23 48.2963 178.604 48.6806 178.503C48.9039 178.4 49.0914 178.236 49.2178 178.032C49.3443 177.828 49.4036 177.594 49.3879 177.362Z" fill="#C8C8C8"/>
<path d="M34.7259 132.067C34.709 131.56 34.335 131.174 33.938 131.259C33.7099 131.36 33.5184 131.526 33.3909 131.733C33.2634 131.941 33.2064 132.179 33.228 132.414C33.2448 132.92 33.6216 133.292 34.0214 133.192C34.2415 133.09 34.4265 132.928 34.5523 132.727C34.678 132.526 34.7385 132.296 34.7259 132.067Z" fill="#C8C8C8"/>
<path d="M140.789 28.6594C140.752 27.4029 139.813 26.4527 138.838 26.6722C138.289 26.929 137.827 27.3346 137.512 27.8363C137.198 28.3381 137.045 28.9129 137.074 29.4862C137.129 30.73 138.085 31.6521 139.07 31.4034C139.604 31.1517 140.053 30.756 140.36 30.267C140.666 29.778 140.815 29.2182 140.789 28.6594Z" fill="#C8C8C8"/>
<path d="M122.262 69.4714C122.245 68.9651 121.868 68.5939 121.472 68.6782C121.243 68.7794 121.052 68.9456 120.924 69.1532C120.797 69.3607 120.74 69.599 120.761 69.834C120.778 70.3402 121.17 70.7136 121.554 70.6123C121.778 70.5095 121.965 70.3451 122.092 70.1412C122.218 69.9372 122.277 69.7035 122.262 69.4714Z" fill="#C8C8C8"/>
<path d="M86.6834 19.6252C86.6667 19.1189 86.2929 18.7328 85.8959 18.8172C85.6678 18.9184 85.4764 19.0846 85.3488 19.2921C85.2213 19.4996 85.1642 19.7379 85.1858 19.9729C85.2025 20.4792 85.5791 20.8504 85.9788 20.7512C86.1988 20.649 86.3839 20.4867 86.5096 20.2858C86.6354 20.0849 86.6959 19.8546 86.6834 19.6252Z" fill="#C8C8C8"/>
<path d="M64.8217 40.0185C64.7852 38.7621 63.8458 37.8118 62.871 38.0313C62.3219 38.2881 61.8602 38.6937 61.5457 39.1955C61.2313 39.6973 61.0786 40.2721 61.1074 40.8454C61.1622 42.0891 62.1187 43.0112 63.1029 42.7625C63.6373 42.5109 64.0865 42.1151 64.3928 41.6261C64.6991 41.1372 64.8485 40.5773 64.8217 40.0185Z" fill="#C8C8C8"/>
<path d="M50.0314 76.0094C50.0147 75.5031 49.6381 75.1319 49.2411 75.2162C49.013 75.3174 48.8215 75.4836 48.694 75.6912C48.5665 75.8987 48.5094 76.137 48.531 76.372C48.5477 76.8782 48.9397 77.2516 49.324 77.1503C49.5472 77.0476 49.7347 76.8831 49.8612 76.6792C49.9876 76.4752 50.047 76.2415 50.0314 76.0094Z" fill="#C8C8C8"/>
<path d="M24.34 32.9862C24.3233 32.4799 23.9495 32.0938 23.5525 32.1782C23.3244 32.2794 23.133 32.4456 23.0054 32.6531C22.8779 32.8607 22.8208 33.0989 22.8424 33.3339C22.8591 33.8402 23.2357 34.2114 23.6354 34.1122C23.8554 34.01 24.0405 33.8478 24.1662 33.6468C24.292 33.4459 24.3525 33.2156 24.34 32.9862Z" fill="#C8C8C8"/>
<path d="M294.45 104.738C285.805 98.5466 259.602 82.8405 244.914 82.3299C235.88 82.1005 226.945 84.1232 219.041 88.1872C219.041 88.1872 189.175 90.1644 186.724 87.1569C184.272 84.1493 182.261 70.7174 178.99 66.7352C175.718 62.753 157.748 56.8771 154.797 56.5244C151.845 56.1716 150.205 45.6916 148.474 42.6005C146.743 39.5094 134.466 50.5464 133.466 55.4105C132.465 60.2745 130.274 69.4736 135.467 78.6726C140.66 87.8716 162.541 86.7763 160.67 90.6378C158.799 94.4994 114.306 113.742 110.484 120.416C106.662 127.091 112.795 147.336 112.795 147.336C105.335 151.407 98.3801 156.226 92.0541 161.705C81.1384 170.988 88.3522 173.698 89.0526 177.894C90.6134 187.297 98.9377 194.417 101.349 196.905C103.76 199.392 121.259 203.18 121.259 203.18C117.153 211.11 112.149 218.612 106.332 225.56C101.459 231.482 92.4744 247.226 102.8 265.085C113.125 282.945 156.388 316.641 162.441 318.85C168.494 321.059 202.777 319.785 218.755 318.606C234.734 317.427 262.293 287.085 265.545 282.007C284.435 252.693 281.623 245.592 281.623 245.592C281.623 245.592 272.849 206.336 269.617 199.894C264.264 189.321 260.612 175.369 259.442 162.151C258.271 148.932 262.713 145.154 272.248 140.42C282.394 135.408 297.562 138.137 301.764 130.209C307.107 120.221 303.505 111.217 294.45 104.738ZM226.344 131.945C226.344 131.945 230.346 125.837 226.684 122.663C223.023 119.488 216.519 121.326 210.926 118.95C205.333 116.573 206.984 110.595 206.984 110.595L209.696 104.413C209.696 104.413 211.447 112.823 218.75 113.891C220.351 114.132 232.858 117.724 232.978 124.658C233.098 131.593 226.344 131.945 226.344 131.945Z" fill="#4275FF"/>
<path opacity="0.1" d="M214.077 158.826L234.001 170.774L252.793 185.824C252.793 185.824 253.605 170.476 252.893 161.186C252.893 161.186 246.023 164.797 244.089 160.609C235.849 142.869 252.168 150.931 252.168 150.931C258.208 145.036 239.661 132.496 239.661 132.496C239.661 132.496 235.886 139.179 222.295 141.993C216.217 143.257 211.195 132.766 205.561 126.12C199.928 119.473 198.408 110.176 198.408 110.176C198.408 110.176 176.511 119.917 172.924 112.063C169.338 104.209 177.813 103.784 179.862 101.455C181.911 99.1258 184.364 97.3918 182.563 93.185C180.763 88.9781 175.012 84.0398 175.012 84.0398L178.419 91.7768C175.588 92.5352 152.606 104.624 150.038 108.623C147.097 113.738 145.277 119.345 144.687 125.117C144.365 130.028 148.755 140.862 151.642 140.645L164.856 139.634C164.856 139.634 167.971 148.103 165.98 153.176C163.989 158.25 148.651 166.222 148.047 167.892C147.444 169.562 141.78 201.485 142.725 204.13C143.669 206.776 153.446 214.964 150.738 217.383C148.029 219.802 119.592 235.53 117.128 249.884C114.665 264.239 131.286 280.345 156.769 285.473C182.252 290.6 208.596 292.948 213.786 285.473C218.975 277.997 213.607 274.639 220.732 272.987C227.858 271.334 232.369 273.185 233.502 269.294C234.635 265.403 232.691 259.562 232.691 259.562C232.691 259.562 241.534 261.07 243.196 263.66C244.858 266.251 243.121 259.742 250.473 252.114C257.825 244.485 246.188 186.083 244.07 178.084C241.951 170.086 250.742 223.383 236.35 216.329C221.957 209.274 213.698 214.785 210.866 224.246C208.035 233.706 212.122 248.08 211.81 253C211.498 257.921 194.349 278.806 175.859 257.37C157.369 235.933 168.789 239.747 175.859 228.878C182.929 218.009 193.48 209.549 197.463 195.654C201.446 181.76 206.486 157.484 214.056 158.847" fill="white"/>
<path d="M143.601 243.188C143.601 243.188 156.198 246.826 168.784 228.892C170.925 225.839 159.319 216.825 161.4 212.37C164.612 205.538 184.863 206.141 187.544 195.29C188.214 192.588 189.065 186.174 190.356 183.733C198.75 167.832 214.738 157.658 214.738 157.658C205.991 154.356 196.209 154.306 187.424 157.519C171.926 163.2 154.187 190.11 153.616 190.509C152.756 191.103 140.119 231.167 140.119 231.167L143.601 243.188Z" fill="#4275FF"/>
<g opacity="0.1">
<path d="M143.601 243.188C143.601 243.188 156.198 246.826 168.784 228.892C170.925 225.839 159.319 216.825 161.4 212.37C164.612 205.538 184.863 206.141 187.544 195.29C188.214 192.588 189.065 186.174 190.356 183.733C198.75 167.832 214.738 157.658 214.738 157.658C205.991 154.356 196.209 154.306 187.424 157.519C171.926 163.2 154.187 190.11 153.616 190.509C152.756 191.103 140.119 231.167 140.119 231.167L143.601 243.188Z" fill="white"/>
</g>
<path opacity="0.1" d="M107.422 156.386C107.422 156.386 97.6771 160.424 100.969 169.865C104.401 179.713 109.223 185.339 111.975 187.91C114.726 190.481 127.823 185.543 127.723 187.13L130.344 205.046L135.817 181.496C135.817 181.496 132.405 168.036 121.359 167.72C116.977 167.6 107.922 172.362 107.662 164.369L107.422 156.386Z" fill="white"/>
<path opacity="0.1" d="M258.881 134.192C258.881 134.192 265.295 131.026 260.512 125.383C255.73 119.739 240.232 111.867 240.232 111.867L238.841 93.4412C238.841 93.4412 248.776 105.936 254.319 107.746C259.862 109.556 275.4 114.921 275.41 118.142C275.43 129.847 258.881 134.192 258.881 134.192Z" fill="white"/>
<path opacity="0.3" d="M184.362 155.142C185.683 152.088 181.551 134.433 180.43 133.366C179.31 132.298 168.734 129.55 167.424 128.028C166.113 126.506 162.181 120.407 162.181 120.407V128.947C162.181 128.947 168.744 138.703 170.405 139.316C172.066 139.928 170.055 151.207 170.405 152.423C170.755 153.639 166.463 167.674 164.492 170.533C162.521 173.392 152.326 176.52 150.024 178.943C147.723 181.366 153.176 204.73 153.176 204.73L154.287 197.954C154.824 194.71 156.092 191.608 158.007 188.849C159.922 186.091 162.442 183.737 165.402 181.941C166.883 181.013 168.474 180.085 170.155 178.962C176.058 175.128 167.153 193.155 167.153 193.155L189.395 175.908C194.085 169.442 197.118 162.065 198.26 154.344C198.75 151.04 198.93 149.035 199.32 148.57C200.111 147.642 183.102 158.196 184.362 155.142Z" fill="white"/>
<path opacity="0.3" d="M262.713 123.823C262.713 123.823 262.713 121.187 260.712 120.361C258.711 119.534 250.277 110.762 250.277 110.762C250.277 110.762 255.52 111.199 258.651 113.547C266.255 119.135 262.713 123.823 262.713 123.823Z" fill="white"/>
<path opacity="0.1" d="M167.093 79.0718C167.093 79.0718 147.943 75.2195 147.003 72.4997C146.062 69.7799 142.15 60.9336 142.15 60.0239C142.15 59.1142 144.842 56.3944 144.842 56.3944C144.842 56.3944 143.621 59.337 144.602 60.0239C145.582 60.7108 160.98 67.7377 161.711 70.4575C162.441 73.1773 167.093 79.0718 167.093 79.0718Z" fill="white"/>
<path opacity="0.8" d="M183.832 79.6287C182.421 74.7646 180.931 69.0744 178.99 66.6981C175.718 62.688 157.748 56.84 154.797 56.4872C151.845 56.1345 150.205 45.6545 148.474 42.5634C148.388 42.4013 148.254 42.2659 148.087 42.1735C147.92 42.0812 147.727 42.0361 147.533 42.0436C147.533 42.2663 148.464 53.3219 152.256 56.3202C156.048 59.3184 173.026 64.1082 176.548 66.234C178.559 67.5242 181.601 74.1613 183.832 79.6287Z" fill="white"/>
<path opacity="0.8" d="M110.606 120.304C112.416 117.494 119.346 113.496 119.346 113.496C119.346 113.496 144.071 98.6051 133.206 107.526C127.043 112.597 118.979 115.777 115.091 119.538C108.595 125.822 109.682 131.965 110.209 134.657C109.198 133.908 107.126 125.697 110.606 120.304Z" fill="white"/>
<path opacity="0.8" d="M275.649 245.276C275.649 245.276 269.406 217.336 265.494 204.73C265.494 204.73 271.597 229.747 271.557 232.624C271.517 235.502 274.759 243.178 271.287 252.377C267.551 261.231 262.959 269.753 257.57 277.84C254.638 281.961 245.914 293.044 239.66 300.935C249.465 293.267 257.8 284.439 259.571 281.692C278.461 252.424 275.649 245.276 275.649 245.276Z" fill="white"/>
<path opacity="0.3" d="M123.12 288.013L108.703 268.91L104.461 258.857C101.732 252.388 100.903 245.363 102.059 238.5L102.67 230.981C98.3775 238.695 94.7956 251.254 102.79 265.085C106.442 271.435 114.276 279.78 123.12 288.013Z" fill="black"/>
<path opacity="0.3" d="M113.285 192.236C113.225 192.31 113.285 192.514 113.475 192.83C113.445 192.403 113.395 192.096 113.285 192.236Z" fill="black"/>
<path opacity="0.3" d="M121.229 203.18C121.229 203.18 114.716 195.15 113.475 192.83C113.545 194.333 113.285 198 113.285 198C113.285 198 109.853 200.321 96.4264 186.499C88.7324 178.581 87.7619 170.719 88.3322 165.39C83.0894 171.842 88.4322 174.311 89.0225 177.894C90.5833 187.297 98.9077 194.417 101.319 196.905C103.73 199.392 121.229 203.18 121.229 203.18Z" fill="black"/>
<path opacity="0.1" d="M77.5866 237.47C77.5866 237.822 77.3364 242.9 82.319 244.617C84.9327 245.624 87.7582 246.068 90.5834 245.917C90.5834 245.917 86.7113 244.005 83.9499 242.761C83.1322 242.366 82.4252 241.799 81.885 241.107C81.3448 240.414 80.9864 239.613 80.8383 238.769C80.8383 238.769 77.1063 233.877 77.5866 237.47Z" fill="white"/>
<path d="M203.883 208.972C203.182 210.16 198.29 208.851 192.327 208.675C186.363 208.499 181.321 209.306 180.771 208.062C180.51 207.478 181.531 206.401 183.652 205.454C186.448 204.317 189.488 203.788 192.539 203.909C195.589 204.029 198.569 204.796 201.251 206.15C203.272 207.255 204.193 208.397 203.883 208.972Z" fill="#4275FF"/>
<path d="M342.571 175.535C343.901 175.609 345.037 174.793 344.963 173.848C344.785 173.299 344.432 172.822 343.952 172.478C343.472 172.135 342.886 171.942 342.275 171.927C340.94 171.867 339.82 172.683 339.922 173.656C340.107 174.19 340.458 174.654 340.93 174.989C341.403 175.324 341.975 175.514 342.573 175.536L342.571 175.535Z" fill="#C8C8C8"/>
<path d="M315.466 202.166C315.999 202.205 316.449 201.882 316.423 201.497C316.355 201.27 316.21 201.072 316.011 200.933C315.812 200.793 315.569 200.719 315.317 200.721C314.78 200.693 314.329 201.02 314.37 201.409C314.446 201.628 314.592 201.818 314.788 201.953C314.983 202.088 315.22 202.163 315.466 202.166Z" fill="#C8C8C8"/>
<path d="M352.088 171.325C352.625 171.353 353.076 171.026 353.05 170.641C352.979 170.415 352.834 170.219 352.636 170.079C352.437 169.94 352.195 169.865 351.944 169.866C351.407 169.838 350.956 170.164 350.997 170.553C351.074 170.772 351.219 170.962 351.413 171.1C351.607 171.237 351.842 171.315 352.088 171.325Z" fill="#C8C8C8"/>
<path d="M332.611 197.491C333.148 197.519 333.614 197.197 333.573 196.808C333.494 196.584 333.344 196.39 333.144 196.251C332.944 196.112 332.703 196.035 332.451 196.028C331.925 196.019 331.475 196.345 331.515 196.734C331.587 196.956 331.732 197.147 331.929 197.283C332.126 197.418 332.365 197.49 332.612 197.489L332.611 197.491Z" fill="#C8C8C8"/>
<path d="M365.554 163.339C365.593 163.348 365.633 163.349 365.673 163.341C365.713 163.332 365.751 163.316 365.783 163.293C365.816 163.27 365.843 163.24 365.863 163.206C365.882 163.172 365.894 163.134 365.896 163.096C365.872 163.016 365.821 162.946 365.751 162.896C365.68 162.847 365.594 162.821 365.505 162.822C365.466 162.813 365.425 162.813 365.386 162.821C365.346 162.829 365.308 162.845 365.276 162.868C365.243 162.892 365.216 162.921 365.196 162.955C365.177 162.989 365.165 163.027 365.163 163.065C365.191 163.143 365.243 163.211 365.312 163.26C365.382 163.308 365.466 163.336 365.554 163.339Z" fill="#C8C8C8"/>
<path d="M259.678 36.1654C261.009 36.239 262.16 35.4273 262.083 34.4808C261.899 33.9361 261.544 33.4618 261.065 33.1193C260.586 32.7767 260.004 32.5818 259.395 32.5598C258.075 32.5045 256.951 33.335 257.057 34.293C257.237 34.8231 257.583 35.2847 258.051 35.6184C258.518 35.9521 259.084 36.1425 259.678 36.1654Z" fill="#C8C8C8"/>
<path d="M248.941 31.4003C249.477 31.4281 249.929 31.1018 249.903 30.7168C249.832 30.491 249.687 30.2944 249.488 30.1551C249.29 30.0158 249.048 29.9409 248.796 29.9411C248.26 29.9133 247.804 30.2542 247.85 30.6286C247.923 30.8499 248.066 31.0425 248.261 31.1805C248.456 31.3185 248.694 31.3952 248.941 31.4003Z" fill="#C8C8C8"/>
<path d="M288.728 78.6756C289.265 78.7034 289.731 78.381 289.69 77.9921C289.615 77.7655 289.468 77.5682 289.268 77.4268C289.068 77.2854 288.825 77.2065 288.572 77.2008C288.046 77.1914 287.596 77.518 287.636 77.9066C287.706 78.13 287.848 78.3245 288.044 78.4626C288.24 78.6007 288.48 78.6752 288.728 78.6756Z" fill="#C8C8C8"/>
<path d="M263.454 27.9475C263.99 27.9753 264.457 27.6529 264.431 27.2679C264.36 27.042 264.215 26.8454 264.017 26.7062C263.818 26.5669 263.576 26.492 263.325 26.4922C262.788 26.4644 262.337 26.7907 262.378 27.1797C262.451 27.3979 262.593 27.5881 262.785 27.7251C262.977 27.8621 263.21 27.9396 263.454 27.9475Z" fill="#C8C8C8"/>
<path d="M361.015 108.342C362.101 107.643 362.43 106.357 361.711 105.666C361.189 105.347 360.583 105.18 359.972 105.187C359.361 105.193 358.772 105.372 358.283 105.702C357.219 106.409 356.923 107.694 357.673 108.378C358.183 108.687 358.774 108.849 359.369 108.842C359.965 108.836 360.538 108.662 361.015 108.342Z" fill="#C8C8C8"/>
<path d="M317.855 109.823C318.292 109.539 318.415 109.029 318.127 108.745C317.915 108.61 317.665 108.539 317.414 108.544C317.162 108.549 316.922 108.628 316.727 108.771C316.29 109.055 316.173 109.579 316.47 109.844C316.68 109.974 316.926 110.042 317.174 110.038C317.422 110.035 317.66 109.959 317.855 109.823Z" fill="#C8C8C8"/>
<path d="M333.236 44.8465C333.673 44.5631 333.811 44.0473 333.522 43.763C333.31 43.6276 333.061 43.5573 332.809 43.562C332.558 43.5668 332.317 43.6463 332.122 43.7894C331.685 44.0728 331.562 44.5829 331.865 44.8617C332.074 44.9898 332.316 45.0569 332.561 45.0542C332.806 45.0515 333.041 44.9791 333.236 44.8465Z" fill="#C8C8C8"/>
<path d="M351.638 41.419C351.547 40.1833 350.53 39.218 349.526 39.4007C348.966 39.6345 348.502 40.0173 348.197 40.4996C347.891 40.982 347.756 41.5415 347.81 42.1057C347.92 43.3295 348.953 44.2677 349.966 44.0567C350.512 43.8275 350.962 43.4539 351.26 42.9838C351.558 42.5138 351.69 41.9688 351.638 41.419Z" fill="#C8C8C8"/>
<path d="M337.007 66.0839C336.969 65.586 336.561 65.2085 336.152 65.2779C335.919 65.3696 335.727 65.5265 335.603 65.7261C335.479 65.9257 335.43 66.1578 335.462 66.3895C335.501 66.8874 335.924 67.2675 336.32 67.181C336.548 67.0876 336.736 66.9324 336.859 66.7363C336.982 66.5401 337.034 66.3125 337.007 66.0839Z" fill="#C8C8C8"/>
<path d="M303.027 33.1546C302.988 32.6566 302.583 32.2646 302.173 32.3341C301.94 32.4258 301.748 32.5826 301.624 32.7822C301.5 32.9818 301.451 33.214 301.483 33.4456C301.522 33.9437 301.929 34.3212 302.341 34.2372C302.566 34.1442 302.751 33.991 302.874 33.7979C302.996 33.6047 303.049 33.3805 303.027 33.1546Z" fill="#C8C8C8"/>
<path d="M326.314 405.64C326.314 421.855 262.922 435 184.726 435C106.529 435 43.1375 421.855 43.1375 405.64C43.1375 389.425 106.529 376.28 184.726 376.28C262.922 376.28 326.314 389.425 326.314 405.64Z" fill="#EAEAEA"/>
<path d="M160.318 409.749L173.635 410.894C174.122 410.94 173.411 412.931 173.435 413.375C173.435 413.375 176.008 419.406 175.923 422.063C175.838 424.72 174.088 425.01 172.138 424.976C167.607 424.904 166.343 423.387 160.423 423.592C156.81 423.713 153.5 423.897 149.304 421.171C145.304 418.567 144.633 415.334 148.803 415.764C158.753 416.81 156.999 415.632 159.85 412.855C160.324 412.359 159.614 409.682 160.318 409.749Z" fill="#F0BDB0"/>
<path d="M200.462 407.38L186.349 410.481C185.833 410.599 186.919 412.639 186.965 413.119C186.965 413.119 185.181 419.958 185.703 422.802C186.225 425.645 188.15 425.712 190.239 425.403C195.091 424.692 196.202 422.886 202.593 422.279C206.491 421.904 210.074 421.639 214.138 418.124C218.013 414.768 218.207 411.2 213.8 412.244C203.287 414.764 204.979 413.249 201.468 410.664C200.877 410.195 201.205 407.22 200.462 407.38Z" fill="#F0BDB0"/>
<path d="M121.332 392.537C147.456 391.924 164.405 410.387 164.405 410.387C161.844 417.953 160.203 423.615 160.203 423.615C145.915 421.109 129.667 420.097 116.29 416.867C104.214 413.952 102.953 398.812 104.284 392.453C105.614 386.095 112.468 384.61 119.211 382.54C126.905 380.173 141.573 379.987 152.089 379.95C163.174 379.95 177.742 380.878 185.286 382.456C185.286 382.456 201.294 381.797 213.19 381.983C220.134 380.897 215.952 391.395 204.926 400.344C199.481 404.818 193.034 408.117 186.05 410.003C179.066 411.889 171.718 412.315 164.535 411.251H164.445" fill="#262D36"/>
<path d="M246.978 392.537C220.854 391.924 197.672 410.387 197.672 410.387C200.234 417.953 201.875 423.615 201.875 423.615C216.162 421.109 238.644 420.097 252.021 416.867C264.107 413.952 265.358 398.812 264.027 392.453C262.696 386.095 255.843 384.61 249.099 382.54C241.405 380.173 226.738 379.987 216.222 379.95C205.136 379.95 190.569 380.878 183.025 382.456C183.025 382.456 167.016 381.797 155.13 381.983C148.176 380.897 152.359 391.395 163.384 400.344C168.824 404.811 175.262 408.106 182.237 409.992C189.212 411.878 196.55 412.308 203.725 411.251H203.816" fill="#262D36"/>
<path d="M164.525 326.779C162.264 333.933 159.879 341.05 157.371 348.129C156.121 351.675 154.85 355.212 153.529 358.739C152.209 362.266 150.928 365.766 149.467 369.33L149.287 369.776L149.047 370.314C148.887 370.667 148.707 371.001 148.527 371.335C148.164 371.956 147.763 372.558 147.326 373.136C146.527 374.173 145.619 375.134 144.615 376.005C142.852 377.52 140.924 378.861 138.862 380.005C135.124 382.054 131.184 383.767 127.095 385.12C119.293 387.73 111.234 389.623 103.033 390.773L101.502 384.758C105.144 383.551 108.896 382.27 112.508 380.878C116.12 379.486 119.702 378.093 123.113 376.478C126.443 374.993 129.633 373.251 132.648 371.271C135.47 369.414 137.721 367.084 137.951 365.701L144.635 344.416C146.896 337.296 149.23 330.18 151.638 323.066L164.525 326.779Z" fill="#F0BDB0"/>
<path d="M104.113 384.888L91.8971 382.178L97.7201 392.435C97.7201 392.435 106.004 392.749 108.726 388.722L104.113 384.888Z" fill="#F0BDB0"/>
<path d="M200.954 244.315C196.572 241.372 179.016 243.979 176.114 248.462C173.213 252.946 170.711 262.386 165.879 264.669C161.046 266.953 155.293 276.115 158.455 284.163C161.616 292.211 149.12 290.039 148.45 302.264C147.779 314.489 166.539 320.671 178.385 314.638C190.231 308.604 198.566 277.117 197.815 264.669C197.065 252.221 200.954 244.315 200.954 244.315Z" fill="#263238"/>
<path d="M185.096 248.852C187.09 246.24 190.017 244.367 193.357 243.565C196.697 242.763 200.236 243.084 203.345 244.471C217.153 249.919 212.82 255.795 215.352 268.215C217.883 280.635 233.311 282.854 232.611 300.138C231.42 329.573 203.345 324.115 195.591 316.299C187.837 308.483 196.422 279.791 196.422 279.791L185.096 248.852Z" fill="#263238"/>
<path d="M81.9919 386.066L89.5558 390.457L97.6551 392.095L91.6239 382.316L81.9919 386.066Z" fill="#F0BDB0"/>
<path d="M156.031 309.941C150.718 311.203 147.026 331.495 147.026 331.495L161.674 340.777C161.674 340.777 175.681 320.3 171.679 314.879C167.346 309.189 163.795 308.112 156.031 309.941Z" fill="#5E89FF"/>
<path opacity="0.2" d="M155.55 317.32L166.936 319.771L168.027 330.093C166.093 333.727 163.962 337.268 161.643 340.703L152.759 335.133C153.139 330.39 154.11 320.532 155.55 317.32Z" fill="black"/>
<path d="M156.031 309.941C156.031 309.941 149.927 311.927 162.194 382.178H214.591C213.711 362.396 213.681 350.199 223.876 309.597C216.54 308.19 209.103 307.281 201.624 306.877C192.81 306.478 185.616 306.218 177.842 306.877C167.617 307.741 156.031 309.941 156.031 309.941Z" fill="#5E89FF"/>
<path opacity="0.2" d="M211.55 328.45L218.313 333.787C216.862 340.889 215.902 346.783 215.312 352.065C214.011 346.792 210.799 332.479 211.55 328.45Z" fill="black"/>
<path d="M199.273 282.028C197.772 289.129 196.272 302.134 201.624 306.877C201.624 306.877 196.622 317.515 183.365 317.515C170.108 317.515 177.842 306.877 177.842 306.877C186.376 305.021 186.156 299.108 184.666 293.594L199.273 282.028Z" fill="#F6BEAF"/>
<path d="M201.624 306.877C192.81 306.478 185.616 306.218 177.832 306.877C174.15 307.184 170.298 307.666 166.876 308.158C164.615 311.955 155.64 329.026 177.662 329.026C200.754 329.026 210.379 310.256 211.58 307.676C208.488 307.341 205.066 307.035 201.624 306.877Z" fill="#F6BEAF"/>
<path opacity="0.2" d="M193.32 286.743L184.676 293.585C185.037 294.869 185.282 296.179 185.406 297.502C188.668 297.066 193.15 293.742 193.49 290.577C193.684 289.3 193.626 288.001 193.32 286.743Z" fill="black"/>
<path d="M209.358 268.605C206.957 280.273 206.187 285.258 198.953 290.521C188.067 298.449 173.15 293.148 171.759 281.044C170.508 270.155 174.67 252.908 187.767 249.715C190.639 249.007 193.659 248.991 196.54 249.668C199.42 250.345 202.067 251.694 204.229 253.585C206.391 255.477 207.997 257.849 208.895 260.478C209.792 263.106 209.952 265.904 209.358 268.605Z" fill="#F6BEAF"/>
<path d="M186.947 248.462C182.434 250.811 185.426 254.96 193.57 257.902C201.714 260.845 202.205 261.383 200.874 267.491C199.543 273.599 211.41 279.252 211.56 272.94C211.71 266.628 214.131 254.654 207.798 251.321C201.464 247.989 191.719 246.021 186.947 248.462Z" fill="#263238"/>
<path d="M186.266 251.405C182.264 252.602 173.17 261.764 173.84 258.747C174.51 255.73 176.211 251.553 181.014 250.012C183.283 249.177 185.668 248.643 188.097 248.425L186.266 251.405Z" fill="#263238"/>
<path d="M211.74 278.408C210.561 280.42 208.601 281.94 206.257 282.659C203.145 283.587 201.574 281.09 202.425 278.361C203.195 275.901 205.727 272.457 208.858 272.717C211.99 272.977 213.15 275.938 211.74 278.408Z" fill="#F6BEAF"/>
<path d="M163.264 425.258L168.097 408.429L161.734 405.987L152.759 424.06L163.264 425.258Z" fill="#5E89FF"/>
<path d="M198.003 425.611L190.409 408.596L196.282 406.359L208.178 422.909L198.003 425.611Z" fill="#5E89FF"/>
<path d="M182.644 270.49C182.644 270.49 180.323 274.398 178.112 276.152C179.313 277.498 181.704 277.238 181.704 277.238L182.644 270.49Z" fill="#263238"/>
<path d="M194.291 264.966C194.347 264.996 194.411 265.011 194.476 265.011C194.54 265.011 194.604 264.996 194.661 264.966C194.704 264.941 194.742 264.908 194.771 264.869C194.801 264.83 194.822 264.786 194.833 264.739C194.844 264.692 194.845 264.644 194.836 264.597C194.827 264.55 194.809 264.505 194.781 264.465C194.307 263.719 193.645 263.09 192.853 262.633C192.06 262.175 191.159 261.903 190.228 261.838C190.173 261.83 190.116 261.833 190.061 261.847C190.007 261.861 189.956 261.886 189.913 261.92C189.87 261.954 189.836 261.996 189.812 262.044C189.788 262.091 189.776 262.143 189.776 262.196C189.776 262.248 189.788 262.3 189.812 262.347C189.836 262.395 189.87 262.437 189.913 262.471C189.956 262.505 190.007 262.53 190.061 262.544C190.116 262.558 190.173 262.561 190.228 262.553C191.029 262.623 191.8 262.868 192.478 263.268C193.156 263.669 193.723 264.212 194.131 264.855C194.174 264.903 194.229 264.941 194.291 264.966Z" fill="#263238"/>
<path d="M172.939 261.411C173 261.445 173.069 261.462 173.14 261.462C173.21 261.462 173.279 261.445 173.34 261.411C173.957 260.93 174.691 260.594 175.478 260.432C176.265 260.271 177.083 260.288 177.862 260.483C177.96 260.513 178.067 260.507 178.16 260.465C178.254 260.424 178.326 260.35 178.362 260.26C178.38 260.215 178.387 260.167 178.385 260.119C178.382 260.072 178.369 260.025 178.347 259.982C178.324 259.938 178.293 259.9 178.254 259.868C178.216 259.836 178.171 259.812 178.122 259.796C177.222 259.561 176.275 259.53 175.359 259.704C174.444 259.878 173.587 260.254 172.859 260.799C172.818 260.828 172.784 260.864 172.758 260.906C172.733 260.947 172.716 260.993 172.71 261.04C172.703 261.088 172.707 261.136 172.72 261.182C172.734 261.228 172.758 261.271 172.789 261.309C172.828 261.356 172.88 261.391 172.939 261.411Z" fill="#263238"/>
<path d="M215.372 379.328L215.792 383.672C215.972 384.015 215.542 384.359 214.941 384.359H161.934C161.463 384.359 161.073 384.145 161.043 383.867L160.573 379.513C160.573 379.216 160.953 378.956 161.463 378.956H214.491C214.66 378.939 214.832 378.964 214.987 379.029C215.142 379.094 215.275 379.198 215.372 379.328Z" fill="#407BFF"/>
<path d="M215.372 379.328L215.792 383.672C215.972 384.015 215.542 384.359 214.941 384.359H161.934C161.463 384.359 161.073 384.145 161.043 383.867L160.573 379.513C160.573 379.216 160.953 378.956 161.463 378.956H214.491C214.66 378.939 214.832 378.964 214.987 379.029C215.142 379.094 215.275 379.198 215.372 379.328Z" fill="#C2DCFF"/>
<path d="M208.248 384.832H209.669C209.949 384.832 210.169 384.693 210.149 384.526L209.479 378.873C209.479 378.706 209.218 378.576 208.928 378.576H207.507C207.227 378.576 207.007 378.706 207.027 378.873L207.698 384.526C207.718 384.693 207.958 384.832 208.248 384.832Z" fill="#263238"/>
<path d="M165.936 384.832H167.356C167.637 384.832 167.847 384.693 167.827 384.526L167.166 378.873C167.166 378.706 166.896 378.576 166.616 378.576H165.195C164.915 378.576 164.695 378.706 164.715 378.873L165.385 384.526C165.405 384.693 165.646 384.832 165.936 384.832Z" fill="#263238"/>
<path d="M187.087 384.832H188.508C188.798 384.832 189.008 384.693 188.988 384.526L188.327 378.873C188.327 378.706 188.057 378.576 187.777 378.576H186.356C186.066 378.576 185.856 378.706 185.876 378.873L186.537 384.526C186.557 384.693 186.807 384.832 187.087 384.832Z" fill="#263238"/>
<path d="M228.528 323.994L232.821 345.456C233.551 349.02 234.291 352.575 235.072 356.093C235.452 357.848 235.892 359.584 236.302 361.301L236.963 363.835L237.603 366.007C238.01 366.98 238.642 367.857 239.454 368.579C240.586 369.65 241.822 370.623 243.146 371.484C246.152 373.41 249.317 375.114 252.611 376.58C255.993 378.14 259.525 379.56 263.096 380.915C266.668 382.27 270.36 383.542 273.942 384.74L272.411 390.755C264.319 389.614 256.364 387.749 248.659 385.185C244.633 383.863 240.745 382.204 237.043 380.228C235.021 379.129 233.118 377.851 231.36 376.413C229.202 374.688 227.492 372.534 226.357 370.11L226.127 369.581L225.977 369.182L225.707 368.476L225.177 367.047L224.246 364.262C223.659 362.406 223.116 360.58 222.615 358.785C221.581 355.159 220.644 351.533 219.804 347.906C218.063 340.647 216.572 333.416 215.292 326.074L228.528 323.994Z" fill="#F0BDB0"/>
<path d="M223.876 309.597C229.129 311.073 235.632 326.742 235.632 326.742L215.262 340.257C215.262 340.257 207.638 327.355 209.849 321.061C212.14 314.508 217.883 307.908 223.876 309.597Z" fill="#5E89FF"/>
<path d="M271.341 385.055L283.577 382.178L277.744 393.075C277.744 393.075 269.47 393.409 266.738 389.13L271.341 385.055Z" fill="#F0BDB0"/>
<path d="M87.9653 372.871C87.9653 372.871 94.3392 370.015 99.9376 369.984C105.536 369.953 111.435 371.548 116.987 371.6C122.54 371.652 125.96 371.346 125.96 371.346L124.695 375.899L87.3132 375.461L65.991 362.649L65.2326 357.356C67.3954 359.222 69.7786 360.842 72.3379 362.184C77.0453 364.773 82.7639 366.352 85.527 368.414C88.2901 370.477 87.9653 372.871 87.9653 372.871Z" fill="white" stroke="#263238" stroke-width="1.00052" stroke-linecap="round" stroke-linejoin="round"/>
<path d="M126.384 372.582C118.99 372.731 111.626 372.25 104.378 371.144C98.9001 370.388 93.2521 370.989 87.9577 372.889C85.2328 369.773 81.6693 367.443 77.6282 366.136C72.8195 364.405 68.2823 362.088 64.1234 359.24L64.6029 362.584L88.2007 374.401L126.082 375.151L126.384 372.582Z" fill="white" stroke="#263238" stroke-width="1.00052" stroke-linecap="round" stroke-linejoin="round"/>
<path d="M127.018 373.785C121.009 374.305 114.99 374.032 109.13 372.973C99.6146 371.09 88.2596 372.886 88.2596 372.886C85.0945 369.966 81.2754 367.774 77.0684 366.463C72.3095 365.102 67.774 363.161 63.5688 360.686C63.5533 361.193 63.4218 361.695 63.1836 362.157C62.9454 362.618 62.6064 363.028 62.191 363.357L87.172 376.378L126.422 376.12L127.018 373.785Z" fill="white" stroke="#263238" stroke-width="1.00052" stroke-linecap="round" stroke-linejoin="round"/>
<path d="M126.873 375.48L89.1571 374.376L88.7606 375.535L85.8034 374.808L86.2594 373.475L61.8565 362.47C61.8565 362.47 60.8155 361.91 61.3561 363.389C61.8968 364.868 73.6798 383.437 73.6798 383.437L91.4571 390.326L121.401 392.045L126.873 375.48Z" fill="#407BFF"/>
<mask id="mask1_10_419" style="mask-type:luminance" maskUnits="userSpaceOnUse" x="61" y="362" width="66" height="30">
<path d="M126.873 375.228L89.1871 374.356L88.7814 375.528L85.8317 374.813L86.2982 373.466L61.9976 362.517C61.9976 362.517 60.9617 361.959 61.49 363.448C62.0184 364.937 73.6449 383.598 73.6449 383.598L91.3568 390.436L121.271 391.978L126.873 375.228Z" fill="white"/>
</mask>
<g mask="url(#mask1_10_419)">
<path opacity="0.3" d="M89.0707 375.877L89.482 374.7L126.875 375.511L121.257 392.106L91.5837 390.626L91.1074 390.445L88.2946 375.69L89.0707 375.877Z" fill="black"/>
</g>
<path d="M126.873 375.48L89.1571 374.376L88.7606 375.535L85.8034 374.808L86.2594 373.475L61.8565 362.47C61.8565 362.47 60.8155 361.91 61.3561 363.389C61.8968 364.868 73.6798 383.437 73.6798 383.437L91.4571 390.326L121.401 392.045L126.873 375.48Z" stroke="#263238" stroke-width="1.00052" stroke-linecap="round" stroke-linejoin="round"/>
<path d="M88.8659 375.526L92.1077 390.218L90.6242 389.907L85.9524 374.811L88.8659 375.526Z" fill="#2C56B2" stroke="#263238" stroke-width="1.00052" stroke-linecap="round" stroke-linejoin="round"/>
<path d="M293.639 361.057C290.956 360.038 288.694 358.246 287.192 355.951C286.889 355.584 286.682 355.158 286.585 354.706C286.487 354.255 286.504 353.79 286.632 353.348C286.999 352.707 287.618 352.223 288.364 351.993C289.455 351.561 290.625 351.317 291.816 351.275C292.312 351.217 292.817 351.258 293.296 351.396C293.776 351.533 294.219 351.764 294.595 352.072C295.211 352.888 295.472 353.886 295.325 354.865C295.302 356.274 295.279 357.683 295.256 359.093C295.277 359.426 295.218 359.76 295.083 360.069C295.012 360.222 294.889 360.349 294.733 360.432C294.577 360.515 294.396 360.55 294.216 360.53C293.628 360.413 293.549 359.678 293.58 359.125C293.73 357.859 293.514 356.575 292.954 355.404C292.664 354.826 292.197 354.336 291.611 353.996C291.026 353.656 290.347 353.48 289.659 353.491C289.285 353.523 288.853 353.696 288.809 354.04C288.814 354.276 288.915 354.502 289.094 354.672L294.157 360.863" fill="#407BFF"/>
<path d="M291.898 374.145C291.898 374.145 293.123 373.429 292.311 372.946C291.499 372.463 291.111 372.303 289.733 373.35C288.355 374.396 285.31 376.034 283.776 376.238C282.242 376.441 281.151 375.896 279.12 377.627C277.089 379.358 273.33 383.273 273.33 383.273L271.648 383.908L271.694 392.251C271.739 392.215 277.825 393.063 277.833 393.054C280.127 392.288 282.375 391.414 284.57 390.434C285.812 389.519 287.93 388.529 289.257 387.298C290.148 386.6 290.889 385.751 291.44 384.795C292.596 382.972 292.316 382.975 292.316 382.975C292.316 382.975 295.364 383.636 295.877 381.931C296.015 381.4 296.029 380.847 295.918 380.308C295.808 379.769 295.575 379.257 295.236 378.806L291.9 374.15L291.898 374.145Z" fill="#F0BDB0"/>
<path d="M304.547 336.8L280.08 384.982L285.601 387.467L309.803 338.869C309.803 338.869 308.56 336.938 304.549 336.794L304.547 336.8Z" fill="#407BFF"/>
<path opacity="0.8" d="M304.547 336.8L280.08 384.982L285.601 387.467L309.803 338.869C309.803 338.869 308.56 336.938 304.549 336.794L304.547 336.8Z" fill="white"/>
<path d="M292.313 360.913C292.313 360.913 293.325 364.719 297.269 364.021L299.223 360.088C299.223 360.088 294.498 359.306 294.419 356.756L292.312 360.913L292.313 360.913Z" fill="#407BFF"/>
<path d="M295.587 379.52C295.505 379.573 292.736 376.791 291.543 378.524C290.349 380.257 293.923 382.343 293.923 382.343" fill="#F0BDB0"/>
<path d="M292.309 382.963C292.349 382.734 292.309 382.498 292.194 382.29C292.08 382.083 291.897 381.913 291.673 381.808C290.846 381.306 284.432 379.527 283.667 379.725C282.902 379.924 281.818 380.452 282.126 381.189L282.476 381.756C282.476 381.756 280.053 380.842 279.384 381.521C278.715 382.2 278.943 383.484 280.521 384C280.521 384 279.083 383.607 278.624 384.601C278.164 385.595 278.493 386.011 279.566 386.451C280.577 386.96 281.531 387.562 282.413 388.247L282.491 390.06" fill="#F0BDB0"/>
<path d="M279.229 383.573C279.447 383.796 279.707 383.979 279.998 384.112C280.057 384.14 280.126 384.146 280.189 384.128C280.252 384.109 280.304 384.068 280.334 384.014C280.364 383.959 280.37 383.895 280.349 383.837C280.329 383.778 280.284 383.729 280.225 383.7C280.007 383.617 279.812 383.488 279.655 383.323C279.498 383.159 279.384 382.964 279.322 382.752C279.291 382.522 279.314 382.289 279.387 382.068C279.46 381.847 279.583 381.643 279.748 381.47C280.061 381.12 281.578 381.561 282.503 381.967L286.162 383.142C286.635 383.26 287.078 383.468 287.462 383.752C287.622 383.877 287.738 384.044 287.794 384.23C287.849 384.417 287.842 384.614 287.774 384.796C287.759 384.823 287.75 384.853 287.748 384.883C287.746 384.914 287.75 384.944 287.761 384.973C287.771 385.002 287.788 385.029 287.81 385.052C287.831 385.076 287.858 385.095 287.887 385.108C287.917 385.122 287.949 385.13 287.981 385.133C288.014 385.135 288.047 385.131 288.078 385.122C288.109 385.112 288.138 385.097 288.163 385.077C288.188 385.058 288.208 385.033 288.222 385.006C288.342 384.736 288.366 384.436 288.29 384.15C288.215 383.864 288.044 383.607 287.802 383.416C287.368 383.083 286.863 382.841 286.321 382.704L282.687 381.539C282.271 381.355 280.035 380.421 279.362 381.173C279.146 381.396 278.986 381.662 278.895 381.95C278.803 382.239 278.782 382.543 278.832 382.842C278.895 383.113 279.032 383.364 279.231 383.571L279.229 383.573Z" fill="#E97A75"/>
<path d="M282.1 390.05C282.133 390.085 282.176 390.11 282.224 390.123C282.272 390.135 282.322 390.134 282.369 390.119C282.416 390.105 282.457 390.078 282.487 390.041C282.517 390.005 282.534 389.961 282.537 389.915L282.641 388.271C282.644 388.23 282.635 388.189 282.615 388.152C282.595 388.115 282.564 388.084 282.527 388.062L280.727 386.967C280.121 386.644 278.488 385.586 278.77 384.88C278.872 384.633 279.061 384.427 279.307 384.295C279.553 384.163 279.84 384.113 280.123 384.153C281.48 384.571 282.765 385.173 283.937 385.939C284.576 386.425 285.037 387.085 285.254 387.823C285.271 387.883 285.313 387.934 285.371 387.965C285.428 387.996 285.496 388.005 285.56 387.99C285.624 387.975 285.679 387.936 285.712 387.883C285.745 387.83 285.754 387.767 285.737 387.707C285.493 386.873 284.973 386.13 284.25 385.582C283.018 384.773 281.665 384.14 280.234 383.704C279.833 383.636 279.421 383.699 279.069 383.884C278.716 384.068 278.445 384.362 278.302 384.714C277.819 385.916 280.197 387.218 280.47 387.362L282.135 388.374L282.039 389.883C282.036 389.944 282.058 390.004 282.101 390.05L282.1 390.05Z" fill="#E97A75"/>
<path d="M279.229 383.573C279.447 383.796 279.707 383.979 279.998 384.112C280.057 384.14 280.126 384.146 280.189 384.128C280.252 384.109 280.304 384.068 280.334 384.014C280.364 383.959 280.37 383.895 280.349 383.837C280.329 383.778 280.284 383.729 280.225 383.7C280.007 383.617 279.812 383.488 279.655 383.323C279.498 383.159 279.384 382.964 279.322 382.752C279.291 382.522 279.314 382.289 279.387 382.068C279.46 381.847 279.583 381.643 279.748 381.47C280.061 381.12 281.578 381.561 282.503 381.967L286.162 383.142C286.635 383.26 287.078 383.468 287.462 383.752C287.622 383.877 287.738 384.044 287.794 384.23C287.849 384.417 287.842 384.614 287.774 384.796C287.759 384.823 287.75 384.853 287.748 384.883C287.746 384.914 287.75 384.944 287.761 384.973C287.771 385.002 287.788 385.029 287.81 385.052C287.831 385.076 287.858 385.095 287.887 385.108C287.917 385.122 287.949 385.13 287.981 385.133C288.014 385.135 288.047 385.131 288.078 385.122C288.109 385.112 288.138 385.097 288.163 385.077C288.188 385.058 288.208 385.033 288.222 385.006C288.342 384.736 288.366 384.436 288.29 384.15C288.215 383.864 288.044 383.607 287.802 383.416C287.368 383.083 286.863 382.841 286.321 382.704L282.687 381.539C282.271 381.355 280.035 380.421 279.362 381.173C279.146 381.396 278.986 381.662 278.895 381.95C278.803 382.239 278.782 382.543 278.832 382.842C278.895 383.113 279.032 383.364 279.231 383.571L279.229 383.573Z" fill="#E97A75"/>
<path d="M283.242 381.92C283.455 382.106 283.702 382.254 283.971 382.359C283.997 382.371 284.025 382.377 284.053 382.379C284.081 382.38 284.11 382.375 284.136 382.366C284.162 382.357 284.186 382.342 284.206 382.324C284.227 382.306 284.242 382.284 284.253 382.259C284.271 382.208 284.268 382.152 284.244 382.102C284.22 382.052 284.176 382.012 284.122 381.991C283.646 381.796 282.533 381.464 282.418 381.131C282.233 380.614 282.763 380.193 282.862 380.056C283.094 379.736 285.055 380.062 285.907 380.377L289.226 381.247C289.656 381.332 290.064 381.494 290.427 381.724C290.712 381.938 291.929 382.364 291.807 382.671C291.767 382.774 292.082 383.102 292.197 383.149C292.312 383.195 292.317 382.94 292.357 382.836C292.558 382.324 291.096 381.716 290.685 381.415C290.272 381.144 289.806 380.954 289.313 380.855L286.02 379.995C285.637 379.851 283.099 379.205 282.599 379.891C282.26 380.35 281.927 380.662 282.093 381.128C282.155 381.311 283.003 381.703 283.244 381.919L283.242 381.92Z" fill="#E97A75"/>
<path d="M297.073 361.329C299.631 360.114 302.556 359.7 305.409 360.15C305.906 360.178 306.389 360.312 306.823 360.54C307.257 360.767 307.63 361.084 307.913 361.464C308.205 362.142 308.208 362.895 307.919 363.569C307.577 364.62 307.028 365.601 306.3 366.466C306.03 366.852 305.673 367.179 305.252 367.426C304.832 367.672 304.358 367.832 303.863 367.894C302.796 367.791 301.807 367.319 301.095 366.574L297.658 363.751C297.369 363.547 297.133 363.286 296.964 362.989C296.884 362.839 296.857 362.669 296.889 362.505C296.92 362.341 297.008 362.191 297.139 362.077C297.613 361.741 298.273 362.169 298.703 362.553C299.651 363.486 300.847 364.174 302.169 364.548C302.831 364.722 303.533 364.715 304.187 364.526C304.841 364.338 305.42 363.977 305.851 363.487C306.062 363.202 306.199 362.786 305.943 362.53C305.746 362.379 305.494 362.302 305.24 362.315L296.894 361.809" fill="#407BFF"/>
<path d="M178.029 267.657C178.019 268.708 177.369 269.606 176.574 269.651C175.78 269.697 175.146 268.89 175.156 267.839C175.166 266.787 175.816 265.889 176.609 265.844C177.403 265.798 178.038 266.606 178.028 267.658L178.029 267.657Z" fill="#263238"/>
<path d="M176.851 265.807L174.05 265.32C174.05 265.32 175.662 267.172 176.851 265.807Z" fill="#263238"/>
<path d="M190.035 268.645C190.025 269.697 189.375 270.595 188.581 270.64C187.786 270.685 187.152 269.879 187.162 268.827C187.172 267.775 187.822 266.878 188.616 266.832C189.409 266.787 190.044 267.594 190.034 268.646L190.035 268.645Z" fill="#263238"/>
<path d="M188.858 266.795L186.056 266.309C186.056 266.309 187.668 268.161 188.858 266.795Z" fill="#263238"/>
<path d="M179.063 281.592C179.476 282.904 179.787 284.247 179.993 285.608C180.251 285.609 180.508 285.61 180.766 285.597C184.263 285.524 185.896 284.399 186.645 283.173C186.997 282.567 187.194 281.895 187.218 281.213C187.246 280.827 187.216 280.441 187.131 280.065C185.267 281.151 182.005 281.455 180.258 281.55C179.526 281.597 179.066 281.593 179.066 281.593L179.063 281.592Z" fill="#263238"/>
<path d="M180.23 281.576L180.538 282.757C183.843 282.681 186.173 282.208 187.216 281.238C187.244 280.85 187.215 280.462 187.129 280.085C185.256 281.174 181.983 281.481 180.23 281.576Z" fill="white"/>
<path d="M180.798 285.596C184.301 285.522 185.937 284.395 186.688 283.166C185.355 283.216 184.035 283.491 182.789 283.975C181.969 284.311 181.273 284.877 180.798 285.596Z" fill="#FB504E"/>
<path d="M96.8703 388.043C96.8703 388.043 100.778 384.442 102.263 385.145C103.747 385.847 101.522 388.657 99.0155 391.068C96.5086 393.478 94.3352 393.009 94.0206 391.555C93.7059 390.1 96.8703 388.043 96.8703 388.043Z" fill="#F0BDB0" stroke="#E97A75" stroke-linecap="round" stroke-linejoin="round"/>
<path d="M92.8984 386.824C92.8984 386.824 96.0588 382.638 97.6482 383.083C99.2377 383.527 97.5967 386.656 95.5851 389.446C93.5736 392.236 91.3539 392.127 90.7504 390.758C90.1469 389.389 92.8984 386.824 92.8984 386.824Z" fill="#F0BDB0" stroke="#E97A75" stroke-linecap="round" stroke-linejoin="round"/>
<path d="M89.5116 385.707C89.5116 385.707 92.6752 381.532 94.2615 381.975C95.8479 382.417 94.2108 385.549 92.1985 388.338C90.1861 391.128 87.9542 391.009 87.3766 389.636C86.799 388.263 89.5116 385.707 89.5116 385.707Z" fill="#F0BDB0" stroke="#E97A75" stroke-linecap="round" stroke-linejoin="round"/>
<path d="M85.3875 385.084C85.3875 385.084 86.9298 381.089 88.5756 381.16C90.2213 381.231 89.7414 384.079 88.8149 386.741C87.8885 389.403 85.7392 389.709 84.7211 388.696C83.7031 387.683 85.3875 385.084 85.3875 385.084Z" fill="#F0BDB0" stroke="#E97A75" stroke-linecap="round" stroke-linejoin="round"/>
</g>
</g>
<defs>
<clipPath id="clip0_10_419">
<rect width="375" height="435" fill="white"/>
</clipPath>
</defs>
</svg>
