<svg xmlns="http://www.w3.org/2000/svg" width="27.312" height="25.186" viewBox="0 0 27.312 25.186">
  <g id="school-svgrepo-com_1_" data-name="school-svgrepo-com (1)" transform="translate(0.156 0.15)">
    <path id="Path_665" data-name="Path 665" d="M26.6,44.093h-.872V33.051H26.6a.4.4,0,0,0,.334-.609l-2.959-4.65a.4.4,0,0,0-.334-.184H15.777L13.9,25.727V24.174h3.831a.4.4,0,0,0,.33-.616l-.7-1.048.7-1.048a.4.4,0,0,0-.33-.616H13.9V20.4a.4.4,0,1,0-.793,0v5.331l-1.881,1.881H3.355a.4.4,0,0,0-.334.184L.062,32.442a.4.4,0,0,0,.334.609h.872V44.093H.4a.4.4,0,0,0,0,.793H26.6a.4.4,0,1,0,0-.793ZM23.427,28.4l2.455,3.857H20.427L16.57,28.4Zm-6.441-6.763-.435.652a.4.4,0,0,0,0,.44l.435.652H13.9V21.638ZM3.572,28.4h6.857L6.572,32.258H1.118ZM2.06,33.051H6.736l.039,0,.017,0,.022,0,.019,0,.019,0,.018-.006.018-.007.017-.008L6.923,33l.016-.009.017-.011.017-.013.014-.01.029-.026L13.5,26.452l6.483,6.483.029.026.014.01.017.013.017.01.016.009.018.009.017.008.018.007.019.007.018,0,.019,0,.021,0,.017,0,.039,0h4.676V44.093H16.432V38.572A1.243,1.243,0,0,0,15.19,37.33H11.809a1.243,1.243,0,0,0-1.242,1.242v5.521H2.06Zm13.579,5.971H11.36v-.449a.45.45,0,0,1,.449-.449H15.19a.45.45,0,0,1,.449.449Zm-4.28.793H13.1v4.28H11.36Zm2.536,0h1.744v4.28H13.9Z" transform="translate(0 -20)" fill="#263238" stroke="#263238" stroke-width="0.3"/>
    <path id="Path_666" data-name="Path 666" d="M202.932,217.865A2.932,2.932,0,1,0,200,214.932,2.936,2.936,0,0,0,202.932,217.865Zm0-5.072a2.14,2.14,0,1,1-2.14,2.14A2.142,2.142,0,0,1,202.932,212.793Z" transform="translate(-189.433 -201.855)" fill="#263238" stroke="#263238" stroke-width="0.3"/>
    <path id="Path_667" data-name="Path 667" d="M225.664,238.061a.4.4,0,0,0,.4-.4V236.4a.4.4,0,0,0-.793,0v.872H224.4a.4.4,0,1,0,0,.793Z" transform="translate(-212.165 -224.587)" fill="#263238" stroke="#263238" stroke-width="0.3"/>
    <path id="Path_668" data-name="Path 668" d="M130.51,388H128.4a.4.4,0,0,0-.4.4v2.536a.4.4,0,0,0,.4.4h2.113a.4.4,0,0,0,.4-.4V388.4A.4.4,0,0,0,130.51,388Zm-.4.793v.476h-1.321v-.476Zm-1.321,1.744v-.476h1.321v.476Z" transform="translate(-121.237 -368.556)" fill="#263238" stroke="#263238" stroke-width="0.3"/>
    <path id="Path_669" data-name="Path 669" d="M58.51,388H56.4a.4.4,0,0,0-.4.4v2.536a.4.4,0,0,0,.4.4H58.51a.4.4,0,0,0,.4-.4V388.4A.4.4,0,0,0,58.51,388Zm-.4.793v.476H56.793v-.476Zm-1.321,1.744v-.476h1.321v.476Z" transform="translate(-53.041 -368.556)" fill="#263238" stroke="#263238" stroke-width="0.3"/>
    <path id="Path_670" data-name="Path 670" d="M130.378,292h-1.849a.529.529,0,0,0-.528.528v2.827a.4.4,0,0,0,.4.4h2.113a.4.4,0,0,0,.4-.4v-2.827A.529.529,0,0,0,130.378,292Zm-.264.793v.9h-1.321v-.9Zm-1.321,2.166v-.476h1.321v.476Z" transform="translate(-121.237 -277.629)" fill="#263238" stroke="#263238" stroke-width="0.3"/>
    <path id="Path_671" data-name="Path 671" d="M58.378,292H56.528a.529.529,0,0,0-.528.528v2.827a.4.4,0,0,0,.4.4H58.51a.4.4,0,0,0,.4-.4v-2.827A.529.529,0,0,0,58.378,292Zm-.264.793v.9H56.793v-.9Zm-1.321,2.166v-.476h1.321v.476Z" transform="translate(-53.041 -277.629)" fill="#263238" stroke="#263238" stroke-width="0.3"/>
    <path id="Path_672" data-name="Path 672" d="M400.4,391.329h2.113a.4.4,0,0,0,.4-.4V388.4a.4.4,0,0,0-.4-.4H400.4a.4.4,0,0,0-.4.4v2.536A.4.4,0,0,0,400.4,391.329Zm.4-.793v-.476h1.321v.476Zm1.321-1.744v.476h-1.321v-.476Z" transform="translate(-378.865 -368.556)" fill="#263238" stroke="#263238" stroke-width="0.3"/>
    <path id="Path_673" data-name="Path 673" d="M328.4,391.329h2.113a.4.4,0,0,0,.4-.4V388.4a.4.4,0,0,0-.4-.4H328.4a.4.4,0,0,0-.4.4v2.536A.4.4,0,0,0,328.4,391.329Zm.4-.793v-.476h1.321v.476Zm1.321-1.744v.476h-1.321v-.476Z" transform="translate(-310.67 -368.556)" fill="#263238" stroke="#263238" stroke-width="0.3"/>
    <path id="Path_674" data-name="Path 674" d="M400.4,295.751h2.113a.4.4,0,0,0,.4-.4v-2.827a.529.529,0,0,0-.528-.528h-1.849a.529.529,0,0,0-.528.528v2.827A.4.4,0,0,0,400.4,295.751Zm.4-.792v-.476h1.321v.476Zm1.321-2.166v.9h-1.321v-.9Z" transform="translate(-378.865 -277.629)" fill="#263238" stroke="#263238" stroke-width="0.3"/>
    <path id="Path_675" data-name="Path 675" d="M328.4,295.751h2.113a.4.4,0,0,0,.4-.4v-2.827a.529.529,0,0,0-.528-.528h-1.849a.529.529,0,0,0-.528.528v2.827A.4.4,0,0,0,328.4,295.751Zm.4-.792v-.476h1.321v.476Zm1.321-2.166v.9h-1.321v-.9Z" transform="translate(-310.67 -277.629)" fill="#263238" stroke="#263238" stroke-width="0.3"/>
  </g>
</svg>
