<svg xmlns="http://www.w3.org/2000/svg" width="27.729" height="17.547" viewBox="0 0 27.729 17.547">
  <g id="selfie-2" transform="translate(0.5 0.5)">
    <path id="Path_640" data-name="Path 640" d="M14.522,34.3A6.59,6.59,0,0,1,20.554,30a6.59,6.59,0,0,1,6.032,4.3" transform="translate(-7.189 -17.908)" fill="none" stroke="#acacac" stroke-linecap="round" stroke-linejoin="round" stroke-width="1"/>
    <path id="Path_641" data-name="Path 641" d="M29.729,24.365V14.182A3.182,3.182,0,0,0,26.547,11H6.182A3.182,3.182,0,0,0,3,14.182V24.365a3.182,3.182,0,0,0,3.182,3.182H26.547A3.182,3.182,0,0,0,29.729,24.365Z" transform="translate(-3 -11)" fill="none" stroke="#acacac" stroke-linecap="round" stroke-linejoin="round" stroke-width="1"/>
    <path id="Path_642" data-name="Path 642" d="M8.636,21.318V24.5A.318.318,0,1,1,8,24.5V21.318a.318.318,0,0,1,.636,0Z" transform="translate(-4.818 -14.636)" fill="none" stroke="#acacac" stroke-linecap="round" stroke-linejoin="round" stroke-width="1"/>
    <path id="Path_643" data-name="Path 643" d="M22.364,22.728A2.864,2.864,0,1,0,19.5,19.864,2.864,2.864,0,0,0,22.364,22.728Z" transform="translate(-8.999 -13.182)" fill="none" stroke="#acacac" stroke-linecap="round" stroke-linejoin="round" stroke-width="1"/>
    <path id="Path_644" data-name="Path 644" d="M38.636,17.273A.636.636,0,1,0,38,16.636.636.636,0,0,0,38.636,17.273Z" transform="translate(-15.726 -12.818)" fill="none" stroke="#acacac" stroke-linecap="round" stroke-linejoin="round" stroke-width="1"/>
  </g>
</svg>
