<svg xmlns="http://www.w3.org/2000/svg" width="19.385" height="14" viewBox="0 0 19.385 14">
  <g id="flag-for-flag-syria-svgrepo-com" transform="translate(0 -5)">
    <path id="Path_15391" data-name="Path 15391" d="M0,13H19.385v5.385H0Z" transform="translate(0 -3.692)" fill="#eee"/>
    <path id="Path_15392" data-name="Path 15392" d="M17.231,5H2.154A2.154,2.154,0,0,0,0,7.154V9.308H19.385V7.154A2.154,2.154,0,0,0,17.231,5Z" fill="#007a3d"/>
    <path id="Path_15393" data-name="Path 15393" d="M17.231,27.308H2.154A2.154,2.154,0,0,1,0,25.154V23H19.385v2.154A2.154,2.154,0,0,1,17.231,27.308Z" transform="translate(0 -8.308)" fill="#141414"/>
    <path id="Path_15394" data-name="Path 15394" d="M8.521,16.879l-.382,1.048,1-.648,1,.648-.382-1.048,1-.647H9.521l-.382-1.048-.382,1.048H7.521Zm9.423,0-.382,1.048,1-.648,1,.648-.382-1.048,1-.647H18.944l-.382-1.048-.382,1.048H16.944Z" transform="translate(-4.159 -4.7)" fill="#ce1126"/>
    <path id="Path_15395" data-name="Path 15395" d="M8.413,16.879l-.341,1.048.892-.648.892.648-.341-1.048.892-.647H9.3l-.34-1.048-.34,1.048h-1.1Z" transform="translate(0.729 -4.7)" fill="#ce1126"/>
  </g>
</svg>
