<svg xmlns="http://www.w3.org/2000/svg" width="23.873" height="23.664" viewBox="0 0 23.873 23.664">
  <g id="user-short-hair" transform="translate(0.958 0.75)">
    <path id="Path_17" data-name="Path 17" d="M3,38.431l6.105-2.176a2.614,2.614,0,0,0,1.736-2.462V31.635" transform="translate(-3 -16.476)" fill="none" stroke="#acacac" stroke-linecap="round" stroke-linejoin="round" stroke-width="1.5"/>
    <path id="Path_18" data-name="Path 18" d="M37.841,38.43l-6.108-2.185A2.614,2.614,0,0,1,30,33.784v-2.15" transform="translate(-15.886 -16.474)" fill="none" stroke="#acacac" stroke-linecap="round" stroke-linejoin="round" stroke-width="1.5"/>
    <path id="Path_19" data-name="Path 19" d="M23.757,14.069l.676-3.38a6.428,6.428,0,1,0-12.607,0l.676,3.38a5.739,5.739,0,0,0,11.255,0Z" transform="translate(-7.151 -3)" fill="none" stroke="#acacac" stroke-linecap="round" stroke-linejoin="round" stroke-width="1.5"/>
    <path id="Path_20" data-name="Path 20" d="M11.5,13.614c3.142,1.187,5.973.353,8.364-2.614a6.847,6.847,0,0,0,4.443,3.659" transform="translate(-7.057 -6.818)" fill="none" stroke="#acacac" stroke-linecap="round" stroke-linejoin="round" stroke-width="1.5"/>
  </g>
</svg>
