<svg xmlns="http://www.w3.org/2000/svg" width="22.491" height="24.585" viewBox="0 0 22.491 24.585">
  <g id="user-long-hair" transform="translate(-4.357 -2.25)">
    <path id="Path_635" data-name="Path 635" d="M15.79,32.39v2.194a2.79,2.79,0,0,1-1.773,2.6L13,37.58" transform="translate(-3.536 -12.818)" fill="none" stroke="#5583ff" stroke-linecap="round" stroke-linejoin="round" stroke-width="1.5"/>
    <path id="Path_636" data-name="Path 636" d="M30,32.55v2.1a2.79,2.79,0,0,0,1.762,2.594l1.028.408" transform="translate(-11.05 -12.886)" fill="none" stroke="#5583ff" stroke-linecap="round" stroke-linejoin="round" stroke-width="1.5"/>
    <path id="Path_637" data-name="Path 637" d="M16,29.792a5.832,5.832,0,0,0,9.376-.482" transform="translate(-4.862 -11.629)" fill="none" stroke="#5583ff" stroke-linecap="round" stroke-linejoin="round" stroke-width="1.5"/>
    <path id="Path_638" data-name="Path 638" d="M25.5,25.878c1.908-5.411-.664-4.219-.664-12.583C24.836,7.609,21.517,3,15.6,3S6.368,7.609,6.368,13.3c0,8.364-2.571,7.172-.664,12.583" transform="translate(0)" fill="none" stroke="#5583ff" stroke-linecap="round" stroke-linejoin="round" stroke-width="1.5"/>
    <path id="Path_639" data-name="Path 639" d="M14,22.834l.919-1.266a3.124,3.124,0,0,0,.278-3.177l-1.145-2.368A7.869,7.869,0,0,0,21.613,10l2.834,3.409a3.117,3.117,0,0,1,.34,3.451l-.425.793a3.117,3.117,0,0,0,.394,3.514l.962,1.14" transform="translate(-3.978 -3.094)" fill="none" stroke="#5583ff" stroke-linecap="round" stroke-linejoin="round" stroke-width="1.5"/>
  </g>
</svg>
