<svg xmlns="http://www.w3.org/2000/svg" width="119" height="119" viewBox="0 0 119 119">
  <g id="Group_6866" data-name="Group 6866" transform="translate(-128 -411)">
    <path id="Path_11674" data-name="Path 11674" d="M59.5,0A59.5,59.5,0,1,1,0,59.5,59.5,59.5,0,0,1,59.5,0Z" transform="translate(128 411)" fill="#2e2e2e"/>
    <g id="Folder-rafiki" transform="translate(237.113 682.075)">
      <g id="freepik--Folder--inject-5" transform="translate(-85.5 -238.634)">
        <path id="Path_11204" data-name="Path 11204" d="M110.34,193.109l4.128,4.933a3.64,3.64,0,0,0,3.056,1.294l18.339-1.348a5.175,5.175,0,0,1,5.54,4.778l2.493,33.874a5.175,5.175,0,0,1-4.778,5.531l-50.845,3.737a5.175,5.175,0,0,1-5.54-4.781l-3.217-43.623a3.634,3.634,0,0,1,3.358-3.89l24.413-1.8A3.631,3.631,0,0,1,110.34,193.109Z" transform="translate(-79.506 -191.806)" fill="#b5b5b5"/>
        <g id="Group_3300" data-name="Group 3300" transform="translate(0 0)" opacity="0.3">
          <path id="Path_11205" data-name="Path 11205" d="M110.34,193.109l4.128,4.933a3.64,3.64,0,0,0,3.056,1.294l18.339-1.348a5.175,5.175,0,0,1,5.54,4.778l2.493,33.874a5.175,5.175,0,0,1-4.778,5.531l-50.845,3.737a5.175,5.175,0,0,1-5.54-4.781l-3.217-43.623a3.634,3.634,0,0,1,3.358-3.89l24.413-1.8A3.631,3.631,0,0,1,110.34,193.109Z" transform="translate(-79.506 -191.806)"/>
        </g>
        <rect id="Rectangle_6199" data-name="Rectangle 6199" width="18.885" height="1.449" rx="0.724" transform="matrix(0.997, -0.073, 0.073, 0.997, 3.498, 4.297)" fill="#484848"/>
        <rect id="Rectangle_6200" data-name="Rectangle 6200" width="16.303" height="1.452" rx="0.726" transform="translate(3.569 7.451) rotate(-4.004)" fill="#484848"/>
        <path id="Path_11206" data-name="Path 11206" d="M147.778,266.605l-53.418,3.936a2.446,2.446,0,0,1-2.613-2.254L89.324,235.35a2.444,2.444,0,0,1,2.254-2.613L145,228.8a2.444,2.444,0,0,1,2.613,2.254l2.426,32.934A2.449,2.449,0,0,1,147.778,266.605Z" transform="translate(-86.497 -218.163)" fill="#484848"/>
        <rect id="Rectangle_6201" data-name="Rectangle 6201" width="58.267" height="37.904" rx="3" transform="matrix(0.997, -0.073, 0.073, 0.997, 2.655, 14.912)" fill="#484848"/>
        <path id="Path_11208" data-name="Path 11208" d="M178.571,235.369l-54.248,9.282a2.41,2.41,0,0,1-2.76-2.012l-4.439-29.967c-.376-2.654,4.111-5.861,6.222-6.425l41.2-6.868c1.433-.478,8.211,2.686,8.628,5.491l4.911,28.082C178.3,234.281,179.874,235.145,178.571,235.369Z" transform="translate(-104.404 -196.511)" fill="#fff"/>
        <rect id="Rectangle_6202" data-name="Rectangle 6202" width="57.678" height="37.905" rx="8.49" transform="translate(10.914 11.038) rotate(-9.56)" fill="#484848" opacity="0.3"/>
        <path id="Path_11209" data-name="Path 11209" d="M180.69,213.376l-48.476,8.159a1.081,1.081,0,0,1-1.242-.883l-.27-1.619a1.075,1.075,0,0,1,.883-1.239l48.476-8.162a1.078,1.078,0,0,1,1.242.883l.273,1.619A1.084,1.084,0,0,1,180.69,213.376Z" transform="translate(-115.973 -204.497)" fill="#8d8d8d" opacity="0.2"/>
        <path id="Path_11210" data-name="Path 11210" d="M183.952,232.787l-48.545,8.173a1.044,1.044,0,0,0-.862,1.2l.239,1.437a1.044,1.044,0,0,0,1.2.862l48.545-8.173a1.044,1.044,0,0,0,.862-1.2l-.241-1.437A1.046,1.046,0,0,0,183.952,232.787Z" transform="translate(-118.712 -220.996)" fill="#8d8d8d" opacity="0.2"/>
        <path id="Path_11211" data-name="Path 11211" d="M328.814,363.133l-.1-.27a5.9,5.9,0,0,0,1.811-1.092l.19.216A6.173,6.173,0,0,1,328.814,363.133Z" transform="translate(-257.068 -312.908)" fill="#8d8d8d"/>
        <path id="Path_11212" data-name="Path 11212" d="M340.136,337.167l-.256-.129a5.914,5.914,0,0,0,.615-3.1l-.316-4.312.288-.02.316,4.312A6.212,6.212,0,0,1,340.136,337.167Z" transform="translate(-265.026 -289.986)" fill="#8d8d8d"/>
        <path id="Path_11213" data-name="Path 11213" d="M171.145,285.7l-55.922,4.117h0L110,290.2a5.241,5.241,0,0,0,4.841-5.612l-1.679-22.918a3.45,3.45,0,0,1,3.2-3.706l54.231-3.987a3.45,3.45,0,0,1,3.709,3.2l1.688,22.933A5.238,5.238,0,0,1,171.145,285.7Z" transform="translate(-101.233 -236.094)" fill="#7d7d7d"/>
      </g>
    </g>
    <g id="Resume_folder-cuate" data-name="Resume folder-cuate" transform="translate(128 488.715)">
      <g id="freepik--magnifying-glass--inject-27" transform="translate(0)">
        <rect id="Rectangle_6357" data-name="Rectangle 6357" width="2.75" height="16.049" transform="translate(20.466 22.083) rotate(-46.41)" fill="#484848"/>
        <path id="Path_11664" data-name="Path 11664" d="M61.757,196.639l-2.867,3.011h0l-8.119-7.726h0l2.867-3.014h0Z" transform="translate(-21.377 -160.366)" fill="#7d7d7d"/>
        <path id="Path_11665" data-name="Path 11665" d="M135.754,86.417a12.533,12.533,0,1,0-10.275,14.441A12.533,12.533,0,0,0,135.754,86.417Zm-1.417.249a11.1,11.1,0,1,1-12.784-9.1A11.1,11.1,0,0,1,134.337,86.666Z" transform="translate(-110.492 -75.506)" fill="#7d7d7d"/>
        <path id="Path_11666" data-name="Path 11666" d="M118.438,99.56a12.954,12.954,0,1,0-4.053-1.935,12.807,12.807,0,0,0,4.053,1.935Zm6.655-24.171a12.287,12.287,0,0,1,3.817,1.823,12.078,12.078,0,1,1-3.817-1.823Zm-6.274,22.786a11.474,11.474,0,0,0,14.354-12.966h0a11.467,11.467,0,1,0-14.361,12.966Zm13.61-12.842a7.731,7.731,0,1,0,0,.012Z" transform="translate(-108.952 -74.124)" fill="#7d7d7d"/>
        <g id="Group_3302" data-name="Group 3302" transform="translate(2.241 2.331)" opacity="0.2">
          <path id="Path_11667" data-name="Path 11667" d="M128.793,83.5a10.661,10.661,0,1,1-10.4,10.922A10.661,10.661,0,0,1,128.793,83.5Z" transform="translate(-118.393 -83.497)" fill="#fff"/>
          <path id="Path_11668" data-name="Path 11668" d="M118.367,84.92a10.681,10.681,0,0,1,7.6,12.951Z" transform="translate(-104.97 -84.566)" fill="#ebebeb"/>
          <path id="Path_11669" data-name="Path 11669" d="M152.813,96.45l10.407,17.738a10.66,10.66,0,0,1-2.5.361,10.425,10.425,0,0,1-2.882-.323l-7.684-13.093A10.658,10.658,0,0,1,152.813,96.45Z" transform="translate(-149.796 -93.229)" fill="#ebebeb"/>
          <path id="Path_11670" data-name="Path 11670" d="M128.752,83.83l9.915,16.9a10.925,10.925,0,0,1-1.4,1.554L126.71,84.29A10.444,10.444,0,0,1,128.752,83.83Z" transform="translate(-119.413 -83.747)" fill="#ebebeb"/>
          <path id="Path_11671" data-name="Path 11671" d="M144.891,92.54l10.693,18.235c-.119.05-.249.1-.361.144L144.59,92.784C144.687,92.7,144.789,92.617,144.891,92.54Z" transform="translate(-140.777 -90.291)" fill="#ebebeb"/>
          <path id="Path_11672" data-name="Path 11672" d="M184.91,129.58l4.747,8.092a9.45,9.45,0,0,1-.773-.564l-3.862-6.582A8.377,8.377,0,0,1,184.91,129.58Z" transform="translate(-184.877 -118.12)" fill="#ebebeb"/>
        </g>
        <path id="Path_11673" data-name="Path 11673" d="M138.176,97.43a8.607,8.607,0,0,0-1.353-3.215,9.13,9.13,0,0,0-1.131-1.368,9.449,9.449,0,0,0-1.393-1.122,8.432,8.432,0,0,0-3.327-1.243,9.2,9.2,0,0,0-3.481.162,16.353,16.353,0,0,1,3.372.41,10.107,10.107,0,0,1,1.577.525,8.573,8.573,0,0,1,1.457.768,10.674,10.674,0,0,1,2.464,2.211,14.379,14.379,0,0,1,1.815,2.872Z" transform="translate(-116.875 -86.342)" fill="#fff"/>
      </g>
    </g>
  </g>
</svg>
