<svg xmlns="http://www.w3.org/2000/svg" xmlns:xlink="http://www.w3.org/1999/xlink" width="374.804" height="481.62" viewBox="0 0 374.804 481.62">
  <defs>
    <clipPath id="clip-path">
      <rect x="106" y="-12" width="374.804" height="481.62" fill="none"/>
    </clipPath>
    <clipPath id="clip-path-2">
      <path id="Path_29" data-name="Path 29" d="M.189,24.415,36.87,15.227v-1.26l3.087-.084v1.449l27.124,4.284s1.187.273.179-1.05S48.788,2,48.788,2L29.4,0,0,6.458Z" transform="translate(0 0)" fill="#92e3a9" stroke="#263238" stroke-linecap="round" stroke-linejoin="round" stroke-width="1"/>
    </clipPath>
  </defs>
  <g id="Scroll_Group_36" data-name="Scroll Group 36" transform="translate(-106 12)" clip-path="url(#clip-path)" style="isolation: isolate">
    <g id="Group_6557" data-name="Group 6557" transform="translate(106.129 -36.997)">
      <g id="Carton">
        <g id="Group_61" data-name="Group 61">
          <g id="freepik--Character--inject-2" transform="translate(290.219 -100.359)">
            <g id="freepik--Hair--inject-2" transform="translate(-395.687 124.359)">
              <path id="Path_163" data-name="Path 163" d="M340.092,588.083s-31.911,3.311-43.506-19.917,8.7-51.459-13.052-61.418S235.679,530,192.173,501.77s-20.317-64.729-8.7-92.935,17.4-41.5-10.159-59.75-58.015-71.376-39.155-122.81,67.305-22.811,91.951-49.35c23.463-25.265,375.709-28.207,427.916,0s19.6,84.179-6.5,102.452c-37.98,26.613,6.809,78.222,14.009,109.815,10.55,46.181-20.638,114.095-60.577,112.029-63.8-3.336-81.056-45.906-94.108-24.346s27.561,26.564,21.753,61.417-17.4,48.123-43.506,48.123-42.048-26.539-69.609-13.269S353.144,596.373,340.092,588.083Z" transform="translate(-128.313 -143.359)" fill="#484848" stroke="#2f2f2f" stroke-linecap="round" stroke-linejoin="round" stroke-width="1"/>
            </g>
          </g>
          <g id="freepik--background-complete--inject-59" transform="translate(-68.999 -18.27)">
            <path id="Path_219" data-name="Path 219" d="M553.46,382.769a44.8,44.8,0,0,0-12.7-5.658c-5.932-1.706-11.9,2.052-8.843,5.518,3.806,4.319,6.119,9.945,1.8,16.057-9.465,13.444-19,7-19,7s-12.245-19.268-20.174-7c2.974-25.316-50.786-34.749-50.786-34.749s2.713-35.781-11.659-65.155-20.691-3.345-31.1-15.24-10.878-62.576-6.338-77.272-19.527-27.838-17.213-35.689,5.671.869,7.748-4-13.19-6.938-13.19-6.938-15.652-.734-28.786,16.511,43.381,17.277,22.624,25.16-152.208,3.8-171.859,18.735,13.047,29.266,0,45.528-27.192,19.527-34.626,41.993,0,56.368,0,56.368-51.777,11-52.983,25.916a44.22,44.22,0,0,0,1.318,14.038c0,.335,1.828,18.519-5.448,24.588s-12,10.15-17.412,5.961-7.288-10.312-7.1-22.439.174-17.277-9.95-21.7-33.332-6.771-27,1.922,11.878,10.4,16.044,13.8,16.828,13.574,2.973,31.574-14.676,35.527.311,55.73,17.848,12.742,31.6,18.357a5.086,5.086,0,0,0,4.564-.691c-.7.778-1.418,1.533-2.177,2.257H499.01c18.109-7.127,24.439-28.529,24.439-28.529l2.736-33.691s19.377-21.964,30.447-34.339S566.171,391.364,553.46,382.769Z" transform="translate(-43.376 0)" fill="#121212"/>
          </g>
        </g>
        <g id="Fire_hair-pana" data-name="Fire hair-pana" transform="translate(-58.123 11.27)">
          <g id="freepik--Character--inject-59">
            <g id="Group_20" data-name="Group 20" transform="translate(-19.861 -61.827) rotate(9)">
              <path id="Path_236" data-name="Path 236" d="M229.776,84.2c-.273-1.316-1.4-2.166-2.343-1.8h0a3.017,3.017,0,0,0-1.252,3.209c.289,1.316,1.412,2.15,2.375,1.749a3.033,3.033,0,0,0,1.22-3.161Z" transform="translate(48.545 6.337)" fill="#c8c8c8"/>
              <path id="Path_237" data-name="Path 237" d="M250.795,95.085c-.1-.53-.546-.867-.931-.722h0a1.187,1.187,0,0,0-.5,1.316c.112.53.562.867.947.706A1.22,1.22,0,0,0,250.795,95.085Z" transform="translate(62.589 13.601)" fill="#c8c8c8"/>
              <path id="Path_238" data-name="Path 238" d="M224.61,78.865c-.112-.53-.562-.867-.947-.722h0a1.2,1.2,0,0,0-.5,1.316c.112.53.562.867.947.706a1.252,1.252,0,0,0,.5-1.3Z" transform="translate(46.747 3.794)" fill="#c8c8c8"/>
              <path id="Path_239" data-name="Path 239" d="M244.838,85.687c-.112-.53-.562-.883-.947-.722h0a1.268,1.268,0,0,0-.5,1.332c.128.514.578.85.963.69a1.187,1.187,0,0,0,.481-1.3Z" transform="translate(58.982 7.915)" fill="#c8c8c8"/>
              <path id="Path_240" data-name="Path 240" d="M216.789,72.1a.273.273,0,0,0-.337-.257h0a.417.417,0,0,0-.177.465.273.273,0,0,0,.337.257A.449.449,0,0,0,216.789,72.1Z" transform="translate(42.597 0)" fill="#c8c8c8"/>
              <path id="Path_243" data-name="Path 243" d="M175.7,133.947c-.112-.53-.562-.883-.947-.722h0a1.252,1.252,0,0,0-.513,1.332c.128.514.578.85.963.69A1.187,1.187,0,0,0,175.7,133.947Z" transform="translate(17.169 37.097)" fill="#c8c8c8"/>
              <g id="Group_22" data-name="Group 22">
                <path id="Path_241" data-name="Path 241" d="M154.064,159.626c-.273-1.316-1.4-2.182-2.343-1.813h0a3.065,3.065,0,0,0-1.252,3.209c.289,1.3,1.428,2.134,2.375,1.733a3,3,0,0,0,1.22-3.129Z" transform="translate(21.13 51.936)" fill="#c8c8c8"/>
                <path id="Path_242" data-name="Path 242" d="M152.02,166.515c-.112-.53-.562-.867-.947-.722h0a1.2,1.2,0,0,0-.5,1.316c.112.53.578.867.947.706A1.219,1.219,0,0,0,152.02,166.515Z" transform="translate(17.387 89.778)" fill="#c8c8c8"/>
                <path id="Path_244" data-name="Path 244" d="M147.3,158.47c-.112-.53-.562-.883-.947-.738h0a1.2,1.2,0,0,0-.5,1.316c.112.53.562.867.947.706a1.22,1.22,0,0,0,.5-1.284Z" transform="translate(0 51.92)" fill="#c8c8c8"/>
              </g>
              <g id="Group_23" data-name="Group 23" transform="translate(32.342 -127.764)">
                <path id="Path_241-2" data-name="Path 241" d="M154.064,159.626c-.273-1.316-1.4-2.182-2.343-1.813h0a3.065,3.065,0,0,0-1.252,3.209c.289,1.3,1.428,2.134,2.375,1.733a3,3,0,0,0,1.22-3.129Z" transform="translate(48.19 51.936)" fill="#c8c8c8"/>
                <path id="Path_242-2" data-name="Path 242" d="M152.02,166.515c-.112-.53-.562-.867-.947-.722h0a1.2,1.2,0,0,0-.5,1.316c.112.53.578.867.947.706A1.219,1.219,0,0,0,152.02,166.515Z" transform="translate(38.802 91.35)" fill="#c8c8c8"/>
                <path id="Path_244-2" data-name="Path 244" d="M147.3,158.47c-.112-.53-.562-.883-.947-.738h0a1.2,1.2,0,0,0-.5,1.316c.112.53.562.867.947.706a1.22,1.22,0,0,0,.5-1.284Z" transform="translate(0 51.92)" fill="#c8c8c8"/>
              </g>
              <g id="Group_24" data-name="Group 24" transform="translate(-26.95 -103.8)">
                <path id="Path_241-3" data-name="Path 241" d="M154.064,159.626c-.273-1.316-1.4-2.182-2.343-1.813h0a3.065,3.065,0,0,0-1.252,3.209c.289,1.3,1.428,2.134,2.375,1.733a3,3,0,0,0,1.22-3.129Z" transform="translate(34.404 51.936)" fill="#c8c8c8"/>
                <path id="Path_242-3" data-name="Path 242" d="M152.02,166.515c-.112-.53-.562-.867-.947-.722h0a1.2,1.2,0,0,0-.5,1.316c.112.53.578.867.947.706A1.219,1.219,0,0,0,152.02,166.515Z" transform="translate(27.892 85.636)" fill="#c8c8c8"/>
                <path id="Path_244-3" data-name="Path 244" d="M147.3,158.47c-.112-.53-.562-.883-.947-.738h0a1.2,1.2,0,0,0-.5,1.316c.112.53.562.867.947.706a1.22,1.22,0,0,0,.5-1.284Z" transform="translate(0 51.92)" fill="#c8c8c8"/>
              </g>
            </g>
            <path id="Path_250" data-name="Path 250" d="M352.29,139.56c-8.64-6.67-34.83-23.59-49.51-24.14a50.5,50.5,0,0,0-25.86,6.31s-29.85,2.13-32.3-1.11-4.46-17.71-7.73-22-21.23-10.62-24.18-11-4.59-11.67-6.32-15-14,8.56-15,13.8-3.19,15.15,2,25.06,27.06,8.73,25.19,12.89-46.34,24.89-50.16,32.08,2.31,29,2.31,29A118.172,118.172,0,0,0,150,200.93c-10.91,10-3.7,12.92-3,17.44,1.56,10.13,9.88,17.8,12.29,20.48s19.9,6.76,19.9,6.76a133.64,133.64,0,0,1-14.92,24.11c-4.87,6.38-13.85,23.34-3.53,42.58s53.56,55.54,59.61,57.92,40.315,1.007,56.285-.263S320.15,336,323.4,330.53c18.88-31.58,16.07-39.23,16.07-39.23s-8.77-42.29-12-49.23c-5.35-11.39-9-26.42-10.17-40.66s3.27-18.31,12.8-23.41c10.14-5.4,25.3-2.46,29.5-11C364.94,156.24,361.34,146.54,352.29,139.56Zm-68.07,29.31s4-6.58.34-10-10.16-1.44-15.75-4-3.94-9-3.94-9l2.71-6.66s1.75,9.06,9.05,10.21c1.6.26,14.1,4.13,14.22,11.6S284.22,168.87,284.22,168.87Z" fill="#7298ff"/>
            <path id="Path_251" data-name="Path 251" d="M263.765,197.828,283.679,210.7l18.782,16.213s.811-16.534.1-26.542c0,0-6.867,3.89-8.8-.622-8.235-19.111,8.075-10.426,8.075-10.426,6.037-6.351-12.5-19.86-12.5-19.86s-3.773,7.2-17.357,10.231c-6.075,1.362-11.094-9.94-16.725-17.1s-7.15-17.176-7.15-17.176-21.885,10.494-25.47,2.033,4.886-8.919,6.934-11.428,4.5-4.377,2.7-8.909-7.547-9.852-7.547-9.852l3.405,8.335c-2.83.817-25.8,13.84-28.366,18.148a47.234,47.234,0,0,0-5.349,17.769c-.321,5.291,4.066,16.962,6.952,16.728l13.207-1.089s3.113,9.123,1.123,14.589-17.32,14.054-17.923,15.853-6.264,36.189-5.32,39.039,10.716,11.671,8.009,14.277-31.13,19.549-33.592,35.013,14.15,32.815,39.62,38.339,51.8,8.053,56.987,0-.179-11.671,6.943-13.451,11.631.214,12.763-3.978-.811-10.484-.811-10.484,8.839,1.624,10.5,4.415-.075-4.221,7.273-12.439-4.283-71.134-6.4-79.751,6.669,48.8-7.716,41.2-22.64-1.663-25.47,8.529,1.255,25.676.943,30.977-17.452,27.8-35.932,4.707-7.066-18.985,0-30.694,17.612-20.823,21.593-35.791,9.018-41.12,16.584-39.652" transform="translate(8.194)" fill="#fff" opacity="0.1"/>
            <path id="Path_253" data-name="Path 253" d="M201.52,288.71s12.59,3.92,25.17-15.4c2.14-3.29-9.46-13-7.38-17.8,3.21-7.36,23.45-6.71,26.13-18.4.67-2.91,1.52-9.82,2.81-12.45,8.39-17.13,24.37-28.09,24.37-28.09h0a36.71,36.71,0,0,0-27.3-.15c-15.49,6.12-33.22,35.11-33.79,35.54-.86.64-13.49,43.8-13.49,43.8Z" fill="#7298ff"/>
            <g id="Group_15" data-name="Group 15" opacity="0.1">
              <path id="Path_254" data-name="Path 254" d="M201.52,288.71s12.59,3.92,25.17-15.4c2.14-3.29-9.46-13-7.38-17.8,3.21-7.36,23.45-6.71,26.13-18.4.67-2.91,1.52-9.82,2.81-12.45,8.39-17.13,24.37-28.09,24.37-28.09h0a36.71,36.71,0,0,0-27.3-.15c-15.49,6.12-33.22,35.11-33.79,35.54-.86.64-13.49,43.8-13.49,43.8Z" fill="#fff"/>
            </g>
            <path id="Path_255" data-name="Path 255" d="M165.36,195.2s-9.74,4.35-6.45,14.52c3.43,10.61,8.25,16.67,11,19.44s15.84-2.55,15.74-.84l2.62,19.3,5.47-25.37s-3.41-14.5-14.45-14.84c-4.38-.13-13.43,5-13.69-3.61Z" fill="#fff" opacity="0.1"/>
            <path id="Path_256" data-name="Path 256" d="M316.74,171.29s6.41-3.41,1.63-9.49-20.27-14.56-20.27-14.56l-1.39-19.85s9.93,13.46,15.47,15.41,21.07,7.73,21.08,11.2C333.28,166.61,316.74,171.29,316.74,171.29Z" fill="#fff" opacity="0.1"/>
            <path id="Path_258" data-name="Path 258" d="M242.26,193.86c1.32-3.29-2.81-22.31-3.93-23.46s-11.69-4.11-13-5.75-5.24-8.21-5.24-8.21v9.2s6.56,10.51,8.22,11.17-.35,12.81,0,14.12-3.94,16.43-5.91,19.51-12.16,6.45-14.46,9.06,3.15,27.78,3.15,27.78l1.11-7.3a25.18,25.18,0,0,1,11.11-17.25c1.48-1,3.07-2,4.75-3.21,5.9-4.13-3,15.29-3,15.29l22.23-18.58A55,55,0,0,0,256.15,193c.49-3.56.67-5.72,1.06-6.22C258,185.78,241,197.15,242.26,193.86Z" fill="#fff" opacity="0.3"/>
            <path id="Path_259" data-name="Path 259" d="M320.57,160.12s0-2.84-2-3.73-10.43-10.34-10.43-10.34,5.24.47,8.37,3C324.11,155.07,320.57,160.12,320.57,160.12Z" fill="#fff" opacity="0.3"/>
            <path id="Path_260" data-name="Path 260" d="M225,111.91s-19.14-4.15-20.08-7.08-4.85-12.46-4.85-13.44,2.69-3.91,2.69-3.91-1.22,3.17-.24,3.91,16.37,8.31,17.1,11.24S225,111.91,225,111.91Z" fill="#fff" opacity="0.1"/>
            <path id="Path_261" data-name="Path 261" d="M241.73,112.51c-1.41-5.24-2.9-11.37-4.84-13.93-3.27-4.32-21.23-10.62-24.18-11s-4.59-11.67-6.32-15a1,1,0,0,0-.94-.56c0,.24.93,12.15,4.72,15.38s20.76,8.39,24.28,10.68C236.46,99.47,239.5,106.62,241.73,112.51Z" fill="#fff" opacity="0.8"/>
            <path id="Path_262" data-name="Path 262" d="M305.891,146.084c1.809-3.027,8.736-7.334,8.736-7.334s24.712-16.042,13.852-6.432c-6.159,5.463-14.219,8.889-18.105,12.941-6.493,6.769-5.406,13.387-4.88,16.287C304.484,160.739,302.413,151.894,305.891,146.084Z" transform="translate(-137.349 10.245)" fill="#fff" opacity="0.8"/>
            <path id="Path_263" data-name="Path 263" d="M339.47,291.3s-6.24-30.1-10.15-43.68h0s6.1,26.95,6.06,30.05,3.2,11.37-.27,21.28a170,170,0,0,1-13.71,27.43c-2.93,4.44-11.65,16.38-17.9,24.88,9.8-8.26,18.13-17.77,19.9-20.73C342.28,299,339.47,291.3,339.47,291.3Z" transform="translate(-5.971 -0.34)" fill="#fff" opacity="0.8"/>
            <path id="Path_264" data-name="Path 264" d="M181.05,337l-14.41-20.58-4.24-10.83a42.27,42.27,0,0,1-2.4-21.93l.61-8.1c-4.29,8.31-7.87,21.84.12,36.74C164.38,319.14,172.21,328.13,181.05,337Z" opacity="0.3"/>
            <path id="Path_265" data-name="Path 265" d="M171.22,233.82c-.06.08,0,.3.19.64C171.38,234,171.33,233.67,171.22,233.82Z" opacity="0.3"/>
            <path id="Path_266" data-name="Path 266" d="M179.16,245.61s-6.51-8.65-7.75-11.15c.07,1.62-.19,5.57-.19,5.57s-3.43,2.5-16.85-12.39c-7.69-8.53-8.66-17-8.09-22.74-5.24,6.95.1,9.61.69,13.47,1.56,10.13,9.88,17.8,12.29,20.48S179.16,245.61,179.16,245.61Z" opacity="0.3"/>
            <path id="Path_296" data-name="Path 296" d="M261.77,251.85c-.7,1.28-5.59-.13-11.55-.32s-11,.68-11.55-.66c-.26-.63.76-1.79,2.88-2.81a20,20,0,0,1,17.59.75C261.16,250,262.08,251.23,261.77,251.85Z" fill="#7298ff"/>
            <g id="Group_21" data-name="Group 21" transform="translate(564.165 -26.777) rotate(106)">
              <path id="Path_236-2" data-name="Path 236" d="M229.776,84.2c-.273-1.316-1.4-2.166-2.343-1.8h0a3.017,3.017,0,0,0-1.252,3.209c.289,1.316,1.412,2.15,2.375,1.749a3.033,3.033,0,0,0,1.22-3.161Z" transform="translate(48.545 6.337)" fill="#c8c8c8"/>
              <path id="Path_237-2" data-name="Path 237" d="M250.795,95.085c-.1-.53-.546-.867-.931-.722h0a1.187,1.187,0,0,0-.5,1.316c.112.53.562.867.947.706A1.22,1.22,0,0,0,250.795,95.085Z" transform="translate(62.589 13.601)" fill="#c8c8c8"/>
              <path id="Path_238-2" data-name="Path 238" d="M224.61,78.865c-.112-.53-.562-.867-.947-.722h0a1.2,1.2,0,0,0-.5,1.316c.112.53.562.867.947.706a1.252,1.252,0,0,0,.5-1.3Z" transform="translate(46.747 3.794)" fill="#c8c8c8"/>
              <path id="Path_239-2" data-name="Path 239" d="M244.838,85.687c-.112-.53-.562-.883-.947-.722h0a1.268,1.268,0,0,0-.5,1.332c.128.514.578.85.963.69a1.187,1.187,0,0,0,.481-1.3Z" transform="translate(58.982 7.915)" fill="#c8c8c8"/>
              <path id="Path_240-2" data-name="Path 240" d="M216.789,72.1a.273.273,0,0,0-.337-.257h0a.417.417,0,0,0-.177.465.273.273,0,0,0,.337.257A.449.449,0,0,0,216.789,72.1Z" transform="translate(42.597 0)" fill="#c8c8c8"/>
              <path id="Path_241-4" data-name="Path 241" d="M154.064,159.626c-.273-1.316-1.4-2.182-2.343-1.813h0a3.065,3.065,0,0,0-1.252,3.209c.289,1.3,1.428,2.134,2.375,1.733a3,3,0,0,0,1.22-3.129Z" transform="translate(2.768 51.936)" fill="#c8c8c8"/>
              <path id="Path_242-4" data-name="Path 242" d="M152.02,166.515c-.112-.53-.562-.867-.947-.722h0a1.2,1.2,0,0,0-.5,1.316c.112.53.578.867.947.706A1.219,1.219,0,0,0,152.02,166.515Z" transform="translate(2.854 56.793)" fill="#c8c8c8"/>
              <path id="Path_243-2" data-name="Path 243" d="M175.7,133.947c-.112-.53-.562-.883-.947-.722h0a1.252,1.252,0,0,0-.513,1.332c.128.514.578.85.963.69A1.187,1.187,0,0,0,175.7,133.947Z" transform="translate(17.169 37.097)" fill="#c8c8c8"/>
              <path id="Path_244-4" data-name="Path 244" d="M147.3,158.47c-.112-.53-.562-.883-.947-.738h0a1.2,1.2,0,0,0-.5,1.316c.112.53.562.867.947.706a1.22,1.22,0,0,0,.5-1.284Z" transform="translate(0 51.92)" fill="#c8c8c8"/>
            </g>
            <g id="Group_26" data-name="Group 26" transform="translate(527.158 -142.773) rotate(67)">
              <path id="Path_241-5" data-name="Path 241" d="M154.064,159.626c-.273-1.316-1.4-2.182-2.343-1.813h0a3.065,3.065,0,0,0-1.252,3.209c.289,1.3,1.428,2.134,2.375,1.733a3,3,0,0,0,1.22-3.129Z" transform="translate(67.023 51.936)" fill="#c8c8c8"/>
              <path id="Path_242-5" data-name="Path 242" d="M152.02,166.515c-.112-.53-.562-.867-.947-.722h0a1.2,1.2,0,0,0-.5,1.316c.112.53.578.867.947.706A1.219,1.219,0,0,0,152.02,166.515Z" transform="translate(53.707 85.376)" fill="#c8c8c8"/>
              <path id="Path_244-5" data-name="Path 244" d="M147.3,158.47c-.112-.53-.562-.883-.947-.738h0a1.2,1.2,0,0,0-.5,1.316c.112.53.562.867.947.706a1.22,1.22,0,0,0,.5-1.284Z" transform="translate(0 51.92)" fill="#c8c8c8"/>
              <path id="Path_241-6" data-name="Path 241" d="M154.064,159.626c-.273-1.316-1.4-2.182-2.343-1.813h0a3.065,3.065,0,0,0-1.252,3.209c.289,1.3,1.428,2.134,2.375,1.733a3,3,0,0,0,1.22-3.129Z" transform="matrix(0.53, -0.848, 0.848, 0.53, -65.957, 238.072)" fill="#c8c8c8"/>
              <path id="Path_242-6" data-name="Path 242" d="M152.02,166.515c-.112-.53-.562-.867-.947-.722h0a1.2,1.2,0,0,0-.5,1.316c.112.53.578.867.947.706A1.219,1.219,0,0,0,152.02,166.515Z" transform="matrix(0.53, -0.848, 0.848, 0.53, -51.943, 256.523)" fill="#c8c8c8"/>
              <path id="Path_244-6" data-name="Path 244" d="M147.3,158.47c-.112-.53-.562-.883-.947-.738h0a1.2,1.2,0,0,0-.5,1.316c.112.53.562.867.947.706a1.22,1.22,0,0,0,.5-1.284Z" transform="matrix(0.53, -0.848, 0.848, 0.53, -88.544, 274.187)" fill="#c8c8c8"/>
            </g>
          </g>
        </g>
        <g id="Meditation-rafiki" transform="translate(418.229 -107.513)">
          <g id="freepik--Shadow--inject-14" transform="translate(-480.729 98.251)">
            <path id="Path_540" data-name="Path 540" d="M391.514,484.25c0,17.468-63.358,31.629-141.514,31.629S108.486,501.718,108.486,484.25,171.844,452.621,250,452.621,391.514,466.782,391.514,484.25Z" transform="translate(-3 0)" fill="#2f2f2f"/>
          </g>
          <g id="freepik--Character--inject-3" transform="translate(-486.509 231.545)">
            <path id="Path_144" data-name="Path 144" d="M229.689,367.767l4.417-12.616c.166-.461,2.075.748,2.545.84,0,0,6.926-.923,9.683-.148s2.637,2.547,2.13,4.43c-1.171,4.375-3.062,5.205-4.279,11-.747,3.535-1.356,6.793-5.22,10.152-3.689,3.2-7.23,3.009-5.773-.923,3.5-9.377,1.844-7.983-.369-11.472C232.419,368.441,229.449,368.432,229.689,367.767Z" transform="translate(529.661 43.545) rotate(76)" fill="#f0bdb0"/>
            <path id="Path_145" data-name="Path 145" d="M267.33,368.83l-4.8-13.67c-.18-.5-2.25.81-2.76.91,0,0-7.51-1-10.5-.16s-2.86,2.76-2.31,4.8c1.27,4.74,3.32,5.64,4.64,11.92.81,3.83,1.47,7.36,5.66,11,4,3.47,7.84,3.26,6.26-1-3.8-10.16-2-8.65.4-12.43C264.36,369.56,267.58,369.55,267.33,368.83Z" transform="matrix(0.105, -0.995, 0.995, 0.105, -126.547, 580.097)" fill="#f0bdb0"/>
            <path id="Path_126" data-name="Path 126" d="M189.42,336.84c26.11-.66,43.05,19.23,43.05,19.23-2.56,8.15-4.2,14.25-4.2,14.25-14.28-2.7-30.52-3.79-43.89-7.27-12.07-3.14-13.33-19.45-12-26.3s8.18-8.45,14.92-10.68c7.69-2.55,22.35-2.75,32.86-2.79,11.08,0,25.64,1,33.18,2.7,0,0,16-.71,27.89-.51,6.94-1.17,2.76,10.14-8.26,19.78A49.19,49.19,0,0,1,232.6,357h-.09" fill="#484848"/>
            <path id="Path_127" data-name="Path 127" d="M315,336.84c-26.11-.66-49.28,19.23-49.28,19.23,2.56,8.15,4.2,14.25,4.2,14.25,14.28-2.7,36.75-3.79,50.12-7.27,12.08-3.14,13.33-19.45,12-26.3s-8.18-8.45-14.92-10.68c-7.69-2.55-22.35-2.75-32.86-2.79-11.08,0-25.64,1-33.18,2.7,0,0-16-.71-27.88-.51-6.95-1.17-2.77,10.14,8.25,19.78A49.19,49.19,0,0,0,271.77,357h.09" fill="#484848"/>
            <path id="Path_128" data-name="Path 128" d="M232.59,266q-3.39,11.56-7.15,23c-1.25,3.82-2.52,7.63-3.84,11.43s-2.6,7.57-4.06,11.41l-.18.48-.24.58c-.16.38-.34.74-.52,1.1a20.006,20.006,0,0,1-1.2,1.94,20.731,20.731,0,0,1-2.71,3.09,34.48,34.48,0,0,1-5.75,4.31,68.148,68.148,0,0,1-11.76,5.51,126.769,126.769,0,0,1-24.05,6.09l-1.53-6.48c3.64-1.3,7.39-2.68,11-4.18s7.19-3,10.6-4.74a66,66,0,0,0,9.53-5.61c2.82-2,5.07-4.51,5.3-6L212.71,285q3.39-11.505,7-23Z" fill="#f0bdb0"/>
            <path id="Path_129" data-name="Path 129" d="M172.21,328.6,160,325.68l5.82,11.05s8.28.339,11-4Z" fill="#f0bdb0"/>
            <path id="Path_130" data-name="Path 130" d="M269,177.162c-4.38-3.17-21.927-.362-24.827,4.468s-5.4,15-10.23,17.46-10.58,12.33-7.42,21-9.33,6.33-10,19.5,18.08,19.83,29.92,13.33,20.17-40.42,19.42-53.83S269,177.162,269,177.162Z" fill="#263238"/>
            <path id="Path_131" data-name="Path 131" d="M253.15,182.05a14.6,14.6,0,0,1,18.24-4.72c13.8,5.87,9.47,12.2,12,25.58s17.95,15.77,17.25,34.39c-1.19,31.71-29.25,25.83-37,17.41s.83-39.33.83-39.33Z" fill="#263238"/>
            <path id="Path_132" data-name="Path 132" d="M150.1,329.869l7.56,4.73,8.095,1.765-6.028-10.535Z" fill="#f0bdb0"/>
            <path id="Path_133" data-name="Path 133" d="M224.1,247.86c-5.31,1.36-9,23.22-9,23.22l14.64,10s14-22.06,10-27.9C235.41,247.05,231.86,245.89,224.1,247.86Z" fill="#7298ff"/>
            <path id="Path_134" data-name="Path 134" d="M223.62,255.81,235,258.45l1.09,11.12A129.876,129.876,0,0,1,229.71,281l-8.88-6C221.21,269.89,222.18,259.27,223.62,255.81Z" opacity="0.2"/>
            <path id="Path_135" data-name="Path 135" d="M224.1,247.86s-6.1,2.14,6.16,77.82h52.37c-.88-21.31-.91-34.45,9.28-78.19a154,154,0,0,0-22.24-2.93c-8.81-.43-16-.71-23.77,0C235.68,245.49,224.1,247.86,224.1,247.86Z" fill="#7298ff"/>
            <path id="Path_136" data-name="Path 136" d="M279.59,267.8l6.76,5.75c-1.45,7.65-2.41,14-3,19.69C282.05,287.56,278.84,272.14,279.59,267.8Z" opacity="0.2"/>
            <path id="Path_137" data-name="Path 137" d="M267.32,217.79c-1.5,7.65-3,21.66,2.35,26.77,0,0-5,11.46-18.25,11.46s-5.52-11.46-5.52-11.46c8.53-2,8.31-8.37,6.82-14.31Z" fill="#f6beaf"/>
            <path id="Path_138" data-name="Path 138" d="M269.67,244.56c-8.81-.43-16-.71-23.78,0-3.68.33-7.53.85-10.95,1.38-2.26,4.09-11.23,22.48,10.78,22.48,23.08,0,32.7-20.22,33.9-23C276.53,245.06,273.11,244.73,269.67,244.56Z" fill="#f6beaf"/>
            <path id="Path_139" data-name="Path 139" d="M261.37,222.87l-8.64,7.37a25.391,25.391,0,0,1,.73,4.22c3.26-.47,7.74-4.05,8.08-7.46A11.48,11.48,0,0,0,261.37,222.87Z" opacity="0.2"/>
            <path id="Path_140" data-name="Path 140" d="M277.4,203.33c-2.4,12.57-3.17,17.94-10.4,23.61-10.88,8.54-25.79,2.83-27.18-10.21-1.25-11.73,2.91-30.31,16-33.75a17.45,17.45,0,0,1,21.58,20.35Z" fill="#f6beaf"/>
            <path id="Path_141" data-name="Path 141" d="M255,181.63c-4.51,2.53-1.52,7,6.62,10.17s8.63,3.75,7.3,10.33S279.45,214.8,279.6,208s2.57-19.7-3.76-23.29S259.77,179,255,181.63Z" fill="#263238"/>
            <path id="Path_142" data-name="Path 142" d="M254.32,184.8c-4,1.29-13.09,11.16-12.42,7.91s2.37-7.75,7.17-9.41a26,26,0,0,1,7.08-1.71Z" fill="#263238"/>
            <path id="Path_143" data-name="Path 143" d="M279.78,213.89a9.7,9.7,0,0,1-5.48,4.58c-3.11,1-4.68-1.69-3.83-4.63.77-2.65,3.3-6.36,6.43-6.08S281.19,211.23,279.78,213.89Z" fill="#f6beaf"/>
            <path id="Path_146" data-name="Path 146" d="M231.33,372.09l4.83-18.13-6.36-2.63-8.97,19.47Z" fill="#5e89ff"/>
            <path id="Path_147" data-name="Path 147" d="M266.05,372.47l-7.59-18.33,5.87-2.41,11.89,17.83Z" fill="#5e89ff"/>
            <path id="Path_148" data-name="Path 148" d="M248.7,204.36s-2.32,4.21-4.53,6.1c1.2,1.45,3.59,1.17,3.59,1.17Z" transform="translate(2 1)" fill="#263238"/>
            <path id="Path_150" data-name="Path 150" d="M262.34,199.41a.38.38,0,0,0,.37,0,.39.39,0,0,0,.12-.54,5.78,5.78,0,0,0-4.55-2.83.39.39,0,1,0,0,.77,5.08,5.08,0,0,1,3.9,2.48.44.44,0,0,0,.16.12Z" fill="#263238"/>
            <path id="Path_153" data-name="Path 153" d="M241,195.58a.39.39,0,0,0,.4,0,5,5,0,0,1,4.52-1,.4.4,0,0,0,.5-.24.39.39,0,0,0-.24-.5,5.85,5.85,0,0,0-5.26,1.08.39.39,0,0,0-.07.55.33.33,0,0,0,.15.11Z" fill="#263238"/>
            <path id="Path_154" data-name="Path 154" d="M283.41,322.61l.42,4.68c.18.37-.25.74-.85.74H230c-.47,0-.86-.23-.89-.53l-.47-4.69c0-.32.38-.6.89-.6h53a.94.94,0,0,1,.88.4Z" fill="#407bff"/>
            <path id="Path_155" data-name="Path 155" d="M283.41,322.61l.42,4.68c.18.37-.25.74-.85.74H230c-.47,0-.86-.23-.89-.53l-.47-4.69c0-.32.38-.6.89-.6h53a.94.94,0,0,1,.88.4Z" fill="#c2dcff"/>
            <path id="Path_156" data-name="Path 156" d="M276.29,328.54h1.42c.28,0,.5-.15.48-.33l-.67-6.09c0-.18-.26-.32-.55-.32h-1.42c-.28,0-.5.14-.48.32l.67,6.09C275.76,328.39,276,328.54,276.29,328.54Z" fill="#263238"/>
            <path id="Path_157" data-name="Path 157" d="M234,328.54h1.42c.28,0,.49-.15.47-.33l-.66-6.09c0-.18-.27-.32-.55-.32h-1.42c-.28,0-.5.14-.48.32l.67,6.09C233.47,328.39,233.71,328.54,234,328.54Z" fill="#263238"/>
            <path id="Path_158" data-name="Path 158" d="M255.14,328.54h1.42c.29,0,.5-.15.48-.33l-.66-6.09c0-.18-.27-.32-.55-.32h-1.42c-.29,0-.5.14-.48.32l.66,6.09C254.61,328.39,254.86,328.54,255.14,328.54Z" fill="#263238"/>
            <path id="Path_159" data-name="Path 159" d="M296.56,263l4.29,23.12c.73,3.84,1.47,7.67,2.25,11.46.38,1.89.82,3.76,1.23,5.61l.66,2.73.64,2.34a7.69,7.69,0,0,0,1.85,2.77,26.3,26.3,0,0,0,3.69,3.13,69.582,69.582,0,0,0,9.46,5.49c3.38,1.68,6.91,3.21,10.48,4.67s7.26,2.83,10.84,4.12l-1.53,6.48a126.647,126.647,0,0,1-23.74-6,70.371,70.371,0,0,1-11.61-5.34,36.422,36.422,0,0,1-5.68-4.11,18.9,18.9,0,0,1-5-6.79l-.23-.57-.15-.43-.27-.76-.53-1.54-.93-3q-.88-3-1.63-5.9-1.55-5.86-2.81-11.72c-1.74-7.82-3.23-15.61-4.51-23.52Z" fill="#f0bdb0"/>
            <path id="Path_160" data-name="Path 160" d="M291.91,247.49c5.25,1.59,11.75,18.47,11.75,18.47L283.3,280.52s-7.62-13.9-5.41-20.68C280.18,252.78,285.92,245.67,291.91,247.49Z" fill="#7298ff"/>
            <path id="Path_161" data-name="Path 161" d="M339.35,328.78l12.23-3.1-5.83,11.74s-8.27.36-11-4.25Z" fill="#f0bdb0"/>
          </g>
          <g id="Bibliophile-bro" transform="matrix(0.995, 0.105, -0.105, 0.995, 432.275, 205.931)">
            <g id="Group_19" data-name="Group 19" transform="translate(-687.779 442.905) rotate(-169)">
              <path id="Path_24" data-name="Path 24" d="M36.26,2.73s-5.188,4.547-10.554,6.1-11.551,1.586-16.9,3.045S.273,14.565.273,14.565L0,9.735,36.04,0,60.7,6.826l2.457,5.009a39.9,39.9,0,0,0-8.4-2.825c-5.366-1.271-11.373-1.271-14.7-2.552S36.26,2.73,36.26,2.73Z" transform="translate(2.153 14.198)" fill="#fff" stroke="#263238" stroke-linecap="round" stroke-linejoin="round" stroke-width="1"/>
              <path id="Path_25" data-name="Path 25" d="M.546,12.16a125.182,125.182,0,0,1,21.58-4.568A32.953,32.953,0,0,0,37.311,1.418,24.426,24.426,0,0,0,49.418,5.24a61.955,61.955,0,0,1,15.2,3.1L63.07,5.188,36.586,0,0,9.556Z" transform="translate(1.103 15.51)" fill="#fff" stroke="#263238" stroke-linecap="round" stroke-linejoin="round" stroke-width="1"/>
              <path id="Path_26" data-name="Path 26" d="M.189,13.379A65.558,65.558,0,0,1,17.621,9.315c9.745-.735,20.057-5.587,20.057-5.587A30.737,30.737,0,0,0,50.511,7,59.72,59.72,0,0,1,65.349,9.01a3.56,3.56,0,0,1,.452-3L37.584,0,0,10.921Z" transform="translate(0.462 13.2)" fill="#fff" stroke="#263238" stroke-linecap="round" stroke-linejoin="round" stroke-width="1"/>
              <path id="Path_27" data-name="Path 27" d="M.189,24.415,36.87,15.227v-1.26l3.087-.084v1.449l27.124,4.284s1.187.273.179-1.05S48.788,2,48.788,2L29.4,0,0,6.458Z" transform="translate(0 0.158)" fill="#407bff"/>
              <g id="Group_4" data-name="Group 4" transform="translate(0 0.158)" clip-path="url(#clip-path-2)">
                <path id="Path_28" data-name="Path 28" d="M36.859,14.009V15.29L.179,24.478,0,6.458,29.393,0l.525.052,7.76,13.935Z" transform="translate(0.01 -0.063)" opacity="0.3"/>
              </g>
              <path id="Path_30" data-name="Path 30" d="M.189,24.415,36.87,15.227v-1.26l3.087-.084v1.449l27.124,4.284s1.187.273.179-1.05S48.788,2,48.788,2L29.4,0,0,6.458Z" transform="translate(0 0.158)" fill="none" stroke="#263238" stroke-linecap="round" stroke-linejoin="round" stroke-width="1"/>
              <path id="Path_31" data-name="Path 31" d="M8.107,14.1,0,.095,1.554,0l9.64,14.019Z" transform="translate(28.763 0)" fill="#2c56b2" stroke="#263238" stroke-linecap="round" stroke-linejoin="round" stroke-width="1"/>
            </g>
          </g>
          <g id="Group_58" data-name="Group 58" transform="translate(-98.679 515.662) rotate(49)">
            <path id="Path_620" data-name="Path 620" d="M192.19,146.184a13.335,13.335,0,0,1-7.837-3.1,3.244,3.244,0,0,1-1.429-2.479,3.09,3.09,0,0,1,1.161-1.957,9.739,9.739,0,0,1,3-1.872,3.484,3.484,0,0,1,2.892-.1,4.228,4.228,0,0,1,1.654,2.617q.7,2.174,1.4,4.348a2.459,2.459,0,0,1,.175,1.056.843.843,0,0,1-.656.758c-.594.073-.923-.652-1.085-1.229a7.812,7.812,0,0,0-1.878-3.6,3.519,3.519,0,0,0-3.764-.872c-.341.156-.688.475-.61.842a1,1,0,0,0,.487.553l6.91,4.666" transform="translate(-242.542 1.635) rotate(-30)" fill="#407bff"/>
            <g id="Group_57" data-name="Group 57" transform="translate(0.993 0)">
              <path id="Path_621" data-name="Path 621" d="M182.376,160.075s.219-1.435-.7-1.163-1.3.452-1.352,2.237-.711,5.252-1.545,6.557-1.985,1.744-1.909,4.509.791,8.387.791,8.387l-.582,1.724,6.768,5.884c0-.06,4.647-4.063,4.645-4.076a71.733,71.733,0,0,0,2.269-6.957c.069-1.589.649-3.894.518-5.771a9.341,9.341,0,0,0-.6-3.428c-.72-2.168-.9-1.955-.9-1.955s2.518-1.837,1.475-3.435a4.147,4.147,0,0,0-2.941-1.732l-5.932-.779Z" transform="translate(-176.849 -117.45)" fill="#f0bdb0"/>
              <g id="Group_56" data-name="Group 56" transform="translate(-22.16 9.443) rotate(-30)">
                <path id="Path_622" data-name="Path 622" d="M182.667,117.883l-6.236,57.1,6.049.73,5.842-57.437s-1.838-1.562-5.655-.4Z" transform="translate(-176.431 -117.45)" fill="#407bff"/>
                <path id="Path_623" data-name="Path 623" d="M182.667,117.883l-6.236,57.1,6.049.73,5.842-57.437s-1.838-1.562-5.655-.4Z" transform="translate(-176.431 -117.45)" fill="#fff" opacity="0.8"/>
                <path id="Path_624" data-name="Path 624" d="M178.983,146.462s2.278,3.554,5.752,1.549l.473-4.656s-4.726.75-5.687-1.827l-.539,4.934Z" transform="translate(-175.868 -117.45)" fill="#407bff"/>
              </g>
              <path id="Path_625" data-name="Path 625" d="M182.23,161.128c-.01.1-4.069.222-3.445,2.36s4.645.91,4.645.91" transform="translate(-169.929 -117.45)" fill="#f0bdb0"/>
              <path id="Path_626" data-name="Path 626" d="M188.888,166.02a1.171,1.171,0,0,0-1.348-.339c-.944.27-6.562,3.865-6.9,4.585s-.617,1.917.179,2.207l.687.137s-2.318,1.186-2.205,2.175,1.3,1.729,2.745.9c0,0-1.254.81-.75,1.864s1.055,1.1,2.109.6a16.986,16.986,0,0,1,3.308-.881l1.516,1.229" transform="translate(-175.962 -117.45)" fill="#f0bdb0"/>
              <path id="Path_627" data-name="Path 627" d="M182.149,176.361a2.527,2.527,0,0,0,.938-.2.25.25,0,1,0-.185-.465,1.529,1.529,0,0,1-1.357.011,1.776,1.776,0,0,1-.76-1.235c-.079-.487,1.267-1.324,2.2-1.737l3.339-1.94a3.539,3.539,0,0,1,1.342-.552,1.019,1.019,0,0,1,1.049.506.25.25,0,1,0,.463-.191,1.494,1.494,0,0,0-1.562-.812,3.913,3.913,0,0,0-1.543.617l-3.314,1.928c-.421.184-2.636,1.217-2.467,2.262a2.2,2.2,0,0,0,1.006,1.589,1.7,1.7,0,0,0,.851.216Z" transform="translate(-177.26 -117.45)" fill="#e97a75"/>
              <path id="Path_628" data-name="Path 628" d="M186.61,178.771a.25.25,0,0,0,.176-.428l-1.264-1.249a.249.249,0,0,0-.244-.062l-2.062.587c-.657.23-2.58.717-2.968,0a1.262,1.262,0,0,1,.294-1.544,14.484,14.484,0,0,1,3.937-1.623,3.921,3.921,0,0,1,2.386.341.25.25,0,0,0,.221-.449,4.41,4.41,0,0,0-2.692-.384,14.963,14.963,0,0,0-4.143,1.711,1.749,1.749,0,0,0-.443,2.185c.659,1.222,3.265.344,3.56.239l1.907-.543,1.16,1.146a.25.25,0,0,0,.176.072Z" transform="translate(-174.597 -117.45)" fill="#e97a75"/>
              <path id="Path_633" data-name="Path 633" d="M182.149,176.361a2.527,2.527,0,0,0,.938-.2.25.25,0,1,0-.185-.465,1.529,1.529,0,0,1-1.357.011,1.776,1.776,0,0,1-.76-1.235c-.079-.487,1.267-1.324,2.2-1.737l3.339-1.94a3.539,3.539,0,0,1,1.342-.552,1.019,1.019,0,0,1,1.049.506.25.25,0,1,0,.463-.191,1.494,1.494,0,0,0-1.562-.812,3.913,3.913,0,0,0-1.543.617l-3.314,1.928c-.421.184-2.636,1.217-2.467,2.262a2.2,2.2,0,0,0,1.006,1.589,1.7,1.7,0,0,0,.851.216Z" transform="translate(-177.26 -117.45)" fill="#e97a75"/>
              <path id="Path_634" data-name="Path 634" d="M181.973,175.342a2.43,2.43,0,0,0,.85-.167.208.208,0,0,0,.127-.275.233.233,0,0,0-.294-.118c-.486.181-1.531.7-1.861.521-.518-.274-.453-.973-.484-1.149-.072-.412,1.575-1.528,2.421-1.878l3.025-1.642a3.334,3.334,0,0,1,1.216-.467c.363-.033,1.552-.551,1.694-.226.048.108.518.144.635.1s-.07-.247-.118-.356c-.238-.54-1.739.008-2.257.061a3.691,3.691,0,0,0-1.4.522l-3,1.631c-.381.156-2.68,1.426-2.527,2.31.1.595.093,1.071.56,1.318.181.1,1.08-.187,1.414-.187Z" transform="matrix(0.996, -0.087, 0.087, 0.996, -190.324, -104.095)" fill="#e97a75"/>
            </g>
            <path id="Path_630" data-name="Path 630" d="M169.55,145.34a13.34,13.34,0,0,1,7.441-3.956,3.242,3.242,0,0,1,2.813.52,3.088,3.088,0,0,1,.736,2.153,9.737,9.737,0,0,1-.521,3.5,3.485,3.485,0,0,1-1.8,2.265,4.23,4.23,0,0,1-3.064-.438l-4.215-1.757a2.468,2.468,0,0,1-.917-.552.844.844,0,0,1-.152-.991c.33-.5,1.1-.28,1.638-.029a7.815,7.815,0,0,0,3.955.9,3.521,3.521,0,0,0,3.1-2.3c.1-.361.085-.832-.245-1.01a1,1,0,0,0-.737.012l-8.034,2.233" transform="translate(-219.992 -11.384) rotate(-30)" fill="#407bff"/>
          </g>
        </g>
      </g>
      <path id="Path_753" data-name="Path 753" d="M266.7,124.563c-.01,1.133-.66,2.1-1.454,2.149s-1.428-.82-1.418-1.953.66-2.1,1.453-2.149,1.428.821,1.418,1.954Z" transform="translate(-88.893 201.777)" fill="#263238"/>
      <path id="Path_760" data-name="Path 760" d="M267.808,122.57l-2.8-.524S266.619,124.041,267.808,122.57Z" transform="translate(-91.178 201.777)" fill="#263238"/>
      <path id="Path_1109" data-name="Path 1109" d="M266.7,124.563c-.01,1.133-.66,2.1-1.454,2.149s-1.428-.82-1.418-1.953.66-2.1,1.453-2.149,1.428.821,1.418,1.954Z" transform="translate(-76.893 202.842)" fill="#263238"/>
      <path id="Path_1110" data-name="Path 1110" d="M267.808,122.57l-2.8-.524S266.619,124.041,267.808,122.57Z" transform="translate(-79.178 202.842)" fill="#263238"/>
      <g id="Group_121" data-name="Group 121" transform="translate(179.616 337.985) rotate(14)">
        <path id="Path_763" data-name="Path 763" d="M265.637,135.492a30.394,30.394,0,0,1,2.017,3.927c.253-.058.506-.116.756-.188,3.414-.877,4.709-2.411,5.108-3.847a4.56,4.56,0,0,0,.024-2.152,4.43,4.43,0,0,0-.4-1.163c-1.533,1.546-4.653,2.608-6.343,3.106-.706.216-1.159.317-1.159.317Z" transform="translate(-265.637 -132.069)" fill="#263238"/>
        <path id="Path_764" data-name="Path 764" d="M265.753,135.175l.625,1.142c3.214-.833,5.365-1.851,6.121-3.085a4.43,4.43,0,0,0-.4-1.163C270.563,133.615,267.443,134.677,265.753,135.175Z" transform="translate(-264.593 -132.069)" fill="#fff"/>
        <path id="Path_765" data-name="Path 765" d="M265.778,139.231c3.414-.877,4.709-2.411,5.108-3.847a11.324,11.324,0,0,0-3.6,1.725A4.258,4.258,0,0,0,265.778,139.231Z" transform="translate(-263.005 -132.069)" fill="#fb504e"/>
      </g>
      <path id="Path_1104" data-name="Path 1104" d="M.378,5.882S.877.4,2.5.026,4.365,3.4,4.115,7,1.876,11.609.628,10.611.378,5.882.378,5.882Z" transform="translate(100.182 451.282) rotate(40)" fill="#f0bdb0" stroke="#e97a75" stroke-linecap="round" stroke-linejoin="round" stroke-width="1"/>
      <path id="Path_1105" data-name="Path 1105" d="M.071,6.216S-.408.731,1.117.077,3.552,3.059,3.944,6.654s-1.383,4.931-2.793,4.189S.071,6.216.071,6.216Z" transform="translate(96.662 449.91) rotate(40)" fill="#f0bdb0" stroke="#e97a75" stroke-linecap="round" stroke-linejoin="round" stroke-width="1"/>
      <path id="Path_1106" data-name="Path 1106" d="M.069,6.209S-.4.731,1.121.077,3.557,3.059,3.948,6.654s-1.4,4.931-2.793,4.169S.069,6.209.069,6.209Z" transform="translate(93.274 448.714) rotate(40)" fill="#f0bdb0" stroke="#e97a75" stroke-linecap="round" stroke-linejoin="round" stroke-width="1"/>
      <path id="Path_1108" data-name="Path 1108" d="M.794,5.5S-.791,1.213.518.214s2.914,1.66,4.048,4.452-.3,4.425-1.781,4.243S.794,5.5.794,5.5Z" transform="translate(88.141 448.119) rotate(40)" fill="#f0bdb0" stroke="#e97a75" stroke-linecap="round" stroke-linejoin="round" stroke-width="1"/>
    </g>
  </g>
</svg>
