<svg id="tasks-2" xmlns="http://www.w3.org/2000/svg" width="19" height="19" viewBox="0 0 19 19">
  <path id="Path_12043" data-name="Path 12043" d="M15.839,4.5H7.871A3.374,3.374,0,0,0,4.5,7.871v7.968A3.374,3.374,0,0,0,7.871,19.21h7.968a3.374,3.374,0,0,0,3.371-3.371V7.871A3.374,3.374,0,0,0,15.839,4.5Zm-.182,5.151-4.164,5.516a.919.919,0,0,1-.654.362c-.028,0-.054,0-.08,0a.92.92,0,0,1-.627-.247L8.16,13.447A.92.92,0,0,1,9.414,12.1l1.226,1.143,3.549-4.7a.919.919,0,1,1,1.468,1.107Z" transform="translate(-0.21 -0.21)" fill="#15d623"/>
  <path id="Path_12044" data-name="Path 12044" d="M4.146,4.118l8.487-1.262a1.524,1.524,0,0,1,1.548.75.919.919,0,1,0,1.59-.923,3.348,3.348,0,0,0-3.408-1.645L3.877,2.3a3.368,3.368,0,0,0-2.84,3.829l1.2,8.067a.92.92,0,0,0,.909.784.867.867,0,0,0,.136-.01.92.92,0,0,0,.774-1.044l-1.2-8.066A1.532,1.532,0,0,1,4.146,4.118Z" transform="translate(-1 -1)" fill="#15d623"/>
</svg>
