<svg xmlns="http://www.w3.org/2000/svg" width="101.177" height="124.581" viewBox="0 0 101.177 124.581">
  <g id="Group_6879" data-name="Group 6879" transform="translate(-31.381 -113.919)">
    <g id="cup-star-svgrepo-com" transform="translate(37 149.372)">
      <path id="Path_15260" data-name="Path 15260" d="M12,16V28.844" transform="translate(32.814 45.94)" fill="none" stroke="#7c54ac" stroke-linecap="round" stroke-width="3"/>
      <path id="Path_15261" data-name="Path 15261" d="M38.47,30.2H8.5l1.452-7.262a4.282,4.282,0,0,1,4.2-3.442H32.819a4.282,4.282,0,0,1,4.2,3.442Z" transform="translate(21.329 57.425)" fill="none" stroke="#7c54ac" stroke-linecap="round" stroke-linejoin="round" stroke-width="3"/>
      <path id="Path_15262" data-name="Path 15262" d="M23.922,5l4.061,1.354c4.239,1.413,6.358,2.119,7.57,3.8s1.213,3.916,1.212,8.384v.311c0,3.685,0,5.528-.887,7.035s-2.5,2.4-5.719,4.192L17.5,37.111" transform="translate(50.862 9.844)" fill="none" stroke="#7c54ac" stroke-width="3"/>
      <path id="Path_15263" data-name="Path 15263" d="M14.844,5,10.783,6.354c-4.239,1.413-6.358,2.119-7.57,3.8S2,14.071,2,18.539v.311c0,3.685,0,5.528.887,7.035s2.5,2.4,5.719,4.192l12.66,7.034" transform="translate(0 9.844)" fill="none" stroke="#7c54ac" stroke-width="3"/>
      <path id="Path_15264" data-name="Path 15264" d="M18.187,9.378C19.814,6.459,20.628,5,21.844,5s2.03,1.459,3.657,4.378l.421.755a4.706,4.706,0,0,0,1.054,1.518,4.39,4.39,0,0,0,1.707.578l.817.185c3.159.715,4.739,1.072,5.115,2.281s-.7,2.468-2.855,4.986l-.557.652a4.735,4.735,0,0,0-1.056,1.516,4.938,4.938,0,0,0,0,1.875l.084.869c.325,3.36.489,5.04-.5,5.788s-2.463.066-5.421-1.3l-.765-.352a4.383,4.383,0,0,0-1.707-.581,4.383,4.383,0,0,0-1.707.581l-.765.352c-2.958,1.362-4.437,2.043-5.421,1.3s-.821-2.427-.5-5.788l.084-.869a4.938,4.938,0,0,0,0-1.875,4.732,4.732,0,0,0-1.056-1.516l-.557-.652C9.775,17.162,8.7,15.9,9.074,14.695s1.955-1.566,5.115-2.281l.817-.185a4.39,4.39,0,0,0,1.707-.578,4.706,4.706,0,0,0,1.054-1.518Z" transform="translate(22.97 9.844)" fill="none" stroke="#7c54ac" stroke-width="3"/>
      <path id="Path_15265" data-name="Path 15265" d="M57.377,22H6" transform="translate(13.126 65.628)" fill="none" stroke="#7c54ac" stroke-linecap="round" stroke-width="3"/>
      <path id="Path_15266" data-name="Path 15266" d="M56.334,3.952c3.175.606,5.057,1.272,6.683,3.275,2.037,2.508,1.929,5.22,1.714,10.642-.774,19.493-5.142,44.071-29.8,44.071S5.9,37.362,5.124,17.869C4.909,12.447,4.8,9.735,6.838,7.227s4.474-2.92,9.35-3.742A112.919,112.919,0,0,1,34.928,2c3.075,0,5.932.109,8.562.292" transform="translate(9.888)" fill="none" stroke="#7c54ac" stroke-linecap="round" stroke-width="3"/>
    </g>
    <g id="Group_5891" data-name="Group 5891">
      <path id="party-horn-svgrepo-com_2_" data-name="party-horn-svgrepo-com (2)" d="M88.233,3.882c-6.87-.063-10.051,3.112-11.094,6.321-.919,2.826-.079,8.613-2.272,12.9-2.1,4.1-7.647,6.413-13.949,6.608" transform="matrix(-0.454, -0.891, 0.891, -0.454, 69.329, 207.391)" fill="none" stroke="#7c54ac" stroke-linecap="round" stroke-linejoin="round" stroke-width="2"/>
      <path id="party-horn-svgrepo-com_2_2" data-name="party-horn-svgrepo-com (2)" d="M50.5,19.293C53.782,14.65,57.7,9.655,53.22-.394" transform="translate(39.863 104.68) rotate(19)" fill="none" stroke="#7c54ac" stroke-linecap="round" stroke-linejoin="round" stroke-width="2"/>
      <path id="party-horn-svgrepo-com_2_3" data-name="party-horn-svgrepo-com (2)" d="M27.315,25.829c-6.87.063-10.051-3.112-11.094-6.321-.919-2.826-.079-8.613-2.272-12.9C11.852,2.509,6.3.2,0,0" transform="matrix(0.454, -0.891, 0.891, 0.454, 95.794, 139.625)" fill="none" stroke="#7c54ac" stroke-linecap="round" stroke-linejoin="round" stroke-width="2"/>
      <path id="party-horn-svgrepo-com_2_4" data-name="party-horn-svgrepo-com (2)" d="M36.555,5.344H36.6" transform="translate(72.863 102.68) rotate(19)" fill="none" stroke="#7c54ac" stroke-linecap="round" stroke-linejoin="round" stroke-width="3"/>
      <path id="party-horn-svgrepo-com_2_5" data-name="party-horn-svgrepo-com (2)" d="M36.555,5.344H36.6" transform="translate(9.863 109.68) rotate(19)" fill="none" stroke="#7c54ac" stroke-linecap="round" stroke-linejoin="round" stroke-width="3"/>
      <path id="party-horn-svgrepo-com_2_6" data-name="party-horn-svgrepo-com (2)" d="M36.555,5.344H36.6" transform="translate(17.863 126.68) rotate(19)" fill="none" stroke="#7c54ac" stroke-linecap="round" stroke-linejoin="round" stroke-width="3"/>
      <path id="party-horn-svgrepo-com_2_7" data-name="party-horn-svgrepo-com (2)" d="M36.555,5.344H36.6" transform="translate(81.863 126.68) rotate(19)" fill="none" stroke="#7c54ac" stroke-linecap="round" stroke-linejoin="round" stroke-width="3"/>
      <path id="party-horn-svgrepo-com_2_8" data-name="party-horn-svgrepo-com (2)" d="M36.555,5.344H36.6" transform="translate(50.863 112.68) rotate(19)" fill="none" stroke="#7c54ac" stroke-linecap="round" stroke-linejoin="round" stroke-width="3"/>
    </g>
  </g>
</svg>
