<svg xmlns="http://www.w3.org/2000/svg" width="26" height="26" viewBox="0 0 26 26">
  <g id="Group_6869" data-name="Group 6869" transform="translate(-202 -361)">
    <rect id="Rectangle_6599" data-name="Rectangle 6599" width="26" height="26" rx="6" transform="translate(202 361)" fill="#27cc6d"/>
    <g id="rocket" transform="translate(206.981 365.785)">
      <path id="Path_15761" data-name="Path 15761" d="M15.237.954a13.8,13.8,0,0,0-8.6,3.54H4.861A2.019,2.019,0,0,0,3.3,5.224L.2,8.956l3.845.92,2.812,2.812.92,3.845,3.732-3.1a2.02,2.02,0,0,0,.731-1.557V10.1a13.8,13.8,0,0,0,3.54-8.6l.052-.6-.6.052ZM3.966,8.816,2.021,8.351l2.06-2.48a1.009,1.009,0,0,1,.779-.365h.861A10.448,10.448,0,0,0,3.966,8.816Zm7.266,3.061a1.01,1.01,0,0,1-.365.779l-2.48,2.06-.465-1.945a10.459,10.459,0,0,0,3.311-1.755ZM9.714,8.541a1.518,1.518,0,1,1,1.518-1.518A1.52,1.52,0,0,1,9.714,8.541Z" fill="#fff"/>
      <path id="Path_15762" data-name="Path 15762" d="M5,22.369a2.072,2.072,0,0,0-2.862,0c-.794.794-1.153,3.06-1.216,3.506l-.1.668.668-.1c.446-.064,2.712-.421,3.506-1.216a2.024,2.024,0,0,0,0-2.862Z" transform="translate(-0.305 -10.321)" fill="#fff"/>
    </g>
  </g>
</svg>
