<svg xmlns="http://www.w3.org/2000/svg" width="24.582" height="26.163" viewBox="0 0 24.582 26.163">
  <g id="teacher-svgrepo-com" transform="translate(1 1.156)">
    <path id="Path_11096" data-name="Path 11096" d="M11.534,2.636,4.318,7.347a3.819,3.819,0,0,0,0,6.4l7.217,4.711a4.688,4.688,0,0,0,4.723,0l7.181-4.711a3.819,3.819,0,0,0,0-6.389L16.257,2.648A4.659,4.659,0,0,0,11.534,2.636Z" transform="translate(-2.583 -1.999)" fill="none" stroke="#2bb2f0" stroke-linecap="round" stroke-linejoin="round" stroke-width="2"/>
    <path id="Path_11097" data-name="Path 11097" d="M5.632,13.08,5.62,18.7a4.089,4.089,0,0,0,2.613,3.632l3.824,1.271a4.61,4.61,0,0,0,2.421,0L18.3,22.334A4.089,4.089,0,0,0,20.916,18.7V13.14" transform="translate(-1.979 0.204)" fill="none" stroke="#2bb2f0" stroke-linecap="round" stroke-linejoin="round" stroke-width="2"/>
    <path id="Path_11098" data-name="Path 11098" d="M21.4,16.193V9" transform="translate(1.158 -0.607)" fill="none" stroke="#2bb2f0" stroke-linecap="round" stroke-linejoin="round" stroke-width="2"/>
  </g>
</svg>
