<svg xmlns="http://www.w3.org/2000/svg" width="58.454" height="47.798" viewBox="0 0 58.454 47.798">
  <g id="folder-open" transform="translate(1.325 -0.25)" opacity="0.23">
    <path id="Path_15268" data-name="Path 15268" d="M2.25,19.869V9.6A6.846,6.846,0,0,1,9.1,2.75h6.68a6.848,6.848,0,0,1,5.341,2.561l2.065,2.575H41.624a6.846,6.846,0,0,1,6.848,6.848v5.136" transform="translate(2.539 0)" fill="none" stroke="#000" stroke-linecap="round" stroke-linejoin="round" stroke-width="5"/>
    <path id="Path_15269" data-name="Path 15269" d="M6.337,7.75H49.463a5.133,5.133,0,0,1,4.961,6.457l-3.77,14.137a6.844,6.844,0,0,1-6.615,5.084H11.763a6.844,6.844,0,0,1-6.615-5.084L1.379,14.207A5.135,5.135,0,0,1,6.34,7.75Z" transform="translate(0 12.119)" fill="none" stroke="#000" stroke-linecap="round" stroke-linejoin="round" stroke-width="5"/>
  </g>
</svg>
