<svg xmlns="http://www.w3.org/2000/svg" width="24.484" height="24.13" viewBox="0 0 24.484 24.13">
  <g id="wrong-markhbf" transform="translate(0 -0.061)">
    <path id="Path_15983" data-name="Path 15983" d="M10.177,5.269c.145-.1.3-.2.437-.3,1.034-.7.434-2.253-.779-1.434-.324.223-.7.487-1.08.77C5.734,2.274,3.22.745,2.3.171S-.027,1.35.851,1.886c1.946,1.2,4.029,2.47,6.117,3.8C2.566,9.3-2.847,15.33,1.755,19.912c3.142,3.131,7.9,3.733,12.109,4.116,2.963.275,6.586.411,9.152-1.344C28.316,19.066,18.162,10.783,10.177,5.269ZM7.3,20.679c-9.1-2.9-3.887-9.908,1.124-14.058,1.628,1.069,3.226,2.187,4.773,3.365-.672,1.234-1.286,2.494-1.874,3.771q-1.885-2.146-3.9-4.176c-.51-.51-1.512.666-.993,1.185q2.172,2.185,4.191,4.5c-.7,1.59-1.373,3.195-2.033,4.8-.385.941.935.689,1.219.006.527-1.286,1.069-2.572,1.628-3.846,1.08,1.274,2.137,2.578,3.151,3.913.481.634,1.593-.414,1.179-.959q-1.755-2.307-3.649-4.509c.617-1.35,1.271-2.688,1.975-4A35.184,35.184,0,0,1,21.675,18.5C25.7,24.525,9.212,21.29,7.3,20.679Z" transform="translate(0)" fill="#ff5f5f"/>
  </g>
</svg>
