<svg xmlns="http://www.w3.org/2000/svg" width="36.5" height="44.5" viewBox="0 0 36.5 44.5">
  <g id="file-content" transform="translate(-5.75 -1.75)">
    <path id="Path_12006" data-name="Path 12006" d="M36,45a5,5,0,0,0,5-5V8a5,5,0,0,0-5-5H20.243a3,3,0,0,0-2.121.879L7.879,14.121A3,3,0,0,0,7,16.243Q7,28.121,7,40a5,5,0,0,0,5,5Z" fill="none" stroke="#7c54ac" stroke-linecap="round" stroke-linejoin="round" stroke-miterlimit="10" stroke-width="2.5"/>
    <path id="Path_12007" data-name="Path 12007" d="M20,3V16H7" fill="none" stroke="#7c54ac" stroke-linecap="round" stroke-linejoin="round" stroke-miterlimit="10" stroke-width="2.5"/>
    <path id="Path_12008" data-name="Path 12008" d="M14,24H34" fill="none" stroke="#7c54ac" stroke-linecap="round" stroke-linejoin="round" stroke-miterlimit="10" stroke-width="2.5"/>
    <path id="Path_12009" data-name="Path 12009" d="M34,16H27" fill="none" stroke="#7c54ac" stroke-linecap="round" stroke-linejoin="round" stroke-miterlimit="10" stroke-width="2.5"/>
    <path id="Path_12010" data-name="Path 12010" d="M14,32H34" fill="none" stroke="#7c54ac" stroke-linecap="round" stroke-linejoin="round" stroke-miterlimit="10" stroke-width="2.5"/>
  </g>
</svg>
