<svg xmlns="http://www.w3.org/2000/svg" width="70.124" height="68.124" viewBox="0 0 70.124 68.124">
  <g id="folder-with-files-svgrepo-com" transform="translate(-2 -2)">
    <path id="Path_11116" d="M2,18.86A33.243,33.243,0,0,1,2.243,13.1,13.83,13.83,0,0,1,13.425,2.236,36.236,36.236,0,0,1,19.355,2c1.356,0,2.034,0,2.685.059a14.246,14.246,0,0,1,7.645,3.076c.5.406.983.871,1.942,1.8l1.929,1.874c2.86,2.779,4.291,4.168,6,5.094a14.259,14.259,0,0,0,2.974,1.2c1.885.522,3.907.522,7.952.522H51.8c9.23,0,13.844,0,16.844,2.621a10.319,10.319,0,0,1,.786.764c2.7,2.914,2.7,7.4,2.7,16.364v7.5c0,12.845,0,19.268-4.108,23.259S57.3,70.124,44.074,70.124H30.05c-13.223,0-19.834,0-23.942-3.991S2,55.72,2,42.874Z" transform="translate(0 0)" fill="#8d8d8d" opacity="0.35"/>
    <path id="Path_11117" d="M45.091,14.351A17.833,17.833,0,0,0,45,12.146,10.518,10.518,0,0,0,35.947,3.09,26.435,26.435,0,0,0,32.821,3H9.988c.406.364.864.822,1.619,1.577l1.929,1.929c2.86,2.86,4.29,4.29,6,5.243a14.024,14.024,0,0,0,2.974,1.232c1.885.537,3.907.537,7.952.537h1.31C38.014,13.519,42.144,13.519,45.091,14.351Z" transform="translate(20.02 2.506)" fill="__TOP_COLOR__"/>
    <path id="Path_11118" d="M12.25,11.88a2.63,2.63,0,0,1,2.63-2.63H32.411a2.63,2.63,0,1,1,0,5.259H14.88A2.63,2.63,0,0,1,12.25,11.88Z" transform="translate(25.688 17.386)" fill="#8d8d8d" fill-rule="evenodd" opacity="0.7"/>
  </g>
</svg>
