<svg xmlns="http://www.w3.org/2000/svg" width="30.41" height="30.41" viewBox="0 0 30.41 30.41">
  <g id="dna-svgrepo-com" transform="translate(-0.586 -0.586)">
    <path id="Path_11102" data-name="Path 11102" d="M15.581,16l.274.094c4.494,1.547,9.907.068,13.727-3.752M15.581,16l-.769-.265c-4.195-1.444-9.247-.063-12.812,3.5M15.581,16l-.094-.274C13.939,11.233,15.419,5.82,19.239,2M15.581,16l.265.769c1.444,4.195.063,9.247-3.5,12.812" fill="none" stroke="#f6bf29" stroke-linecap="round" stroke-width="2"/>
    <path id="Path_11103" data-name="Path 11103" d="M6.765,11.843l7,7" transform="translate(1.806 3.732)" fill="none" stroke="#f6bf29" stroke-linecap="round" stroke-width="2"/>
    <path id="Path_11104" data-name="Path 11104" d="M11.844,6.765l7,7" transform="translate(3.732 1.806)" fill="none" stroke="#f6bf29" stroke-linecap="round" stroke-width="2"/>
    <path id="Path_11105" data-name="Path 11105" d="M4,13l4.827,4.827" transform="translate(0.758 4.17)" fill="none" stroke="#f6bf29" stroke-linecap="round" stroke-width="2"/>
    <path id="Path_11106" data-name="Path 11106" d="M21.105,12.217,16.278,7.391" transform="translate(5.413 2.044)" fill="none" stroke="#f6bf29" stroke-linecap="round" stroke-width="2"/>
    <path id="Path_11107" data-name="Path 11107" d="M9.3,18.191l2.189,2.189" transform="translate(2.769 6.138)" fill="none" stroke="#f6bf29" stroke-linecap="round" stroke-width="2"/>
    <path id="Path_11108" data-name="Path 11108" d="M15.189,6.189,13,4" transform="translate(4.17 0.758)" fill="none" stroke="#f6bf29" stroke-linecap="round" stroke-width="2"/>
  </g>
</svg>
