<svg xmlns="http://www.w3.org/2000/svg" width="42.519" height="44.814" viewBox="0 0 42.519 44.814">
  <g id="bicep" transform="translate(-3.735 -1.75)">
    <path id="Path_12001" data-name="Path 12001" d="M15.013,21.566a40.032,40.032,0,0,1-.5-6.483.985.985,0,0,1,.58-.89l3.919-1.788a2,2,0,0,0,.91-2.8l-.469-.828c1.072-1.418,1.238-2.992-.1-4.079A7.756,7.756,0,0,0,14.509,3c-3.6,0-6.929,8.526-8.923,18.657C3.7,31.249,6.84,40.242,8.374,41.808c2.239,2.285,7.721,2.323,10.315,1.99,6.311,2.7,17.376,1.621,22.672-2.22,4.846-3.519,5.473-11.6-1.955-16.4C32.925,21.767,23,25.5,19.357,29.411A19.183,19.183,0,0,1,15.013,21.566Z" fill="none" stroke="#824791" stroke-linecap="round" stroke-linejoin="round" stroke-width="2.5"/>
    <path id="Path_12002" data-name="Path 12002" d="M23,37a18.518,18.518,0,0,0,14-2" fill="none" stroke="#824791" stroke-linecap="round" stroke-linejoin="round" stroke-width="2.5"/>
  </g>
</svg>
