<svg xmlns="http://www.w3.org/2000/svg" width="48" height="48" viewBox="0 0 48 48">
  <g id="الشب_الاول" data-name="الشب الاول" transform="translate(-7426 -4528)">
    <rect id="Rectangle_6493" data-name="Rectangle 6493" width="48" height="48" rx="8" transform="translate(7426 4528)" fill="#bca69e"/>
    <g id="Group_5627" data-name="Group 5627" transform="translate(7536.335 4458.72)">
      <g id="Group_5864" data-name="Group 5864" transform="translate(-102.685 74.729)">
        <path id="Path_14900" data-name="Path 14900" d="M90.215,131.76l-1.368-14.28,10.124,5.155-.1.484c-.363,8.591-.253,8.619-.3,8.641S90.2,131.731,90.215,131.76Z" transform="translate(-78.767 -89.215)" fill="#fbc0a4"/>
        <path id="Path_14901" data-name="Path 14901" d="M98.7,127.265l.175-4.146.1-.484L88.848,117.48l.646,6.266C91.3,126.461,94.874,127.276,98.7,127.265Z" transform="translate(-78.768 -89.215)" fill="#f69d7d"/>
        <path id="Path_14902" data-name="Path 14902" d="M101.753,102.313c-.045-3.165.146-7.715-1.119-11.026a.025.025,0,0,1,0-.008.037.037,0,0,1,0-.008,6.489,6.489,0,0,0-2.671-3.415,12.006,12.006,0,0,0-6.222-1.877c-6.095-.486-10.057,1.8-12.708,5.765-1.976,2.958-1.133,6.837-.73,8.237-1.126.1-2.694.782-2.336,3.868.547,4.716,3.961,4.809,4.968,5.013,0,0,1.88,8.4,12.239,7.594S101.828,107.633,101.753,102.313Z" transform="translate(-74.803 -79.544)" fill="#fbc0a4"/>
        <path id="Path_14903" data-name="Path 14903" d="M101.607,89.108c2.773-2.38,4.416-5.709,3.422-9.561-1.5.679-2.926,1.233-4.43,1.912a5.106,5.106,0,0,0,1.8-4.73s-18.666,4-22.631,7.033a6.224,6.224,0,0,0-2.186,2.629L74.748,82.9s-1.694,4.214,1.615,5.661a4.355,4.355,0,0,0-1.71,2.625c-.914,3.587,1.756,6.48,1.756,6.48a2.7,2.7,0,0,1,2.367-.232c1.2.424,2.548,2.566,2.48,4.686l1.1-.145-.143-4.461s1.462-1.08,2.722-4.8a11.038,11.038,0,0,0,6.2,1.16L87.69,90.53a15.6,15.6,0,0,0,9.434,3.3c3.846.185,7.933-1.479,9.891-4.8C105.359,89.131,103.264,89.015,101.607,89.108Z" transform="translate(-74.315 -76.729)" fill="#403433"/>
        <path id="Path_14904" data-name="Path 14904" d="M102.249,114.761a.353.353,0,0,1,.114.429,1.034,1.034,0,0,1-1.3.619c-.2-.083-.282-.227-.261-.358.065-.267.345-.438.611-.576A1.054,1.054,0,0,1,102.249,114.761Z" transform="translate(-82.431 -88.366)" fill="#f69d7d"/>
        <path id="Path_14905" data-name="Path 14905" d="M96.2,102.424l-.011-.019c-.906-.458-3.728-.121-5.632.906a1.194,1.194,0,0,0,.946,1.1,3.433,3.433,0,0,0,1.541-.056c.9-.171,1.715-.441,2.573-.662A.885.885,0,0,0,96.2,102.424Z" transform="translate(-79.29 -84.535)" fill="#403433"/>
        <path id="Path_14906" data-name="Path 14906" d="M103.527,102.315l.006-.01a6.424,6.424,0,0,1,5.169.545,1.265,1.265,0,0,1-.873,1.142,2.936,2.936,0,0,1-1.416.04c-.785-.108-1.5-.309-2.251-.47A.885.885,0,0,1,103.527,102.315Z" transform="translate(-83.237 -84.466)" fill="#403433"/>
        <path id="Path_14907" data-name="Path 14907" d="M92.955,108.582a1.351,1.351,0,1,0,1.411-1.289A1.352,1.352,0,0,0,92.955,108.582Z" transform="translate(-80.026 -86.093)" fill="#403433"/>
        <path id="Path_14908" data-name="Path 14908" d="M103.321,108.582a1.351,1.351,0,1,0,1.411-1.289A1.352,1.352,0,0,0,103.321,108.582Z" transform="translate(-83.202 -86.093)" fill="#403433"/>
        <path id="Path_14909" data-name="Path 14909" d="M110.586,114.617a2.552,2.552,0,1,1-2.666-2.434A2.553,2.553,0,0,1,110.586,114.617Z" transform="translate(-83.865 -87.591)" fill="#f9b092"/>
        <path id="Path_14910" data-name="Path 14910" d="M91.924,115.143a2.552,2.552,0,1,1-2.665-2.434A2.551,2.551,0,0,1,91.924,115.143Z" transform="translate(-78.147 -87.752)" fill="#f9b092"/>
        <path id="Path_14911" data-name="Path 14911" d="M77.873,108.845a5.813,5.813,0,0,0,.654,3.761,2.038,2.038,0,0,0,.633.95.7.7,0,0,0,1.006-.163c.162-.336-.078-.715-.264-1.038s-.293-.808.021-1.011c.146-.094.338-.086.491-.167.334-.177.332-.653.246-1.022a5.707,5.707,0,0,0-.562-1.46c-.248-.449-.64-.909-1.153-.9C78.41,107.8,78.023,108.329,77.873,108.845Z" transform="translate(-75.368 -86.247)" fill="#f9b092"/>
        <path id="Path_14912" data-name="Path 14912" d="M101.166,118.5c.066.11-.124.388-.6.612a2.862,2.862,0,0,1-3.585-1.143c-.255-.455-.249-.793-.131-.844.246-.114.869.8,2.008,1.151C99.994,118.651,101.031,118.266,101.166,118.5Z" transform="translate(-81.197 -89.103)" fill="#f69d7d"/>
      </g>
    </g>
  </g>
</svg>
