<svg xmlns="http://www.w3.org/2000/svg" xmlns:xlink="http://www.w3.org/1999/xlink" width="48" height="48" viewBox="0 0 48 48">
  <defs>
    <clipPath id="clip-path">
      <ellipse id="Ellipse_1261" data-name="Ellipse 1261" cx="4.175" cy="4.176" rx="4.175" ry="4.176" transform="translate(0 8.243) rotate(-80.782)"/>
    </clipPath>
    <clipPath id="clip-path-2">
      <circle id="Ellipse_1263" data-name="Ellipse 1263" cx="4.175" cy="4.175" r="4.175" transform="translate(0 5.905) rotate(-45)"/>
    </clipPath>
  </defs>
  <g id="البنت_التانية" data-name="البنت التانية" transform="translate(-7369 -4473)">
    <rect id="Rectangle_6491" data-name="Rectangle 6491" width="48" height="48" rx="8" transform="translate(7369 4473)" fill="#a4e0b5"/>
    <g id="Group_5867" data-name="Group 5867" transform="translate(7234.957 4336.554)">
      <path id="Path_13148" data-name="Path 13148" d="M184.265,244.25h-6.057v-6.508a3.03,3.03,0,0,1,6.057,0Z" transform="translate(-22.709 -59.804)" fill="#efb596"/>
      <g id="Group_4197" data-name="Group 4197" transform="translate(139.044 143.26)">
        <g id="Group_4183" data-name="Group 4183" transform="translate(1.795 6.176)">
          <circle id="Ellipse_1257" data-name="Ellipse 1257" cx="3.941" cy="3.941" r="3.941" transform="translate(0 10.934)" fill="#efb596"/>
          <circle id="Ellipse_1258" data-name="Ellipse 1258" cx="3.941" cy="3.941" r="3.941" transform="translate(28.056 10.934)" fill="#efb596"/>
          <path id="Path_13178" data-name="Path 13178" d="M180.478,169.708c0,9.795-3.656,17.352-14.747,17.352s-14.747-7.558-14.747-17.352,6.6-11.749,14.747-11.749S180.478,159.913,180.478,169.708Z" transform="translate(-147.763 -157.959)" fill="#f6c3a3"/>
          <path id="Path_13179" data-name="Path 13179" d="M169.735,183.107c-.168.139-.744-.213-1.421-.189-.677-.023-1.252.328-1.421.189-.2-.118.337-.984,1.421-.988S169.931,182.989,169.735,183.107Z" transform="translate(-156.964 -171.968)" fill="#c1272d"/>
          <path id="Path_13180" data-name="Path 13180" d="M201.239,183.107c-.169.139-.744-.213-1.421-.189-.677-.023-1.252.328-1.421.189-.2-.118.337-.984,1.421-.988S201.435,182.989,201.239,183.107Z" transform="translate(-175.231 -171.968)" fill="#c1272d"/>
          <g id="Group_4174" data-name="Group 4174" transform="translate(16.377 24.78)">
            <path id="Path_13181" data-name="Path 13181" d="M182.3,216.936a2.942,2.942,0,0,0,.461,1.283,1.363,1.363,0,0,0,1.059.644,1.421,1.421,0,0,0,1.038-.688,5.822,5.822,0,0,0,.613-1.239,3.861,3.861,0,0,1-.46,1.339,1.512,1.512,0,0,1-1.186.826,1.466,1.466,0,0,1-1.217-.784A2.4,2.4,0,0,1,182.3,216.936Z" transform="translate(-182.293 -216.936)" fill="#401a4c"/>
          </g>
          <ellipse id="Ellipse_1259" data-name="Ellipse 1259" cx="2.102" cy="0.604" rx="2.102" ry="0.604" transform="translate(9.248 23.204)" fill="#f1a89e"/>
          <path id="Path_13182" data-name="Path 13182" d="M201.035,213.788c0,.334-.941.6-2.1.6s-2.1-.271-2.1-.6.941-.6,2.1-.6S201.035,213.454,201.035,213.788Z" transform="translate(-174.346 -189.98)" fill="#f1a89e"/>
          <g id="Group_4178" data-name="Group 4178" transform="translate(6.485 12.384)">
            <ellipse id="Ellipse_1260" data-name="Ellipse 1260" cx="4.175" cy="4.176" rx="4.175" ry="4.176" transform="translate(0 8.243) rotate(-80.782)" fill="#fff"/>
            <g id="Group_4176" data-name="Group 4176" transform="translate(0 0)">
              <g id="Group_4175" data-name="Group 4175" transform="translate(0)" clip-path="url(#clip-path)">
                <path id="Path_13183" data-name="Path 13183" d="M170,195.051a2.74,2.74,0,1,1-2.74-2.74A2.739,2.739,0,0,1,170,195.051Z" transform="translate(-162.094 -190.262)" fill="#401a4c"/>
              </g>
            </g>
            <g id="Group_4177" data-name="Group 4177" transform="translate(0.609 0.495)">
              <path id="Path_13184" data-name="Path 13184" d="M160.2,192.906a4.1,4.1,0,0,1,1.158-3.017,4.2,4.2,0,0,1,6.034,0,4.1,4.1,0,0,1,1.158,3.017,4.282,4.282,0,0,0-1.288-2.888,4.152,4.152,0,0,0-5.776,0A4.282,4.282,0,0,0,160.2,192.906Z" transform="translate(-160.199 -188.612)" fill="#401a4c"/>
            </g>
          </g>
          <g id="Group_4182" data-name="Group 4182" transform="translate(18.758 11.269)">
            <circle id="Ellipse_1262" data-name="Ellipse 1262" cx="4.175" cy="4.175" r="4.175" transform="translate(0 5.905) rotate(-45)" fill="#fff"/>
            <g id="Group_4180" data-name="Group 4180" transform="translate(0 0)">
              <g id="Group_4179" data-name="Group 4179" transform="translate(0 0)" clip-path="url(#clip-path-2)">
                <path id="Path_13185" data-name="Path 13185" d="M200.086,195.051a2.74,2.74,0,1,1-2.74-2.74A2.739,2.739,0,0,1,200.086,195.051Z" transform="translate(-191.814 -189.147)" fill="#401a4c"/>
              </g>
            </g>
            <g id="Group_4181" data-name="Group 4181" transform="translate(1.726 1.61)">
              <path id="Path_13186" data-name="Path 13186" d="M192.073,192.906a4.1,4.1,0,0,1,1.158-3.017,4.2,4.2,0,0,1,6.034,0,4.1,4.1,0,0,1,1.158,3.017,4.282,4.282,0,0,0-1.288-2.888,4.152,4.152,0,0,0-5.776,0A4.283,4.283,0,0,0,192.073,192.906Z" transform="translate(-192.068 -188.612)" fill="#401a4c"/>
            </g>
          </g>
        </g>
        <path id="Path_13187" data-name="Path 13187" d="M145.563,156.188c-3.178,8.122,6.932,21.461-1.476,22.906-5.084.873-7.151-6.4-2.27-6.985,4.041-.486-5.468-11.053-1.289-14.01,3.391-2.4-1.118-7.036,3.542-8.965s7.492-10.213,16.176-2.932c7.292-2.6,13.667-.132,13.667,4.067,4.92,5.22,5.032,8.672,3.411,10.03s1.271,7.445-2.545,11.943c3.627-.954,4.177,7.815-1.648,7.8-10.451-.03,3.212-8.752-1.735-23.853C170.48,158.912,160.4,162.827,145.563,156.188Z" transform="translate(-139.044 -143.26)" fill="#c1272d"/>
        <g id="Group_4184" data-name="Group 4184" transform="translate(7.104 10.948)">
          <path id="Path_13188" data-name="Path 13188" d="M155.951,169.316a21.874,21.874,0,0,0,4.774,1.961,27.62,27.62,0,0,0,5.063.976c.427.055.858.063,1.287.1l.644.042c.215.009.43,0,.645,0h1.292l1.29-.078c.863-.022,1.713-.18,2.571-.274.855-.117,1.7-.308,2.549-.459-.842.189-1.679.418-2.53.574-.857.119-1.708.3-2.575.342l-1.3.1-1.3.011c-.217,0-.434.008-.65,0l-.65-.037c-.432-.031-.868-.034-1.3-.088a26.271,26.271,0,0,1-5.092-1.039A19.339,19.339,0,0,1,155.951,169.316Z" transform="translate(-155.951 -169.316)" fill="#ed1c24"/>
        </g>
        <g id="Group_4185" data-name="Group 4185" transform="translate(8.512 8.021)">
          <path id="Path_13189" data-name="Path 13189" d="M159.3,162.349a4.061,4.061,0,0,1,.914.345l.887.413q.882.422,1.779.8a32.74,32.74,0,0,0,3.663,1.325c.618.2,1.25.348,1.879.51.637.127,1.269.277,1.913.369.321.05.641.11.963.15l.97.1c.646.086,1.3.091,1.949.141a23.784,23.784,0,0,1-3.91-.213,24.856,24.856,0,0,1-3.833-.833,29.376,29.376,0,0,1-3.669-1.386c-.592-.277-1.179-.563-1.757-.867l-.861-.464A4.048,4.048,0,0,0,159.3,162.349Z" transform="translate(-159.302 -162.349)" fill="#ed1c24"/>
        </g>
        <g id="Group_4186" data-name="Group 4186" transform="translate(11.024 6.72)">
          <path id="Path_13190" data-name="Path 13190" d="M165.28,159.254a4.027,4.027,0,0,1,1.137.39l1.092.513c.722.351,1.446.7,2.181,1.019a23.692,23.692,0,0,0,4.534,1.546,11.349,11.349,0,0,0,4.737.155,8.155,8.155,0,0,0,2.245-.787,9.326,9.326,0,0,0,1.945-1.4,9.384,9.384,0,0,1-1.889,1.5,8.24,8.24,0,0,1-2.264.864,11.252,11.252,0,0,1-4.826-.1,22.6,22.6,0,0,1-4.558-1.612c-.729-.342-1.446-.708-2.158-1.082l-1.065-.564A4,4,0,0,0,165.28,159.254Z" transform="translate(-165.28 -159.254)" fill="#ed1c24"/>
        </g>
        <g id="Group_4187" data-name="Group 4187" transform="translate(21.739 5.431)">
          <path id="Path_13191" data-name="Path 13191" d="M190.782,159.593a15.8,15.8,0,0,1,2.173-1.623,15.5,15.5,0,0,1,2.417-1.252,6.518,6.518,0,0,1,2.679-.525,2.761,2.761,0,0,1,1.313.409,2.506,2.506,0,0,1,.875,1.034,2.592,2.592,0,0,0-.935-.934,2.634,2.634,0,0,0-1.261-.326,6.653,6.653,0,0,0-2.583.563,17.366,17.366,0,0,0-2.41,1.187A25.666,25.666,0,0,0,190.782,159.593Z" transform="translate(-190.782 -156.186)" fill="#ed1c24"/>
        </g>
        <g id="Group_4188" data-name="Group 4188" transform="translate(12.883 4.981)">
          <path id="Path_13192" data-name="Path 13192" d="M169.706,155.313a11.246,11.246,0,0,1,1.592-.194,7.018,7.018,0,0,1,1.61.125,4.018,4.018,0,0,1,1.5.63,2.946,2.946,0,0,1,1,1.253,3.583,3.583,0,0,0-1.1-1.1,4.182,4.182,0,0,0-1.446-.55,8.082,8.082,0,0,0-1.56-.176C170.771,155.281,170.241,155.318,169.706,155.313Z" transform="translate(-169.706 -155.114)" fill="#ed1c24"/>
        </g>
        <g id="Group_4189" data-name="Group 4189" transform="translate(15.449 3.568)">
          <path id="Path_13193" data-name="Path 13193" d="M175.812,151.752a5.522,5.522,0,0,1,1.574.31,5.708,5.708,0,0,1,1.437.745,4.177,4.177,0,0,1,1.09,1.2,3.82,3.82,0,0,1,.505,1.523,6.727,6.727,0,0,0-.279-.742l-.167-.355-.213-.328A4.376,4.376,0,0,0,178.68,153a6.317,6.317,0,0,0-1.36-.765A8.907,8.907,0,0,0,175.812,151.752Z" transform="translate(-175.812 -151.752)" fill="#ed1c24"/>
        </g>
        <g id="Group_4190" data-name="Group 4190" transform="translate(32.352 9.842)">
          <path id="Path_13194" data-name="Path 13194" d="M216.042,166.683l.748.5q.367.263.719.549a9.108,9.108,0,0,1,1.284,1.287,4.082,4.082,0,0,1,.817,1.639,2.229,2.229,0,0,1-.014.924,2.125,2.125,0,0,1-.41.809,2.2,2.2,0,0,0,.245-1.693,4.18,4.18,0,0,0-.826-1.532,10.67,10.67,0,0,0-1.217-1.3C216.956,167.463,216.484,167.094,216.042,166.683Z" transform="translate(-216.042 -166.683)" fill="#ed1c24"/>
        </g>
        <g id="Group_4191" data-name="Group 4191" transform="translate(33.102 13.692)">
          <path id="Path_13195" data-name="Path 13195" d="M218.54,175.846a14.13,14.13,0,0,0-.393,1.755,7.782,7.782,0,0,0-.071,1.775,9.429,9.429,0,0,0,.29,1.759c.142.581.326,1.155.493,1.735a12.968,12.968,0,0,1-.669-1.686,8.259,8.259,0,0,1-.351-1.792,7.018,7.018,0,0,1,.129-1.824A8.012,8.012,0,0,1,218.54,175.846Z" transform="translate(-217.827 -175.846)" fill="#ed1c24"/>
        </g>
        <g id="Group_4192" data-name="Group 4192" transform="translate(33.893 19.173)">
          <path id="Path_13196" data-name="Path 13196" d="M220.785,188.891a5.586,5.586,0,0,0,.242.944l.283.938a9.071,9.071,0,0,1,.35,1.944,3.6,3.6,0,0,1-.407,1.943c-.043.072-.083.148-.129.217l-.169.188-.169.187c-.062.056-.134.1-.2.15a3.373,3.373,0,0,1-.877.448,3.027,3.027,0,0,0,1.383-1.279,3.575,3.575,0,0,0,.329-1.844,10.258,10.258,0,0,0-.289-1.91A10.42,10.42,0,0,1,220.785,188.891Z" transform="translate(-219.709 -188.891)" fill="#ed1c24"/>
        </g>
        <g id="Group_4193" data-name="Group 4193" transform="translate(32.422 29.786)">
          <path id="Path_13197" data-name="Path 13197" d="M216.621,214.15a6.3,6.3,0,0,0-.292,1.786,4.514,4.514,0,0,0,.295,1.758,2.192,2.192,0,0,0,1.124,1.267,1.849,1.849,0,0,0,1.645-.227,4.336,4.336,0,0,0,.713-.525,3.213,3.213,0,0,0,.591-.654,2.2,2.2,0,0,0,.385-1.65,1.214,1.214,0,0,0-.421-.721,1.078,1.078,0,0,0-.808-.213,2.942,2.942,0,0,0-1.558.84,2.874,2.874,0,0,1,1.543-.96,1.217,1.217,0,0,1,.917.21,1.386,1.386,0,0,1,.513.8,2.351,2.351,0,0,1-.387,1.815,3.424,3.424,0,0,1-.62.7,3.99,3.99,0,0,1-.751.557,2.072,2.072,0,0,1-1.843.222,2.3,2.3,0,0,1-1.21-1.4A5.2,5.2,0,0,1,216.621,214.15Z" transform="translate(-216.207 -214.15)" fill="#ed1c24"/>
        </g>
        <g id="Group_4194" data-name="Group 4194" transform="translate(0.892 24.131)">
          <path id="Path_13198" data-name="Path 13198" d="M145.439,200.692a18.378,18.378,0,0,1,1.542,5.252,8.143,8.143,0,0,1-.081,2.759,3.707,3.707,0,0,1-.55,1.29,2.423,2.423,0,0,1-1.1.888,3.219,3.219,0,0,1-1.392.2,4.443,4.443,0,0,1-.695-.066l-.345-.061-.337-.107a2.025,2.025,0,0,1-1.119-.858,1.689,1.689,0,0,1-.082-1.4,2.742,2.742,0,0,1,.8-1.143,2.412,2.412,0,0,1,1.25-.608.7.7,0,0,1,.639.29,1.25,1.25,0,0,1,.192.67,2.116,2.116,0,0,1-.092.683,1.266,1.266,0,0,1-.141.314.36.36,0,0,1-.268.194.353.353,0,0,0,.256-.2,1.243,1.243,0,0,0,.125-.315,2.07,2.07,0,0,0,.061-.671,1.178,1.178,0,0,0-.2-.621.593.593,0,0,0-.56-.226,2.313,2.313,0,0,0-1.16.6,2.581,2.581,0,0,0-.726,1.089,1.537,1.537,0,0,0,.087,1.242,1.82,1.82,0,0,0,1.013.755l.316.1.329.055a4.2,4.2,0,0,0,.667.058,3,3,0,0,0,1.295-.191,2.69,2.69,0,0,0,1.53-2.008,8.444,8.444,0,0,0,.111-2.689,16.39,16.39,0,0,0-.5-2.676A22.224,22.224,0,0,0,145.439,200.692Z" transform="translate(-141.166 -200.692)" fill="#ed1c24"/>
        </g>
        <g id="Group_4195" data-name="Group 4195" transform="translate(3.278 8.461)">
          <path id="Path_13199" data-name="Path 13199" d="M148.926,163.4a8.831,8.831,0,0,0-.845,1.519,12.4,12.4,0,0,0-.606,1.624,9.756,9.756,0,0,0-.358,1.686,4.82,4.82,0,0,0,.061,1.7,2.781,2.781,0,0,0,.3.777,6.075,6.075,0,0,1,.4.792,5.627,5.627,0,0,1,.359,1.732,11.026,11.026,0,0,1-.389,3.473,13.062,13.062,0,0,0,.206-3.458,6.014,6.014,0,0,0-.377-1.665,5.782,5.782,0,0,0-.4-.757,2.992,2.992,0,0,1-.336-.839,5.037,5.037,0,0,1-.045-1.775,8.5,8.5,0,0,1,.4-1.716A9.8,9.8,0,0,1,148.926,163.4Z" transform="translate(-146.846 -163.397)" fill="#ed1c24"/>
        </g>
        <circle id="Ellipse_1264" data-name="Ellipse 1264" cx="5.318" cy="5.318" r="5.318" transform="translate(7.775 17.796)" fill="none" stroke="#39b54a" stroke-width="0.982"/>
        <circle id="Ellipse_1265" data-name="Ellipse 1265" cx="5.318" cy="5.318" r="5.318" transform="translate(21 17.796)" fill="none" stroke="#39b54a" stroke-width="0.982"/>
        <path id="Path_13201" data-name="Path 13201" d="M185.464,201.142c.4.272-.034,2.8.587,2.3,1.223-.979,1.939.281,1.067.891C183.958,206.542,184.417,200.421,185.464,201.142Z" transform="translate(-165.505 -176.787)" fill="#f1a89e"/>
        <path id="Path_13202" data-name="Path 13202" d="M182.8,197.146a1.512,1.512,0,0,1,2.754,0" transform="translate(-164.417 -173.985)" fill="none" stroke="#39b54a" stroke-width="0.982"/>
        <line id="Line_394" data-name="Line 394" x1="3.832" y1="3.509" transform="translate(4.015 19.605)" fill="none" stroke="#39b54a" stroke-width="0.982"/>
        <line id="Line_395" data-name="Line 395" x1="3.832" y2="3.509" transform="translate(31.563 19.605)" fill="none" stroke="#39b54a" stroke-width="0.982"/>
      </g>
    </g>
  </g>
</svg>
