<svg xmlns="http://www.w3.org/2000/svg" width="48" height="48" viewBox="0 0 48 48">
  <g id="الشب_التاني" data-name="الشب التاني" transform="translate(-7369 -4528)">
    <rect id="Rectangle_6494" data-name="Rectangle 6494" width="48" height="48" rx="8" transform="translate(7369 4528)" fill="#d5cdcd"/>
    <g id="Group_5865" data-name="Group 5865" transform="translate(7308.316 4500.021)">
      <path id="Path_12473" data-name="Path 12473" d="M78.737,80.264V65.049h14.3V80.264C93.1,80.243,78.646,80.078,78.737,80.264Z" transform="translate(-1.122 -4.285)" fill="#f3a396"/>
      <path id="Path_12474" data-name="Path 12474" d="M78.737,67.65s3.934,7.312,8.43,6.954c6.949-.552,5.8-9.166,5.8-9.166s-2.7,5.745-6.959,5.751A9.327,9.327,0,0,1,78.737,67.65Z" transform="translate(-1.122 -4.337)" fill="#1a1a1a"/>
      <path id="Path_12478" data-name="Path 12478" d="M96.9,41.764c-.585-2.121-1.961-5.115-6.87-7.348-8.112-3.69-13.583,4.146-13.583,4.146-2.186-.233-3.371.6-3.845,2.574-.405,1.683.141,4.972.437,6.232l1.617,8.571,1.56-7.606c1.534-5,3.867-7.041,3.867-7.041L87.5,40.7,95.357,55.21l1.529-8.584a14.29,14.29,0,0,0,.213-3.3A8.151,8.151,0,0,0,96.9,41.764Z" transform="translate(-0.271 0)" fill="#1a1a1a"/>
      <path id="Path_12479" data-name="Path 12479" d="M98.582,56.439a2.387,2.387,0,0,1,2.96-.781c1.994.756,1.092,5.6-1.9,6.214a2.368,2.368,0,0,1-1.912-.5S98.466,57.8,98.582,56.439Z" transform="translate(-3.696 -2.984)" fill="#f3a396"/>
      <path id="Path_12480" data-name="Path 12480" d="M101.234,57.658s-1.669-.557-2.855,1.9" transform="translate(-3.784 -3.276)" fill="none" stroke="#d26665" stroke-linecap="round" stroke-linejoin="round" stroke-width="0.497"/>
      <path id="Path_12481" data-name="Path 12481" d="M99.316,58.474s1.817.972.617,2.432" transform="translate(-3.911 -3.394)" fill="none" stroke="#d26665" stroke-linecap="round" stroke-linejoin="round" stroke-width="0.497"/>
      <path id="Path_12482" data-name="Path 12482" d="M74.481,56.439a2.387,2.387,0,0,0-2.96-.781c-1.994.756-1.092,5.6,1.9,6.214a2.368,2.368,0,0,0,1.912-.5S74.6,57.8,74.481,56.439Z" transform="translate(0 -2.984)" fill="#f3a396"/>
      <path id="Path_12483" data-name="Path 12483" d="M72.146,57.658s1.669-.557,2.855,1.9" transform="translate(-0.229 -3.276)" fill="none" stroke="#d26665" stroke-linecap="round" stroke-linejoin="round" stroke-width="0.497"/>
      <path id="Path_12484" data-name="Path 12484" d="M74.35,58.474s-1.817.972-.616,2.432" transform="translate(-0.389 -3.394)" fill="none" stroke="#d26665" stroke-linecap="round" stroke-linejoin="round" stroke-width="0.497"/>
      <path id="Path_12485" data-name="Path 12485" d="M95.68,49.654c0,2.918-.285,9.024-2.08,12.648a8.938,8.938,0,0,1-8.123,5.343c-3.652.109-6.373-1.3-8.554-5.714s-2.077-12.221-2.077-12.221,0-10.425,10.3-10.425C96,39.284,95.68,49.654,95.68,49.654Z" transform="translate(-0.595 -0.793)" fill="#f3a396"/>
      <path id="Path_12486" data-name="Path 12486" d="M94.582,40.431c-.269.09-8.93-2.311-8.93-2.311l-7.6,2.311,0,.011c-6.683,1.808-3.738,8.137-3.738,8.137,2.75-1.413,2.547-4.307,3.068-6.391,1.216,1.6,5.874,4.511,11.6,4.4,5.869-.113,6.532-2.4,6.532-2.4S94.851,40.341,94.582,40.431Z" transform="translate(-0.436 -0.636)" fill="#1a1a1a"/>
      <path id="Path_12487" data-name="Path 12487" d="M86.046,54.579v4.654a.79.79,0,0,0,.056.294.777.777,0,0,0,.926.43l.8-.213" transform="translate(-2.113 -2.866)" fill="none" stroke="#d26665" stroke-linecap="round" stroke-linejoin="round" stroke-width="0.497"/>
      <path id="Path_12488" data-name="Path 12488" d="M82.242,54.862a.973.973,0,1,1-.973-.973A.973.973,0,0,1,82.242,54.862Z" transform="translate(-1.333 -2.773)" fill="#1a1a1a"/>
      <path id="Path_12489" data-name="Path 12489" d="M82.654,52.017l.035-1.848-3.428.061a1.9,1.9,0,0,0-1.182.442L76.1,52.335l2.89-.431Z" transform="translate(-0.764 -2.268)" fill="#1a1a1a"/>
      <path id="Path_12490" data-name="Path 12490" d="M90.559,54.862a.973.973,0,1,0,.973-.973A.973.973,0,0,0,90.559,54.862Z" transform="translate(-2.724 -2.773)" fill="#1a1a1a"/>
      <path id="Path_12491" data-name="Path 12491" d="M89.418,52.017l-.035-1.848,3.428.061a1.9,1.9,0,0,1,1.182.442l1.984,1.663-2.89-.431Z" transform="translate(-2.565 -2.268)" fill="#1a1a1a"/>
      <path id="Path_12492" data-name="Path 12492" d="M85.2,62.608a6,6,0,0,1-1.168.475,6.588,6.588,0,0,1-1.19.237,5.331,5.331,0,0,1-2.368-.266.295.295,0,0,1,.142-.57l.011,0a4.545,4.545,0,0,0,2.026-.151,5.54,5.54,0,0,0,.936-.379,4.763,4.763,0,0,0,.809-.52.713.713,0,0,1,.922,1.088A.792.792,0,0,1,85.2,62.608Z" transform="translate(-1.331 -3.772)" fill="#1a1a1a"/>
      <path id="Path_12493" data-name="Path 12493" d="M88.373,61.436a4.817,4.817,0,0,0,.809.52,5.541,5.541,0,0,0,.936.379,4.532,4.532,0,0,0,2.026.151l.011,0a.295.295,0,0,1,.142.57,5.343,5.343,0,0,1-2.368.266,6.6,6.6,0,0,1-1.19-.237,6.025,6.025,0,0,1-1.168-.475.714.714,0,1,1,.68-1.254A.788.788,0,0,1,88.373,61.436Z" transform="translate(-2.269 -3.772)" fill="#1a1a1a"/>
      <line id="Line_251" data-name="Line 251" x2="5.323" transform="translate(81.768 60.087)" fill="none" stroke="#d26665" stroke-linecap="round" stroke-linejoin="round" stroke-width="0.497"/>
      <path id="Path_12494" data-name="Path 12494" d="M85.15,66.119a5.115,5.115,0,0,0,2.542,0" transform="translate(-1.991 -4.43)" fill="none" stroke="#d26665" stroke-linecap="round" stroke-linejoin="round" stroke-width="0.373"/>
    </g>
  </g>
</svg>
