<svg xmlns="http://www.w3.org/2000/svg" xmlns:xlink="http://www.w3.org/1999/xlink" width="48" height="48" viewBox="0 0 48 48">
  <defs>
    <clipPath id="clip-path">
      <circle id="Ellipse_1343" data-name="Ellipse 1343" cx="4.003" cy="4.003" r="4.003"/>
    </clipPath>
    <clipPath id="clip-path-3">
      <path id="Path_14102" data-name="Path 14102" d="M281.336,98.077c.039,1.912,2.107,3,2.887,0Z" transform="translate(-281.336 -98.077)"/>
    </clipPath>
  </defs>
  <g id="البنت_التالتة" data-name="البنت التالتة" transform="translate(-7308 -4473)">
    <rect id="Rectangle_6492" data-name="Rectangle 6492" width="48" height="48" rx="8" transform="translate(7308 4473)" fill="#b1a9e1"/>
    <g id="Group_4952" data-name="Group 4952" transform="translate(7067.524 4442.245)">
      <path id="Path_15157" data-name="Path 15157" d="M181.036,211.316h-6.675v-4.787a3.339,3.339,0,0,1,6.675,0Z" transform="translate(87.083 -132.561)" fill="#efb596"/>
      <g id="Group_4947" data-name="Group 4947" transform="translate(248.384 38.569)">
        <circle id="Ellipse_1339" data-name="Ellipse 1339" cx="3.59" cy="3.59" r="3.59" transform="translate(0.063 17.546)" fill="#efb596"/>
        <circle id="Ellipse_1340" data-name="Ellipse 1340" cx="3.59" cy="3.59" r="3.59" transform="translate(25.617 17.546)" fill="#efb596"/>
        <path id="Path_14076" data-name="Path 14076" d="M281.839,57.04c0,8.921-6.013,18.769-13.431,18.769s-13.431-9.849-13.431-18.769,6.013-14.826,13.431-14.826S281.839,48.119,281.839,57.04Z" transform="translate(-251.979 -40.556)" fill="#f6c3a3"/>
        <path id="Path_14077" data-name="Path 14077" d="M271.2,69.954c-.111.165-.7.008-1.289.2-.6.156-1.008.611-1.191.534-.2-.052.038-.947.984-1.231S271.343,69.8,271.2,69.954Z" transform="translate(-259.436 -55.373)" fill="#be936c"/>
        <path id="Path_14078" data-name="Path 14078" d="M296.756,71.284c-.194.042-.515-.481-1.074-.742-.539-.3-1.151-.253-1.231-.435-.111-.177.681-.659,1.562-.212S296.965,71.269,296.756,71.284Z" transform="translate(-273.496 -55.548)" fill="#be936c"/>
        <path id="Path_14079" data-name="Path 14079" d="M284,85.969c.36.506.507,2.885,1.216,2.069.627-.72,1.082.35.287,1.483C282.622,93.626,283.042,84.629,284,85.969Z" transform="translate(-267.411 -64.338)" fill="#f1a89e"/>
        <path id="Path_14080" data-name="Path 14080" d="M248.447,54.929s.724,9.361,3.59,11.407c.82-.625,2.7-12.79,2.3-17.963,6.25,3.183,17.852,6.013,22.312,4.74-.266,3.992-.984,9.756,1.6,12.314,2.637-6.651,5.57-16.561-3.219-23.61s-20.751-.948-22.086,2.577C248.991,45.075,248.119,50.4,248.447,54.929Z" transform="translate(-248.384 -38.569)" fill="#be936c"/>
        <g id="Group_4920" data-name="Group 4920" transform="translate(5.78 6.962)">
          <path id="Path_14081" data-name="Path 14081" d="M261.094,53.877c.9.559,1.834,1.068,2.776,1.555s1.892.958,2.859,1.39a43.991,43.991,0,0,0,5.947,2.214,28.183,28.183,0,0,0,6.224,1.141,17.332,17.332,0,0,0,6.275-.691,16.044,16.044,0,0,1-3.093.759,19.136,19.136,0,0,1-3.191.129,27.227,27.227,0,0,1-6.286-1.091A41.381,41.381,0,0,1,266.647,57,42.9,42.9,0,0,1,261.094,53.877Z" transform="translate(-261.094 -53.877)" fill="#8e6237"/>
        </g>
        <g id="Group_4921" data-name="Group 4921" transform="translate(7.693 4.688)">
          <path id="Path_14082" data-name="Path 14082" d="M265.3,48.877a19.857,19.857,0,0,0,2.283,2,24.968,24.968,0,0,0,2.5,1.705,24.055,24.055,0,0,0,5.522,2.439,22.844,22.844,0,0,0,2.949.66,24.038,24.038,0,0,0,3.014.238,21.665,21.665,0,0,0,3.022-.188,24.037,24.037,0,0,0,2.983-.563,21.652,21.652,0,0,1-6,.95,21.157,21.157,0,0,1-6.036-.85,23.339,23.339,0,0,1-5.552-2.518A21.987,21.987,0,0,1,265.3,48.877Z" transform="translate(-265.301 -48.877)" fill="#8e6237"/>
        </g>
        <g id="Group_4922" data-name="Group 4922" transform="translate(9.556 2.869)">
          <path id="Path_14083" data-name="Path 14083" d="M269.4,44.877c.7.563,1.43,1.087,2.172,1.593s1.489,1,2.258,1.462a36.2,36.2,0,0,0,4.768,2.463,22.883,22.883,0,0,0,5.116,1.563,14.145,14.145,0,0,0,5.336-.03,13.077,13.077,0,0,1-2.668.4,15.469,15.469,0,0,1-2.7-.17,22.038,22.038,0,0,1-5.185-1.521,33.79,33.79,0,0,1-4.772-2.532A35.042,35.042,0,0,1,269.4,44.877Z" transform="translate(-269.397 -44.877)" fill="#8e6237"/>
        </g>
        <g id="Group_4923" data-name="Group 4923" transform="translate(10.953 1.462)">
          <path id="Path_14084" data-name="Path 14084" d="M272.468,42.495a22.863,22.863,0,0,1,4.106-.656,20.607,20.607,0,0,1,4.168.115,13.98,13.98,0,0,1,2.046.44,10.2,10.2,0,0,1,1.947.769,9.116,9.116,0,0,1,1.731,1.173,8.513,8.513,0,0,1,1.35,1.583,8.527,8.527,0,0,0-3.171-2.578,12.927,12.927,0,0,0-3.939-1.131,22.041,22.041,0,0,0-4.121-.173c-.689.026-1.378.082-2.064.161S273.147,42.361,272.468,42.495Z" transform="translate(-272.468 -41.784)" fill="#8e6237"/>
        </g>
        <g id="Group_4924" data-name="Group 4924" transform="translate(13.757 3.248)">
          <path id="Path_14085" data-name="Path 14085" d="M278.634,45.71a28.314,28.314,0,0,0,2.967,1.762,23.9,23.9,0,0,0,3.154,1.367,17.32,17.32,0,0,0,3.334.793,12.534,12.534,0,0,0,3.429-.1,10.517,10.517,0,0,1-3.449.3,16.088,16.088,0,0,1-3.4-.747,21.406,21.406,0,0,1-3.164-1.437A19.419,19.419,0,0,1,278.634,45.71Z" transform="translate(-278.634 -45.71)" fill="#8e6237"/>
        </g>
        <g id="Group_4925" data-name="Group 4925" transform="translate(3.313 9.886)">
          <path id="Path_14086" data-name="Path 14086" d="M256.572,60.306a23.751,23.751,0,0,1,.653,3.42,25.475,25.475,0,0,1,.182,3.485,18.291,18.291,0,0,1-.417,3.469,10.717,10.717,0,0,1-1.321,3.218,12.831,12.831,0,0,0,1.127-3.26,20.02,20.02,0,0,0,.353-3.432,29.092,29.092,0,0,0-.121-3.458C256.926,62.6,256.779,61.447,256.572,60.306Z" transform="translate(-255.669 -60.306)" fill="#8e6237"/>
        </g>
        <g id="Group_4926" data-name="Group 4926" transform="translate(2.495 8.26)">
          <path id="Path_14087" data-name="Path 14087" d="M255.028,56.731a17.949,17.949,0,0,0-.615,2.309,14.633,14.633,0,0,0-.28,2.358,10.658,10.658,0,0,0,.16,2.36l.124.58c.043.193.118.377.175.568a9.785,9.785,0,0,0,.437,1.112,7.31,7.31,0,0,1-.93-2.219,9.751,9.751,0,0,1-.223-2.41A12.826,12.826,0,0,1,254.22,59,11.191,11.191,0,0,1,255.028,56.731Z" transform="translate(-253.87 -56.731)" fill="#8e6237"/>
        </g>
        <g id="Group_4927" data-name="Group 4927" transform="translate(1.325 10.256)">
          <path id="Path_14088" data-name="Path 14088" d="M251.678,61.12q-.1,1.2-.133,2.4a22.787,22.787,0,0,0,.04,2.4,13.394,13.394,0,0,0,.318,2.367,7.212,7.212,0,0,0,.867,2.22,5.9,5.9,0,0,1-1.059-2.171,11.892,11.892,0,0,1-.382-2.4,18.5,18.5,0,0,1,.02-2.424A17.374,17.374,0,0,1,251.678,61.12Z" transform="translate(-251.298 -61.12)" fill="#8e6237"/>
        </g>
        <g id="Group_4928" data-name="Group 4928" transform="translate(28.84 13.935)">
          <path id="Path_14089" data-name="Path 14089" d="M312.635,69.211c.039.56.036,1.121.021,1.68s-.054,1.119-.108,1.678a15.869,15.869,0,0,1-.252,1.664,7.285,7.285,0,0,1-.495,1.609,14.453,14.453,0,0,0,.3-1.643c.071-.551.138-1.1.192-1.658C312.411,71.435,312.5,70.324,312.635,69.211Z" transform="translate(-311.801 -69.211)" fill="#8e6237"/>
        </g>
        <g id="Group_4929" data-name="Group 4929" transform="translate(29.86 13.935)">
          <path id="Path_14090" data-name="Path 14090" d="M314.54,69.211a14.128,14.128,0,0,1,.522,2.242,15.269,15.269,0,0,1,.181,2.3,10.613,10.613,0,0,1-.259,2.3,5.99,5.99,0,0,1-.94,2.1,9.178,9.178,0,0,0,.941-4.4,18.408,18.408,0,0,0-.12-2.275Q314.747,70.342,314.54,69.211Z" transform="translate(-314.044 -69.211)" fill="#8e6237"/>
        </g>
        <path id="Path_14091" data-name="Path 14091" d="M264.847,56.562l3.259-4.72-1.289-.965-3.183,4.965Z" transform="translate(-256.699 -45.28)" fill="#f9c302"/>
        <g id="Group_4937" data-name="Group 4937" transform="translate(5.07 16.991)">
          <g id="Group_4933" data-name="Group 4933" transform="translate(0 1.409)">
            <g id="Group_4930" data-name="Group 4930" transform="translate(0 2.088)">
              <path id="Path_14092" data-name="Path 14092" d="M260.8,83.878l-1.265-.129,1.265-.129Z" transform="translate(-259.533 -83.62)" fill="#401a4c"/>
            </g>
            <g id="Group_4931" data-name="Group 4931" transform="translate(0.034 0.887)">
              <path id="Path_14093" data-name="Path 14093" d="M261.028,81.6l-1.42-.623,1.5.378Z" transform="translate(-259.608 -80.978)" fill="#401a4c"/>
            </g>
            <g id="Group_4932" data-name="Group 4932" transform="translate(0.765)">
              <path id="Path_14094" data-name="Path 14094" d="M262.178,79.855l-.963-.827,1.111.616Z" transform="translate(-261.215 -79.028)" fill="#401a4c"/>
            </g>
          </g>
          <circle id="Ellipse_1341" data-name="Ellipse 1341" cx="4.003" cy="4.003" r="4.003" transform="translate(1.258 0.129)" fill="#fff"/>
          <g id="Group_4935" data-name="Group 4935" transform="translate(1.258 0.129)">
            <g id="Group_4934" data-name="Group 4934" transform="translate(0 0)" clip-path="url(#clip-path)">
              <circle id="Ellipse_1342" data-name="Ellipse 1342" cx="2.626" cy="2.626" r="2.626" transform="translate(1.735 1.377)" fill="#401a4c"/>
            </g>
          </g>
          <g id="Group_4936" data-name="Group 4936" transform="translate(1.253)">
            <path id="Path_14095" data-name="Path 14095" d="M262.293,80.062a3.921,3.921,0,0,1,1.1-2.9,4.032,4.032,0,0,1,5.8,0,3.919,3.919,0,0,1,1.1,2.9,4.118,4.118,0,0,0-1.242-2.76,3.978,3.978,0,0,0-5.521,0A4.112,4.112,0,0,0,262.293,80.062Z" transform="translate(-262.287 -75.93)" fill="#401a4c"/>
          </g>
        </g>
        <g id="Group_4946" data-name="Group 4946" transform="translate(18.519 16.991)">
          <g id="Group_4940" data-name="Group 4940" transform="translate(8.005 3.497)">
            <g id="Group_4939" data-name="Group 4939">
              <g id="Group_4938" data-name="Group 4938">
                <path id="Path_14096" data-name="Path 14096" d="M306.707,83.62l1.265.129-1.265.129Z" transform="translate(-306.707 -83.62)" fill="#401a4c"/>
              </g>
            </g>
          </g>
          <g id="Group_4941" data-name="Group 4941" transform="translate(7.732 2.296)">
            <path id="Path_14097" data-name="Path 14097" d="M306.108,81.356l1.5-.378-1.42.623Z" transform="translate(-306.108 -80.978)" fill="#401a4c"/>
          </g>
          <g id="Group_4942" data-name="Group 4942" transform="translate(7.394 1.409)">
            <path id="Path_14098" data-name="Path 14098" d="M305.365,79.644l1.11-.616-.963.827Z" transform="translate(-305.365 -79.028)" fill="#401a4c"/>
          </g>
          <circle id="Ellipse_1344" data-name="Ellipse 1344" cx="4.003" cy="4.003" r="4.003" transform="translate(0.005 0.129)" fill="#fff"/>
          <g id="Group_4944" data-name="Group 4944" transform="translate(0.005 0.129)">
            <g id="Group_4943" data-name="Group 4943" transform="translate(0 0)" clip-path="url(#clip-path)">
              <circle id="Ellipse_1345" data-name="Ellipse 1345" cx="2.626" cy="2.626" r="2.626" transform="translate(1.019 1.377)" fill="#401a4c"/>
            </g>
          </g>
          <g id="Group_4945" data-name="Group 4945">
            <path id="Path_14099" data-name="Path 14099" d="M289.111,80.062a3.921,3.921,0,0,1,1.1-2.9,4.032,4.032,0,0,1,5.8,0,3.919,3.919,0,0,1,1.1,2.9,4.118,4.118,0,0,0-1.242-2.76,3.978,3.978,0,0,0-5.521,0A4.112,4.112,0,0,0,289.111,80.062Z" transform="translate(-289.105 -75.93)" fill="#401a4c"/>
          </g>
        </g>
      </g>
      <path id="Path_14100" data-name="Path 14100" d="M281.336,98.077c.039,1.912,2.107,3,2.887,0Z" transform="translate(-17.966 -32.446)" fill="#401a4c"/>
      <g id="Group_4950" data-name="Group 4950" transform="translate(263.37 65.631)">
        <g id="Group_4948" data-name="Group 4948" clip-path="url(#clip-path-3)">
          <path id="Path_14101" data-name="Path 14101" d="M284.207,97.572a3.68,3.68,0,0,1-2.444,0V96.331h2.444Z" transform="translate(-281.569 -97.125)" fill="#fff"/>
        </g>
        <g id="Group_4949" data-name="Group 4949" clip-path="url(#clip-path-3)">
          <path id="Path_14103" data-name="Path 14103" d="M283.537,101.131a.821.821,0,1,1-.815-.727A.775.775,0,0,1,283.537,101.131Z" transform="translate(-281.647 -99.346)" fill="#c71c24"/>
        </g>
      </g>
      <g id="Group_4951" data-name="Group 4951" transform="translate(264.814 67.497)">
        <path id="Path_14105" data-name="Path 14105" d="M285.365,102.18a.684.684,0,0,1,.076.44.929.929,0,0,1-.171.427,1.086,1.086,0,0,1-.34.3c-.066.035-.135.063-.2.092a1.836,1.836,0,0,1-.217.043c.1-.11.207-.2.3-.293a3.015,3.015,0,0,0,.251-.292A1.688,1.688,0,0,0,285.365,102.18Z" transform="translate(-284.511 -102.18)" fill="#f1a89e"/>
      </g>
    </g>
  </g>
</svg>
