<svg xmlns="http://www.w3.org/2000/svg" xmlns:xlink="http://www.w3.org/1999/xlink" width="48" height="48" viewBox="0 0 48 48">
  <defs>
    <clipPath id="clip-path">
      <circle id="Ellipse_1366" data-name="Ellipse 1366" cx="4.075" cy="4.075" r="4.075" transform="translate(0 7.931) rotate(-76.714)"/>
    </clipPath>
  </defs>
  <g id="البنت_الاولى" data-name="البنت الاولى" transform="translate(-7426 -4473)">
    <rect id="Rectangle_6490" data-name="Rectangle 6490" width="48" height="48" rx="8" transform="translate(7426 4473)" fill="#a5d2e7"/>
    <g id="Group_5868" data-name="Group 5868" transform="translate(7290.727 4358.21)">
      <path id="Path_14253" data-name="Path 14253" d="M181.1,215.625c-.039.034-6.739.034-6.794,0v-9.039a3.4,3.4,0,0,1,6.794,0Z" transform="translate(-18.429 -52.86)" fill="#efb596"/>
      <g id="Group_5118" data-name="Group 5118" transform="translate(139.981 121.393)">
        <path id="Path_14273" data-name="Path 14273" d="M143.123,133.84c-2.593,5.108-2.96,7.216-2.034,8.782s1.851,1.827.848,3.7-2.546,4.756-1.7,5.283,2.468,1.621,2.083,3.041.065,3.966,1.807,3.735,3.438-3.759,4.287-.838,2.855,2.241,5.555,1.578,8.023-1.434,9.874.186,5.021,3.086,6.406.463a5.187,5.187,0,0,1,5.088-2.777c1.389,0,3.857-.809,2.083-3.606s2.625-4.106.618-6.807,1.544-7.485-1.2-8.1-2.175-7.869-4.965-9.18S147.163,125.883,143.123,133.84Z" transform="translate(-139.995 -124.495)" fill="#734a27"/>
        <circle id="Ellipse_1363" data-name="Ellipse 1363" cx="3.653" cy="3.653" r="3.653" transform="translate(2.683 19.805)" fill="#efb596"/>
        <circle id="Ellipse_1364" data-name="Ellipse 1364" cx="3.653" cy="3.653" r="3.653" transform="translate(28.691 19.805)" fill="#efb596"/>
        <path id="Path_14274" data-name="Path 14274" d="M179.586,144.039c0,9.08-2.753,16.086-13.67,16.086s-13.67-7.006-13.67-16.086,6.121-14.97,13.67-14.97S179.586,134.959,179.586,144.039Z" transform="translate(-146.575 -125.053)" fill="#f6c3a3"/>
        <path id="Path_14275" data-name="Path 14275" d="M168.27,157.891c-.156.128-.69-.2-1.317-.175-.628-.022-1.16.3-1.317.175-.182-.11.312-.912,1.317-.916S168.452,157.781,168.27,157.891Z" transform="translate(-153.748 -140.042)" fill="#734a27"/>
        <path id="Path_14276" data-name="Path 14276" d="M194.781,157.891c-.156.128-.69-.2-1.317-.175-.628-.022-1.161.3-1.317.175-.182-.11.312-.912,1.317-.916S194.963,157.781,194.781,157.891Z" transform="translate(-167.987 -140.042)" fill="#734a27"/>
        <g id="Group_5084" data-name="Group 5084" transform="translate(17.861 30.231)">
          <path id="Path_14277" data-name="Path 14277" d="M178.592,185.706a2.783,2.783,0,0,0,.44,1.181,1.256,1.256,0,0,0,.967.585,1.311,1.311,0,0,0,.949-.626,5.631,5.631,0,0,0,.582-1.14,3.467,3.467,0,0,1-.413,1.251,1.411,1.411,0,0,1-1.113.778,1.369,1.369,0,0,1-1.142-.739A2.2,2.2,0,0,1,178.592,185.706Z" transform="translate(-178.582 -185.706)" fill="#401a4c"/>
        </g>
        <path id="Path_14278" data-name="Path 14278" d="M181.49,167.665c.367.515.32,1.686.515,3.808.156,1.7,1.827,1.077,1.019,2.231C180.094,177.881,180.519,166.3,181.49,167.665Z" transform="translate(-161.893 -145.724)" fill="#f1a89e"/>
        <path id="Path_14279" data-name="Path 14279" d="M168.211,183.676c0,.31-.872.56-1.949.56s-1.949-.251-1.949-.56.872-.56,1.949-.56S168.211,183.366,168.211,183.676Z" transform="translate(-153.058 -154.083)" fill="#f1a89e"/>
        <path id="Path_14280" data-name="Path 14280" d="M194.721,183.676c0,.31-.872.56-1.949.56s-1.949-.251-1.949-.56.873-.56,1.949-.56S194.721,183.366,194.721,183.676Z" transform="translate(-167.297 -154.083)" fill="#f1a89e"/>
        <g id="Group_5085" data-name="Group 5085" transform="translate(4.136 26.544)">
          <path id="Path_14281" data-name="Path 14281" d="M212.656,179.476h-1.7l.85-1.736Z" transform="translate(-182.246 -177.74)" fill="#00a0b4"/>
          <path id="Path_14282" data-name="Path 14282" d="M150.629,179.476h-1.7l.849-1.736Z" transform="translate(-148.93 -177.74)" fill="#00a0b4"/>
        </g>
        <g id="Group_5093" data-name="Group 5093" transform="translate(7.779 18.551)">
          <g id="Group_5089" data-name="Group 5089" transform="translate(0 2.123)">
            <g id="Group_5086" data-name="Group 5086" transform="translate(0 2.125)">
              <path id="Path_14283" data-name="Path 14283" d="M158.088,169.911l-1.287-.131,1.287-.131Z" transform="translate(-156.801 -169.649)" fill="#401a4c"/>
            </g>
            <g id="Group_5087" data-name="Group 5087" transform="translate(0.035 0.903)">
              <path id="Path_14284" data-name="Path 14284" d="M158.321,167.641l-1.445-.634,1.53.385Z" transform="translate(-156.876 -167.007)" fill="#401a4c"/>
            </g>
            <g id="Group_5088" data-name="Group 5088" transform="translate(0.779)">
              <path id="Path_14285" data-name="Path 14285" d="M159.463,165.9l-.98-.842,1.13.627Z" transform="translate(-158.483 -165.057)" fill="#401a4c"/>
            </g>
          </g>
          <circle id="Ellipse_1365" data-name="Ellipse 1365" cx="4.075" cy="4.075" r="4.075" transform="translate(0.453 7.931) rotate(-76.714)" fill="#fff"/>
          <g id="Group_5091" data-name="Group 5091" transform="translate(0.453)">
            <g id="Group_5090" data-name="Group 5090" clip-path="url(#clip-path)">
              <path id="Path_14286" data-name="Path 14286" d="M168.729,167.943a2.673,2.673,0,1,1-2.673-2.673A2.673,2.673,0,0,1,168.729,167.943Z" transform="translate(-160.789 -163.048)" fill="#401a4c"/>
            </g>
          </g>
          <g id="Group_5092" data-name="Group 5092" transform="translate(1.275 0.689)">
            <path id="Path_14287" data-name="Path 14287" d="M159.561,166.165a3.99,3.99,0,0,1,1.122-2.952,4.1,4.1,0,0,1,5.9,0,3.989,3.989,0,0,1,1.122,2.953,4.191,4.191,0,0,0-1.265-2.81,4.049,4.049,0,0,0-5.62,0A4.185,4.185,0,0,0,159.561,166.165Z" transform="translate(-159.555 -161.959)" fill="#401a4c"/>
          </g>
        </g>
        <g id="Group_5102" data-name="Group 5102" transform="translate(20.646 18.551)">
          <g id="Group_5098" data-name="Group 5098" transform="translate(8.347 2.122)">
            <g id="Group_5097" data-name="Group 5097">
              <g id="Group_5094" data-name="Group 5094" transform="translate(0.622 2.125)">
                <path id="Path_14288" data-name="Path 14288" d="M203.975,169.649l1.287.131-1.287.131Z" transform="translate(-203.975 -169.649)" fill="#401a4c"/>
              </g>
              <g id="Group_5095" data-name="Group 5095" transform="translate(0.344 0.903)">
                <path id="Path_14289" data-name="Path 14289" d="M203.375,167.392l1.53-.385-1.445.634Z" transform="translate(-203.375 -167.007)" fill="#401a4c"/>
              </g>
              <g id="Group_5096" data-name="Group 5096">
                <path id="Path_14290" data-name="Path 14290" d="M202.632,165.684l1.13-.627-.98.842Z" transform="translate(-202.632 -165.057)" fill="#401a4c"/>
              </g>
            </g>
          </g>
          <circle id="Ellipse_1367" data-name="Ellipse 1367" cx="4.075" cy="4.075" r="4.075" transform="translate(0 7.931) rotate(-76.714)" fill="#fff"/>
          <g id="Group_5100" data-name="Group 5100">
            <g id="Group_5099" data-name="Group 5099" transform="translate(0 0)" clip-path="url(#clip-path)">
              <circle id="Ellipse_1368" data-name="Ellipse 1368" cx="2.673" cy="2.673" r="2.673" transform="translate(1.864 2.221)" fill="#401a4c"/>
            </g>
          </g>
          <g id="Group_5101" data-name="Group 5101" transform="translate(0.821 0.688)">
            <path id="Path_14291" data-name="Path 14291" d="M186.379,166.165a3.99,3.99,0,0,1,1.122-2.952,4.1,4.1,0,0,1,5.9,0,3.989,3.989,0,0,1,1.122,2.953,4.191,4.191,0,0,0-1.265-2.81,4.049,4.049,0,0,0-5.62,0A4.185,4.185,0,0,0,186.379,166.165Z" transform="translate(-186.373 -161.959)" fill="#401a4c"/>
          </g>
        </g>
        <path id="Path_14292" data-name="Path 14292" d="M148.391,139.005c-1.479,2.535-.232,5.166.48,5.632s2.026,3.445.37,5.348c1.2-.1,2.869-3.549,1.61-5.49s-.978-7.083,0-8.962c.824.513,8.905,1.544,12.783-1.929,1.156,3.549,8.182,4.243,10.031,1.774a6.4,6.4,0,0,0,1.309,6.054c1.5,1.889-.421,4.026-1.765,5.672-1.681,2.059-.768,5.528,2.543,5.387-2.514-.5-2.86-3.649-1.477-4.687s3.419-3.3,2.6-7.624c2.577-7.81,1.2-21-14.506-18.61C160.084,117.791,139.979,122.982,148.391,139.005Z" transform="translate(-143.406 -120.393)" fill="#734a27"/>
        <g id="Group_5103" data-name="Group 5103" transform="translate(29.393 29.727)">
          <path id="Path_14293" data-name="Path 14293" d="M203.5,185.522a3.05,3.05,0,0,0,1.3,1.068,3.681,3.681,0,0,0,1.645.268l-.02.259a2.83,2.83,0,0,1-1.554-.88,2.735,2.735,0,0,1-.665-1.62,3.186,3.186,0,0,0,.812,1.482,2.85,2.85,0,0,0,.67.493,2.906,2.906,0,0,0,.787.268l1.212.235-1.232.024a3.634,3.634,0,0,1-1.742-.349A2.645,2.645,0,0,1,203.5,185.522Z" transform="translate(-203.496 -184.617)" fill="#633e00"/>
        </g>
        <g id="Group_5104" data-name="Group 5104" transform="translate(5.835 10.149)">
          <path id="Path_14294" data-name="Path 14294" d="M152.6,145.4a3.274,3.274,0,0,1,1.263-1.047,1.972,1.972,0,0,1,1.656.023,1.764,1.764,0,0,1,.364.237c.072.067.156.059.274.02a3.181,3.181,0,0,0,.667-.411,9.3,9.3,0,0,1,1.384-.916,2.018,2.018,0,0,1,1.684-.127,4.93,4.93,0,0,1,.7.445.876.876,0,0,0,.7.131c.48-.142.809-.636,1.2-1.012a1.409,1.409,0,0,1,.722-.417,1.033,1.033,0,0,1,.757.3,1.051,1.051,0,0,0-.747-.229,1.317,1.317,0,0,0-.641.439c-.183.2-.35.414-.539.618a1.692,1.692,0,0,1-.7.5,1.073,1.073,0,0,1-.224.046l-.23-.012a1.551,1.551,0,0,1-.413-.161,4.951,4.951,0,0,0-.683-.422,1.77,1.77,0,0,0-1.478.143,9.092,9.092,0,0,0-1.357.873,3.343,3.343,0,0,1-.732.432.607.607,0,0,1-.245.038.4.4,0,0,1-.249-.109,1.531,1.531,0,0,0-.312-.222,1.811,1.811,0,0,0-1.517-.082A3.406,3.406,0,0,0,152.6,145.4Z" transform="translate(-152.601 -142.319)" fill="#633e00"/>
        </g>
        <g id="Group_5105" data-name="Group 5105" transform="translate(4.721 5.809)">
          <path id="Path_14295" data-name="Path 14295" d="M164.344,133.77a5.117,5.117,0,0,0-1.928-.664,2.334,2.334,0,0,0-1.858.552,3.376,3.376,0,0,0-.636.767c-.19.281-.3.591-.488.907a2.461,2.461,0,0,1-1.708,1.226,4.188,4.188,0,0,1-2.1-.247,5.324,5.324,0,0,1-.952-.457c-.152-.1-.291-.194-.427-.27l-.225-.1-.238-.074a4.627,4.627,0,0,0-2.012-.046,3.111,3.111,0,0,0-.953.341,1.258,1.258,0,0,0-.629.773,1.289,1.289,0,0,1,.594-.827,3.211,3.211,0,0,1,.96-.412,4.763,4.763,0,0,1,2.089-.024l.258.07.252.1a5.1,5.1,0,0,1,.45.275,5.112,5.112,0,0,0,.914.425,3.953,3.953,0,0,0,1.968.214,2.2,2.2,0,0,0,1.55-1.09,5.035,5.035,0,0,1,1.2-1.707,2.491,2.491,0,0,1,2-.524A5.165,5.165,0,0,1,164.344,133.77Z" transform="translate(-150.194 -132.943)" fill="#633e00"/>
        </g>
        <g id="Group_5106" data-name="Group 5106" transform="translate(6.571 2.812)">
          <path id="Path_14296" data-name="Path 14296" d="M154.192,129.536a12.118,12.118,0,0,1,.964-.9,2.617,2.617,0,0,1,1.212-.569,1.835,1.835,0,0,1,1.3.383,1.108,1.108,0,0,0,1.126,0,20.634,20.634,0,0,0,2.231-1.325,5.958,5.958,0,0,1,1.2-.566,1.559,1.559,0,0,1,1.29.1,1.558,1.558,0,0,0-1.249.025,5.91,5.91,0,0,0-1.133.615,17.244,17.244,0,0,1-2.238,1.4,2.023,2.023,0,0,1-.676.162,1.037,1.037,0,0,1-.692-.211,1.715,1.715,0,0,0-1.141-.374,2.484,2.484,0,0,0-1.158.474C154.868,128.979,154.541,129.272,154.192,129.536Z" transform="translate(-154.192 -126.469)" fill="#633e00"/>
        </g>
        <g id="Group_5107" data-name="Group 5107" transform="translate(20.779 9.529)">
          <path id="Path_14297" data-name="Path 14297" d="M184.918,140.979a6.413,6.413,0,0,0,.2,1.726,1.5,1.5,0,0,0,.409.711.775.775,0,0,0,.743.116l.2-.064.187-.1a2.638,2.638,0,0,0,.361-.222,2.176,2.176,0,0,1,.821-.411,1.171,1.171,0,0,1,.92.221,3.081,3.081,0,0,1,.638.652l.511.714a1.423,1.423,0,0,0,.579.532.391.391,0,0,0,.323-.058,3.84,3.84,0,0,0,.311-.276,1.107,1.107,0,0,1,.863-.347,2.1,2.1,0,0,1,.868.27c.266.131.516.284.778.4a.97.97,0,0,0,.8.082,1.344,1.344,0,0,0,.544-.647,1.306,1.306,0,0,1-.512.709,1.062,1.062,0,0,1-.885-.025,5.086,5.086,0,0,0-1.6-.585.938.938,0,0,0-.7.309,3.742,3.742,0,0,1-.342.309.632.632,0,0,1-.514.093,1.6,1.6,0,0,1-.714-.611l-.519-.706c-.329-.45-.774-.9-1.307-.8a1.959,1.959,0,0,0-.736.364,2.613,2.613,0,0,1-.389.23l-.206.1-.224.065a.96.96,0,0,1-.9-.186,1.619,1.619,0,0,1-.425-.8A5.928,5.928,0,0,1,184.918,140.979Z" transform="translate(-184.887 -140.979)" fill="#633e00"/>
        </g>
        <g id="Group_5108" data-name="Group 5108" transform="translate(21.788 5.133)">
          <path id="Path_14298" data-name="Path 14298" d="M187.067,132.23a1.036,1.036,0,0,1,.492-.606,1.335,1.335,0,0,1,.794-.128,2.329,2.329,0,0,1,1.375.816,2.876,2.876,0,0,1,.438.686,6.114,6.114,0,0,0,.293.712.651.651,0,0,0,.538.361,4.183,4.183,0,0,0,.758-.042,2.309,2.309,0,0,1,.824.049,1.713,1.713,0,0,1,.731.414c.09.1.184.207.269.314l.217.345a4.609,4.609,0,0,0,.428.63,1.575,1.575,0,0,0,1.324.581c.257,0,.517-.048.789-.031a.538.538,0,0,1,.371.158,1.082,1.082,0,0,1,.093.179l.044.193-.062-.186a1.1,1.1,0,0,0-.1-.16.485.485,0,0,0-.345-.115c-.254,0-.512.072-.78.09a1.741,1.741,0,0,1-1.478-.573,3.729,3.729,0,0,1-.476-.655l-.206-.319-.247-.28a1.609,1.609,0,0,0-1.368-.375,4.271,4.271,0,0,1-.812.029.9.9,0,0,1-.711-.486,2.075,2.075,0,0,1-.167-.386l-.13-.359a3.182,3.182,0,0,0-.386-.649,2.18,2.18,0,0,0-1.242-.817,1.239,1.239,0,0,0-.742.064A1.061,1.061,0,0,0,187.067,132.23Z" transform="translate(-187.067 -131.483)" fill="#633e00"/>
        </g>
        <g id="Group_5109" data-name="Group 5109" transform="translate(21.152 2.36)">
          <path id="Path_14299" data-name="Path 14299" d="M185.692,125.977a6.029,6.029,0,0,1,2.871-.466A3.771,3.771,0,0,1,190,125.9a2.4,2.4,0,0,1,1.069,1.061,5.9,5.9,0,0,1,.253.694,1.449,1.449,0,0,0,.367.554,2.173,2.173,0,0,0,1.275.46c.474.048.958.024,1.446.034a3.462,3.462,0,0,1,.731.087.7.7,0,0,1,.545.453.694.694,0,0,0-.561-.386,3.385,3.385,0,0,0-.716-.026c-.481.016-.967.063-1.462.039a2.256,2.256,0,0,1-1.42-.484,1.7,1.7,0,0,1-.441-.64,5.978,5.978,0,0,0-.254-.667,2.149,2.149,0,0,0-.948-.969,3.972,3.972,0,0,0-1.344-.4A6.882,6.882,0,0,0,185.692,125.977Z" transform="translate(-185.692 -125.491)" fill="#633e00"/>
        </g>
        <g id="Group_5110" data-name="Group 5110" transform="translate(31.769 12.017)">
          <path id="Path_14300" data-name="Path 14300" d="M209.706,146.354c-.208.556-.46,1.1-.65,1.648a1.745,1.745,0,0,0,.025,1.6,3.487,3.487,0,0,0,.245.347,1.872,1.872,0,0,1,.244.408,1.928,1.928,0,0,1,.137.92,4.1,4.1,0,0,1-.187.886c-.1.284-.208.556-.293.841a13.565,13.565,0,0,0,.279-1.735,1.981,1.981,0,0,0-.154-.816,1.627,1.627,0,0,0-.22-.346,3.53,3.53,0,0,1-.276-.371,1.557,1.557,0,0,1-.222-.92,2.7,2.7,0,0,1,.234-.889A13.182,13.182,0,0,1,209.706,146.354Z" transform="translate(-208.629 -146.354)" fill="#633e00"/>
        </g>
        <g id="Group_5111" data-name="Group 5111" transform="translate(5.186 14.62)">
          <path id="Path_14301" data-name="Path 14301" d="M151.848,151.979a4.816,4.816,0,0,0-.42,1.422,2.227,2.227,0,0,0,.4,1.362,2.687,2.687,0,0,1,.1,1.561,4.707,4.707,0,0,1-.2.743,1.433,1.433,0,0,1-.415.639,1.554,1.554,0,0,0,.292-.678,4.749,4.749,0,0,0,.123-.733,2.92,2.92,0,0,0-.134-1.415,2.2,2.2,0,0,1-.366-1.5A3.5,3.5,0,0,1,151.848,151.979Z" transform="translate(-151.2 -151.979)" fill="#633e00"/>
        </g>
        <g id="Group_5112" data-name="Group 5112" transform="translate(33.464 13.584)">
          <path id="Path_14302" data-name="Path 14302" d="M212.292,155.944a22.235,22.235,0,0,0,.742-3.065c.091-.516.155-1.036.2-1.559s.06-1.048.083-1.58a9.52,9.52,0,0,1-.026,3.183,10.551,10.551,0,0,1-.38,1.552A8.26,8.26,0,0,1,212.292,155.944Z" transform="translate(-212.292 -149.74)" fill="#633e00"/>
        </g>
        <g id="Group_5113" data-name="Group 5113" transform="translate(5.395 25.701)">
          <path id="Path_14303" data-name="Path 14303" d="M152.884,177.316a3.942,3.942,0,0,1-.061,1.357,3.305,3.305,0,0,1-.228.656,2.228,2.228,0,0,1-.425.568l-.111-.2a2.588,2.588,0,0,0,1.488-1.549,6.382,6.382,0,0,0,.523-2.229,4.194,4.194,0,0,1-.017,1.172,5.109,5.109,0,0,1-.3,1.145,3.663,3.663,0,0,1-.608,1.034,2.1,2.1,0,0,1-1.027.656l-.472.128.361-.33a2.489,2.489,0,0,0,.654-1.091A5.4,5.4,0,0,0,152.884,177.316Z" transform="translate(-151.65 -175.918)" fill="#633e00"/>
        </g>
        <g id="Group_5114" data-name="Group 5114" transform="translate(1.987 14.186)">
          <path id="Path_14304" data-name="Path 14304" d="M144.62,151.042a11.016,11.016,0,0,0-.128,1.789,4.242,4.242,0,0,0,.363,1.7,2.892,2.892,0,0,0,.464.727,1.318,1.318,0,0,1,.323.9,3.408,3.408,0,0,1-.559,1.733,5.289,5.289,0,0,0,.271-.856,2.792,2.792,0,0,0,.086-.868,1.2,1.2,0,0,0-.3-.752,3.122,3.122,0,0,1-.525-.777,4.13,4.13,0,0,1-.326-1.814A6.675,6.675,0,0,1,144.62,151.042Z" transform="translate(-144.289 -151.042)" fill="#633e00"/>
        </g>
        <g id="Group_5115" data-name="Group 5115" transform="translate(1.191 24.63)">
          <path id="Path_14305" data-name="Path 14305" d="M143.175,173.6a3.931,3.931,0,0,0-.406,1.725,2.328,2.328,0,0,0,1,1.374c.231.194.474.378.708.586a1.587,1.587,0,0,1,.545.792,2.775,2.775,0,0,1-.4,1.8,7.023,7.023,0,0,0,.224-.882,1.71,1.71,0,0,0-.018-.861c-.181-.535-.761-.842-1.226-1.233a4.411,4.411,0,0,1-.664-.666,1.653,1.653,0,0,1-.368-.889A3.261,3.261,0,0,1,143.175,173.6Z" transform="translate(-142.568 -173.604)" fill="#633e00"/>
        </g>
        <g id="Group_5116" data-name="Group 5116" transform="translate(35.675 25.932)">
          <path id="Path_14306" data-name="Path 14306" d="M217.392,176.417a3.411,3.411,0,0,0-.1,1.157,7.659,7.659,0,0,0,.218,1.142,3.921,3.921,0,0,1,.155,1.2,1.561,1.561,0,0,1-.175.6c-.061.085-.124.167-.187.245s-.152.134-.229.2a1.493,1.493,0,0,0,.39-1.047,5.714,5.714,0,0,0-.208-1.135,4.747,4.747,0,0,1-.163-1.2A2.392,2.392,0,0,1,217.392,176.417Z" transform="translate(-217.068 -176.417)" fill="#633e00"/>
        </g>
        <g id="Group_5117" data-name="Group 5117" transform="translate(35.709 16.052)">
          <path id="Path_14307" data-name="Path 14307" d="M217.355,155.072a4.205,4.205,0,0,0,.008,1.515,10.979,10.979,0,0,0,.44,1.457,8.087,8.087,0,0,1,.4,1.507,4.544,4.544,0,0,1-.033,1.555,7.1,7.1,0,0,0-.165-1.519,13.654,13.654,0,0,0-.448-1.458,7.172,7.172,0,0,1-.391-1.512A3.212,3.212,0,0,1,217.355,155.072Z" transform="translate(-217.142 -155.072)" fill="#633e00"/>
        </g>
      </g>
    </g>
  </g>
</svg>
