<svg xmlns="http://www.w3.org/2000/svg" width="48" height="48" viewBox="0 0 48 48">
  <g id="الشب_التالت" data-name="الشب التالت" transform="translate(-7308 -4528)">
    <rect id="Rectangle_6495" data-name="Rectangle 6495" width="48" height="48" rx="8" transform="translate(7308 4528)" fill="#e1c49d"/>
    <g id="Group_5866" data-name="Group 5866" transform="translate(7204.075 4503.605)">
      <path id="Path_12894" data-name="Path 12894" d="M77.708,76.386V60.425h15v15.96C92.8,76.406,77.755,76.532,77.708,76.386Z" transform="translate(42.874 -4.061)" fill="#f3a396"/>
      <path id="Path_12895" data-name="Path 12895" d="M77.708,65.926s4.127,7.67,8.843,7.294c7.29-.58,6.082-9.615,6.082-9.615s-2.828,6.026-7.3,6.031A9.782,9.782,0,0,1,77.708,65.926Z" transform="translate(42.874 -4.49)" fill="#d26665"/>
      <path id="Path_12896" data-name="Path 12896" d="M73.3,51.686,72.554,44.1c-.963-4.85,2.821-7.414,6.128-7.414H90.142c3.509,0,7.689,2.545,5.909,8.01l-1.023,8.266Z" transform="translate(43.59 -0.856)" fill="#1a1a1a"/>
      <path id="Path_12897" data-name="Path 12897" d="M97.632,57.539c2.271,1.676,6.2-5.95,3.987-7.757s-3.676,1.506-3.676,1.506l-.055,2.8-.325,2.627-.125.809Z" transform="translate(40.21 -2.551)" fill="#f3a396"/>
      <path id="Path_12898" data-name="Path 12898" d="M101.124,52.516s-1.646-.549-2.815,1.874" transform="translate(40.092 -2.986)" fill="none" stroke="#d26665" stroke-linecap="round" stroke-linejoin="round" stroke-width="0.521"/>
      <path id="Path_12899" data-name="Path 12899" d="M99.233,53.32s1.791.958.608,2.4" transform="translate(39.967 -3.102)" fill="none" stroke="#d26665" stroke-linecap="round" stroke-linejoin="round" stroke-width="0.521"/>
      <path id="Path_12900" data-name="Path 12900" d="M74.008,57.54c-2.271,1.676-6.2-5.95-3.987-7.757s3.6,1.54,3.6,1.54l.129,2.77.324,2.627.125.809Z" transform="translate(44 -2.552)" fill="#f3a396"/>
      <path id="Path_12901" data-name="Path 12901" d="M70.832,52.516s1.646-.549,2.815,1.874" transform="translate(43.802 -2.986)" fill="none" stroke="#d26665" stroke-linecap="round" stroke-linejoin="round" stroke-width="0.521"/>
      <path id="Path_12902" data-name="Path 12902" d="M73,53.32s-1.791.958-.608,2.4" transform="translate(43.646 -3.102)" fill="none" stroke="#d26665" stroke-linecap="round" stroke-linejoin="round" stroke-width="0.521"/>
      <path id="Path_12903" data-name="Path 12903" d="M95.206,45.63a55.758,55.758,0,0,1-1.255,11.694,11.059,11.059,0,0,1-4.782,6.9l-.445.291a7.966,7.966,0,0,1-8.542.1h0a11.044,11.044,0,0,1-5.066-7.332,81.627,81.627,0,0,1-1.15-11.652S72.981,33.7,84.435,33.936,95.206,45.63,95.206,45.63Z" transform="translate(43.382 -0.484)" fill="#f3a396"/>
      <path id="Path_12904" data-name="Path 12904" d="M95.342,31.635c-3.64-2.574-10.83-.773-14.75,1.022.082-1.17-.638-1.042-.638-1.042C73.06,33.467,74.869,38.9,74.869,38.9l.067.033c-.721,1.563-1.656,4.893-.772,10.922,0,0,1.828-6.523,1.878-10.413,3.058,1.348,11.441,4.627,16.908,2.793a59.843,59.843,0,0,0,1.974,7.62,24.6,24.6,0,0,0-.056-8.579,6.393,6.393,0,0,0,.947-.8S100.5,35.283,95.342,31.635Z" transform="translate(43.401 0)" fill="#1a1a1a"/>
      <path id="Path_12905" data-name="Path 12905" d="M85.091,52.734v3.847a.992.992,0,0,0,.07.367.971.971,0,0,0,1.157.537l1-.266" transform="translate(41.877 -3.022)" fill="none" stroke="#d26665" stroke-linecap="round" stroke-linejoin="round" stroke-width="0.521"/>
      <circle id="Ellipse_1245" data-name="Ellipse 1245" cx="0.995" cy="0.995" r="0.995" transform="translate(122.156 47.644)" fill="#1a1a1a"/>
      <circle id="Ellipse_1246" data-name="Ellipse 1246" cx="0.995" cy="0.995" r="0.995" transform="translate(131.365 47.644)" fill="#1a1a1a"/>
      <line id="Line_387" data-name="Line 387" x1="2.473" y2="1.632" transform="translate(122.481 49.727)" fill="none" stroke="#d26665" stroke-linecap="round" stroke-linejoin="round" stroke-width="0.391"/>
      <line id="Line_388" data-name="Line 388" x2="2.188" y2="1.649" transform="translate(130.793 49.719)" fill="none" stroke="#d26665" stroke-linecap="round" stroke-linejoin="round" stroke-width="0.391"/>
      <path id="Path_12906" data-name="Path 12906" d="M82.864,60.425A4.786,4.786,0,0,0,85.606,61a6.95,6.95,0,0,0,2.935-.579" transform="translate(42.177 -4.061)" fill="none" stroke="#d26665" stroke-linecap="round" stroke-linejoin="round" stroke-width="0.521"/>
      <line id="Line_389" data-name="Line 389" y2="1.076" transform="translate(127.865 61.725)" fill="none" stroke="#d26665" stroke-linecap="round" stroke-linejoin="round" stroke-width="0.391"/>
      <path id="Path_12907" data-name="Path 12907" d="M82.623,48.553l.037-1.939-3.6.065a1.985,1.985,0,0,0-1.24.464l-1.432,1.649,2.382-.355Z" transform="translate(43.051 -2.196)" fill="#1a1a1a"/>
      <path id="Path_12908" data-name="Path 12908" d="M88.458,48.553l-.037-1.939,3.6.065a1.983,1.983,0,0,1,1.239.464l1.432,1.649-2.382-.355Z" transform="translate(41.427 -2.196)" fill="#1a1a1a"/>
      <path id="Path_12909" data-name="Path 12909" d="M95.985,52a4.3,4.3,0,1,1-4.3-4.3A4.3,4.3,0,0,1,95.985,52Z" transform="translate(41.568 -2.342)" fill="#fff" opacity="0.19"/>
      <path id="Path_12910" data-name="Path 12910" d="M83.761,52a4.3,4.3,0,1,1-4.3-4.3A4.3,4.3,0,0,1,83.761,52Z" transform="translate(43.219 -2.342)" fill="#fff" opacity="0.19"/>
      <path id="Path_12911" data-name="Path 12911" d="M83.761,52a4.3,4.3,0,1,1-4.3-4.3A4.3,4.3,0,0,1,83.761,52Z" transform="translate(43.219 -2.342)" fill="none" stroke="#1a1a1a" stroke-linecap="round" stroke-linejoin="round" stroke-width="0.331"/>
      <path id="Path_12912" data-name="Path 12912" d="M95.985,52a4.3,4.3,0,1,1-4.3-4.3A4.3,4.3,0,0,1,95.985,52Z" transform="translate(41.568 -2.342)" fill="none" stroke="#1a1a1a" stroke-linecap="round" stroke-linejoin="round" stroke-width="0.331"/>
      <path id="Path_12913" data-name="Path 12913" d="M85.1,52.607a1.4,1.4,0,0,1,1.965,0" transform="translate(41.875 -2.948)" fill="none" stroke="#1a1a1a" stroke-linecap="round" stroke-linejoin="round" stroke-width="0.331"/>
      <line id="Line_390" data-name="Line 390" x1="0.715" transform="translate(117.657 49.659)" fill="none" stroke="#1a1a1a" stroke-width="0.331"/>
      <line id="Line_391" data-name="Line 391" x1="0.715" transform="translate(137.684 49.659)" fill="none" stroke="#1a1a1a" stroke-width="0.331"/>
    </g>
  </g>
</svg>
