<svg xmlns="http://www.w3.org/2000/svg" xmlns:xlink="http://www.w3.org/1999/xlink" width="343" height="90" viewBox="0 0 343 90">
  <defs>
    <clipPath id="clip-path">
      <rect id="Rectangle_6582" data-name="Rectangle 6582" width="343" height="90" rx="9" transform="translate(16 90)" fill="#fff" stroke="#cacaca" stroke-width="2"/>
    </clipPath>
    <filter id="Rectangle_6581" x="0" y="0" width="343" height="90" filterUnits="userSpaceOnUse">
      <feOffset input="SourceAlpha"/>
      <feGaussianBlur stdDeviation="4" result="blur"/>
      <feFlood flood-opacity="0.451" result="color"/>
      <feComposite operator="out" in="SourceGraphic" in2="blur"/>
      <feComposite operator="in" in="color"/>
      <feComposite operator="in" in2="SourceGraphic"/>
    </filter>
  </defs>
  <g id="Mask_Group_3" data-name="Mask Group 3" transform="translate(-16 -90)" clip-path="url(#clip-path)">
    <g data-type="innerShadowGroup">
      <rect id="Rectangle_6581-2" data-name="Rectangle 6581" width="343" height="90" rx="9" transform="translate(16 90)" fill="#fff"/>
      <g transform="matrix(1, 0, 0, 1, 16, 90)" filter="url(#Rectangle_6581)">
        <rect id="Rectangle_6581-3" data-name="Rectangle 6581" width="343" height="90" rx="9" fill="#fff"/>
      </g>
      <g id="Rectangle_6581-4" data-name="Rectangle 6581" transform="translate(16 90)" fill="none" stroke="#cacaca" stroke-width="2">
        <rect width="343" height="90" rx="9" stroke="none"/>
        <rect x="1" y="1" width="341" height="88" rx="8" fill="none"/>
      </g>
    </g>
    <ellipse id="Ellipse_1423" data-name="Ellipse 1423" cx="27.5" cy="23.5" rx="27.5" ry="23.5" transform="translate(29 74)" fill="#ff5c98" opacity="0.7"/>
    <ellipse id="Ellipse_1424" data-name="Ellipse 1424" cx="27.5" cy="24" rx="27.5" ry="24" transform="translate(304 145)" fill="#5583ff" opacity="0.85"/>
    <path id="Path_9391" data-name="Path 9391" d="M39.53,138.689l-1.089-.149c-9.618-1.081-18.879-2.219-27.981-5.621-9.077-3.93-13.811-9.548-14.467-17.2a26.282,26.282,0,0,1,.079-4.008,24.678,24.678,0,0,1,8.8-16.935A122.573,122.573,0,0,1,26.155,79.752,131.567,131.567,0,0,0,52.336,60.721a43.773,43.773,0,0,0,8.672-12.292A36.8,36.8,0,0,0,64.357,33.01c-.481-10.845-5.036-20.7-12.243-26.706-.887-.773-11.067-6.61-10.421-7.787s11.761,2.76,12.736,3.372C63.3,7.006,68.148,20.021,68.66,32.517a.4.4,0,0,0,0,.108C68.49,44.923,63.4,56.8,54.986,64.533A135.649,135.649,0,0,1,27.867,84.32,120.053,120.053,0,0,0,7.415,98.692a25.889,25.889,0,0,0-5.685,7.619A16.851,16.851,0,0,0,.265,111.8a16.3,16.3,0,0,0,0,2.995,12.238,12.238,0,0,0,3.381,7.6,24.44,24.44,0,0,0,8.511,5.616c8.836,3.238,18.545,4.149,27.86,5.221,1.109.158,1.294,2.592,1.16,3.949s-.529,1.476-1.656,1.508Z" transform="translate(301.78 205.812) rotate(-106)" fill="#9463cf"/>
    <path id="Path_9391-2" data-name="Path 9391" d="M1.84,63.085A118.262,118.262,0,0,1,20.3,52.963a125.884,125.884,0,0,0,22.729-12.8,32.942,32.942,0,0,0,7.705-8.112,20.268,20.268,0,0,0,3.292-10.031A20.28,20.28,0,0,0,44.451,4.989C43.724,4.506,35.278.929,35.86.156s9.875,1.558,10.682,1.935C53.9,5.228,57.619,13.548,57.683,21.615a.2.2,0,0,0-.006.07c-.505,7.952-5.165,15.729-12.518,20.888A129.652,129.652,0,0,1,21.614,55.883a115.992,115.992,0,0,0-17.74,9.683C1.879,66.953-2.47,65.709,1.84,63.085Z" transform="translate(48.434 79.246) rotate(59)" fill="#9463cf"/>
    <path id="Path_15704" data-name="Path 15704" d="M192.97,276.73c0,2.6.08,5.055,4.37,5.636-4.54-.052-4.19,2.419-4.41,5.523-.13-3.1-.44-5.324-4-5.471C192.61,281.889,192.51,280.432,192.97,276.73Z" transform="translate(-159.349 -174.479)" fill="#455a64"/>
    <path id="Path_15707" data-name="Path 15707" d="M151.2,298.19c0,2.575.076,5.057,4.366,5.632-4.534-.053-4.191,2.422-4.412,5.527-.122-3.1-.916-5.434-4.45-5.579C150.356,303.247,150.753,301.883,151.2,298.19Z" transform="translate(-57.935 -195.939)" fill="#ba68c8" opacity="0.76"/>
    <path id="Path_15726" data-name="Path 15726" d="M192.97,276.73c0,2.6.08,5.055,4.37,5.636-4.54-.052-4.19,2.419-4.41,5.523-.13-3.1-.44-5.324-4-5.471C192.61,281.889,192.51,280.432,192.97,276.73Z" transform="translate(-159.349 -174.479)" fill="#455a64"/>
    <path id="Path_15727" data-name="Path 15727" d="M151.035,298.19c0,2.482.074,4.875,4.21,5.43-4.371-.051-4.04,2.335-4.254,5.328-.118-2.993-.883-5.239-4.29-5.379C150.225,303.065,150.608,301.751,151.035,298.19Z" transform="translate(-66.479 -154.088)" fill="#ba68c8" opacity="0.76"/>
    <path id="Path_15728" data-name="Path 15728" d="M175.423,343.651c0-1.618.051-3.091,2.772-3.46-2.875.032-2.66-1.655-2.8-3.642-.075,1.971-.425,3.642-2.665,3.751C175.049,340.653,175.133,341.308,175.423,343.651Z" transform="translate(-127.127 -178.374)" fill="#a3a3a3"/>
    <path id="Path_15729" data-name="Path 15729" d="M192.97,287.889c0-2.6.08-5.055,4.37-5.636-4.54.052-4.19-2.419-4.41-5.523-.13,3.1-.44,5.324-4,5.471C192.61,282.73,192.51,284.187,192.97,287.889Z" transform="translate(123.201 -116.82)" fill="#455a64"/>
    <path id="Path_15730" data-name="Path 15730" d="M152.59,312.808c0-3.373.1-6.624,5.72-7.379-5.94.069-5.49-3.173-5.78-7.24-.16,4.066-1.2,7.118-5.83,7.309C151.49,306.184,152.01,307.97,152.59,312.808Z" transform="translate(116.911 -199.84)" fill="#ba68c8" opacity="0.76"/>
    <path id="Path_15731" data-name="Path 15731" d="M178.5,336.55c0,3.468.11,6.624,5.94,7.413-6.16-.069-5.7,3.546-6,7.8-.16-4.223-.91-7.8-5.71-8.038C177.7,342.975,177.88,341.57,178.5,336.55Z" transform="translate(137.751 -238.356)" fill="#a3a3a3"/>
    <path id="Path_15732" data-name="Path 15732" d="M175.423,343.651c0-1.618.051-3.091,2.772-3.46-2.875.032-2.66-1.655-2.8-3.642-.075,1.971-.425,3.642-2.665,3.751C175.049,340.653,175.133,341.308,175.423,343.651Z" transform="translate(2.873 -174.611)" fill="#a3a3a3"/>
    <path id="Path_15733" data-name="Path 15733" d="M175.423,343.651c0-1.618.051-3.091,2.772-3.46-2.875.032-2.66-1.655-2.8-3.642-.075,1.971-.425,3.642-2.665,3.751C175.049,340.653,175.133,341.308,175.423,343.651Z" transform="translate(63.873 -238.2)" fill="#a3a3a3"/>
    <path id="Path_15734" data-name="Path 15734" d="M175.423,343.651c0-1.618.051-3.091,2.772-3.46-2.875.032-2.66-1.655-2.8-3.642-.075,1.971-.425,3.642-2.665,3.751C175.049,340.653,175.133,341.308,175.423,343.651Z" transform="translate(85.416 -169.031)" fill="#a3a3a3"/>
    <path id="Path_15735" data-name="Path 15735" d="M175.423,343.651c0-1.618.051-3.091,2.772-3.46-2.875.032-2.66-1.655-2.8-3.642-.075,1.971-.425,3.642-2.665,3.751C175.049,340.653,175.133,341.308,175.423,343.651Z" transform="translate(-29.127 -234.65)" fill="#a3a3a3"/>
    <path id="Path_15736" data-name="Path 15736" d="M25.463,16.95C60.1,14.5,53.34-13.965,52.332.143S38.958,26.5,24.709,27.511-.274,17.9.733,3.79-9.175,19.4,25.463,16.95Z" transform="translate(71.27 150.373) rotate(43)" fill="#f9cc3b" opacity="0.85"/>
    <path id="Path_15737" data-name="Path 15737" d="M27.563,12.455C62.2,14.9,55.439,43.371,54.432,29.263S41.057,2.9,26.809,1.895,1.826,11.508,2.833,25.616-7.076,10.007,27.563,12.455Z" transform="translate(272.306 99.167) rotate(-43)" fill="#f9cc3b" opacity="0.85"/>
  </g>
</svg>
