<svg xmlns="http://www.w3.org/2000/svg" width="21.19" height="23.589" viewBox="0 0 21.19 23.589">
  <path id="hourglass-start-svgrepo-com" d="M17.193,6.6H10M23.19,24.589h-1.2m0,0H5.2m16.791,0A9.323,9.323,0,0,0,18.087,17l-4.492-3.208M5.2,24.589H4m1.2,0A9.323,9.323,0,0,1,9.1,17l4.492-3.208M23.19,3h-1.2m0,0H5.2M21.99,3a9.322,9.322,0,0,1-3.9,7.586l-4.492,3.208M5.2,3H4M5.2,3a9.322,9.322,0,0,0,3.9,7.586l4.492,3.208" transform="translate(-3 -2)" fill="none" stroke="#e84941" stroke-linecap="round" stroke-linejoin="round" stroke-width="2"/>
</svg>
