<svg xmlns="http://www.w3.org/2000/svg" width="24.484" height="24.13" viewBox="0 0 24.484 24.13">
  <g id="wrong-mark-svgrepo-com" transform="translate(0 -0.061)">
    <path id="Path_15983" data-name="Path 15983" d="M10.177,5.269c.145-.1.3-.2.437-.3,1.034-.7.434-2.253-.779-1.434-.324.223-.7.487-1.08.77C5.734,2.274,3.22.745,2.3.171S-.027,1.35.851,1.886c1.946,1.2,4.029,2.47,6.117,3.8C2.566,9.3-2.847,15.33,1.755,19.912c3.142,3.131,7.9,3.733,12.109,4.116,2.963.275,6.586.411,9.152-1.344C28.316,19.066,18.162,10.783,10.177,5.269ZM7.3,20.679c-9.1-2.9-3.887-9.908,1.124-14.058C10.049,7.69,11.148,8.3,12.695,9.483c-.672,1.234-.714,1.928-1.5,3.82.053-.023-.567,1.546-.581,1.607C9.913,16.5,9.026,19.467,9,19.522a8.133,8.133,0,0,0,.836.792c.038-.055,1.043-2.814,1.6-4.088a9.635,9.635,0,0,0,.681-1.555c.617-1.35,1.271-2.688,1.975-4A35.184,35.184,0,0,1,21.675,18.5C25.7,24.525,9.212,21.29,7.3,20.679Z" transform="translate(0)" fill="#71e758"/>
    <path id="Path_15984" data-name="Path 15984" d="M6.706,16.437l2.241,2.58" transform="matrix(0.999, -0.035, 0.035, 0.999, -0.168, 0.283)" fill="none" stroke="#71e758" stroke-linecap="round" stroke-width="1.4"/>
  </g>
</svg>
