<svg id="tasks-2" xmlns="http://www.w3.org/2000/svg" width="19" height="19" viewBox="0 0 19 19">
  <path id="Path_12043" data-name="Path 12043" d="M15.839,4.5H7.871A3.374,3.374,0,0,0,4.5,7.871v7.968A3.374,3.374,0,0,0,7.871,19.21h7.968a3.374,3.374,0,0,0,3.371-3.371V7.871A3.374,3.374,0,0,0,15.839,4.5Z" transform="translate(-0.21 -0.21)" fill="#eee611"/>
  <path id="Path_12044" data-name="Path 12044" d="M4.146,4.118l8.487-1.262a1.524,1.524,0,0,1,1.548.75.919.919,0,1,0,1.59-.923,3.348,3.348,0,0,0-3.408-1.645L3.877,2.3a3.368,3.368,0,0,0-2.84,3.829l1.2,8.067a.92.92,0,0,0,.909.784.867.867,0,0,0,.136-.01.92.92,0,0,0,.774-1.044l-1.2-8.066A1.532,1.532,0,0,1,4.146,4.118Z" transform="translate(-1 -1)" fill="#eee611"/>
  <g id="magnifier" transform="translate(7.609 7.695)">
    <path id="Path_15445" data-name="Path 15445" d="M7.873,10.746a2.873,2.873,0,1,1,2.873-2.873A2.873,2.873,0,0,1,7.873,10.746Z" transform="translate(-2.51 -5)" fill="none" stroke="#fff" stroke-linecap="round" stroke-linejoin="round" stroke-width="1"/>
    <path id="Path_15446" data-name="Path 15446" d="M27.974,27.192l-.782.782" transform="translate(-24.642 -22.287)" fill="none" stroke="#fff" stroke-linecap="round" stroke-linejoin="round" stroke-width="1"/>
    <path id="Path_15447" data-name="Path 15447" d="M32.7,30.15S30.121,32.7,30.15,32.7,32.7,30.148,32.7,30.15Z" transform="translate(-30.149 -24.463)" fill="none" stroke="#fff" stroke-linecap="round" stroke-linejoin="round" stroke-width="1"/>
  </g>
</svg>
