<svg xmlns="http://www.w3.org/2000/svg" width="11.428" height="11.428" viewBox="0 0 11.428 11.428">
  <path id="verified-svgrepo-com" d="M11.393,4.777a2.331,2.331,0,0,1,0,3.875,2.329,2.329,0,0,1-2.739,2.74,2.332,2.332,0,0,1-3.878,0A2.323,2.323,0,0,1,2.04,8.652,2.39,2.39,0,0,1,1,6.714,2.39,2.39,0,0,1,2.04,4.777a2.378,2.378,0,0,1,.633-2.1A2.389,2.389,0,0,1,4.78,2.035a2.328,2.328,0,0,1,3.873,0,2.33,2.33,0,0,1,2.74,2.741Zm-2.3-.044a.519.519,0,0,1,.121.725l-2.6,3.636a.519.519,0,0,1-.79.065L4.269,7.6A.519.519,0,1,1,5,6.866L6.128,7.991,8.369,4.853A.519.519,0,0,1,9.094,4.733Z" transform="translate(-1 -1)" fill="#5583ff" fill-rule="evenodd"/>
</svg>
